<svg width="1075" height="359" viewBox="0 0 1075 359" fill="none" xmlns="http://www.w3.org/2000/svg">
<rect x="0.5" y="0.5" width="876" height="358" fill="#F9F3F3" stroke="black"/>
<path d="M660.934 27.3213C660.5 27.9424 659.894 28.4082 659.114 28.7188C658.341 29.0234 657.438 29.1758 656.407 29.1758C655.364 29.1758 654.438 28.9326 653.63 28.4463C652.821 27.9541 652.194 27.2568 651.749 26.3545C651.31 25.4521 651.084 24.4062 651.072 23.2168V22.1006C651.072 20.1729 651.521 18.6787 652.417 17.6182C653.319 16.5576 654.585 16.0273 656.214 16.0273C657.55 16.0273 658.625 16.3701 659.439 17.0557C660.254 17.7354 660.752 18.7021 660.934 19.9561H659.246C658.93 18.2627 657.922 17.416 656.223 17.416C655.092 17.416 654.233 17.8145 653.647 18.6113C653.067 19.4023 652.774 20.5508 652.769 22.0566V23.1025C652.769 24.5381 653.097 25.6807 653.753 26.5303C654.409 27.374 655.297 27.7959 656.416 27.7959C657.049 27.7959 657.603 27.7256 658.077 27.585C658.552 27.4443 658.944 27.207 659.255 26.873V23.999H656.293V22.6279H660.934V27.3213ZM665.267 29H663.641V15.5H665.267V29ZM667.446 24.1572C667.446 23.2256 667.628 22.3877 667.991 21.6436C668.36 20.8994 668.87 20.3252 669.521 19.9209C670.177 19.5166 670.924 19.3145 671.762 19.3145C673.057 19.3145 674.103 19.7627 674.899 20.6592C675.702 21.5557 676.104 22.748 676.104 24.2363V24.3506C676.104 25.2764 675.925 26.1084 675.567 26.8467C675.216 27.5791 674.709 28.1504 674.047 28.5605C673.391 28.9707 672.635 29.1758 671.779 29.1758C670.49 29.1758 669.444 28.7275 668.642 27.8311C667.845 26.9346 667.446 25.748 667.446 24.2715V24.1572ZM669.081 24.3506C669.081 25.4053 669.324 26.252 669.811 26.8906C670.303 27.5293 670.959 27.8486 671.779 27.8486C672.605 27.8486 673.262 27.5264 673.748 26.8818C674.234 26.2314 674.478 25.3232 674.478 24.1572C674.478 23.1143 674.229 22.2705 673.73 21.626C673.238 20.9756 672.582 20.6504 671.762 20.6504C670.959 20.6504 670.312 20.9697 669.819 21.6084C669.327 22.2471 669.081 23.1611 669.081 24.3506ZM686.193 24.3506C686.193 25.8037 685.859 26.9727 685.191 27.8574C684.523 28.7363 683.627 29.1758 682.502 29.1758C681.301 29.1758 680.372 28.751 679.716 27.9014L679.637 29H678.143V15.5H679.769V20.5361C680.425 19.7217 681.33 19.3145 682.484 19.3145C683.639 19.3145 684.544 19.751 685.2 20.624C685.862 21.4971 686.193 22.6924 686.193 24.21V24.3506ZM684.567 24.166C684.567 23.0586 684.354 22.2031 683.926 21.5996C683.498 20.9961 682.883 20.6943 682.08 20.6943C681.008 20.6943 680.237 21.1924 679.769 22.1885V26.3018C680.267 27.2979 681.043 27.7959 682.098 27.7959C682.877 27.7959 683.483 27.4941 683.917 26.8906C684.351 26.2871 684.567 25.3789 684.567 24.166ZM694.121 29C694.027 28.8125 693.951 28.4785 693.893 27.998C693.137 28.7832 692.234 29.1758 691.186 29.1758C690.248 29.1758 689.478 28.9121 688.874 28.3848C688.276 27.8516 687.978 27.1777 687.978 26.3633C687.978 25.373 688.353 24.6055 689.103 24.0605C689.858 23.5098 690.919 23.2344 692.284 23.2344H693.866V22.4873C693.866 21.9189 693.696 21.4678 693.356 21.1338C693.017 20.7939 692.516 20.624 691.854 20.624C691.273 20.624 690.787 20.7705 690.395 21.0635C690.002 21.3564 689.806 21.7109 689.806 22.127H688.171C688.171 21.6523 688.338 21.1953 688.672 20.7559C689.012 20.3105 689.469 19.959 690.043 19.7012C690.623 19.4434 691.259 19.3145 691.95 19.3145C693.046 19.3145 693.904 19.5898 694.525 20.1406C695.146 20.6855 695.469 21.4385 695.492 22.3994V26.7764C695.492 27.6494 695.604 28.3438 695.826 28.8594V29H694.121ZM691.423 27.7607C691.933 27.7607 692.416 27.6289 692.873 27.3652C693.33 27.1016 693.661 26.7588 693.866 26.3369V24.3857H692.592C690.6 24.3857 689.604 24.9688 689.604 26.1348C689.604 26.6445 689.773 27.043 690.113 27.3301C690.453 27.6172 690.89 27.7607 691.423 27.7607ZM699.808 29H698.182V15.5H699.808V29ZM713.782 16.2031L717.966 26.6445L722.149 16.2031H724.338V29H722.65V24.0166L722.809 18.6377L718.607 29H717.315L713.123 18.6641L713.29 24.0166V29H711.603V16.2031H713.782ZM731.009 29.1758C729.72 29.1758 728.671 28.7539 727.862 27.9102C727.054 27.0605 726.649 25.9268 726.649 24.5088V24.21C726.649 23.2666 726.828 22.4258 727.186 21.6875C727.549 20.9434 728.053 20.3633 728.697 19.9473C729.348 19.5254 730.051 19.3145 730.807 19.3145C732.043 19.3145 733.004 19.7217 733.689 20.5361C734.375 21.3506 734.718 22.5166 734.718 24.0342V24.7109H728.275C728.299 25.6484 728.571 26.4072 729.093 26.9873C729.62 27.5615 730.288 27.8486 731.097 27.8486C731.671 27.8486 732.157 27.7314 732.556 27.4971C732.954 27.2627 733.303 26.9521 733.602 26.5654L734.595 27.3389C733.798 28.5635 732.603 29.1758 731.009 29.1758ZM730.807 20.6504C730.15 20.6504 729.6 20.8906 729.154 21.3711C728.709 21.8457 728.434 22.5137 728.328 23.375H733.092V23.252C733.045 22.4258 732.822 21.7871 732.424 21.3359C732.025 20.8789 731.486 20.6504 730.807 20.6504ZM738.137 19.4902L738.181 20.5449C738.878 19.7246 739.818 19.3145 741.002 19.3145C742.332 19.3145 743.237 19.8242 743.718 20.8438C744.034 20.3867 744.444 20.0176 744.948 19.7363C745.458 19.4551 746.059 19.3145 746.75 19.3145C748.836 19.3145 749.896 20.4189 749.932 22.6279V29H748.306V22.7246C748.306 22.0449 748.15 21.5381 747.84 21.2041C747.529 20.8643 747.008 20.6943 746.275 20.6943C745.672 20.6943 745.171 20.876 744.772 21.2393C744.374 21.5967 744.143 22.0801 744.078 22.6895V29H742.443V22.7686C742.443 21.3857 741.767 20.6943 740.413 20.6943C739.347 20.6943 738.617 21.1484 738.225 22.0566V29H736.599V19.4902H738.137ZM751.962 24.1572C751.962 23.2256 752.144 22.3877 752.507 21.6436C752.876 20.8994 753.386 20.3252 754.036 19.9209C754.692 19.5166 755.439 19.3145 756.277 19.3145C757.572 19.3145 758.618 19.7627 759.415 20.6592C760.218 21.5557 760.619 22.748 760.619 24.2363V24.3506C760.619 25.2764 760.44 26.1084 760.083 26.8467C759.731 27.5791 759.225 28.1504 758.562 28.5605C757.906 28.9707 757.15 29.1758 756.295 29.1758C755.006 29.1758 753.96 28.7275 753.157 27.8311C752.36 26.9346 751.962 25.748 751.962 24.2715V24.1572ZM753.597 24.3506C753.597 25.4053 753.84 26.252 754.326 26.8906C754.818 27.5293 755.475 27.8486 756.295 27.8486C757.121 27.8486 757.777 27.5264 758.264 26.8818C758.75 26.2314 758.993 25.3232 758.993 24.1572C758.993 23.1143 758.744 22.2705 758.246 21.626C757.754 20.9756 757.098 20.6504 756.277 20.6504C755.475 20.6504 754.827 20.9697 754.335 21.6084C753.843 22.2471 753.597 23.1611 753.597 24.3506ZM767.255 20.9492C767.009 20.9082 766.742 20.8877 766.455 20.8877C765.389 20.8877 764.665 21.3418 764.284 22.25V29H762.658V19.4902H764.24L764.267 20.5889C764.8 19.7393 765.556 19.3145 766.534 19.3145C766.851 19.3145 767.091 19.3555 767.255 19.4375V20.9492ZM772.027 26.6182L774.242 19.4902H775.982L772.159 30.4678C771.567 32.0498 770.627 32.8408 769.338 32.8408L769.03 32.8145L768.424 32.7002V31.3818L768.863 31.417C769.414 31.417 769.842 31.3057 770.146 31.083C770.457 30.8604 770.712 30.4531 770.911 29.8613L771.271 28.8945L767.879 19.4902H769.654L772.027 26.6182Z" fill="black"/>
<line x1="549.5" y1="0.997199" x2="551.5" y2="357.997" stroke="black"/>
<path d="M566.948 59.11C566.251 59.11 565.712 58.8863 565.331 58.439C564.95 57.9843 564.759 57.383 564.759 56.635V53.533C564.759 53.4597 564.781 53.401 564.825 53.357C564.876 53.3057 564.939 53.28 565.012 53.28H565.562C565.635 53.28 565.694 53.3057 565.738 53.357C565.789 53.401 565.815 53.4597 565.815 53.533V56.58C565.815 57.6727 566.292 58.219 567.245 58.219C567.707 58.219 568.074 58.076 568.345 57.79C568.616 57.4967 568.752 57.0933 568.752 56.58V53.533C568.752 53.4597 568.774 53.401 568.818 53.357C568.869 53.3057 568.932 53.28 569.005 53.28H569.555C569.628 53.28 569.687 53.3057 569.731 53.357C569.775 53.401 569.797 53.4597 569.797 53.533V58.747C569.797 58.8203 569.775 58.8827 569.731 58.934C569.687 58.978 569.628 59 569.555 59H569.038C568.965 59 568.902 58.978 568.851 58.934C568.807 58.8827 568.785 58.8203 568.785 58.747V58.263C568.58 58.5417 568.33 58.7543 568.037 58.901C567.744 59.0403 567.381 59.11 566.948 59.11ZM573.411 59.11C572.898 59.11 572.465 59.0293 572.113 58.868C571.769 58.6993 571.508 58.5087 571.332 58.296C571.164 58.0833 571.079 57.9073 571.079 57.768C571.079 57.6947 571.105 57.6397 571.156 57.603C571.215 57.559 571.274 57.537 571.332 57.537H571.827C571.901 57.537 571.967 57.5737 572.025 57.647C572.201 57.8523 572.392 58.0137 572.597 58.131C572.803 58.2483 573.078 58.307 573.422 58.307C573.804 58.307 574.112 58.2337 574.346 58.087C574.588 57.933 574.709 57.724 574.709 57.46C574.709 57.284 574.658 57.141 574.555 57.031C574.46 56.9137 574.291 56.8147 574.049 56.734C573.815 56.646 573.463 56.5507 572.993 56.448C572.355 56.3087 571.901 56.107 571.629 55.843C571.365 55.579 571.233 55.238 571.233 54.82C571.233 54.5413 571.314 54.2773 571.475 54.028C571.644 53.7713 571.886 53.566 572.201 53.412C572.524 53.2507 572.909 53.17 573.356 53.17C573.826 53.17 574.225 53.247 574.555 53.401C574.885 53.555 575.131 53.7383 575.292 53.951C575.461 54.1563 575.545 54.3287 575.545 54.468C575.545 54.534 575.52 54.589 575.468 54.633C575.424 54.677 575.369 54.699 575.303 54.699H574.841C574.753 54.699 574.68 54.6623 574.621 54.589C574.504 54.4497 574.401 54.3433 574.313 54.27C574.233 54.1893 574.112 54.1197 573.95 54.061C573.796 54.0023 573.598 53.973 573.356 53.973C573.004 53.973 572.733 54.05 572.542 54.204C572.352 54.3507 572.256 54.545 572.256 54.787C572.256 54.941 572.297 55.073 572.377 55.183C572.458 55.2857 572.612 55.381 572.839 55.469C573.074 55.557 573.411 55.6487 573.851 55.744C574.548 55.8907 575.039 56.1033 575.325 56.382C575.619 56.6533 575.765 57.0017 575.765 57.427C575.765 57.7423 575.674 58.0283 575.49 58.285C575.307 58.5417 575.036 58.7433 574.676 58.89C574.324 59.0367 573.903 59.11 573.411 59.11ZM579.327 59.11C578.571 59.11 577.966 58.879 577.512 58.417C577.064 57.9477 576.819 57.3097 576.775 56.503L576.764 56.129L576.775 55.766C576.826 54.974 577.075 54.3433 577.523 53.874C577.977 53.4047 578.575 53.17 579.316 53.17C580.13 53.17 580.76 53.4303 581.208 53.951C581.655 54.4643 581.879 55.161 581.879 56.041V56.228C581.879 56.3013 581.853 56.3637 581.802 56.415C581.758 56.459 581.699 56.481 581.626 56.481H577.82V56.58C577.842 57.0567 577.985 57.4637 578.249 57.801C578.52 58.131 578.876 58.296 579.316 58.296C579.653 58.296 579.928 58.23 580.141 58.098C580.361 57.9587 580.522 57.8157 580.625 57.669C580.691 57.581 580.738 57.5297 580.768 57.515C580.804 57.493 580.867 57.482 580.955 57.482H581.494C581.56 57.482 581.615 57.5003 581.659 57.537C581.703 57.5737 581.725 57.625 581.725 57.691C581.725 57.8523 581.622 58.0467 581.417 58.274C581.219 58.5013 580.936 58.6993 580.57 58.868C580.21 59.0293 579.796 59.11 579.327 59.11ZM580.834 55.722V55.689C580.834 55.183 580.694 54.7723 580.416 54.457C580.144 54.1343 579.778 53.973 579.316 53.973C578.854 53.973 578.487 54.1343 578.216 54.457C577.952 54.7723 577.82 55.183 577.82 55.689V55.722H580.834ZM583.447 59C583.374 59 583.311 58.978 583.26 58.934C583.216 58.8827 583.194 58.8203 583.194 58.747V53.544C583.194 53.4707 583.216 53.4083 583.26 53.357C583.311 53.3057 583.374 53.28 583.447 53.28H583.953C584.026 53.28 584.089 53.3057 584.14 53.357C584.191 53.4083 584.217 53.4707 584.217 53.544V54.028C584.518 53.5293 585.031 53.28 585.757 53.28H586.186C586.259 53.28 586.318 53.3057 586.362 53.357C586.413 53.401 586.439 53.4597 586.439 53.533V53.984C586.439 54.0573 586.413 54.116 586.362 54.16C586.318 54.204 586.259 54.226 586.186 54.226H585.526C585.13 54.226 584.818 54.3433 584.591 54.578C584.364 54.8053 584.25 55.117 584.25 55.513V58.747C584.25 58.8203 584.224 58.8827 584.173 58.934C584.122 58.978 584.059 59 583.986 59H583.447ZM590.288 59.11C589.305 59.11 588.557 58.846 588.044 58.318C587.538 57.79 587.266 57.0603 587.23 56.129C587.222 55.931 587.219 55.6083 587.219 55.161C587.219 54.7063 587.222 54.3763 587.23 54.171C587.266 53.247 587.541 52.521 588.055 51.993C588.568 51.4577 589.312 51.19 590.288 51.19C590.94 51.19 591.494 51.3073 591.949 51.542C592.403 51.7693 592.748 52.07 592.983 52.444C593.217 52.818 593.346 53.2177 593.368 53.643V53.665C593.368 53.7237 593.342 53.775 593.291 53.819C593.247 53.8557 593.195 53.874 593.137 53.874H592.532C592.385 53.874 592.293 53.7897 592.257 53.621C592.132 53.071 591.908 52.686 591.586 52.466C591.263 52.2387 590.83 52.125 590.288 52.125C589.026 52.125 588.374 52.8253 588.33 54.226C588.322 54.424 588.319 54.7283 588.319 55.139C588.319 55.5497 588.322 55.8613 588.33 56.074C588.374 57.4747 589.026 58.175 590.288 58.175C590.83 58.175 591.263 58.065 591.586 57.845C591.916 57.6177 592.139 57.229 592.257 56.679C592.279 56.5837 592.312 56.5177 592.356 56.481C592.4 56.4443 592.458 56.426 592.532 56.426H593.137C593.203 56.426 593.258 56.448 593.302 56.492C593.353 56.5287 593.375 56.58 593.368 56.646C593.346 57.0787 593.217 57.482 592.983 57.856C592.748 58.23 592.403 58.5343 591.949 58.769C591.494 58.9963 590.94 59.11 590.288 59.11ZM594.952 59C594.878 59 594.816 58.978 594.765 58.934C594.721 58.8827 594.699 58.8203 594.699 58.747V53.544C594.699 53.4707 594.721 53.4083 594.765 53.357C594.816 53.3057 594.878 53.28 594.952 53.28H595.458C595.531 53.28 595.593 53.3057 595.645 53.357C595.696 53.4083 595.722 53.4707 595.722 53.544V54.028C596.022 53.5293 596.536 53.28 597.262 53.28H597.691C597.764 53.28 597.823 53.3057 597.867 53.357C597.918 53.401 597.944 53.4597 597.944 53.533V53.984C597.944 54.0573 597.918 54.116 597.867 54.16C597.823 54.204 597.764 54.226 597.691 54.226H597.031C596.635 54.226 596.323 54.3433 596.096 54.578C595.868 54.8053 595.755 55.117 595.755 55.513V58.747C595.755 58.8203 595.729 58.8827 595.678 58.934C595.626 58.978 595.564 59 595.491 59H594.952ZM601.058 59.11C600.303 59.11 599.698 58.879 599.243 58.417C598.796 57.9477 598.55 57.3097 598.506 56.503L598.495 56.129L598.506 55.766C598.557 54.974 598.807 54.3433 599.254 53.874C599.709 53.4047 600.306 53.17 601.047 53.17C601.861 53.17 602.492 53.4303 602.939 53.951C603.386 54.4643 603.61 55.161 603.61 56.041V56.228C603.61 56.3013 603.584 56.3637 603.533 56.415C603.489 56.459 603.43 56.481 603.357 56.481H599.551V56.58C599.573 57.0567 599.716 57.4637 599.98 57.801C600.251 58.131 600.607 58.296 601.047 58.296C601.384 58.296 601.659 58.23 601.872 58.098C602.092 57.9587 602.253 57.8157 602.356 57.669C602.422 57.581 602.47 57.5297 602.499 57.515C602.536 57.493 602.598 57.482 602.686 57.482H603.225C603.291 57.482 603.346 57.5003 603.39 57.537C603.434 57.5737 603.456 57.625 603.456 57.691C603.456 57.8523 603.353 58.0467 603.148 58.274C602.95 58.5013 602.668 58.6993 602.301 58.868C601.942 59.0293 601.527 59.11 601.058 59.11ZM602.565 55.722V55.689C602.565 55.183 602.426 54.7723 602.147 54.457C601.876 54.1343 601.509 53.973 601.047 53.973C600.585 53.973 600.218 54.1343 599.947 54.457C599.683 54.7723 599.551 55.183 599.551 55.689V55.722H602.565ZM606.52 59.11C606.161 59.11 605.827 59.0367 605.519 58.89C605.211 58.7433 604.966 58.5453 604.782 58.296C604.606 58.0393 604.518 57.757 604.518 57.449C604.518 56.965 604.716 56.569 605.112 56.261C605.516 55.9457 606.058 55.7403 606.74 55.645L608.379 55.414V55.095C608.379 54.347 607.95 53.973 607.092 53.973C606.77 53.973 606.506 54.0427 606.3 54.182C606.095 54.314 605.941 54.4717 605.838 54.655C605.816 54.721 605.787 54.7687 605.75 54.798C605.721 54.8273 605.677 54.842 605.618 54.842H605.145C605.079 54.842 605.021 54.82 604.969 54.776C604.925 54.7247 604.903 54.666 604.903 54.6C604.911 54.424 604.991 54.226 605.145 54.006C605.307 53.7787 605.552 53.5843 605.882 53.423C606.212 53.2543 606.619 53.17 607.103 53.17C607.925 53.17 608.515 53.3643 608.874 53.753C609.234 54.1343 609.413 54.611 609.413 55.183V58.747C609.413 58.8203 609.388 58.8827 609.336 58.934C609.292 58.978 609.234 59 609.16 59H608.654C608.581 59 608.519 58.978 608.467 58.934C608.423 58.8827 608.401 58.8203 608.401 58.747V58.274C608.24 58.5087 608.005 58.7067 607.697 58.868C607.389 59.0293 606.997 59.11 606.52 59.11ZM606.751 58.285C607.228 58.285 607.617 58.131 607.917 57.823C608.225 57.5077 608.379 57.0567 608.379 56.47V56.162L607.103 56.349C606.583 56.4223 606.19 56.547 605.926 56.723C605.662 56.8917 605.53 57.108 605.53 57.372C605.53 57.6653 605.651 57.8927 605.893 58.054C606.135 58.208 606.421 58.285 606.751 58.285ZM613.174 59C612.015 59 611.436 58.3547 611.436 57.064V54.16H610.578C610.505 54.16 610.442 54.138 610.391 54.094C610.347 54.0427 610.325 53.9803 610.325 53.907V53.533C610.325 53.4597 610.347 53.401 610.391 53.357C610.442 53.3057 610.505 53.28 610.578 53.28H611.436V51.443C611.436 51.3697 611.458 51.311 611.502 51.267C611.553 51.2157 611.616 51.19 611.689 51.19H612.206C612.279 51.19 612.338 51.2157 612.382 51.267C612.433 51.311 612.459 51.3697 612.459 51.443V53.28H613.823C613.896 53.28 613.955 53.3057 613.999 53.357C614.05 53.401 614.076 53.4597 614.076 53.533V53.907C614.076 53.9803 614.05 54.0427 613.999 54.094C613.955 54.138 613.896 54.16 613.823 54.16H612.459V56.987C612.459 57.3537 612.521 57.6323 612.646 57.823C612.771 58.0063 612.976 58.098 613.262 58.098H613.933C614.006 58.098 614.065 58.1237 614.109 58.175C614.16 58.219 614.186 58.2777 614.186 58.351V58.747C614.186 58.8203 614.16 58.8827 614.109 58.934C614.065 58.978 614.006 59 613.933 59H613.174ZM617.581 59.11C616.774 59.11 616.147 58.8827 615.7 58.428C615.26 57.9733 615.025 57.3683 614.996 56.613L614.985 56.14L614.996 55.667C615.025 54.919 615.263 54.3177 615.711 53.863C616.158 53.401 616.781 53.17 617.581 53.17C618.38 53.17 619.003 53.401 619.451 53.863C619.898 54.3177 620.136 54.919 620.166 55.667C620.173 55.7477 620.177 55.9053 620.177 56.14C620.177 56.3747 620.173 56.5323 620.166 56.613C620.136 57.3683 619.898 57.9733 619.451 58.428C619.011 58.8827 618.387 59.11 617.581 59.11ZM617.581 58.263C618.043 58.263 618.406 58.1163 618.67 57.823C618.941 57.5297 619.088 57.108 619.11 56.558C619.117 56.4847 619.121 56.3453 619.121 56.14C619.121 55.9347 619.117 55.7953 619.11 55.722C619.088 55.172 618.941 54.7503 618.67 54.457C618.406 54.1637 618.043 54.017 617.581 54.017C617.119 54.017 616.752 54.1637 616.481 54.457C616.209 54.7503 616.066 55.172 616.052 55.722L616.041 56.14L616.052 56.558C616.066 57.108 616.209 57.5297 616.481 57.823C616.752 58.1163 617.119 58.263 617.581 58.263ZM621.807 59C621.734 59 621.672 58.978 621.62 58.934C621.576 58.8827 621.554 58.8203 621.554 58.747V53.544C621.554 53.4707 621.576 53.4083 621.62 53.357C621.672 53.3057 621.734 53.28 621.807 53.28H622.313C622.387 53.28 622.449 53.3057 622.5 53.357C622.552 53.4083 622.577 53.4707 622.577 53.544V54.028C622.878 53.5293 623.391 53.28 624.117 53.28H624.546C624.62 53.28 624.678 53.3057 624.722 53.357C624.774 53.401 624.799 53.4597 624.799 53.533V53.984C624.799 54.0573 624.774 54.116 624.722 54.16C624.678 54.204 624.62 54.226 624.546 54.226H623.886C623.49 54.226 623.179 54.3433 622.951 54.578C622.724 54.8053 622.61 55.117 622.61 55.513V58.747C622.61 58.8203 622.585 58.8827 622.533 58.934C622.482 58.978 622.42 59 622.346 59H621.807ZM628.12 60.749C627.489 60.749 626.983 60.5693 626.602 60.21C626.228 59.8507 625.957 59.297 625.788 58.549C625.627 57.801 625.546 56.8183 625.546 55.601C625.546 54.3837 625.627 53.401 625.788 52.653C625.957 51.905 626.228 51.355 626.602 51.003C626.983 50.6437 627.489 50.464 628.12 50.464C628.193 50.464 628.252 50.4897 628.296 50.541C628.347 50.585 628.373 50.6437 628.373 50.717V51.102C628.373 51.168 628.351 51.2267 628.307 51.278C628.263 51.3293 628.212 51.355 628.153 51.355C627.735 51.3623 627.409 51.5017 627.174 51.773C626.939 52.0443 626.771 52.4843 626.668 53.093C626.565 53.7017 626.514 54.5377 626.514 55.601C626.514 56.6643 626.565 57.5003 626.668 58.109C626.771 58.7177 626.939 59.1577 627.174 59.429C627.409 59.7077 627.735 59.8507 628.153 59.858C628.212 59.858 628.263 59.8837 628.307 59.935C628.351 59.9863 628.373 60.045 628.373 60.111V60.496C628.373 60.5693 628.347 60.628 628.296 60.672C628.252 60.7233 628.193 60.749 628.12 60.749ZM629.163 60.749C629.097 60.749 629.039 60.7233 628.987 60.672C628.936 60.628 628.91 60.5693 628.91 60.496V60.111C628.91 60.045 628.932 59.9863 628.976 59.935C629.028 59.8837 629.083 59.858 629.141 59.858C629.552 59.8507 629.875 59.7077 630.109 59.429C630.351 59.1577 630.524 58.7177 630.626 58.109C630.729 57.5003 630.78 56.6643 630.78 55.601C630.78 54.5377 630.729 53.7017 630.626 53.093C630.524 52.4843 630.351 52.0443 630.109 51.773C629.875 51.5017 629.552 51.3623 629.141 51.355C629.083 51.355 629.028 51.3293 628.976 51.278C628.932 51.2267 628.91 51.168 628.91 51.102V50.717C628.91 50.6437 628.936 50.585 628.987 50.541C629.039 50.4897 629.097 50.464 629.163 50.464C629.801 50.464 630.307 50.6437 630.681 51.003C631.055 51.355 631.323 51.905 631.484 52.653C631.653 53.3937 631.737 54.3763 631.737 55.601C631.737 56.8257 631.653 57.812 631.484 58.56C631.323 59.3007 631.055 59.8507 630.681 60.21C630.307 60.5693 629.801 60.749 629.163 60.749ZM638.779 55.15C638.705 55.15 638.643 55.128 638.592 55.084C638.548 55.0327 638.526 54.9703 638.526 54.897V54.127C638.526 54.0537 638.548 53.995 638.592 53.951C638.643 53.8997 638.705 53.874 638.779 53.874H639.571C639.644 53.874 639.703 53.8997 639.747 53.951C639.798 53.995 639.824 54.0537 639.824 54.127V54.897C639.824 54.9703 639.798 55.0327 639.747 55.084C639.703 55.128 639.644 55.15 639.571 55.15H638.779ZM638.779 59C638.705 59 638.643 58.978 638.592 58.934C638.548 58.8827 638.526 58.8203 638.526 58.747V57.977C638.526 57.9037 638.548 57.845 638.592 57.801C638.643 57.7497 638.705 57.724 638.779 57.724H639.571C639.644 57.724 639.703 57.7497 639.747 57.801C639.798 57.845 639.824 57.9037 639.824 57.977V58.747C639.824 58.8203 639.798 58.8827 639.747 58.934C639.703 58.978 639.644 59 639.571 59H638.779Z" fill="black"/>
<rect x="674.5" y="40.5" width="39" height="30" fill="#C4C4C4" stroke="black"/>
<line x1="657" y1="55.5" x2="674" y2="55.5" stroke="black"/>
<line x1="714" y1="55.5" x2="731" y2="55.5" stroke="black"/>
<path d="M697.792 48.264C697.792 48.76 697.648 49.008 697.36 49.008C697.28 49.008 697.2 48.944 697.12 48.816C696.976 48.56 696.736 48.432 696.4 48.432C695.664 48.432 694.976 48.96 694.336 50.016C694.208 50.224 693.808 50.976 693.136 52.272H693.424C695.168 52.272 696.328 52.248 696.904 52.2C696.968 52.216 697 52.248 697 52.296C697 52.424 696.432 52.6 695.296 52.824C694.224 53 693.344 53.152 692.656 53.28C692.16 54.304 691.56 55.52 690.856 56.928C689.416 59.616 688.464 61.288 688 61.944C686.608 63.928 685.248 64.92 683.92 64.92C683.456 64.92 683.056 64.72 682.72 64.32C682.368 63.936 682.184 63.504 682.168 63.024C682.216 62.832 682.288 62.736 682.384 62.736C682.432 62.736 682.464 62.792 682.48 62.904C682.576 63.32 682.736 63.64 682.96 63.864C683.184 64.088 683.416 64.2 683.656 64.2C685.016 64.2 686.256 63.36 687.376 61.68C688.016 60.72 688.888 58.992 689.992 56.496L691.288 53.376C689.688 53.36 688.888 53.168 688.888 52.8C688.888 52.64 688.96 52.504 689.104 52.392C689.264 52.28 689.4 52.224 689.512 52.224L691.768 52.272C693.336 48.784 694.776 47.04 696.088 47.04C696.584 47.04 697.088 47.28 697.6 47.76C697.728 47.888 697.792 48.056 697.792 48.264Z" fill="black"/>
<path d="M693.534 143C690.745 143 688.573 142.306 687.016 140.918C685.459 139.529 684.355 137.51 683.703 134.86C683.087 132.21 682.78 128.823 682.78 124.701C682.78 122.555 682.544 120.893 682.073 119.716C681.603 118.496 680.824 117.486 679.738 116.687L679.358 116.497C678.851 116.119 678.489 115.761 678.272 115.425C678.091 115.046 678 114.604 678 114.099V112.837C678 112.333 678.091 111.912 678.272 111.575C678.489 111.197 678.851 110.818 679.358 110.44L679.792 110.187C680.842 109.388 681.603 108.399 682.073 107.221C682.544 106.001 682.78 104.34 682.78 102.236C682.78 98.1137 683.087 94.7483 683.703 92.1401C684.355 89.4898 685.459 87.4706 687.016 86.0824C688.573 84.6941 690.745 84 693.534 84H693.805C694.167 84 694.457 84.1262 694.674 84.3786C694.891 84.631 695 84.9676 695 85.3882V87.723C695 88.1437 694.891 88.4802 694.674 88.7326C694.457 88.985 694.185 89.1112 693.859 89.1112H693.588C691.85 89.1533 690.546 89.6581 689.677 90.6257C688.845 91.5932 688.283 93.0656 687.994 95.0428C687.74 96.9779 687.613 99.7754 687.613 103.435C687.613 108.315 686.256 111.66 683.54 113.468C686.256 115.277 687.613 118.622 687.613 123.502C687.613 127.162 687.74 129.98 687.994 131.957C688.283 133.934 688.845 135.407 689.677 136.374C690.546 137.342 691.85 137.847 693.588 137.889H693.859C694.185 137.889 694.457 138.015 694.674 138.267C694.891 138.52 695 138.856 695 139.277V141.612C695 142.032 694.891 142.369 694.674 142.621C694.457 142.874 694.167 143 693.805 143H693.534Z" fill="black"/>
<path d="M838.466 143C841.255 143 843.427 142.306 844.984 140.918C846.541 139.529 847.645 137.51 848.297 134.86C848.913 132.21 849.22 128.823 849.22 124.701C849.22 122.555 849.456 120.893 849.927 119.716C850.397 118.496 851.176 117.486 852.262 116.687L852.642 116.497C853.149 116.119 853.511 115.761 853.728 115.425C853.909 115.046 854 114.604 854 114.099V112.837C854 112.333 853.909 111.912 853.728 111.575C853.511 111.197 853.149 110.818 852.642 110.44L852.208 110.187C851.158 109.388 850.397 108.399 849.927 107.221C849.456 106.001 849.22 104.34 849.22 102.236C849.22 98.1137 848.913 94.7483 848.297 92.1401C847.645 89.4898 846.541 87.4706 844.984 86.0824C843.427 84.6941 841.255 84 838.466 84H838.195C837.833 84 837.543 84.1262 837.326 84.3786C837.109 84.631 837 84.9676 837 85.3882V87.723C837 88.1437 837.109 88.4802 837.326 88.7326C837.543 88.985 837.815 89.1112 838.141 89.1112H838.412C840.15 89.1533 841.454 89.6581 842.323 90.6257C843.155 91.5932 843.717 93.0656 844.006 95.0428C844.26 96.9779 844.387 99.7754 844.387 103.435C844.387 108.315 845.744 111.66 848.46 113.468C845.744 115.277 844.387 118.622 844.387 123.502C844.387 127.162 844.26 129.98 844.006 131.957C843.717 133.934 843.155 135.407 842.323 136.374C841.454 137.342 840.15 137.847 838.412 137.889H838.141C837.815 137.889 837.543 138.015 837.326 138.267C837.109 138.52 837 138.856 837 139.277V141.612C837 142.032 837.109 142.369 837.326 142.621C837.543 142.874 837.833 143 838.195 143H838.466Z" fill="black"/>
<path d="M704.979 94.213C704.906 94.213 704.843 94.191 704.792 94.147C704.748 94.0957 704.726 94.0333 704.726 93.96V93.366C704.726 93.2927 704.748 93.2303 704.792 93.179C704.843 93.1277 704.906 93.102 704.979 93.102H705.672C705.745 93.102 705.808 93.1277 705.859 93.179C705.91 93.2303 705.936 93.2927 705.936 93.366V93.96C705.936 94.0333 705.91 94.0957 705.859 94.147C705.808 94.191 705.745 94.213 705.672 94.213H704.979ZM705.067 101C704.994 101 704.931 100.978 704.88 100.934C704.836 100.883 704.814 100.82 704.814 100.747V95.533C704.814 95.4597 704.836 95.401 704.88 95.357C704.931 95.3057 704.994 95.28 705.067 95.28H705.595C705.668 95.28 705.727 95.3057 705.771 95.357C705.822 95.401 705.848 95.4597 705.848 95.533V100.747C705.848 100.82 705.822 100.883 705.771 100.934C705.727 100.978 705.668 101 705.595 101H705.067ZM707.731 101C707.658 101 707.595 100.978 707.544 100.934C707.5 100.883 707.478 100.82 707.478 100.747V95.533C707.478 95.4597 707.5 95.401 707.544 95.357C707.595 95.3057 707.658 95.28 707.731 95.28H708.248C708.321 95.28 708.38 95.3057 708.424 95.357C708.475 95.401 708.501 95.4597 708.501 95.533V96.017C708.714 95.7457 708.963 95.5367 709.249 95.39C709.542 95.2433 709.905 95.17 710.338 95.17C711.042 95.17 711.588 95.3973 711.977 95.852C712.373 96.2993 712.571 96.897 712.571 97.645V100.747C712.571 100.82 712.545 100.883 712.494 100.934C712.45 100.978 712.391 101 712.318 101H711.768C711.695 101 711.632 100.978 711.581 100.934C711.537 100.883 711.515 100.82 711.515 100.747V97.7C711.515 97.1793 711.387 96.776 711.13 96.49C710.881 96.204 710.518 96.061 710.041 96.061C709.579 96.061 709.212 96.2077 708.941 96.501C708.67 96.787 708.534 97.1867 708.534 97.7V100.747C708.534 100.82 708.508 100.883 708.457 100.934C708.413 100.978 708.354 101 708.281 101H707.731ZM716.459 101.11C715.674 101.11 715.058 100.89 714.611 100.45C714.171 100.003 713.936 99.3793 713.907 98.58L713.896 98.14L713.907 97.7C713.936 96.9007 714.171 96.281 714.611 95.841C715.058 95.3937 715.674 95.17 716.459 95.17C716.987 95.17 717.434 95.2653 717.801 95.456C718.168 95.6467 718.439 95.8813 718.615 96.16C718.798 96.4387 718.897 96.7173 718.912 96.996C718.919 97.0693 718.897 97.128 718.846 97.172C718.795 97.216 718.732 97.238 718.659 97.238H718.131C718.058 97.238 718.003 97.2233 717.966 97.194C717.929 97.1647 717.893 97.106 717.856 97.018C717.731 96.666 717.555 96.4167 717.328 96.27C717.101 96.116 716.815 96.039 716.47 96.039C716.015 96.039 715.652 96.182 715.381 96.468C715.117 96.7467 714.974 97.1757 714.952 97.755L714.941 98.151L714.952 98.525C714.974 99.1117 715.117 99.5443 715.381 99.823C715.645 100.102 716.008 100.241 716.47 100.241C716.815 100.241 717.101 100.168 717.328 100.021C717.555 99.867 717.731 99.614 717.856 99.262C717.893 99.174 717.929 99.1153 717.966 99.086C718.003 99.0493 718.058 99.031 718.131 99.031H718.659C718.732 99.031 718.795 99.0567 718.846 99.108C718.897 99.152 718.919 99.2107 718.912 99.284C718.897 99.5553 718.798 99.834 718.615 100.12C718.439 100.399 718.168 100.633 717.801 100.824C717.442 101.015 716.994 101.11 716.459 101.11ZM720.471 101C720.398 101 720.336 100.978 720.284 100.934C720.24 100.883 720.218 100.82 720.218 100.747V95.544C720.218 95.4707 720.24 95.4083 720.284 95.357C720.336 95.3057 720.398 95.28 720.471 95.28H720.977C721.051 95.28 721.113 95.3057 721.164 95.357C721.216 95.4083 721.241 95.4707 721.241 95.544V96.028C721.542 95.5293 722.055 95.28 722.781 95.28H723.21C723.284 95.28 723.342 95.3057 723.386 95.357C723.438 95.401 723.463 95.4597 723.463 95.533V95.984C723.463 96.0573 723.438 96.116 723.386 96.16C723.342 96.204 723.284 96.226 723.21 96.226H722.55C722.154 96.226 721.843 96.3433 721.615 96.578C721.388 96.8053 721.274 97.117 721.274 97.513V100.747C721.274 100.82 721.249 100.883 721.197 100.934C721.146 100.978 721.084 101 721.01 101H720.471ZM726.578 101.11C725.822 101.11 725.217 100.879 724.763 100.417C724.315 99.9477 724.07 99.3097 724.026 98.503L724.015 98.129L724.026 97.766C724.077 96.974 724.326 96.3433 724.774 95.874C725.228 95.4047 725.826 95.17 726.567 95.17C727.381 95.17 728.011 95.4303 728.459 95.951C728.906 96.4643 729.13 97.161 729.13 98.041V98.228C729.13 98.3013 729.104 98.3637 729.053 98.415C729.009 98.459 728.95 98.481 728.877 98.481H725.071V98.58C725.093 99.0567 725.236 99.4637 725.5 99.801C725.771 100.131 726.127 100.296 726.567 100.296C726.904 100.296 727.179 100.23 727.392 100.098C727.612 99.9587 727.773 99.8157 727.876 99.669C727.942 99.581 727.989 99.5297 728.019 99.515C728.055 99.493 728.118 99.482 728.206 99.482H728.745C728.811 99.482 728.866 99.5003 728.91 99.537C728.954 99.5737 728.976 99.625 728.976 99.691C728.976 99.8523 728.873 100.047 728.668 100.274C728.47 100.501 728.187 100.699 727.821 100.868C727.461 101.029 727.047 101.11 726.578 101.11ZM728.085 97.722V97.689C728.085 97.183 727.945 96.7723 727.667 96.457C727.395 96.1343 727.029 95.973 726.567 95.973C726.105 95.973 725.738 96.1343 725.467 96.457C725.203 96.7723 725.071 97.183 725.071 97.689V97.722H728.085ZM730.698 101C730.625 101 730.562 100.978 730.511 100.934C730.467 100.883 730.445 100.82 730.445 100.747V95.533C730.445 95.4597 730.467 95.401 730.511 95.357C730.562 95.3057 730.625 95.28 730.698 95.28H731.193C731.266 95.28 731.325 95.3057 731.369 95.357C731.42 95.401 731.446 95.4597 731.446 95.533V95.918C731.827 95.4193 732.359 95.17 733.041 95.17C733.855 95.17 734.431 95.5073 734.768 96.182C734.944 95.874 735.193 95.6283 735.516 95.445C735.839 95.2617 736.202 95.17 736.605 95.17C737.206 95.17 737.698 95.3753 738.079 95.786C738.46 96.1967 738.651 96.7907 738.651 97.568V100.747C738.651 100.82 738.625 100.883 738.574 100.934C738.53 100.978 738.471 101 738.398 101H737.881C737.808 101 737.745 100.978 737.694 100.934C737.65 100.883 737.628 100.82 737.628 100.747V97.667C737.628 97.095 737.507 96.6843 737.265 96.435C737.03 96.1857 736.719 96.061 736.33 96.061C735.985 96.061 735.688 96.1893 735.439 96.446C735.19 96.6953 735.065 97.1023 735.065 97.667V100.747C735.065 100.82 735.039 100.883 734.988 100.934C734.944 100.978 734.885 101 734.812 101H734.295C734.222 101 734.159 100.978 734.108 100.934C734.064 100.883 734.042 100.82 734.042 100.747V97.667C734.042 97.095 733.917 96.6843 733.668 96.435C733.426 96.1857 733.118 96.061 732.744 96.061C732.399 96.061 732.102 96.1893 731.853 96.446C731.604 96.6953 731.479 97.0987 731.479 97.656V100.747C731.479 100.82 731.453 100.883 731.402 100.934C731.358 100.978 731.299 101 731.226 101H730.698ZM742.508 101.11C741.753 101.11 741.148 100.879 740.693 100.417C740.246 99.9477 740 99.3097 739.956 98.503L739.945 98.129L739.956 97.766C740.008 96.974 740.257 96.3433 740.704 95.874C741.159 95.4047 741.757 95.17 742.497 95.17C743.311 95.17 743.942 95.4303 744.389 95.951C744.837 96.4643 745.06 97.161 745.06 98.041V98.228C745.06 98.3013 745.035 98.3637 744.983 98.415C744.939 98.459 744.881 98.481 744.807 98.481H741.001V98.58C741.023 99.0567 741.166 99.4637 741.43 99.801C741.702 100.131 742.057 100.296 742.497 100.296C742.835 100.296 743.11 100.23 743.322 100.098C743.542 99.9587 743.704 99.8157 743.806 99.669C743.872 99.581 743.92 99.5297 743.949 99.515C743.986 99.493 744.048 99.482 744.136 99.482H744.675C744.741 99.482 744.796 99.5003 744.84 99.537C744.884 99.5737 744.906 99.625 744.906 99.691C744.906 99.8523 744.804 100.047 744.598 100.274C744.4 100.501 744.118 100.699 743.751 100.868C743.392 101.029 742.978 101.11 742.508 101.11ZM744.015 97.722V97.689C744.015 97.183 743.876 96.7723 743.597 96.457C743.326 96.1343 742.959 95.973 742.497 95.973C742.035 95.973 741.669 96.1343 741.397 96.457C741.133 96.7723 741.001 97.183 741.001 97.689V97.722H744.015ZM746.629 101C746.555 101 746.493 100.978 746.442 100.934C746.398 100.883 746.376 100.82 746.376 100.747V95.533C746.376 95.4597 746.398 95.401 746.442 95.357C746.493 95.3057 746.555 95.28 746.629 95.28H747.146C747.219 95.28 747.278 95.3057 747.322 95.357C747.373 95.401 747.399 95.4597 747.399 95.533V96.017C747.611 95.7457 747.861 95.5367 748.147 95.39C748.44 95.2433 748.803 95.17 749.236 95.17C749.94 95.17 750.486 95.3973 750.875 95.852C751.271 96.2993 751.469 96.897 751.469 97.645V100.747C751.469 100.82 751.443 100.883 751.392 100.934C751.348 100.978 751.289 101 751.216 101H750.666C750.592 101 750.53 100.978 750.479 100.934C750.435 100.883 750.413 100.82 750.413 100.747V97.7C750.413 97.1793 750.284 96.776 750.028 96.49C749.778 96.204 749.415 96.061 748.939 96.061C748.477 96.061 748.11 96.2077 747.839 96.501C747.567 96.787 747.432 97.1867 747.432 97.7V100.747C747.432 100.82 747.406 100.883 747.355 100.934C747.311 100.978 747.252 101 747.179 101H746.629ZM755.204 101C754.046 101 753.466 100.355 753.466 99.064V96.16H752.608C752.535 96.16 752.473 96.138 752.421 96.094C752.377 96.0427 752.355 95.9803 752.355 95.907V95.533C752.355 95.4597 752.377 95.401 752.421 95.357C752.473 95.3057 752.535 95.28 752.608 95.28H753.466V93.443C753.466 93.3697 753.488 93.311 753.532 93.267C753.584 93.2157 753.646 93.19 753.719 93.19H754.236C754.31 93.19 754.368 93.2157 754.412 93.267C754.464 93.311 754.489 93.3697 754.489 93.443V95.28H755.853C755.927 95.28 755.985 95.3057 756.029 95.357C756.081 95.401 756.106 95.4597 756.106 95.533V95.907C756.106 95.9803 756.081 96.0427 756.029 96.094C755.985 96.138 755.927 96.16 755.853 96.16H754.489V98.987C754.489 99.3537 754.552 99.6323 754.676 99.823C754.801 100.006 755.006 100.098 755.292 100.098H755.963C756.037 100.098 756.095 100.124 756.139 100.175C756.191 100.219 756.216 100.278 756.216 100.351V100.747C756.216 100.82 756.191 100.883 756.139 100.934C756.095 100.978 756.037 101 755.963 101H755.204ZM762.859 97.15C762.785 97.15 762.723 97.128 762.672 97.084C762.628 97.0327 762.606 96.9703 762.606 96.897V96.127C762.606 96.0537 762.628 95.995 762.672 95.951C762.723 95.8997 762.785 95.874 762.859 95.874H763.651C763.724 95.874 763.783 95.8997 763.827 95.951C763.878 95.995 763.904 96.0537 763.904 96.127V96.897C763.904 96.9703 763.878 97.0327 763.827 97.084C763.783 97.128 763.724 97.15 763.651 97.15H762.859ZM762.859 101C762.785 101 762.723 100.978 762.672 100.934C762.628 100.883 762.606 100.82 762.606 100.747V99.977C762.606 99.9037 762.628 99.845 762.672 99.801C762.723 99.7497 762.785 99.724 762.859 99.724H763.651C763.724 99.724 763.783 99.7497 763.827 99.801C763.878 99.845 763.904 99.9037 763.904 99.977V100.747C763.904 100.82 763.878 100.883 763.827 100.934C763.783 100.978 763.724 101 763.651 101H762.859Z" fill="black"/>
<path d="M706.078 137C706.005 137 705.942 136.978 705.891 136.934C705.847 136.883 705.825 136.82 705.825 136.747V129.443C705.825 129.37 705.847 129.311 705.891 129.267C705.942 129.216 706.005 129.19 706.078 129.19H706.595C706.668 129.19 706.727 129.216 706.771 129.267C706.822 129.311 706.848 129.37 706.848 129.443V136.747C706.848 136.82 706.822 136.883 706.771 136.934C706.727 136.978 706.668 137 706.595 137H706.078ZM710.832 137.11C710.025 137.11 709.398 136.883 708.951 136.428C708.511 135.973 708.276 135.368 708.247 134.613L708.236 134.14L708.247 133.667C708.276 132.919 708.514 132.318 708.962 131.863C709.409 131.401 710.032 131.17 710.832 131.17C711.631 131.17 712.254 131.401 712.702 131.863C713.149 132.318 713.387 132.919 713.417 133.667C713.424 133.748 713.428 133.905 713.428 134.14C713.428 134.375 713.424 134.532 713.417 134.613C713.387 135.368 713.149 135.973 712.702 136.428C712.262 136.883 711.638 137.11 710.832 137.11ZM710.832 136.263C711.294 136.263 711.657 136.116 711.921 135.823C712.192 135.53 712.339 135.108 712.361 134.558C712.368 134.485 712.372 134.345 712.372 134.14C712.372 133.935 712.368 133.795 712.361 133.722C712.339 133.172 712.192 132.75 711.921 132.457C711.657 132.164 711.294 132.017 710.832 132.017C710.37 132.017 710.003 132.164 709.732 132.457C709.46 132.75 709.317 133.172 709.303 133.722L709.292 134.14L709.303 134.558C709.317 135.108 709.46 135.53 709.732 135.823C710.003 136.116 710.37 136.263 710.832 136.263ZM717.148 139.42C716.547 139.42 716.063 139.317 715.696 139.112C715.33 138.914 715.069 138.687 714.915 138.43C714.761 138.173 714.677 137.942 714.662 137.737C714.655 137.664 714.677 137.601 714.728 137.55C714.787 137.499 714.849 137.473 714.915 137.473H715.443C715.509 137.473 715.564 137.488 715.608 137.517C715.652 137.554 715.689 137.616 715.718 137.704C715.806 137.939 715.949 138.14 716.147 138.309C716.353 138.485 716.668 138.573 717.093 138.573C717.636 138.573 718.036 138.456 718.292 138.221C718.549 137.994 718.677 137.587 718.677 137V136.252C718.487 136.494 718.245 136.688 717.951 136.835C717.658 136.974 717.31 137.044 716.906 137.044C716.129 137.044 715.546 136.798 715.157 136.307C714.776 135.808 714.574 135.178 714.552 134.415L714.541 134.107L714.552 133.81C714.574 133.055 714.78 132.428 715.168 131.929C715.557 131.423 716.136 131.17 716.906 131.17C717.676 131.17 718.278 131.452 718.71 132.017V131.544C718.71 131.471 718.732 131.408 718.776 131.357C718.828 131.306 718.89 131.28 718.963 131.28H719.469C719.543 131.28 719.605 131.306 719.656 131.357C719.708 131.408 719.733 131.471 719.733 131.544V136.879C719.733 138.573 718.872 139.42 717.148 139.42ZM717.126 136.164C717.625 136.164 718.003 135.999 718.259 135.669C718.516 135.339 718.655 134.947 718.677 134.492C718.685 134.426 718.688 134.298 718.688 134.107C718.688 133.924 718.685 133.799 718.677 133.733C718.655 133.278 718.516 132.886 718.259 132.556C718.01 132.226 717.632 132.061 717.126 132.061C716.606 132.061 716.228 132.222 715.993 132.545C715.759 132.868 715.63 133.293 715.608 133.821L715.597 134.107L715.608 134.404C715.63 134.925 715.759 135.35 715.993 135.68C716.228 136.003 716.606 136.164 717.126 136.164ZM721.534 130.213C721.46 130.213 721.398 130.191 721.347 130.147C721.303 130.096 721.281 130.033 721.281 129.96V129.366C721.281 129.293 721.303 129.23 721.347 129.179C721.398 129.128 721.46 129.102 721.534 129.102H722.227C722.3 129.102 722.362 129.128 722.414 129.179C722.465 129.23 722.491 129.293 722.491 129.366V129.96C722.491 130.033 722.465 130.096 722.414 130.147C722.362 130.191 722.3 130.213 722.227 130.213H721.534ZM721.622 137C721.548 137 721.486 136.978 721.435 136.934C721.391 136.883 721.369 136.82 721.369 136.747V131.533C721.369 131.46 721.391 131.401 721.435 131.357C721.486 131.306 721.548 131.28 721.622 131.28H722.15C722.223 131.28 722.282 131.306 722.326 131.357C722.377 131.401 722.403 131.46 722.403 131.533V136.747C722.403 136.82 722.377 136.883 722.326 136.934C722.282 136.978 722.223 137 722.15 137H721.622ZM724.286 137C724.212 137 724.15 136.978 724.099 136.934C724.055 136.883 724.033 136.82 724.033 136.747V131.533C724.033 131.46 724.055 131.401 724.099 131.357C724.15 131.306 724.212 131.28 724.286 131.28H724.803C724.876 131.28 724.935 131.306 724.979 131.357C725.03 131.401 725.056 131.46 725.056 131.533V132.017C725.268 131.746 725.518 131.537 725.804 131.39C726.097 131.243 726.46 131.17 726.893 131.17C727.597 131.17 728.143 131.397 728.532 131.852C728.928 132.299 729.126 132.897 729.126 133.645V136.747C729.126 136.82 729.1 136.883 729.049 136.934C729.005 136.978 728.946 137 728.873 137H728.323C728.249 137 728.187 136.978 728.136 136.934C728.092 136.883 728.07 136.82 728.07 136.747V133.7C728.07 133.179 727.941 132.776 727.685 132.49C727.435 132.204 727.072 132.061 726.596 132.061C726.134 132.061 725.767 132.208 725.496 132.501C725.224 132.787 725.089 133.187 725.089 133.7V136.747C725.089 136.82 725.063 136.883 725.012 136.934C724.968 136.978 724.909 137 724.836 137H724.286ZM736.294 133.15C736.221 133.15 736.159 133.128 736.107 133.084C736.063 133.033 736.041 132.97 736.041 132.897V132.127C736.041 132.054 736.063 131.995 736.107 131.951C736.159 131.9 736.221 131.874 736.294 131.874H737.086C737.16 131.874 737.218 131.9 737.262 131.951C737.314 131.995 737.339 132.054 737.339 132.127V132.897C737.339 132.97 737.314 133.033 737.262 133.084C737.218 133.128 737.16 133.15 737.086 133.15H736.294ZM736.294 137C736.221 137 736.159 136.978 736.107 136.934C736.063 136.883 736.041 136.82 736.041 136.747V135.977C736.041 135.904 736.063 135.845 736.107 135.801C736.159 135.75 736.221 135.724 736.294 135.724H737.086C737.16 135.724 737.218 135.75 737.262 135.801C737.314 135.845 737.339 135.904 737.339 135.977V136.747C737.339 136.82 737.314 136.883 737.262 136.934C737.218 136.978 737.16 137 737.086 137H736.294Z" fill="black"/>
<path d="M566.948 117.11C566.251 117.11 565.712 116.886 565.331 116.439C564.95 115.984 564.759 115.383 564.759 114.635V111.533C564.759 111.46 564.781 111.401 564.825 111.357C564.876 111.306 564.939 111.28 565.012 111.28H565.562C565.635 111.28 565.694 111.306 565.738 111.357C565.789 111.401 565.815 111.46 565.815 111.533V114.58C565.815 115.673 566.292 116.219 567.245 116.219C567.707 116.219 568.074 116.076 568.345 115.79C568.616 115.497 568.752 115.093 568.752 114.58V111.533C568.752 111.46 568.774 111.401 568.818 111.357C568.869 111.306 568.932 111.28 569.005 111.28H569.555C569.628 111.28 569.687 111.306 569.731 111.357C569.775 111.401 569.797 111.46 569.797 111.533V116.747C569.797 116.82 569.775 116.883 569.731 116.934C569.687 116.978 569.628 117 569.555 117H569.038C568.965 117 568.902 116.978 568.851 116.934C568.807 116.883 568.785 116.82 568.785 116.747V116.263C568.58 116.542 568.33 116.754 568.037 116.901C567.744 117.04 567.381 117.11 566.948 117.11ZM573.411 117.11C572.898 117.11 572.465 117.029 572.113 116.868C571.769 116.699 571.508 116.509 571.332 116.296C571.164 116.083 571.079 115.907 571.079 115.768C571.079 115.695 571.105 115.64 571.156 115.603C571.215 115.559 571.274 115.537 571.332 115.537H571.827C571.901 115.537 571.967 115.574 572.025 115.647C572.201 115.852 572.392 116.014 572.597 116.131C572.803 116.248 573.078 116.307 573.422 116.307C573.804 116.307 574.112 116.234 574.346 116.087C574.588 115.933 574.709 115.724 574.709 115.46C574.709 115.284 574.658 115.141 574.555 115.031C574.46 114.914 574.291 114.815 574.049 114.734C573.815 114.646 573.463 114.551 572.993 114.448C572.355 114.309 571.901 114.107 571.629 113.843C571.365 113.579 571.233 113.238 571.233 112.82C571.233 112.541 571.314 112.277 571.475 112.028C571.644 111.771 571.886 111.566 572.201 111.412C572.524 111.251 572.909 111.17 573.356 111.17C573.826 111.17 574.225 111.247 574.555 111.401C574.885 111.555 575.131 111.738 575.292 111.951C575.461 112.156 575.545 112.329 575.545 112.468C575.545 112.534 575.52 112.589 575.468 112.633C575.424 112.677 575.369 112.699 575.303 112.699H574.841C574.753 112.699 574.68 112.662 574.621 112.589C574.504 112.45 574.401 112.343 574.313 112.27C574.233 112.189 574.112 112.12 573.95 112.061C573.796 112.002 573.598 111.973 573.356 111.973C573.004 111.973 572.733 112.05 572.542 112.204C572.352 112.351 572.256 112.545 572.256 112.787C572.256 112.941 572.297 113.073 572.377 113.183C572.458 113.286 572.612 113.381 572.839 113.469C573.074 113.557 573.411 113.649 573.851 113.744C574.548 113.891 575.039 114.103 575.325 114.382C575.619 114.653 575.765 115.002 575.765 115.427C575.765 115.742 575.674 116.028 575.49 116.285C575.307 116.542 575.036 116.743 574.676 116.89C574.324 117.037 573.903 117.11 573.411 117.11ZM579.327 117.11C578.571 117.11 577.966 116.879 577.512 116.417C577.064 115.948 576.819 115.31 576.775 114.503L576.764 114.129L576.775 113.766C576.826 112.974 577.075 112.343 577.523 111.874C577.977 111.405 578.575 111.17 579.316 111.17C580.13 111.17 580.76 111.43 581.208 111.951C581.655 112.464 581.879 113.161 581.879 114.041V114.228C581.879 114.301 581.853 114.364 581.802 114.415C581.758 114.459 581.699 114.481 581.626 114.481H577.82V114.58C577.842 115.057 577.985 115.464 578.249 115.801C578.52 116.131 578.876 116.296 579.316 116.296C579.653 116.296 579.928 116.23 580.141 116.098C580.361 115.959 580.522 115.816 580.625 115.669C580.691 115.581 580.738 115.53 580.768 115.515C580.804 115.493 580.867 115.482 580.955 115.482H581.494C581.56 115.482 581.615 115.5 581.659 115.537C581.703 115.574 581.725 115.625 581.725 115.691C581.725 115.852 581.622 116.047 581.417 116.274C581.219 116.501 580.936 116.699 580.57 116.868C580.21 117.029 579.796 117.11 579.327 117.11ZM580.834 113.722V113.689C580.834 113.183 580.694 112.772 580.416 112.457C580.144 112.134 579.778 111.973 579.316 111.973C578.854 111.973 578.487 112.134 578.216 112.457C577.952 112.772 577.82 113.183 577.82 113.689V113.722H580.834ZM583.447 117C583.374 117 583.311 116.978 583.26 116.934C583.216 116.883 583.194 116.82 583.194 116.747V111.544C583.194 111.471 583.216 111.408 583.26 111.357C583.311 111.306 583.374 111.28 583.447 111.28H583.953C584.026 111.28 584.089 111.306 584.14 111.357C584.191 111.408 584.217 111.471 584.217 111.544V112.028C584.518 111.529 585.031 111.28 585.757 111.28H586.186C586.259 111.28 586.318 111.306 586.362 111.357C586.413 111.401 586.439 111.46 586.439 111.533V111.984C586.439 112.057 586.413 112.116 586.362 112.16C586.318 112.204 586.259 112.226 586.186 112.226H585.526C585.13 112.226 584.818 112.343 584.591 112.578C584.364 112.805 584.25 113.117 584.25 113.513V116.747C584.25 116.82 584.224 116.883 584.173 116.934C584.122 116.978 584.059 117 583.986 117H583.447ZM587.769 117C587.695 117 587.633 116.978 587.582 116.934C587.538 116.883 587.516 116.82 587.516 116.747V109.564C587.516 109.483 587.538 109.421 587.582 109.377C587.633 109.326 587.695 109.3 587.769 109.3H592.257C592.337 109.3 592.4 109.326 592.444 109.377C592.495 109.421 592.521 109.483 592.521 109.564V110.004C592.521 110.077 592.495 110.14 592.444 110.191C592.4 110.235 592.337 110.257 592.257 110.257H588.583V112.82H592.037C592.117 112.82 592.18 112.846 592.224 112.897C592.275 112.941 592.301 113.003 592.301 113.084V113.524C592.301 113.597 592.275 113.66 592.224 113.711C592.172 113.755 592.11 113.777 592.037 113.777H588.583V116.747C588.583 116.82 588.557 116.883 588.506 116.934C588.454 116.978 588.392 117 588.319 117H587.769ZM595.812 117.11C595.116 117.11 594.577 116.886 594.195 116.439C593.814 115.984 593.623 115.383 593.623 114.635V111.533C593.623 111.46 593.645 111.401 593.689 111.357C593.741 111.306 593.803 111.28 593.876 111.28H594.426C594.5 111.28 594.558 111.306 594.602 111.357C594.654 111.401 594.679 111.46 594.679 111.533V114.58C594.679 115.673 595.156 116.219 596.109 116.219C596.571 116.219 596.938 116.076 597.209 115.79C597.481 115.497 597.616 115.093 597.616 114.58V111.533C597.616 111.46 597.638 111.401 597.682 111.357C597.734 111.306 597.796 111.28 597.869 111.28H598.419C598.493 111.28 598.551 111.306 598.595 111.357C598.639 111.401 598.661 111.46 598.661 111.533V116.747C598.661 116.82 598.639 116.883 598.595 116.934C598.551 116.978 598.493 117 598.419 117H597.902C597.829 117 597.767 116.978 597.715 116.934C597.671 116.883 597.649 116.82 597.649 116.747V116.263C597.444 116.542 597.195 116.754 596.901 116.901C596.608 117.04 596.245 117.11 595.812 117.11ZM600.548 117C600.475 117 600.413 116.978 600.361 116.934C600.317 116.883 600.295 116.82 600.295 116.747V111.533C600.295 111.46 600.317 111.401 600.361 111.357C600.413 111.306 600.475 111.28 600.548 111.28H601.065C601.139 111.28 601.197 111.306 601.241 111.357C601.293 111.401 601.318 111.46 601.318 111.533V112.017C601.531 111.746 601.78 111.537 602.066 111.39C602.36 111.243 602.723 111.17 603.155 111.17C603.859 111.17 604.406 111.397 604.794 111.852C605.19 112.299 605.388 112.897 605.388 113.645V116.747C605.388 116.82 605.363 116.883 605.311 116.934C605.267 116.978 605.209 117 605.135 117H604.585C604.512 117 604.45 116.978 604.398 116.934C604.354 116.883 604.332 116.82 604.332 116.747V113.7C604.332 113.179 604.204 112.776 603.947 112.49C603.698 112.204 603.335 112.061 602.858 112.061C602.396 112.061 602.03 112.208 601.758 112.501C601.487 112.787 601.351 113.187 601.351 113.7V116.747C601.351 116.82 601.326 116.883 601.274 116.934C601.23 116.978 601.172 117 601.098 117H600.548ZM609.276 117.11C608.492 117.11 607.876 116.89 607.428 116.45C606.988 116.003 606.754 115.379 606.724 114.58L606.713 114.14L606.724 113.7C606.754 112.901 606.988 112.281 607.428 111.841C607.876 111.394 608.492 111.17 609.276 111.17C609.804 111.17 610.252 111.265 610.618 111.456C610.985 111.647 611.256 111.881 611.432 112.16C611.616 112.439 611.715 112.717 611.729 112.996C611.737 113.069 611.715 113.128 611.663 113.172C611.612 113.216 611.55 113.238 611.476 113.238H610.948C610.875 113.238 610.82 113.223 610.783 113.194C610.747 113.165 610.71 113.106 610.673 113.018C610.549 112.666 610.373 112.417 610.145 112.27C609.918 112.116 609.632 112.039 609.287 112.039C608.833 112.039 608.47 112.182 608.198 112.468C607.934 112.747 607.791 113.176 607.769 113.755L607.758 114.151L607.769 114.525C607.791 115.112 607.934 115.544 608.198 115.823C608.462 116.102 608.825 116.241 609.287 116.241C609.632 116.241 609.918 116.168 610.145 116.021C610.373 115.867 610.549 115.614 610.673 115.262C610.71 115.174 610.747 115.115 610.783 115.086C610.82 115.049 610.875 115.031 610.948 115.031H611.476C611.55 115.031 611.612 115.057 611.663 115.108C611.715 115.152 611.737 115.211 611.729 115.284C611.715 115.555 611.616 115.834 611.432 116.12C611.256 116.399 610.985 116.633 610.618 116.824C610.259 117.015 609.812 117.11 609.276 117.11ZM615.269 117C614.11 117 613.531 116.355 613.531 115.064V112.16H612.673C612.599 112.16 612.537 112.138 612.486 112.094C612.442 112.043 612.42 111.98 612.42 111.907V111.533C612.42 111.46 612.442 111.401 612.486 111.357C612.537 111.306 612.599 111.28 612.673 111.28H613.531V109.443C613.531 109.37 613.553 109.311 613.597 109.267C613.648 109.216 613.71 109.19 613.784 109.19H614.301C614.374 109.19 614.433 109.216 614.477 109.267C614.528 109.311 614.554 109.37 614.554 109.443V111.28H615.918C615.991 111.28 616.05 111.306 616.094 111.357C616.145 111.401 616.171 111.46 616.171 111.533V111.907C616.171 111.98 616.145 112.043 616.094 112.094C616.05 112.138 615.991 112.16 615.918 112.16H614.554V114.987C614.554 115.354 614.616 115.632 614.741 115.823C614.865 116.006 615.071 116.098 615.357 116.098H616.028C616.101 116.098 616.16 116.124 616.204 116.175C616.255 116.219 616.281 116.278 616.281 116.351V116.747C616.281 116.82 616.255 116.883 616.204 116.934C616.16 116.978 616.101 117 616.028 117H615.269ZM617.498 110.213C617.424 110.213 617.362 110.191 617.311 110.147C617.267 110.096 617.245 110.033 617.245 109.96V109.366C617.245 109.293 617.267 109.23 617.311 109.179C617.362 109.128 617.424 109.102 617.498 109.102H618.191C618.264 109.102 618.326 109.128 618.378 109.179C618.429 109.23 618.455 109.293 618.455 109.366V109.96C618.455 110.033 618.429 110.096 618.378 110.147C618.326 110.191 618.264 110.213 618.191 110.213H617.498ZM617.586 117C617.512 117 617.45 116.978 617.399 116.934C617.355 116.883 617.333 116.82 617.333 116.747V111.533C617.333 111.46 617.355 111.401 617.399 111.357C617.45 111.306 617.512 111.28 617.586 111.28H618.114C618.187 111.28 618.246 111.306 618.29 111.357C618.341 111.401 618.367 111.46 618.367 111.533V116.747C618.367 116.82 618.341 116.883 618.29 116.934C618.246 116.978 618.187 117 618.114 117H617.586ZM622.34 117.11C621.533 117.11 620.906 116.883 620.459 116.428C620.019 115.973 619.784 115.368 619.755 114.613L619.744 114.14L619.755 113.667C619.784 112.919 620.022 112.318 620.47 111.863C620.917 111.401 621.54 111.17 622.34 111.17C623.139 111.17 623.762 111.401 624.21 111.863C624.657 112.318 624.895 112.919 624.925 113.667C624.932 113.748 624.936 113.905 624.936 114.14C624.936 114.375 624.932 114.532 624.925 114.613C624.895 115.368 624.657 115.973 624.21 116.428C623.77 116.883 623.146 117.11 622.34 117.11ZM622.34 116.263C622.802 116.263 623.165 116.116 623.429 115.823C623.7 115.53 623.847 115.108 623.869 114.558C623.876 114.485 623.88 114.345 623.88 114.14C623.88 113.935 623.876 113.795 623.869 113.722C623.847 113.172 623.7 112.75 623.429 112.457C623.165 112.164 622.802 112.017 622.34 112.017C621.878 112.017 621.511 112.164 621.24 112.457C620.968 112.75 620.825 113.172 620.811 113.722L620.8 114.14L620.811 114.558C620.825 115.108 620.968 115.53 621.24 115.823C621.511 116.116 621.878 116.263 622.34 116.263ZM626.566 117C626.493 117 626.43 116.978 626.379 116.934C626.335 116.883 626.313 116.82 626.313 116.747V111.533C626.313 111.46 626.335 111.401 626.379 111.357C626.43 111.306 626.493 111.28 626.566 111.28H627.083C627.156 111.28 627.215 111.306 627.259 111.357C627.31 111.401 627.336 111.46 627.336 111.533V112.017C627.549 111.746 627.798 111.537 628.084 111.39C628.377 111.243 628.74 111.17 629.173 111.17C629.877 111.17 630.423 111.397 630.812 111.852C631.208 112.299 631.406 112.897 631.406 113.645V116.747C631.406 116.82 631.38 116.883 631.329 116.934C631.285 116.978 631.226 117 631.153 117H630.603C630.53 117 630.467 116.978 630.416 116.934C630.372 116.883 630.35 116.82 630.35 116.747V113.7C630.35 113.179 630.222 112.776 629.965 112.49C629.716 112.204 629.353 112.061 628.876 112.061C628.414 112.061 628.047 112.208 627.776 112.501C627.505 112.787 627.369 113.187 627.369 113.7V116.747C627.369 116.82 627.343 116.883 627.292 116.934C627.248 116.978 627.189 117 627.116 117H626.566ZM635.602 117.11C634.993 117.11 634.465 117.015 634.018 116.824C633.578 116.633 633.241 116.384 633.006 116.076C632.771 115.761 632.647 115.423 632.632 115.064C632.632 115.005 632.654 114.954 632.698 114.91C632.749 114.859 632.808 114.833 632.874 114.833H633.435C633.574 114.833 633.67 114.906 633.721 115.053C633.787 115.361 633.974 115.625 634.282 115.845C634.597 116.065 635.037 116.175 635.602 116.175C636.211 116.175 636.669 116.069 636.977 115.856C637.285 115.636 637.439 115.332 637.439 114.943C637.439 114.694 637.362 114.492 637.208 114.338C637.061 114.184 636.841 114.048 636.548 113.931C636.255 113.814 635.815 113.667 635.228 113.491C634.656 113.33 634.201 113.157 633.864 112.974C633.527 112.791 633.274 112.563 633.105 112.292C632.936 112.021 632.852 111.68 632.852 111.269C632.852 110.873 632.958 110.517 633.171 110.202C633.391 109.887 633.703 109.641 634.106 109.465C634.509 109.282 634.99 109.19 635.547 109.19C636.119 109.19 636.61 109.293 637.021 109.498C637.432 109.696 637.743 109.949 637.956 110.257C638.169 110.565 638.282 110.873 638.297 111.181C638.297 111.24 638.275 111.291 638.231 111.335C638.194 111.379 638.139 111.401 638.066 111.401H637.483C637.329 111.401 637.234 111.331 637.197 111.192C637.153 110.884 636.981 110.631 636.68 110.433C636.379 110.228 636.002 110.125 635.547 110.125C635.048 110.125 634.656 110.22 634.37 110.411C634.084 110.602 633.941 110.884 633.941 111.258C633.941 111.507 634.007 111.713 634.139 111.874C634.278 112.035 634.487 112.178 634.766 112.303C635.045 112.42 635.452 112.556 635.987 112.71C636.61 112.879 637.102 113.055 637.461 113.238C637.82 113.414 638.088 113.638 638.264 113.909C638.44 114.173 638.528 114.51 638.528 114.921C638.528 115.603 638.264 116.138 637.736 116.527C637.208 116.916 636.497 117.11 635.602 117.11ZM642.06 117C640.901 117 640.322 116.355 640.322 115.064V112.16H639.464C639.39 112.16 639.328 112.138 639.277 112.094C639.233 112.043 639.211 111.98 639.211 111.907V111.533C639.211 111.46 639.233 111.401 639.277 111.357C639.328 111.306 639.39 111.28 639.464 111.28H640.322V109.443C640.322 109.37 640.344 109.311 640.388 109.267C640.439 109.216 640.501 109.19 640.575 109.19H641.092C641.165 109.19 641.224 109.216 641.268 109.267C641.319 109.311 641.345 109.37 641.345 109.443V111.28H642.709C642.782 111.28 642.841 111.306 642.885 111.357C642.936 111.401 642.962 111.46 642.962 111.533V111.907C642.962 111.98 642.936 112.043 642.885 112.094C642.841 112.138 642.782 112.16 642.709 112.16H641.345V114.987C641.345 115.354 641.407 115.632 641.532 115.823C641.656 116.006 641.862 116.098 642.148 116.098H642.819C642.892 116.098 642.951 116.124 642.995 116.175C643.046 116.219 643.072 116.278 643.072 116.351V116.747C643.072 116.82 643.046 116.883 642.995 116.934C642.951 116.978 642.892 117 642.819 117H642.06ZM646.467 117.11C645.66 117.11 645.033 116.883 644.586 116.428C644.146 115.973 643.911 115.368 643.882 114.613L643.871 114.14L643.882 113.667C643.911 112.919 644.149 112.318 644.597 111.863C645.044 111.401 645.667 111.17 646.467 111.17C647.266 111.17 647.889 111.401 648.337 111.863C648.784 112.318 649.022 112.919 649.052 113.667C649.059 113.748 649.063 113.905 649.063 114.14C649.063 114.375 649.059 114.532 649.052 114.613C649.022 115.368 648.784 115.973 648.337 116.428C647.897 116.883 647.273 117.11 646.467 117.11ZM646.467 116.263C646.929 116.263 647.292 116.116 647.556 115.823C647.827 115.53 647.974 115.108 647.996 114.558C648.003 114.485 648.007 114.345 648.007 114.14C648.007 113.935 648.003 113.795 647.996 113.722C647.974 113.172 647.827 112.75 647.556 112.457C647.292 112.164 646.929 112.017 646.467 112.017C646.005 112.017 645.638 112.164 645.367 112.457C645.095 112.75 644.952 113.172 644.938 113.722L644.927 114.14L644.938 114.558C644.952 115.108 645.095 115.53 645.367 115.823C645.638 116.116 646.005 116.263 646.467 116.263ZM650.693 117C650.62 117 650.557 116.978 650.506 116.934C650.462 116.883 650.44 116.82 650.44 116.747V111.544C650.44 111.471 650.462 111.408 650.506 111.357C650.557 111.306 650.62 111.28 650.693 111.28H651.199C651.272 111.28 651.335 111.306 651.386 111.357C651.437 111.408 651.463 111.471 651.463 111.544V112.028C651.764 111.529 652.277 111.28 653.003 111.28H653.432C653.505 111.28 653.564 111.306 653.608 111.357C653.659 111.401 653.685 111.46 653.685 111.533V111.984C653.685 112.057 653.659 112.116 653.608 112.16C653.564 112.204 653.505 112.226 653.432 112.226H652.772C652.376 112.226 652.064 112.343 651.837 112.578C651.61 112.805 651.496 113.117 651.496 113.513V116.747C651.496 116.82 651.47 116.883 651.419 116.934C651.368 116.978 651.305 117 651.232 117H650.693ZM656.799 117.11C656.044 117.11 655.439 116.879 654.984 116.417C654.537 115.948 654.291 115.31 654.247 114.503L654.236 114.129L654.247 113.766C654.299 112.974 654.548 112.343 654.995 111.874C655.45 111.405 656.048 111.17 656.788 111.17C657.602 111.17 658.233 111.43 658.68 111.951C659.128 112.464 659.351 113.161 659.351 114.041V114.228C659.351 114.301 659.326 114.364 659.274 114.415C659.23 114.459 659.172 114.481 659.098 114.481H655.292V114.58C655.314 115.057 655.457 115.464 655.721 115.801C655.993 116.131 656.348 116.296 656.788 116.296C657.126 116.296 657.401 116.23 657.613 116.098C657.833 115.959 657.995 115.816 658.097 115.669C658.163 115.581 658.211 115.53 658.24 115.515C658.277 115.493 658.339 115.482 658.427 115.482H658.966C659.032 115.482 659.087 115.5 659.131 115.537C659.175 115.574 659.197 115.625 659.197 115.691C659.197 115.852 659.095 116.047 658.889 116.274C658.691 116.501 658.409 116.699 658.042 116.868C657.683 117.029 657.269 117.11 656.799 117.11ZM658.306 113.722V113.689C658.306 113.183 658.167 112.772 657.888 112.457C657.617 112.134 657.25 111.973 656.788 111.973C656.326 111.973 655.96 112.134 655.688 112.457C655.424 112.772 655.292 113.183 655.292 113.689V113.722H658.306ZM666.257 113.15C666.184 113.15 666.121 113.128 666.07 113.084C666.026 113.033 666.004 112.97 666.004 112.897V112.127C666.004 112.054 666.026 111.995 666.07 111.951C666.121 111.9 666.184 111.874 666.257 111.874H667.049C667.122 111.874 667.181 111.9 667.225 111.951C667.276 111.995 667.302 112.054 667.302 112.127V112.897C667.302 112.97 667.276 113.033 667.225 113.084C667.181 113.128 667.122 113.15 667.049 113.15H666.257ZM666.257 117C666.184 117 666.121 116.978 666.07 116.934C666.026 116.883 666.004 116.82 666.004 116.747V115.977C666.004 115.904 666.026 115.845 666.07 115.801C666.121 115.75 666.184 115.724 666.257 115.724H667.049C667.122 115.724 667.181 115.75 667.225 115.801C667.276 115.845 667.302 115.904 667.302 115.977V116.747C667.302 116.82 667.276 116.883 667.225 116.934C667.181 116.978 667.122 117 667.049 117H666.257Z" fill="black"/>
<path d="M566.948 196.11C566.251 196.11 565.712 195.886 565.331 195.439C564.95 194.984 564.759 194.383 564.759 193.635V190.533C564.759 190.46 564.781 190.401 564.825 190.357C564.876 190.306 564.939 190.28 565.012 190.28H565.562C565.635 190.28 565.694 190.306 565.738 190.357C565.789 190.401 565.815 190.46 565.815 190.533V193.58C565.815 194.673 566.292 195.219 567.245 195.219C567.707 195.219 568.074 195.076 568.345 194.79C568.616 194.497 568.752 194.093 568.752 193.58V190.533C568.752 190.46 568.774 190.401 568.818 190.357C568.869 190.306 568.932 190.28 569.005 190.28H569.555C569.628 190.28 569.687 190.306 569.731 190.357C569.775 190.401 569.797 190.46 569.797 190.533V195.747C569.797 195.82 569.775 195.883 569.731 195.934C569.687 195.978 569.628 196 569.555 196H569.038C568.965 196 568.902 195.978 568.851 195.934C568.807 195.883 568.785 195.82 568.785 195.747V195.263C568.58 195.542 568.33 195.754 568.037 195.901C567.744 196.04 567.381 196.11 566.948 196.11ZM573.411 196.11C572.898 196.11 572.465 196.029 572.113 195.868C571.769 195.699 571.508 195.509 571.332 195.296C571.164 195.083 571.079 194.907 571.079 194.768C571.079 194.695 571.105 194.64 571.156 194.603C571.215 194.559 571.274 194.537 571.332 194.537H571.827C571.901 194.537 571.967 194.574 572.025 194.647C572.201 194.852 572.392 195.014 572.597 195.131C572.803 195.248 573.078 195.307 573.422 195.307C573.804 195.307 574.112 195.234 574.346 195.087C574.588 194.933 574.709 194.724 574.709 194.46C574.709 194.284 574.658 194.141 574.555 194.031C574.46 193.914 574.291 193.815 574.049 193.734C573.815 193.646 573.463 193.551 572.993 193.448C572.355 193.309 571.901 193.107 571.629 192.843C571.365 192.579 571.233 192.238 571.233 191.82C571.233 191.541 571.314 191.277 571.475 191.028C571.644 190.771 571.886 190.566 572.201 190.412C572.524 190.251 572.909 190.17 573.356 190.17C573.826 190.17 574.225 190.247 574.555 190.401C574.885 190.555 575.131 190.738 575.292 190.951C575.461 191.156 575.545 191.329 575.545 191.468C575.545 191.534 575.52 191.589 575.468 191.633C575.424 191.677 575.369 191.699 575.303 191.699H574.841C574.753 191.699 574.68 191.662 574.621 191.589C574.504 191.45 574.401 191.343 574.313 191.27C574.233 191.189 574.112 191.12 573.95 191.061C573.796 191.002 573.598 190.973 573.356 190.973C573.004 190.973 572.733 191.05 572.542 191.204C572.352 191.351 572.256 191.545 572.256 191.787C572.256 191.941 572.297 192.073 572.377 192.183C572.458 192.286 572.612 192.381 572.839 192.469C573.074 192.557 573.411 192.649 573.851 192.744C574.548 192.891 575.039 193.103 575.325 193.382C575.619 193.653 575.765 194.002 575.765 194.427C575.765 194.742 575.674 195.028 575.49 195.285C575.307 195.542 575.036 195.743 574.676 195.89C574.324 196.037 573.903 196.11 573.411 196.11ZM579.327 196.11C578.571 196.11 577.966 195.879 577.512 195.417C577.064 194.948 576.819 194.31 576.775 193.503L576.764 193.129L576.775 192.766C576.826 191.974 577.075 191.343 577.523 190.874C577.977 190.405 578.575 190.17 579.316 190.17C580.13 190.17 580.76 190.43 581.208 190.951C581.655 191.464 581.879 192.161 581.879 193.041V193.228C581.879 193.301 581.853 193.364 581.802 193.415C581.758 193.459 581.699 193.481 581.626 193.481H577.82V193.58C577.842 194.057 577.985 194.464 578.249 194.801C578.52 195.131 578.876 195.296 579.316 195.296C579.653 195.296 579.928 195.23 580.141 195.098C580.361 194.959 580.522 194.816 580.625 194.669C580.691 194.581 580.738 194.53 580.768 194.515C580.804 194.493 580.867 194.482 580.955 194.482H581.494C581.56 194.482 581.615 194.5 581.659 194.537C581.703 194.574 581.725 194.625 581.725 194.691C581.725 194.852 581.622 195.047 581.417 195.274C581.219 195.501 580.936 195.699 580.57 195.868C580.21 196.029 579.796 196.11 579.327 196.11ZM580.834 192.722V192.689C580.834 192.183 580.694 191.772 580.416 191.457C580.144 191.134 579.778 190.973 579.316 190.973C578.854 190.973 578.487 191.134 578.216 191.457C577.952 191.772 577.82 192.183 577.82 192.689V192.722H580.834ZM583.447 196C583.374 196 583.311 195.978 583.26 195.934C583.216 195.883 583.194 195.82 583.194 195.747V190.544C583.194 190.471 583.216 190.408 583.26 190.357C583.311 190.306 583.374 190.28 583.447 190.28H583.953C584.026 190.28 584.089 190.306 584.14 190.357C584.191 190.408 584.217 190.471 584.217 190.544V191.028C584.518 190.529 585.031 190.28 585.757 190.28H586.186C586.259 190.28 586.318 190.306 586.362 190.357C586.413 190.401 586.439 190.46 586.439 190.533V190.984C586.439 191.057 586.413 191.116 586.362 191.16C586.318 191.204 586.259 191.226 586.186 191.226H585.526C585.13 191.226 584.818 191.343 584.591 191.578C584.364 191.805 584.25 192.117 584.25 192.513V195.747C584.25 195.82 584.224 195.883 584.173 195.934C584.122 195.978 584.059 196 583.986 196H583.447ZM589.595 196C589.521 196 589.459 195.978 589.408 195.934C589.364 195.883 589.342 195.82 589.342 195.747V189.587L587.516 190.995C587.464 191.039 587.409 191.061 587.351 191.061C587.285 191.061 587.222 191.024 587.164 190.951L586.878 190.588C586.841 190.537 586.823 190.485 586.823 190.434C586.823 190.346 586.859 190.276 586.933 190.225L589.331 188.377C589.411 188.326 589.507 188.3 589.617 188.3H590.178C590.251 188.3 590.31 188.326 590.354 188.377C590.405 188.421 590.431 188.48 590.431 188.553V195.747C590.431 195.82 590.405 195.883 590.354 195.934C590.31 195.978 590.251 196 590.178 196H589.595ZM597.668 192.15C597.595 192.15 597.533 192.128 597.481 192.084C597.437 192.033 597.415 191.97 597.415 191.897V191.127C597.415 191.054 597.437 190.995 597.481 190.951C597.533 190.9 597.595 190.874 597.668 190.874H598.46C598.534 190.874 598.592 190.9 598.636 190.951C598.688 190.995 598.713 191.054 598.713 191.127V191.897C598.713 191.97 598.688 192.033 598.636 192.084C598.592 192.128 598.534 192.15 598.46 192.15H597.668ZM597.668 196C597.595 196 597.533 195.978 597.481 195.934C597.437 195.883 597.415 195.82 597.415 195.747V194.977C597.415 194.904 597.437 194.845 597.481 194.801C597.533 194.75 597.595 194.724 597.668 194.724H598.46C598.534 194.724 598.592 194.75 598.636 194.801C598.688 194.845 598.713 194.904 598.713 194.977V195.747C598.713 195.82 598.688 195.883 598.636 195.934C598.592 195.978 598.534 196 598.46 196H597.668Z" fill="black"/>
<path d="M566.948 242.11C566.251 242.11 565.712 241.886 565.331 241.439C564.95 240.984 564.759 240.383 564.759 239.635V236.533C564.759 236.46 564.781 236.401 564.825 236.357C564.876 236.306 564.939 236.28 565.012 236.28H565.562C565.635 236.28 565.694 236.306 565.738 236.357C565.789 236.401 565.815 236.46 565.815 236.533V239.58C565.815 240.673 566.292 241.219 567.245 241.219C567.707 241.219 568.074 241.076 568.345 240.79C568.616 240.497 568.752 240.093 568.752 239.58V236.533C568.752 236.46 568.774 236.401 568.818 236.357C568.869 236.306 568.932 236.28 569.005 236.28H569.555C569.628 236.28 569.687 236.306 569.731 236.357C569.775 236.401 569.797 236.46 569.797 236.533V241.747C569.797 241.82 569.775 241.883 569.731 241.934C569.687 241.978 569.628 242 569.555 242H569.038C568.965 242 568.902 241.978 568.851 241.934C568.807 241.883 568.785 241.82 568.785 241.747V241.263C568.58 241.542 568.33 241.754 568.037 241.901C567.744 242.04 567.381 242.11 566.948 242.11ZM573.411 242.11C572.898 242.11 572.465 242.029 572.113 241.868C571.769 241.699 571.508 241.509 571.332 241.296C571.164 241.083 571.079 240.907 571.079 240.768C571.079 240.695 571.105 240.64 571.156 240.603C571.215 240.559 571.274 240.537 571.332 240.537H571.827C571.901 240.537 571.967 240.574 572.025 240.647C572.201 240.852 572.392 241.014 572.597 241.131C572.803 241.248 573.078 241.307 573.422 241.307C573.804 241.307 574.112 241.234 574.346 241.087C574.588 240.933 574.709 240.724 574.709 240.46C574.709 240.284 574.658 240.141 574.555 240.031C574.46 239.914 574.291 239.815 574.049 239.734C573.815 239.646 573.463 239.551 572.993 239.448C572.355 239.309 571.901 239.107 571.629 238.843C571.365 238.579 571.233 238.238 571.233 237.82C571.233 237.541 571.314 237.277 571.475 237.028C571.644 236.771 571.886 236.566 572.201 236.412C572.524 236.251 572.909 236.17 573.356 236.17C573.826 236.17 574.225 236.247 574.555 236.401C574.885 236.555 575.131 236.738 575.292 236.951C575.461 237.156 575.545 237.329 575.545 237.468C575.545 237.534 575.52 237.589 575.468 237.633C575.424 237.677 575.369 237.699 575.303 237.699H574.841C574.753 237.699 574.68 237.662 574.621 237.589C574.504 237.45 574.401 237.343 574.313 237.27C574.233 237.189 574.112 237.12 573.95 237.061C573.796 237.002 573.598 236.973 573.356 236.973C573.004 236.973 572.733 237.05 572.542 237.204C572.352 237.351 572.256 237.545 572.256 237.787C572.256 237.941 572.297 238.073 572.377 238.183C572.458 238.286 572.612 238.381 572.839 238.469C573.074 238.557 573.411 238.649 573.851 238.744C574.548 238.891 575.039 239.103 575.325 239.382C575.619 239.653 575.765 240.002 575.765 240.427C575.765 240.742 575.674 241.028 575.49 241.285C575.307 241.542 575.036 241.743 574.676 241.89C574.324 242.037 573.903 242.11 573.411 242.11ZM579.327 242.11C578.571 242.11 577.966 241.879 577.512 241.417C577.064 240.948 576.819 240.31 576.775 239.503L576.764 239.129L576.775 238.766C576.826 237.974 577.075 237.343 577.523 236.874C577.977 236.405 578.575 236.17 579.316 236.17C580.13 236.17 580.76 236.43 581.208 236.951C581.655 237.464 581.879 238.161 581.879 239.041V239.228C581.879 239.301 581.853 239.364 581.802 239.415C581.758 239.459 581.699 239.481 581.626 239.481H577.82V239.58C577.842 240.057 577.985 240.464 578.249 240.801C578.52 241.131 578.876 241.296 579.316 241.296C579.653 241.296 579.928 241.23 580.141 241.098C580.361 240.959 580.522 240.816 580.625 240.669C580.691 240.581 580.738 240.53 580.768 240.515C580.804 240.493 580.867 240.482 580.955 240.482H581.494C581.56 240.482 581.615 240.5 581.659 240.537C581.703 240.574 581.725 240.625 581.725 240.691C581.725 240.852 581.622 241.047 581.417 241.274C581.219 241.501 580.936 241.699 580.57 241.868C580.21 242.029 579.796 242.11 579.327 242.11ZM580.834 238.722V238.689C580.834 238.183 580.694 237.772 580.416 237.457C580.144 237.134 579.778 236.973 579.316 236.973C578.854 236.973 578.487 237.134 578.216 237.457C577.952 237.772 577.82 238.183 577.82 238.689V238.722H580.834ZM583.447 242C583.374 242 583.311 241.978 583.26 241.934C583.216 241.883 583.194 241.82 583.194 241.747V236.544C583.194 236.471 583.216 236.408 583.26 236.357C583.311 236.306 583.374 236.28 583.447 236.28H583.953C584.026 236.28 584.089 236.306 584.14 236.357C584.191 236.408 584.217 236.471 584.217 236.544V237.028C584.518 236.529 585.031 236.28 585.757 236.28H586.186C586.259 236.28 586.318 236.306 586.362 236.357C586.413 236.401 586.439 236.46 586.439 236.533V236.984C586.439 237.057 586.413 237.116 586.362 237.16C586.318 237.204 586.259 237.226 586.186 237.226H585.526C585.13 237.226 584.818 237.343 584.591 237.578C584.364 237.805 584.25 238.117 584.25 238.513V241.747C584.25 241.82 584.224 241.883 584.173 241.934C584.122 241.978 584.059 242 583.986 242H583.447ZM587.351 242C587.277 242 587.215 241.978 587.164 241.934C587.12 241.883 587.098 241.82 587.098 241.747V241.395C587.098 241.226 587.189 241.065 587.373 240.911L589.705 238.579C590.269 238.11 590.658 237.728 590.871 237.435C591.083 237.134 591.19 236.819 591.19 236.489C591.19 236.064 591.069 235.73 590.827 235.488C590.592 235.246 590.247 235.125 589.793 235.125C589.367 235.125 589.026 235.253 588.77 235.51C588.513 235.759 588.355 236.093 588.297 236.511C588.282 236.599 588.245 236.665 588.187 236.709C588.135 236.746 588.077 236.764 588.011 236.764H587.439C587.373 236.764 587.318 236.746 587.274 236.709C587.23 236.665 587.208 236.614 587.208 236.555C587.222 236.159 587.329 235.781 587.527 235.422C587.725 235.055 588.014 234.758 588.396 234.531C588.784 234.296 589.25 234.179 589.793 234.179C590.621 234.179 591.245 234.395 591.663 234.828C592.088 235.253 592.301 235.796 592.301 236.456C592.301 236.918 592.183 237.336 591.949 237.71C591.721 238.077 591.366 238.473 590.882 238.898L588.77 241.043H592.202C592.282 241.043 592.345 241.069 592.389 241.12C592.44 241.164 592.466 241.223 592.466 241.296V241.747C592.466 241.82 592.44 241.883 592.389 241.934C592.337 241.978 592.275 242 592.202 242H587.351ZM596.723 238.15C596.65 238.15 596.587 238.128 596.536 238.084C596.492 238.033 596.47 237.97 596.47 237.897V237.127C596.47 237.054 596.492 236.995 596.536 236.951C596.587 236.9 596.65 236.874 596.723 236.874H597.515C597.588 236.874 597.647 236.9 597.691 236.951C597.742 236.995 597.768 237.054 597.768 237.127V237.897C597.768 237.97 597.742 238.033 597.691 238.084C597.647 238.128 597.588 238.15 597.515 238.15H596.723ZM596.723 242C596.65 242 596.587 241.978 596.536 241.934C596.492 241.883 596.47 241.82 596.47 241.747V240.977C596.47 240.904 596.492 240.845 596.536 240.801C596.587 240.75 596.65 240.724 596.723 240.724H597.515C597.588 240.724 597.647 240.75 597.691 240.801C597.742 240.845 597.768 240.904 597.768 240.977V241.747C597.768 241.82 597.742 241.883 597.691 241.934C597.647 241.978 597.588 242 597.515 242H596.723Z" fill="black"/>
<rect x="764.446" y="120.5" width="27.1081" height="26" fill="#C4C4C4" stroke="black"/>
<line x1="752" y1="133.435" x2="763.946" y2="133.435" stroke="black"/>
<line x1="792.054" y1="133.435" x2="804" y2="133.435" stroke="black"/>
<path d="M783.576 128.264C783.576 128.76 783.432 129.008 783.144 129.008C783.064 129.008 782.984 128.944 782.904 128.816C782.76 128.56 782.52 128.432 782.184 128.432C781.448 128.432 780.76 128.96 780.12 130.016C779.992 130.224 779.592 130.976 778.92 132.272H779.208C780.952 132.272 782.112 132.248 782.688 132.2C782.752 132.216 782.784 132.248 782.784 132.296C782.784 132.424 782.216 132.6 781.08 132.824C780.008 133 779.128 133.152 778.44 133.28C777.944 134.304 777.344 135.52 776.64 136.928C775.2 139.616 774.248 141.288 773.784 141.944C772.392 143.928 771.032 144.92 769.704 144.92C769.24 144.92 768.84 144.72 768.504 144.32C768.152 143.936 767.968 143.504 767.952 143.024C768 142.832 768.072 142.736 768.168 142.736C768.216 142.736 768.248 142.792 768.264 142.904C768.36 143.32 768.52 143.64 768.744 143.864C768.968 144.088 769.2 144.2 769.44 144.2C770.8 144.2 772.04 143.36 773.16 141.68C773.8 140.72 774.672 138.992 775.776 136.496L777.072 133.376C775.472 133.36 774.672 133.168 774.672 132.8C774.672 132.64 774.744 132.504 774.888 132.392C775.048 132.28 775.184 132.224 775.296 132.224L777.552 132.272C779.12 128.784 780.56 127.04 781.872 127.04C782.368 127.04 782.872 127.28 783.384 127.76C783.512 127.888 783.576 128.056 783.576 128.264Z" fill="black"/>
<rect x="788.446" y="84.5" width="27.1081" height="26" fill="#C4C4C4" stroke="black"/>
<line x1="776" y1="97.4355" x2="787.946" y2="97.4355" stroke="black"/>
<line x1="816.054" y1="97.4355" x2="828" y2="97.4355" stroke="black"/>
<path d="M807.576 92.264C807.576 92.76 807.432 93.008 807.144 93.008C807.064 93.008 806.984 92.944 806.904 92.816C806.76 92.56 806.52 92.432 806.184 92.432C805.448 92.432 804.76 92.96 804.12 94.016C803.992 94.224 803.592 94.976 802.92 96.272H803.208C804.952 96.272 806.112 96.248 806.688 96.2C806.752 96.216 806.784 96.248 806.784 96.296C806.784 96.424 806.216 96.6 805.08 96.824C804.008 97 803.128 97.152 802.44 97.28C801.944 98.304 801.344 99.52 800.64 100.928C799.2 103.616 798.248 105.288 797.784 105.944C796.392 107.928 795.032 108.92 793.704 108.92C793.24 108.92 792.84 108.72 792.504 108.32C792.152 107.936 791.968 107.504 791.952 107.024C792 106.832 792.072 106.736 792.168 106.736C792.216 106.736 792.248 106.792 792.264 106.904C792.36 107.32 792.52 107.64 792.744 107.864C792.968 108.088 793.2 108.2 793.44 108.2C794.8 108.2 796.04 107.36 797.16 105.68C797.8 104.72 798.672 102.992 799.776 100.496L801.072 97.376C799.472 97.36 798.672 97.168 798.672 96.8C798.672 96.64 798.744 96.504 798.888 96.392C799.048 96.28 799.184 96.224 799.296 96.224L801.552 96.272C803.12 92.784 804.56 91.04 805.872 91.04C806.368 91.04 806.872 91.28 807.384 91.76C807.512 91.888 807.576 92.056 807.576 92.264Z" fill="black"/>
<ellipse cx="35.5" cy="18.5" rx="12.5" ry="10.5" fill="#E60A0A"/>
<path d="M32.008 23C31.9147 23 31.8353 22.972 31.77 22.916C31.714 22.8507 31.686 22.7713 31.686 22.678V22.23C31.686 22.0153 31.8027 21.81 32.036 21.614L35.004 18.646C35.7227 18.0487 36.2173 17.5633 36.488 17.19C36.7587 16.8073 36.894 16.406 36.894 15.986C36.894 15.4447 36.74 15.02 36.432 14.712C36.1333 14.404 35.6947 14.25 35.116 14.25C34.5747 14.25 34.1407 14.4133 33.814 14.74C33.4873 15.0573 33.2867 15.482 33.212 16.014C33.1933 16.126 33.1467 16.21 33.072 16.266C33.0067 16.3127 32.932 16.336 32.848 16.336H32.12C32.036 16.336 31.966 16.3127 31.91 16.266C31.854 16.21 31.826 16.1447 31.826 16.07C31.8447 15.566 31.98 15.0853 32.232 14.628C32.484 14.1613 32.8527 13.7833 33.338 13.494C33.8327 13.1953 34.4253 13.046 35.116 13.046C36.1707 13.046 36.964 13.3213 37.496 13.872C38.0373 14.4133 38.308 15.104 38.308 15.944C38.308 16.532 38.1587 17.064 37.86 17.54C37.5707 18.0067 37.118 18.5107 36.502 19.052L33.814 21.782H38.182C38.2847 21.782 38.364 21.8147 38.42 21.88C38.4853 21.936 38.518 22.0107 38.518 22.104V22.678C38.518 22.7713 38.4853 22.8507 38.42 22.916C38.3547 22.972 38.2753 23 38.182 23H32.008Z" fill="black"/>
<ellipse cx="621.5" cy="20.5" rx="12.5" ry="10.5" fill="#E60A0A"/>
<path d="M618.008 25C617.915 25 617.835 24.972 617.77 24.916C617.714 24.8507 617.686 24.7713 617.686 24.678V24.23C617.686 24.0153 617.803 23.81 618.036 23.614L621.004 20.646C621.723 20.0487 622.217 19.5633 622.488 19.19C622.759 18.8073 622.894 18.406 622.894 17.986C622.894 17.4447 622.74 17.02 622.432 16.712C622.133 16.404 621.695 16.25 621.116 16.25C620.575 16.25 620.141 16.4133 619.814 16.74C619.487 17.0573 619.287 17.482 619.212 18.014C619.193 18.126 619.147 18.21 619.072 18.266C619.007 18.3127 618.932 18.336 618.848 18.336H618.12C618.036 18.336 617.966 18.3127 617.91 18.266C617.854 18.21 617.826 18.1447 617.826 18.07C617.845 17.566 617.98 17.0853 618.232 16.628C618.484 16.1613 618.853 15.7833 619.338 15.494C619.833 15.1953 620.425 15.046 621.116 15.046C622.171 15.046 622.964 15.3213 623.496 15.872C624.037 16.4133 624.308 17.104 624.308 17.944C624.308 18.532 624.159 19.064 623.86 19.54C623.571 20.0067 623.118 20.5107 622.502 21.052L619.814 23.782H624.182C624.285 23.782 624.364 23.8147 624.42 23.88C624.485 23.936 624.518 24.0107 624.518 24.104V24.678C624.518 24.7713 624.485 24.8507 624.42 24.916C624.355 24.972 624.275 25 624.182 25H618.008Z" fill="black"/>
<rect x="891.5" y="0.5" width="181" height="279" fill="#F9F3F3" stroke="black"/>
<path d="M934.102 20.18C932.494 20.18 931.27 19.748 930.43 18.884C929.602 18.02 929.158 16.826 929.098 15.302C929.086 14.978 929.08 14.45 929.08 13.718C929.08 12.974 929.086 12.434 929.098 12.098C929.158 10.586 929.608 9.398 930.448 8.534C931.288 7.658 932.506 7.22 934.102 7.22C935.17 7.22 936.076 7.412 936.82 7.796C937.564 8.168 938.128 8.66 938.512 9.272C938.896 9.884 939.106 10.538 939.142 11.234V11.27C939.142 11.366 939.1 11.45 939.016 11.522C938.944 11.582 938.86 11.612 938.764 11.612H937.774C937.534 11.612 937.384 11.474 937.324 11.198C937.12 10.298 936.754 9.668 936.226 9.308C935.698 8.936 934.99 8.75 934.102 8.75C932.038 8.75 930.97 9.896 930.898 12.188C930.886 12.512 930.88 13.01 930.88 13.682C930.88 14.354 930.886 14.864 930.898 15.212C930.97 17.504 932.038 18.65 934.102 18.65C934.99 18.65 935.698 18.47 936.226 18.11C936.766 17.738 937.132 17.102 937.324 16.202C937.36 16.046 937.414 15.938 937.486 15.878C937.558 15.818 937.654 15.788 937.774 15.788H938.764C938.872 15.788 938.962 15.824 939.034 15.896C939.118 15.956 939.154 16.04 939.142 16.148C939.106 16.856 938.896 17.516 938.512 18.128C938.128 18.74 937.564 19.238 936.82 19.622C936.076 19.994 935.17 20.18 934.102 20.18ZM943.93 20.18C943.342 20.18 942.796 20.06 942.292 19.82C941.788 19.58 941.386 19.256 941.086 18.848C940.798 18.428 940.654 17.966 940.654 17.462C940.654 16.67 940.978 16.022 941.626 15.518C942.286 15.002 943.174 14.666 944.29 14.51L946.972 14.132V13.61C946.972 12.386 946.27 11.774 944.866 11.774C944.338 11.774 943.906 11.888 943.57 12.116C943.234 12.332 942.982 12.59 942.814 12.89C942.778 12.998 942.73 13.076 942.67 13.124C942.622 13.172 942.55 13.196 942.454 13.196H941.68C941.572 13.196 941.476 13.16 941.392 13.088C941.32 13.004 941.284 12.908 941.284 12.8C941.296 12.512 941.428 12.188 941.68 11.828C941.944 11.456 942.346 11.138 942.886 10.874C943.426 10.598 944.092 10.46 944.884 10.46C946.228 10.46 947.194 10.778 947.782 11.414C948.37 12.038 948.664 12.818 948.664 13.754V19.586C948.664 19.706 948.622 19.808 948.538 19.892C948.466 19.964 948.37 20 948.25 20H947.422C947.302 20 947.2 19.964 947.116 19.892C947.044 19.808 947.008 19.706 947.008 19.586V18.812C946.744 19.196 946.36 19.52 945.856 19.784C945.352 20.048 944.71 20.18 943.93 20.18ZM944.308 18.83C945.088 18.83 945.724 18.578 946.216 18.074C946.72 17.558 946.972 16.82 946.972 15.86V15.356L944.884 15.662C944.032 15.782 943.39 15.986 942.958 16.274C942.526 16.55 942.31 16.904 942.31 17.336C942.31 17.816 942.508 18.188 942.904 18.452C943.3 18.704 943.768 18.83 944.308 18.83ZM951.684 20C951.564 20 951.462 19.964 951.378 19.892C951.306 19.808 951.27 19.706 951.27 19.586V7.634C951.27 7.514 951.306 7.418 951.378 7.346C951.462 7.262 951.564 7.22 951.684 7.22H952.53C952.65 7.22 952.746 7.262 952.818 7.346C952.902 7.418 952.944 7.514 952.944 7.634V19.586C952.944 19.706 952.902 19.808 952.818 19.892C952.746 19.964 952.65 20 952.53 20H951.684ZM956.061 20C955.941 20 955.839 19.964 955.755 19.892C955.683 19.808 955.647 19.706 955.647 19.586V7.634C955.647 7.514 955.683 7.418 955.755 7.346C955.839 7.262 955.941 7.22 956.061 7.22H956.907C957.027 7.22 957.123 7.262 957.195 7.346C957.279 7.418 957.321 7.514 957.321 7.634V19.586C957.321 19.706 957.279 19.808 957.195 19.892C957.123 19.964 957.027 20 956.907 20H956.061ZM968.702 20.18C967.706 20.18 966.842 20.024 966.11 19.712C965.39 19.4 964.838 18.992 964.454 18.488C964.07 17.972 963.866 17.42 963.842 16.832C963.842 16.736 963.878 16.652 963.95 16.58C964.034 16.496 964.13 16.454 964.238 16.454H965.156C965.384 16.454 965.54 16.574 965.624 16.814C965.732 17.318 966.038 17.75 966.542 18.11C967.058 18.47 967.778 18.65 968.702 18.65C969.698 18.65 970.448 18.476 970.952 18.128C971.456 17.768 971.708 17.27 971.708 16.634C971.708 16.226 971.582 15.896 971.33 15.644C971.09 15.392 970.73 15.17 970.25 14.978C969.77 14.786 969.05 14.546 968.09 14.258C967.154 13.994 966.41 13.712 965.858 13.412C965.306 13.112 964.892 12.74 964.616 12.296C964.34 11.852 964.202 11.294 964.202 10.622C964.202 9.974 964.376 9.392 964.724 8.876C965.084 8.36 965.594 7.958 966.254 7.67C966.914 7.37 967.7 7.22 968.612 7.22C969.548 7.22 970.352 7.388 971.024 7.724C971.696 8.048 972.206 8.462 972.554 8.966C972.902 9.47 973.088 9.974 973.112 10.478C973.112 10.574 973.076 10.658 973.004 10.73C972.944 10.802 972.854 10.838 972.734 10.838H971.78C971.528 10.838 971.372 10.724 971.312 10.496C971.24 9.992 970.958 9.578 970.466 9.254C969.974 8.918 969.356 8.75 968.612 8.75C967.796 8.75 967.154 8.906 966.686 9.218C966.218 9.53 965.984 9.992 965.984 10.604C965.984 11.012 966.092 11.348 966.308 11.612C966.536 11.876 966.878 12.11 967.334 12.314C967.79 12.506 968.456 12.728 969.332 12.98C970.352 13.256 971.156 13.544 971.744 13.844C972.332 14.132 972.77 14.498 973.058 14.942C973.346 15.374 973.49 15.926 973.49 16.598C973.49 17.714 973.058 18.59 972.194 19.226C971.33 19.862 970.166 20.18 968.702 20.18ZM979.269 20C977.373 20 976.425 18.944 976.425 16.832V12.08H975.021C974.901 12.08 974.799 12.044 974.715 11.972C974.643 11.888 974.607 11.786 974.607 11.666V11.054C974.607 10.934 974.643 10.838 974.715 10.766C974.799 10.682 974.901 10.64 975.021 10.64H976.425V7.634C976.425 7.514 976.461 7.418 976.533 7.346C976.617 7.262 976.719 7.22 976.839 7.22H977.685C977.805 7.22 977.901 7.262 977.973 7.346C978.057 7.418 978.099 7.514 978.099 7.634V10.64H980.331C980.451 10.64 980.547 10.682 980.619 10.766C980.703 10.838 980.745 10.934 980.745 11.054V11.666C980.745 11.786 980.703 11.888 980.619 11.972C980.547 12.044 980.451 12.08 980.331 12.08H978.099V16.706C978.099 17.306 978.201 17.762 978.405 18.074C978.609 18.374 978.945 18.524 979.413 18.524H980.511C980.631 18.524 980.727 18.566 980.799 18.65C980.883 18.722 980.925 18.818 980.925 18.938V19.586C980.925 19.706 980.883 19.808 980.799 19.892C980.727 19.964 980.631 20 980.511 20H979.269ZM985.256 20.18C984.668 20.18 984.122 20.06 983.618 19.82C983.114 19.58 982.712 19.256 982.412 18.848C982.124 18.428 981.98 17.966 981.98 17.462C981.98 16.67 982.304 16.022 982.952 15.518C983.612 15.002 984.5 14.666 985.616 14.51L988.298 14.132V13.61C988.298 12.386 987.596 11.774 986.192 11.774C985.664 11.774 985.232 11.888 984.896 12.116C984.56 12.332 984.308 12.59 984.14 12.89C984.104 12.998 984.056 13.076 983.996 13.124C983.948 13.172 983.876 13.196 983.78 13.196H983.006C982.898 13.196 982.802 13.16 982.718 13.088C982.646 13.004 982.61 12.908 982.61 12.8C982.622 12.512 982.754 12.188 983.006 11.828C983.27 11.456 983.672 11.138 984.212 10.874C984.752 10.598 985.418 10.46 986.21 10.46C987.554 10.46 988.52 10.778 989.108 11.414C989.696 12.038 989.99 12.818 989.99 13.754V19.586C989.99 19.706 989.948 19.808 989.864 19.892C989.792 19.964 989.696 20 989.576 20H988.748C988.628 20 988.526 19.964 988.442 19.892C988.37 19.808 988.334 19.706 988.334 19.586V18.812C988.07 19.196 987.686 19.52 987.182 19.784C986.678 20.048 986.036 20.18 985.256 20.18ZM985.634 18.83C986.414 18.83 987.05 18.578 987.542 18.074C988.046 17.558 988.298 16.82 988.298 15.86V15.356L986.21 15.662C985.358 15.782 984.716 15.986 984.284 16.274C983.852 16.55 983.636 16.904 983.636 17.336C983.636 17.816 983.834 18.188 984.23 18.452C984.626 18.704 985.094 18.83 985.634 18.83ZM996.358 20.18C995.074 20.18 994.066 19.82 993.334 19.1C992.614 18.368 992.23 17.348 992.182 16.04L992.164 15.32L992.182 14.6C992.23 13.292 992.614 12.278 993.334 11.558C994.066 10.826 995.074 10.46 996.358 10.46C997.222 10.46 997.954 10.616 998.554 10.928C999.154 11.24 999.598 11.624 999.886 12.08C1000.19 12.536 1000.35 12.992 1000.37 13.448C1000.38 13.568 1000.35 13.664 1000.26 13.736C1000.18 13.808 1000.08 13.844 999.958 13.844H999.094C998.974 13.844 998.884 13.82 998.824 13.772C998.764 13.724 998.704 13.628 998.644 13.484C998.44 12.908 998.152 12.5 997.78 12.26C997.408 12.008 996.94 11.882 996.376 11.882C995.632 11.882 995.038 12.116 994.594 12.584C994.162 13.04 993.928 13.742 993.892 14.69L993.874 15.338L993.892 15.95C993.928 16.91 994.162 17.618 994.594 18.074C995.026 18.53 995.62 18.758 996.376 18.758C996.94 18.758 997.408 18.638 997.78 18.398C998.152 18.146 998.44 17.732 998.644 17.156C998.704 17.012 998.764 16.916 998.824 16.868C998.884 16.808 998.974 16.778 999.094 16.778H999.958C1000.08 16.778 1000.18 16.82 1000.26 16.904C1000.35 16.976 1000.38 17.072 1000.37 17.192C1000.35 17.636 1000.19 18.092 999.886 18.56C999.598 19.016 999.154 19.4 998.554 19.712C997.966 20.024 997.234 20.18 996.358 20.18ZM1002.94 20C1002.82 20 1002.72 19.964 1002.64 19.892C1002.56 19.808 1002.53 19.706 1002.53 19.586V7.634C1002.53 7.514 1002.56 7.418 1002.64 7.346C1002.72 7.262 1002.82 7.22 1002.94 7.22H1003.79C1003.91 7.22 1004 7.262 1004.08 7.346C1004.16 7.418 1004.2 7.514 1004.2 7.634V13.898L1007.75 10.946C1007.78 10.922 1007.84 10.874 1007.93 10.802C1008.01 10.742 1008.09 10.7 1008.16 10.676C1008.25 10.652 1008.35 10.64 1008.47 10.64H1009.42C1009.53 10.64 1009.62 10.676 1009.69 10.748C1009.76 10.82 1009.8 10.91 1009.8 11.018C1009.8 11.15 1009.73 11.264 1009.58 11.36L1005.43 14.816L1010.03 19.298C1010.18 19.418 1010.25 19.526 1010.25 19.622C1010.25 19.73 1010.21 19.82 1010.14 19.892C1010.07 19.964 1009.98 20 1009.87 20H1008.94C1008.76 20 1008.62 19.982 1008.54 19.946C1008.47 19.91 1008.36 19.826 1008.22 19.694L1004.2 15.86V19.586C1004.2 19.706 1004.16 19.808 1004.08 19.892C1004 19.964 1003.91 20 1003.79 20H1002.94Z" fill="black"/>
<path d="M963.504 264.694C963.167 265.177 962.695 265.54 962.089 265.781C961.487 266.018 960.785 266.137 959.983 266.137C959.172 266.137 958.452 265.948 957.823 265.569C957.194 265.187 956.707 264.644 956.36 263.942C956.019 263.241 955.843 262.427 955.834 261.502V260.634C955.834 259.134 956.183 257.972 956.88 257.147C957.582 256.323 958.566 255.91 959.833 255.91C960.872 255.91 961.708 256.177 962.342 256.71C962.975 257.239 963.363 257.991 963.504 258.966H962.191C961.945 257.649 961.161 256.99 959.84 256.99C958.96 256.99 958.293 257.3 957.837 257.92C957.386 258.535 957.158 259.428 957.153 260.6V261.413C957.153 262.53 957.409 263.418 957.919 264.079C958.429 264.735 959.12 265.063 959.99 265.063C960.482 265.063 960.913 265.009 961.282 264.899C961.651 264.79 961.957 264.605 962.198 264.346V262.11H959.895V261.044H963.504V264.694ZM966.874 266H965.609V255.5H966.874V266ZM968.569 262.233C968.569 261.509 968.711 260.857 968.993 260.278C969.28 259.7 969.677 259.253 970.183 258.938C970.693 258.624 971.274 258.467 971.926 258.467C972.933 258.467 973.746 258.815 974.366 259.513C974.991 260.21 975.303 261.137 975.303 262.295V262.384C975.303 263.104 975.164 263.751 974.886 264.325C974.612 264.895 974.218 265.339 973.703 265.658C973.193 265.977 972.605 266.137 971.939 266.137C970.937 266.137 970.123 265.788 969.499 265.091C968.879 264.394 968.569 263.471 968.569 262.322V262.233ZM969.841 262.384C969.841 263.204 970.03 263.863 970.408 264.359C970.791 264.856 971.301 265.104 971.939 265.104C972.582 265.104 973.092 264.854 973.471 264.353C973.849 263.847 974.038 263.14 974.038 262.233C974.038 261.422 973.844 260.766 973.457 260.265C973.074 259.759 972.564 259.506 971.926 259.506C971.301 259.506 970.798 259.754 970.415 260.251C970.032 260.748 969.841 261.459 969.841 262.384ZM983.15 262.384C983.15 263.514 982.891 264.423 982.371 265.111C981.852 265.795 981.154 266.137 980.279 266.137C979.345 266.137 978.623 265.806 978.112 265.146L978.051 266H976.889V255.5H978.153V259.417C978.664 258.784 979.368 258.467 980.266 258.467C981.163 258.467 981.868 258.806 982.378 259.485C982.893 260.164 983.15 261.094 983.15 262.274V262.384ZM981.886 262.24C981.886 261.379 981.719 260.714 981.387 260.244C981.054 259.775 980.576 259.54 979.951 259.54C979.117 259.54 978.518 259.927 978.153 260.702V263.901C978.541 264.676 979.145 265.063 979.965 265.063C980.571 265.063 981.043 264.829 981.38 264.359C981.717 263.89 981.886 263.184 981.886 262.24ZM989.316 266C989.243 265.854 989.184 265.594 989.139 265.221C988.551 265.831 987.849 266.137 987.033 266.137C986.304 266.137 985.705 265.932 985.235 265.521C984.771 265.107 984.538 264.583 984.538 263.949C984.538 263.179 984.83 262.582 985.413 262.158C986.001 261.73 986.826 261.516 987.888 261.516H989.118V260.935C989.118 260.493 988.986 260.142 988.722 259.882C988.457 259.618 988.068 259.485 987.553 259.485C987.102 259.485 986.723 259.599 986.418 259.827C986.113 260.055 985.96 260.331 985.96 260.654H984.688C984.688 260.285 984.818 259.93 985.078 259.588C985.342 259.242 985.698 258.968 986.145 258.768C986.596 258.567 987.09 258.467 987.628 258.467C988.48 258.467 989.148 258.681 989.631 259.109C990.114 259.533 990.365 260.119 990.383 260.866V264.271C990.383 264.95 990.469 265.49 990.643 265.891V266H989.316ZM987.218 265.036C987.614 265.036 987.99 264.934 988.346 264.729C988.701 264.523 988.959 264.257 989.118 263.929V262.411H988.127C986.577 262.411 985.803 262.865 985.803 263.771C985.803 264.168 985.935 264.478 986.199 264.701C986.464 264.924 986.803 265.036 987.218 265.036ZM993.739 266H992.475V255.5H993.739V266ZM995.722 261.96C995.722 260.93 995.858 259.941 996.132 258.993C996.41 258.045 996.822 257.184 997.369 256.409C997.916 255.634 998.483 255.088 999.071 254.769L999.331 255.603C998.666 256.113 998.119 256.892 997.69 257.94C997.267 258.989 997.034 260.162 996.993 261.461L996.986 262.042C996.986 263.801 997.308 265.328 997.95 266.622C998.338 267.397 998.798 268.003 999.331 268.44L999.071 269.213C998.465 268.876 997.886 268.311 997.335 267.518C996.259 265.968 995.722 264.116 995.722 261.96ZM1003.47 262.028C1003.47 263.045 1003.34 264.02 1003.07 264.954C1002.81 265.884 1002.4 266.743 1001.85 267.531C1001.3 268.32 1000.73 268.88 1000.12 269.213L999.857 268.44C1000.56 267.903 1001.12 267.069 1001.55 265.938C1001.97 264.804 1002.19 263.546 1002.2 262.165V261.946C1002.2 260.989 1002.1 260.101 1001.9 259.28C1001.7 258.455 1001.42 257.717 1001.06 257.065C1000.71 256.414 1000.3 255.906 999.857 255.541L1000.12 254.769C1000.73 255.101 1001.3 255.657 1001.84 256.437C1002.39 257.216 1002.79 258.075 1003.06 259.014C1003.34 259.952 1003.47 260.957 1003.47 262.028Z" fill="black"/>
<ellipse cx="981.5" cy="221.5" rx="12.5" ry="10.5" fill="#E60A0A"/>
<path d="M981.864 226C981.771 226 981.691 225.972 981.626 225.916C981.57 225.851 981.542 225.771 981.542 225.678V217.838L979.218 219.63C979.153 219.686 979.083 219.714 979.008 219.714C978.924 219.714 978.845 219.667 978.77 219.574L978.406 219.112C978.359 219.047 978.336 218.981 978.336 218.916C978.336 218.804 978.383 218.715 978.476 218.65L981.528 216.298C981.631 216.233 981.752 216.2 981.892 216.2H982.606C982.699 216.2 982.774 216.233 982.83 216.298C982.895 216.354 982.928 216.429 982.928 216.522V225.678C982.928 225.771 982.895 225.851 982.83 225.916C982.774 225.972 982.699 226 982.606 226H981.864Z" fill="black"/>
<line x1="892.003" y1="244.5" x2="1072" y2="245.5" stroke="black"/>
</svg>
