<svg width="1066" height="359" viewBox="0 0 1066 359" fill="none" xmlns="http://www.w3.org/2000/svg">
<rect x="0.5" y="0.5" width="876" height="358" fill="#F9F3F3" stroke="black"/>
<path d="M706.934 23.3213C706.5 23.9424 705.894 24.4082 705.114 24.7188C704.341 25.0234 703.438 25.1758 702.407 25.1758C701.364 25.1758 700.438 24.9326 699.63 24.4463C698.821 23.9541 698.194 23.2568 697.749 22.3545C697.31 21.4521 697.084 20.4062 697.072 19.2168V18.1006C697.072 16.1729 697.521 14.6787 698.417 13.6182C699.319 12.5576 700.585 12.0273 702.214 12.0273C703.55 12.0273 704.625 12.3701 705.439 13.0557C706.254 13.7354 706.752 14.7021 706.934 15.9561H705.246C704.93 14.2627 703.922 13.416 702.223 13.416C701.092 13.416 700.233 13.8145 699.647 14.6113C699.067 15.4023 698.774 16.5508 698.769 18.0566V19.1025C698.769 20.5381 699.097 21.6807 699.753 22.5303C700.409 23.374 701.297 23.7959 702.416 23.7959C703.049 23.7959 703.603 23.7256 704.077 23.585C704.552 23.4443 704.944 23.207 705.255 22.873V19.999H702.293V18.6279H706.934V23.3213ZM711.267 25H709.641V11.5H711.267V25ZM713.446 20.1572C713.446 19.2256 713.628 18.3877 713.991 17.6436C714.36 16.8994 714.87 16.3252 715.521 15.9209C716.177 15.5166 716.924 15.3145 717.762 15.3145C719.057 15.3145 720.103 15.7627 720.899 16.6592C721.702 17.5557 722.104 18.748 722.104 20.2363V20.3506C722.104 21.2764 721.925 22.1084 721.567 22.8467C721.216 23.5791 720.709 24.1504 720.047 24.5605C719.391 24.9707 718.635 25.1758 717.779 25.1758C716.49 25.1758 715.444 24.7275 714.642 23.8311C713.845 22.9346 713.446 21.748 713.446 20.2715V20.1572ZM715.081 20.3506C715.081 21.4053 715.324 22.252 715.811 22.8906C716.303 23.5293 716.959 23.8486 717.779 23.8486C718.605 23.8486 719.262 23.5264 719.748 22.8818C720.234 22.2314 720.478 21.3232 720.478 20.1572C720.478 19.1143 720.229 18.2705 719.73 17.626C719.238 16.9756 718.582 16.6504 717.762 16.6504C716.959 16.6504 716.312 16.9697 715.819 17.6084C715.327 18.2471 715.081 19.1611 715.081 20.3506ZM732.193 20.3506C732.193 21.8037 731.859 22.9727 731.191 23.8574C730.523 24.7363 729.627 25.1758 728.502 25.1758C727.301 25.1758 726.372 24.751 725.716 23.9014L725.637 25H724.143V11.5H725.769V16.5361C726.425 15.7217 727.33 15.3145 728.484 15.3145C729.639 15.3145 730.544 15.751 731.2 16.624C731.862 17.4971 732.193 18.6924 732.193 20.21V20.3506ZM730.567 20.166C730.567 19.0586 730.354 18.2031 729.926 17.5996C729.498 16.9961 728.883 16.6943 728.08 16.6943C727.008 16.6943 726.237 17.1924 725.769 18.1885V22.3018C726.267 23.2979 727.043 23.7959 728.098 23.7959C728.877 23.7959 729.483 23.4941 729.917 22.8906C730.351 22.2871 730.567 21.3789 730.567 20.166ZM740.121 25C740.027 24.8125 739.951 24.4785 739.893 23.998C739.137 24.7832 738.234 25.1758 737.186 25.1758C736.248 25.1758 735.478 24.9121 734.874 24.3848C734.276 23.8516 733.978 23.1777 733.978 22.3633C733.978 21.373 734.353 20.6055 735.103 20.0605C735.858 19.5098 736.919 19.2344 738.284 19.2344H739.866V18.4873C739.866 17.9189 739.696 17.4678 739.356 17.1338C739.017 16.7939 738.516 16.624 737.854 16.624C737.273 16.624 736.787 16.7705 736.395 17.0635C736.002 17.3564 735.806 17.7109 735.806 18.127H734.171C734.171 17.6523 734.338 17.1953 734.672 16.7559C735.012 16.3105 735.469 15.959 736.043 15.7012C736.623 15.4434 737.259 15.3145 737.95 15.3145C739.046 15.3145 739.904 15.5898 740.525 16.1406C741.146 16.6855 741.469 17.4385 741.492 18.3994V22.7764C741.492 23.6494 741.604 24.3438 741.826 24.8594V25H740.121ZM737.423 23.7607C737.933 23.7607 738.416 23.6289 738.873 23.3652C739.33 23.1016 739.661 22.7588 739.866 22.3369V20.3857H738.592C736.6 20.3857 735.604 20.9688 735.604 22.1348C735.604 22.6445 735.773 23.043 736.113 23.3301C736.453 23.6172 736.89 23.7607 737.423 23.7607ZM745.808 25H744.182V11.5H745.808V25ZM759.782 12.2031L763.966 22.6445L768.149 12.2031H770.338V25H768.65V20.0166L768.809 14.6377L764.607 25H763.315L759.123 14.6641L759.29 20.0166V25H757.603V12.2031H759.782ZM777.009 25.1758C775.72 25.1758 774.671 24.7539 773.862 23.9102C773.054 23.0605 772.649 21.9268 772.649 20.5088V20.21C772.649 19.2666 772.828 18.4258 773.186 17.6875C773.549 16.9434 774.053 16.3633 774.697 15.9473C775.348 15.5254 776.051 15.3145 776.807 15.3145C778.043 15.3145 779.004 15.7217 779.689 16.5361C780.375 17.3506 780.718 18.5166 780.718 20.0342V20.7109H774.275C774.299 21.6484 774.571 22.4072 775.093 22.9873C775.62 23.5615 776.288 23.8486 777.097 23.8486C777.671 23.8486 778.157 23.7314 778.556 23.4971C778.954 23.2627 779.303 22.9521 779.602 22.5654L780.595 23.3389C779.798 24.5635 778.603 25.1758 777.009 25.1758ZM776.807 16.6504C776.15 16.6504 775.6 16.8906 775.154 17.3711C774.709 17.8457 774.434 18.5137 774.328 19.375H779.092V19.252C779.045 18.4258 778.822 17.7871 778.424 17.3359C778.025 16.8789 777.486 16.6504 776.807 16.6504ZM784.137 15.4902L784.181 16.5449C784.878 15.7246 785.818 15.3145 787.002 15.3145C788.332 15.3145 789.237 15.8242 789.718 16.8438C790.034 16.3867 790.444 16.0176 790.948 15.7363C791.458 15.4551 792.059 15.3145 792.75 15.3145C794.836 15.3145 795.896 16.4189 795.932 18.6279V25H794.306V18.7246C794.306 18.0449 794.15 17.5381 793.84 17.2041C793.529 16.8643 793.008 16.6943 792.275 16.6943C791.672 16.6943 791.171 16.876 790.772 17.2393C790.374 17.5967 790.143 18.0801 790.078 18.6895V25H788.443V18.7686C788.443 17.3857 787.767 16.6943 786.413 16.6943C785.347 16.6943 784.617 17.1484 784.225 18.0566V25H782.599V15.4902H784.137ZM797.962 20.1572C797.962 19.2256 798.144 18.3877 798.507 17.6436C798.876 16.8994 799.386 16.3252 800.036 15.9209C800.692 15.5166 801.439 15.3145 802.277 15.3145C803.572 15.3145 804.618 15.7627 805.415 16.6592C806.218 17.5557 806.619 18.748 806.619 20.2363V20.3506C806.619 21.2764 806.44 22.1084 806.083 22.8467C805.731 23.5791 805.225 24.1504 804.562 24.5605C803.906 24.9707 803.15 25.1758 802.295 25.1758C801.006 25.1758 799.96 24.7275 799.157 23.8311C798.36 22.9346 797.962 21.748 797.962 20.2715V20.1572ZM799.597 20.3506C799.597 21.4053 799.84 22.252 800.326 22.8906C800.818 23.5293 801.475 23.8486 802.295 23.8486C803.121 23.8486 803.777 23.5264 804.264 22.8818C804.75 22.2314 804.993 21.3232 804.993 20.1572C804.993 19.1143 804.744 18.2705 804.246 17.626C803.754 16.9756 803.098 16.6504 802.277 16.6504C801.475 16.6504 800.827 16.9697 800.335 17.6084C799.843 18.2471 799.597 19.1611 799.597 20.3506ZM813.255 16.9492C813.009 16.9082 812.742 16.8877 812.455 16.8877C811.389 16.8877 810.665 17.3418 810.284 18.25V25H808.658V15.4902H810.24L810.267 16.5889C810.8 15.7393 811.556 15.3145 812.534 15.3145C812.851 15.3145 813.091 15.3555 813.255 15.4375V16.9492ZM818.027 22.6182L820.242 15.4902H821.982L818.159 26.4678C817.567 28.0498 816.627 28.8408 815.338 28.8408L815.03 28.8145L814.424 28.7002V27.3818L814.863 27.417C815.414 27.417 815.842 27.3057 816.146 27.083C816.457 26.8604 816.712 26.4531 816.911 25.8613L817.271 24.8945L813.879 15.4902H815.654L818.027 22.6182Z" fill="black"/>
<line x1="632.5" y1="0.997199" x2="634.5" y2="357.997" stroke="black"/>
<path d="M644.124 63.11C643.339 63.11 642.723 62.89 642.276 62.45C641.836 62.0027 641.601 61.3793 641.572 60.58L641.561 60.14L641.572 59.7C641.601 58.9007 641.836 58.281 642.276 57.841C642.723 57.3937 643.339 57.17 644.124 57.17C644.652 57.17 645.099 57.2653 645.466 57.456C645.833 57.6467 646.104 57.8813 646.28 58.16C646.463 58.4387 646.562 58.7173 646.577 58.996C646.584 59.0693 646.562 59.128 646.511 59.172C646.46 59.216 646.397 59.238 646.324 59.238H645.796C645.723 59.238 645.668 59.2233 645.631 59.194C645.594 59.1647 645.558 59.106 645.521 59.018C645.396 58.666 645.22 58.4167 644.993 58.27C644.766 58.116 644.48 58.039 644.135 58.039C643.68 58.039 643.317 58.182 643.046 58.468C642.782 58.7467 642.639 59.1757 642.617 59.755L642.606 60.151L642.617 60.525C642.639 61.1117 642.782 61.5443 643.046 61.823C643.31 62.1017 643.673 62.241 644.135 62.241C644.48 62.241 644.766 62.1677 644.993 62.021C645.22 61.867 645.396 61.614 645.521 61.262C645.558 61.174 645.594 61.1153 645.631 61.086C645.668 61.0493 645.723 61.031 645.796 61.031H646.324C646.397 61.031 646.46 61.0567 646.511 61.108C646.562 61.152 646.584 61.2107 646.577 61.284C646.562 61.5553 646.463 61.834 646.28 62.12C646.104 62.3987 645.833 62.6333 645.466 62.824C645.107 63.0147 644.659 63.11 644.124 63.11ZM650.226 63.11C649.42 63.11 648.793 62.8827 648.345 62.428C647.905 61.9733 647.671 61.3683 647.641 60.613L647.63 60.14L647.641 59.667C647.671 58.919 647.909 58.3177 648.356 57.863C648.804 57.401 649.427 57.17 650.226 57.17C651.026 57.17 651.649 57.401 652.096 57.863C652.544 58.3177 652.782 58.919 652.811 59.667C652.819 59.7477 652.822 59.9053 652.822 60.14C652.822 60.3747 652.819 60.5323 652.811 60.613C652.782 61.3683 652.544 61.9733 652.096 62.428C651.656 62.8827 651.033 63.11 650.226 63.11ZM650.226 62.263C650.688 62.263 651.051 62.1163 651.315 61.823C651.587 61.5297 651.733 61.108 651.755 60.558C651.763 60.4847 651.766 60.3453 651.766 60.14C651.766 59.9347 651.763 59.7953 651.755 59.722C651.733 59.172 651.587 58.7503 651.315 58.457C651.051 58.1637 650.688 58.017 650.226 58.017C649.764 58.017 649.398 58.1637 649.126 58.457C648.855 58.7503 648.712 59.172 648.697 59.722L648.686 60.14L648.697 60.558C648.712 61.108 648.855 61.5297 649.126 61.823C649.398 62.1163 649.764 62.263 650.226 62.263ZM654.464 65.09C654.39 65.09 654.328 65.0643 654.277 65.013C654.233 64.969 654.211 64.9103 654.211 64.837V57.533C654.211 57.4597 654.233 57.401 654.277 57.357C654.328 57.3057 654.39 57.28 654.464 57.28H654.97C655.043 57.28 655.102 57.3057 655.146 57.357C655.197 57.401 655.223 57.4597 655.223 57.533V58.017C655.633 57.4523 656.235 57.17 657.027 57.17C657.797 57.17 658.372 57.412 658.754 57.896C659.142 58.38 659.351 59.0033 659.381 59.766C659.388 59.8467 659.392 59.9713 659.392 60.14C659.392 60.3087 659.388 60.4333 659.381 60.514C659.351 61.2693 659.142 61.8927 658.754 62.384C658.365 62.868 657.789 63.11 657.027 63.11C656.264 63.11 655.67 62.835 655.245 62.285V64.837C655.245 64.9103 655.223 64.969 655.179 65.013C655.135 65.0643 655.076 65.09 655.003 65.09H654.464ZM656.796 62.219C657.316 62.219 657.694 62.0577 657.929 61.735C658.171 61.4123 658.303 60.987 658.325 60.459C658.332 60.3857 658.336 60.2793 658.336 60.14C658.336 58.754 657.822 58.061 656.796 58.061C656.29 58.061 655.908 58.2297 655.652 58.567C655.402 58.897 655.267 59.293 655.245 59.755L655.234 60.173L655.245 60.602C655.259 61.0347 655.399 61.4123 655.663 61.735C655.927 62.0577 656.304 62.219 656.796 62.219ZM661.539 65.09C661.48 65.09 661.429 65.068 661.385 65.024C661.341 64.98 661.319 64.9287 661.319 64.87C661.319 64.8187 661.337 64.7527 661.374 64.672L662.221 62.659L660.12 57.698C660.083 57.6027 660.065 57.5403 660.065 57.511C660.065 57.445 660.087 57.39 660.131 57.346C660.175 57.302 660.23 57.28 660.296 57.28H660.835C660.952 57.28 661.04 57.3423 661.099 57.467L662.771 61.471L664.487 57.467C664.545 57.3423 664.637 57.28 664.762 57.28H665.279C665.345 57.28 665.4 57.302 665.444 57.346C665.488 57.39 665.51 57.4413 665.51 57.5C665.51 57.522 665.491 57.588 665.455 57.698L662.331 64.903C662.272 65.0277 662.18 65.09 662.056 65.09H661.539ZM665.857 63C665.798 63 665.747 62.978 665.703 62.934C665.659 62.89 665.637 62.8387 665.637 62.78C665.637 62.7213 665.641 62.681 665.648 62.659L668.376 55.542C668.435 55.3807 668.552 55.3 668.728 55.3H669.476C669.652 55.3 669.769 55.3807 669.828 55.542L672.545 62.659L672.567 62.78C672.567 62.8387 672.545 62.89 672.501 62.934C672.457 62.978 672.406 63 672.347 63H671.786C671.705 63 671.643 62.9817 671.599 62.945C671.555 62.901 671.526 62.857 671.511 62.813L670.906 61.251H667.298L666.693 62.813C666.678 62.857 666.645 62.901 666.594 62.945C666.55 62.9817 666.491 63 666.418 63H665.857ZM670.587 60.305L669.102 56.4L667.617 60.305H670.587ZM673.853 63C673.78 63 673.717 62.978 673.666 62.934C673.622 62.8827 673.6 62.8203 673.6 62.747V57.544C673.6 57.4707 673.622 57.4083 673.666 57.357C673.717 57.3057 673.78 57.28 673.853 57.28H674.359C674.432 57.28 674.495 57.3057 674.546 57.357C674.597 57.4083 674.623 57.4707 674.623 57.544V58.028C674.924 57.5293 675.437 57.28 676.163 57.28H676.592C676.665 57.28 676.724 57.3057 676.768 57.357C676.819 57.401 676.845 57.4597 676.845 57.533V57.984C676.845 58.0573 676.819 58.116 676.768 58.16C676.724 58.204 676.665 58.226 676.592 58.226H675.932C675.536 58.226 675.224 58.3433 674.997 58.578C674.77 58.8053 674.656 59.117 674.656 59.513V62.747C674.656 62.8203 674.63 62.8827 674.579 62.934C674.528 62.978 674.465 63 674.392 63H673.853ZM678.032 63C677.959 63 677.896 62.978 677.845 62.934C677.801 62.8827 677.779 62.8203 677.779 62.747V57.544C677.779 57.4707 677.801 57.4083 677.845 57.357C677.896 57.3057 677.959 57.28 678.032 57.28H678.538C678.611 57.28 678.674 57.3057 678.725 57.357C678.776 57.4083 678.802 57.4707 678.802 57.544V58.028C679.103 57.5293 679.616 57.28 680.342 57.28H680.771C680.844 57.28 680.903 57.3057 680.947 57.357C680.998 57.401 681.024 57.4597 681.024 57.533V57.984C681.024 58.0573 680.998 58.116 680.947 58.16C680.903 58.204 680.844 58.226 680.771 58.226H680.111C679.715 58.226 679.403 58.3433 679.176 58.578C678.949 58.8053 678.835 59.117 678.835 59.513V62.747C678.835 62.8203 678.809 62.8827 678.758 62.934C678.707 62.978 678.644 63 678.571 63H678.032ZM683.467 63.11C683.107 63.11 682.774 63.0367 682.466 62.89C682.158 62.7433 681.912 62.5453 681.729 62.296C681.553 62.0393 681.465 61.757 681.465 61.449C681.465 60.965 681.663 60.569 682.059 60.261C682.462 59.9457 683.005 59.7403 683.687 59.645L685.326 59.414V59.095C685.326 58.347 684.897 57.973 684.039 57.973C683.716 57.973 683.452 58.0427 683.247 58.182C683.041 58.314 682.887 58.4717 682.785 58.655C682.763 58.721 682.733 58.7687 682.697 58.798C682.667 58.8273 682.623 58.842 682.565 58.842H682.092C682.026 58.842 681.967 58.82 681.916 58.776C681.872 58.7247 681.85 58.666 681.85 58.6C681.857 58.424 681.938 58.226 682.092 58.006C682.253 57.7787 682.499 57.5843 682.829 57.423C683.159 57.2543 683.566 57.17 684.05 57.17C684.871 57.17 685.461 57.3643 685.821 57.753C686.18 58.1343 686.36 58.611 686.36 59.183V62.747C686.36 62.8203 686.334 62.8827 686.283 62.934C686.239 62.978 686.18 63 686.107 63H685.601C685.527 63 685.465 62.978 685.414 62.934C685.37 62.8827 685.348 62.8203 685.348 62.747V62.274C685.186 62.5087 684.952 62.7067 684.644 62.868C684.336 63.0293 683.943 63.11 683.467 63.11ZM683.698 62.285C684.174 62.285 684.563 62.131 684.864 61.823C685.172 61.5077 685.326 61.0567 685.326 60.47V60.162L684.05 60.349C683.529 60.4223 683.137 60.547 682.873 60.723C682.609 60.8917 682.477 61.108 682.477 61.372C682.477 61.6653 682.598 61.8927 682.84 62.054C683.082 62.208 683.368 62.285 683.698 62.285ZM688.824 65.09C688.765 65.09 688.714 65.068 688.67 65.024C688.626 64.98 688.604 64.9287 688.604 64.87C688.604 64.8187 688.622 64.7527 688.659 64.672L689.506 62.659L687.405 57.698C687.368 57.6027 687.35 57.5403 687.35 57.511C687.35 57.445 687.372 57.39 687.416 57.346C687.46 57.302 687.515 57.28 687.581 57.28H688.12C688.237 57.28 688.325 57.3423 688.384 57.467L690.056 61.471L691.772 57.467C691.83 57.3423 691.922 57.28 692.047 57.28H692.564C692.63 57.28 692.685 57.302 692.729 57.346C692.773 57.39 692.795 57.4413 692.795 57.5C692.795 57.522 692.776 57.588 692.74 57.698L689.616 64.903C689.557 65.0277 689.465 65.09 689.341 65.09H688.824ZM693.142 63C693.083 63 693.032 62.978 692.988 62.934C692.944 62.89 692.922 62.8387 692.922 62.78C692.922 62.7213 692.926 62.681 692.933 62.659L695.661 55.542C695.72 55.3807 695.837 55.3 696.013 55.3H696.761C696.937 55.3 697.054 55.3807 697.113 55.542L699.83 62.659L699.852 62.78C699.852 62.8387 699.83 62.89 699.786 62.934C699.742 62.978 699.691 63 699.632 63H699.071C698.99 63 698.928 62.9817 698.884 62.945C698.84 62.901 698.811 62.857 698.796 62.813L698.191 61.251H694.583L693.978 62.813C693.963 62.857 693.93 62.901 693.879 62.945C693.835 62.9817 693.776 63 693.703 63H693.142ZM697.872 60.305L696.387 56.4L694.902 60.305H697.872ZM701.138 63C701.065 63 701.003 62.978 700.951 62.934C700.907 62.8827 700.885 62.8203 700.885 62.747V57.533C700.885 57.4597 700.907 57.401 700.951 57.357C701.003 57.3057 701.065 57.28 701.138 57.28H701.655C701.729 57.28 701.787 57.3057 701.831 57.357C701.883 57.401 701.908 57.4597 701.908 57.533V58.017C702.121 57.7457 702.37 57.5367 702.656 57.39C702.95 57.2433 703.313 57.17 703.745 57.17C704.449 57.17 704.996 57.3973 705.384 57.852C705.78 58.2993 705.978 58.897 705.978 59.645V62.747C705.978 62.8203 705.953 62.8827 705.901 62.934C705.857 62.978 705.799 63 705.725 63H705.175C705.102 63 705.04 62.978 704.988 62.934C704.944 62.8827 704.922 62.8203 704.922 62.747V59.7C704.922 59.1793 704.794 58.776 704.537 58.49C704.288 58.204 703.925 58.061 703.448 58.061C702.986 58.061 702.62 58.2077 702.348 58.501C702.077 58.787 701.941 59.1867 701.941 59.7V62.747C701.941 62.8203 701.916 62.8827 701.864 62.934C701.82 62.978 701.762 63 701.688 63H701.138ZM709.646 63.11C708.884 63.11 708.308 62.8607 707.919 62.362C707.531 61.8633 707.325 61.2327 707.303 60.47L707.292 60.14L707.303 59.81C707.325 59.0547 707.531 58.4277 707.919 57.929C708.308 57.423 708.884 57.17 709.646 57.17C710.402 57.17 710.996 57.4377 711.428 57.973V55.443C711.428 55.3697 711.45 55.311 711.494 55.267C711.546 55.2157 711.608 55.19 711.681 55.19H712.209C712.283 55.19 712.341 55.2157 712.385 55.267C712.437 55.311 712.462 55.3697 712.462 55.443V62.747C712.462 62.8203 712.437 62.8827 712.385 62.934C712.341 62.978 712.283 63 712.209 63H711.714C711.641 63 711.579 62.978 711.527 62.934C711.483 62.8827 711.461 62.8203 711.461 62.747V62.285C711.036 62.835 710.431 63.11 709.646 63.11ZM709.877 62.219C710.383 62.219 710.761 62.054 711.01 61.724C711.267 61.3867 711.406 60.987 711.428 60.525C711.436 60.4443 711.439 60.305 711.439 60.107C711.439 59.9017 711.436 59.7587 711.428 59.678C711.414 59.2453 711.274 58.8677 711.01 58.545C710.746 58.2223 710.369 58.061 709.877 58.061C709.357 58.061 708.975 58.2223 708.733 58.545C708.499 58.8677 708.37 59.293 708.348 59.821L708.337 60.14C708.337 61.526 708.851 62.219 709.877 62.219ZM714.494 63C714.421 63 714.359 62.978 714.307 62.934C714.263 62.8827 714.241 62.8203 714.241 62.747V55.564C714.241 55.4833 714.263 55.421 714.307 55.377C714.359 55.3257 714.421 55.3 714.494 55.3H715.044C715.162 55.3 715.257 55.3587 715.33 55.476L717.651 59.92L719.994 55.476C720.009 55.432 720.038 55.3917 720.082 55.355C720.134 55.3183 720.196 55.3 720.269 55.3H720.808C720.889 55.3 720.951 55.3257 720.995 55.377C721.047 55.421 721.072 55.4833 721.072 55.564V62.747C721.072 62.8203 721.047 62.8827 720.995 62.934C720.944 62.978 720.882 63 720.808 63H720.269C720.196 63 720.134 62.978 720.082 62.934C720.038 62.8827 720.016 62.8203 720.016 62.747V57.335L718.179 60.921C718.106 61.075 717.989 61.152 717.827 61.152H717.486C717.325 61.152 717.208 61.075 717.134 60.921L715.286 57.335V62.747C715.286 62.8203 715.261 62.8827 715.209 62.934C715.165 62.978 715.107 63 715.033 63H714.494ZM724.427 63.11C724.067 63.11 723.734 63.0367 723.426 62.89C723.118 62.7433 722.872 62.5453 722.689 62.296C722.513 62.0393 722.425 61.757 722.425 61.449C722.425 60.965 722.623 60.569 723.019 60.261C723.422 59.9457 723.965 59.7403 724.647 59.645L726.286 59.414V59.095C726.286 58.347 725.857 57.973 724.999 57.973C724.676 57.973 724.412 58.0427 724.207 58.182C724.001 58.314 723.847 58.4717 723.745 58.655C723.723 58.721 723.693 58.7687 723.657 58.798C723.627 58.8273 723.583 58.842 723.525 58.842H723.052C722.986 58.842 722.927 58.82 722.876 58.776C722.832 58.7247 722.81 58.666 722.81 58.6C722.817 58.424 722.898 58.226 723.052 58.006C723.213 57.7787 723.459 57.5843 723.789 57.423C724.119 57.2543 724.526 57.17 725.01 57.17C725.831 57.17 726.421 57.3643 726.781 57.753C727.14 58.1343 727.32 58.611 727.32 59.183V62.747C727.32 62.8203 727.294 62.8827 727.243 62.934C727.199 62.978 727.14 63 727.067 63H726.561C726.487 63 726.425 62.978 726.374 62.934C726.33 62.8827 726.308 62.8203 726.308 62.747V62.274C726.146 62.5087 725.912 62.7067 725.604 62.868C725.296 63.0293 724.903 63.11 724.427 63.11ZM724.658 62.285C725.134 62.285 725.523 62.131 725.824 61.823C726.132 61.5077 726.286 61.0567 726.286 60.47V60.162L725.01 60.349C724.489 60.4223 724.097 60.547 723.833 60.723C723.569 60.8917 723.437 61.108 723.437 61.372C723.437 61.6653 723.558 61.8927 723.8 62.054C724.042 62.208 724.328 62.285 724.658 62.285ZM729.154 63C729.081 63 729.018 62.978 728.967 62.934C728.923 62.8827 728.901 62.8203 728.901 62.747V57.533C728.901 57.4597 728.923 57.401 728.967 57.357C729.018 57.3057 729.081 57.28 729.154 57.28H729.671C729.744 57.28 729.803 57.3057 729.847 57.357C729.898 57.401 729.924 57.4597 729.924 57.533V58.017C730.137 57.7457 730.386 57.5367 730.672 57.39C730.965 57.2433 731.328 57.17 731.761 57.17C732.465 57.17 733.011 57.3973 733.4 57.852C733.796 58.2993 733.994 58.897 733.994 59.645V62.747C733.994 62.8203 733.968 62.8827 733.917 62.934C733.873 62.978 733.814 63 733.741 63H733.191C733.118 63 733.055 62.978 733.004 62.934C732.96 62.8827 732.938 62.8203 732.938 62.747V59.7C732.938 59.1793 732.81 58.776 732.553 58.49C732.304 58.204 731.941 58.061 731.464 58.061C731.002 58.061 730.635 58.2077 730.364 58.501C730.093 58.787 729.957 59.1867 729.957 59.7V62.747C729.957 62.8203 729.931 62.8827 729.88 62.934C729.836 62.978 729.777 63 729.704 63H729.154ZM735.737 56.213C735.663 56.213 735.601 56.191 735.55 56.147C735.506 56.0957 735.484 56.0333 735.484 55.96V55.366C735.484 55.2927 735.506 55.2303 735.55 55.179C735.601 55.1277 735.663 55.102 735.737 55.102H736.43C736.503 55.102 736.565 55.1277 736.617 55.179C736.668 55.2303 736.694 55.2927 736.694 55.366V55.96C736.694 56.0333 736.668 56.0957 736.617 56.147C736.565 56.191 736.503 56.213 736.43 56.213H735.737ZM735.825 63C735.751 63 735.689 62.978 735.638 62.934C735.594 62.8827 735.572 62.8203 735.572 62.747V57.533C735.572 57.4597 735.594 57.401 735.638 57.357C735.689 57.3057 735.751 57.28 735.825 57.28H736.353C736.426 57.28 736.485 57.3057 736.529 57.357C736.58 57.401 736.606 57.4597 736.606 57.533V62.747C736.606 62.8203 736.58 62.8827 736.529 62.934C736.485 62.978 736.426 63 736.353 63H735.825ZM738.5 65.09C738.427 65.09 738.364 65.0643 738.313 65.013C738.269 64.969 738.247 64.9103 738.247 64.837V57.533C738.247 57.4597 738.269 57.401 738.313 57.357C738.364 57.3057 738.427 57.28 738.5 57.28H739.006C739.079 57.28 739.138 57.3057 739.182 57.357C739.233 57.401 739.259 57.4597 739.259 57.533V58.017C739.67 57.4523 740.271 57.17 741.063 57.17C741.833 57.17 742.409 57.412 742.79 57.896C743.179 58.38 743.388 59.0033 743.417 59.766C743.424 59.8467 743.428 59.9713 743.428 60.14C743.428 60.3087 743.424 60.4333 743.417 60.514C743.388 61.2693 743.179 61.8927 742.79 62.384C742.401 62.868 741.826 63.11 741.063 63.11C740.3 63.11 739.706 62.835 739.281 62.285V64.837C739.281 64.9103 739.259 64.969 739.215 65.013C739.171 65.0643 739.112 65.09 739.039 65.09H738.5ZM740.832 62.219C741.353 62.219 741.73 62.0577 741.965 61.735C742.207 61.4123 742.339 60.987 742.361 60.459C742.368 60.3857 742.372 60.2793 742.372 60.14C742.372 58.754 741.859 58.061 740.832 58.061C740.326 58.061 739.945 58.2297 739.688 58.567C739.439 58.897 739.303 59.293 739.281 59.755L739.27 60.173L739.281 60.602C739.296 61.0347 739.435 61.4123 739.699 61.735C739.963 62.0577 740.341 62.219 740.832 62.219ZM746.923 63.11C746.226 63.11 745.687 62.8863 745.306 62.439C744.924 61.9843 744.734 61.383 744.734 60.635V57.533C744.734 57.4597 744.756 57.401 744.8 57.357C744.851 57.3057 744.913 57.28 744.987 57.28H745.537C745.61 57.28 745.669 57.3057 745.713 57.357C745.764 57.401 745.79 57.4597 745.79 57.533V60.58C745.79 61.6727 746.266 62.219 747.22 62.219C747.682 62.219 748.048 62.076 748.32 61.79C748.591 61.4967 748.727 61.0933 748.727 60.58V57.533C748.727 57.4597 748.749 57.401 748.793 57.357C748.844 57.3057 748.906 57.28 748.98 57.28H749.53C749.603 57.28 749.662 57.3057 749.706 57.357C749.75 57.401 749.772 57.4597 749.772 57.533V62.747C749.772 62.8203 749.75 62.8827 749.706 62.934C749.662 62.978 749.603 63 749.53 63H749.013C748.939 63 748.877 62.978 748.826 62.934C748.782 62.8827 748.76 62.8203 748.76 62.747V62.263C748.554 62.5417 748.305 62.7543 748.012 62.901C747.718 63.0403 747.355 63.11 746.923 63.11ZM751.67 63C751.596 63 751.534 62.978 751.483 62.934C751.439 62.8827 751.417 62.8203 751.417 62.747V55.443C751.417 55.3697 751.439 55.311 751.483 55.267C751.534 55.2157 751.596 55.19 751.67 55.19H752.187C752.26 55.19 752.319 55.2157 752.363 55.267C752.414 55.311 752.44 55.3697 752.44 55.443V62.747C752.44 62.8203 752.414 62.8827 752.363 62.934C752.319 62.978 752.26 63 752.187 63H751.67ZM755.676 63.11C755.316 63.11 754.983 63.0367 754.675 62.89C754.367 62.7433 754.121 62.5453 753.938 62.296C753.762 62.0393 753.674 61.757 753.674 61.449C753.674 60.965 753.872 60.569 754.268 60.261C754.671 59.9457 755.214 59.7403 755.896 59.645L757.535 59.414V59.095C757.535 58.347 757.106 57.973 756.248 57.973C755.925 57.973 755.661 58.0427 755.456 58.182C755.25 58.314 755.096 58.4717 754.994 58.655C754.972 58.721 754.942 58.7687 754.906 58.798C754.876 58.8273 754.832 58.842 754.774 58.842H754.301C754.235 58.842 754.176 58.82 754.125 58.776C754.081 58.7247 754.059 58.666 754.059 58.6C754.066 58.424 754.147 58.226 754.301 58.006C754.462 57.7787 754.708 57.5843 755.038 57.423C755.368 57.2543 755.775 57.17 756.259 57.17C757.08 57.17 757.67 57.3643 758.03 57.753C758.389 58.1343 758.569 58.611 758.569 59.183V62.747C758.569 62.8203 758.543 62.8827 758.492 62.934C758.448 62.978 758.389 63 758.316 63H757.81C757.736 63 757.674 62.978 757.623 62.934C757.579 62.8827 757.557 62.8203 757.557 62.747V62.274C757.395 62.5087 757.161 62.7067 756.853 62.868C756.545 63.0293 756.152 63.11 755.676 63.11ZM755.907 62.285C756.383 62.285 756.772 62.131 757.073 61.823C757.381 61.5077 757.535 61.0567 757.535 60.47V60.162L756.259 60.349C755.738 60.4223 755.346 60.547 755.082 60.723C754.818 60.8917 754.686 61.108 754.686 61.372C754.686 61.6653 754.807 61.8927 755.049 62.054C755.291 62.208 755.577 62.285 755.907 62.285ZM762.329 63C761.171 63 760.591 62.3547 760.591 61.064V58.16H759.733C759.66 58.16 759.598 58.138 759.546 58.094C759.502 58.0427 759.48 57.9803 759.48 57.907V57.533C759.48 57.4597 759.502 57.401 759.546 57.357C759.598 57.3057 759.66 57.28 759.733 57.28H760.591V55.443C760.591 55.3697 760.613 55.311 760.657 55.267C760.709 55.2157 760.771 55.19 760.844 55.19H761.361C761.435 55.19 761.493 55.2157 761.537 55.267C761.589 55.311 761.614 55.3697 761.614 55.443V57.28H762.978C763.052 57.28 763.11 57.3057 763.154 57.357C763.206 57.401 763.231 57.4597 763.231 57.533V57.907C763.231 57.9803 763.206 58.0427 763.154 58.094C763.11 58.138 763.052 58.16 762.978 58.16H761.614V60.987C761.614 61.3537 761.677 61.6323 761.801 61.823C761.926 62.0063 762.131 62.098 762.417 62.098H763.088C763.162 62.098 763.22 62.1237 763.264 62.175C763.316 62.219 763.341 62.2777 763.341 62.351V62.747C763.341 62.8203 763.316 62.8827 763.264 62.934C763.22 62.978 763.162 63 763.088 63H762.329ZM766.681 63.11C765.926 63.11 765.321 62.879 764.866 62.417C764.419 61.9477 764.173 61.3097 764.129 60.503L764.118 60.129L764.129 59.766C764.18 58.974 764.43 58.3433 764.877 57.874C765.332 57.4047 765.929 57.17 766.67 57.17C767.484 57.17 768.115 57.4303 768.562 57.951C769.009 58.4643 769.233 59.161 769.233 60.041V60.228C769.233 60.3013 769.207 60.3637 769.156 60.415C769.112 60.459 769.053 60.481 768.98 60.481H765.174V60.58C765.196 61.0567 765.339 61.4637 765.603 61.801C765.874 62.131 766.23 62.296 766.67 62.296C767.007 62.296 767.282 62.23 767.495 62.098C767.715 61.9587 767.876 61.8157 767.979 61.669C768.045 61.581 768.093 61.5297 768.122 61.515C768.159 61.493 768.221 61.482 768.309 61.482H768.848C768.914 61.482 768.969 61.5003 769.013 61.537C769.057 61.5737 769.079 61.625 769.079 61.691C769.079 61.8523 768.976 62.0467 768.771 62.274C768.573 62.5013 768.291 62.6993 767.924 62.868C767.565 63.0293 767.15 63.11 766.681 63.11ZM768.188 59.722V59.689C768.188 59.183 768.049 58.7723 767.77 58.457C767.499 58.1343 767.132 57.973 766.67 57.973C766.208 57.973 765.841 58.1343 765.57 58.457C765.306 58.7723 765.174 59.183 765.174 59.689V59.722H768.188ZM772.935 64.749C772.305 64.749 771.799 64.5693 771.417 64.21C771.043 63.8507 770.772 63.297 770.603 62.549C770.442 61.801 770.361 60.8183 770.361 59.601C770.361 58.3837 770.442 57.401 770.603 56.653C770.772 55.905 771.043 55.355 771.417 55.003C771.799 54.6437 772.305 54.464 772.935 54.464C773.009 54.464 773.067 54.4897 773.111 54.541C773.163 54.585 773.188 54.6437 773.188 54.717V55.102C773.188 55.168 773.166 55.2267 773.122 55.278C773.078 55.3293 773.027 55.355 772.968 55.355C772.55 55.3623 772.224 55.5017 771.989 55.773C771.755 56.0443 771.586 56.4843 771.483 57.093C771.381 57.7017 771.329 58.5377 771.329 59.601C771.329 60.6643 771.381 61.5003 771.483 62.109C771.586 62.7177 771.755 63.1577 771.989 63.429C772.224 63.7077 772.55 63.8507 772.968 63.858C773.027 63.858 773.078 63.8837 773.122 63.935C773.166 63.9863 773.188 64.045 773.188 64.111V64.496C773.188 64.5693 773.163 64.628 773.111 64.672C773.067 64.7233 773.009 64.749 772.935 64.749ZM773.979 64.749C773.913 64.749 773.854 64.7233 773.803 64.672C773.752 64.628 773.726 64.5693 773.726 64.496V64.111C773.726 64.045 773.748 63.9863 773.792 63.935C773.843 63.8837 773.898 63.858 773.957 63.858C774.368 63.8507 774.69 63.7077 774.925 63.429C775.167 63.1577 775.339 62.7177 775.442 62.109C775.545 61.5003 775.596 60.6643 775.596 59.601C775.596 58.5377 775.545 57.7017 775.442 57.093C775.339 56.4843 775.167 56.0443 774.925 55.773C774.69 55.5017 774.368 55.3623 773.957 55.355C773.898 55.355 773.843 55.3293 773.792 55.278C773.748 55.2267 773.726 55.168 773.726 55.102V54.717C773.726 54.6437 773.752 54.585 773.803 54.541C773.854 54.4897 773.913 54.464 773.979 54.464C774.617 54.464 775.123 54.6437 775.497 55.003C775.871 55.355 776.139 55.905 776.3 56.653C776.469 57.3937 776.553 58.3763 776.553 59.601C776.553 60.8257 776.469 61.812 776.3 62.56C776.139 63.3007 775.871 63.8507 775.497 64.21C775.123 64.5693 774.617 64.749 773.979 64.749ZM783.594 59.15C783.521 59.15 783.458 59.128 783.407 59.084C783.363 59.0327 783.341 58.9703 783.341 58.897V58.127C783.341 58.0537 783.363 57.995 783.407 57.951C783.458 57.8997 783.521 57.874 783.594 57.874H784.386C784.459 57.874 784.518 57.8997 784.562 57.951C784.613 57.995 784.639 58.0537 784.639 58.127V58.897C784.639 58.9703 784.613 59.0327 784.562 59.084C784.518 59.128 784.459 59.15 784.386 59.15H783.594ZM783.594 63C783.521 63 783.458 62.978 783.407 62.934C783.363 62.8827 783.341 62.8203 783.341 62.747V61.977C783.341 61.9037 783.363 61.845 783.407 61.801C783.458 61.7497 783.521 61.724 783.594 61.724H784.386C784.459 61.724 784.518 61.7497 784.562 61.801C784.613 61.845 784.639 61.9037 784.639 61.977V62.747C784.639 62.8203 784.613 62.8827 784.562 62.934C784.518 62.978 784.459 63 784.386 63H783.594Z" fill="black"/>
<rect x="810.5" y="44.5" width="39" height="30" fill="#C4C4C4" stroke="black"/>
<line x1="793" y1="59.5" x2="810" y2="59.5" stroke="black"/>
<line x1="850" y1="59.5" x2="867" y2="59.5" stroke="black"/>
<path d="M833.792 52.264C833.792 52.76 833.648 53.008 833.36 53.008C833.28 53.008 833.2 52.944 833.12 52.816C832.976 52.56 832.736 52.432 832.4 52.432C831.664 52.432 830.976 52.96 830.336 54.016C830.208 54.224 829.808 54.976 829.136 56.272H829.424C831.168 56.272 832.328 56.248 832.904 56.2C832.968 56.216 833 56.248 833 56.296C833 56.424 832.432 56.6 831.296 56.824C830.224 57 829.344 57.152 828.656 57.28C828.16 58.304 827.56 59.52 826.856 60.928C825.416 63.616 824.464 65.288 824 65.944C822.608 67.928 821.248 68.92 819.92 68.92C819.456 68.92 819.056 68.72 818.72 68.32C818.368 67.936 818.184 67.504 818.168 67.024C818.216 66.832 818.288 66.736 818.384 66.736C818.432 66.736 818.464 66.792 818.48 66.904C818.576 67.32 818.736 67.64 818.96 67.864C819.184 68.088 819.416 68.2 819.656 68.2C821.016 68.2 822.256 67.36 823.376 65.68C824.016 64.72 824.888 62.992 825.992 60.496L827.288 57.376C825.688 57.36 824.888 57.168 824.888 56.8C824.888 56.64 824.96 56.504 825.104 56.392C825.264 56.28 825.4 56.224 825.512 56.224L827.768 56.272C829.336 52.784 830.776 51.04 832.088 51.04C832.584 51.04 833.088 51.28 833.6 51.76C833.728 51.888 833.792 52.056 833.792 52.264Z" fill="black"/>
<path d="M642.067 134C641.994 134 641.931 133.978 641.88 133.934C641.836 133.883 641.814 133.82 641.814 133.747V128.533C641.814 128.46 641.836 128.401 641.88 128.357C641.931 128.306 641.994 128.28 642.067 128.28H642.562C642.635 128.28 642.694 128.306 642.738 128.357C642.789 128.401 642.815 128.46 642.815 128.533V128.918C643.196 128.419 643.728 128.17 644.41 128.17C645.224 128.17 645.8 128.507 646.137 129.182C646.313 128.874 646.562 128.628 646.885 128.445C647.208 128.262 647.571 128.17 647.974 128.17C648.575 128.17 649.067 128.375 649.448 128.786C649.829 129.197 650.02 129.791 650.02 130.568V133.747C650.02 133.82 649.994 133.883 649.943 133.934C649.899 133.978 649.84 134 649.767 134H649.25C649.177 134 649.114 133.978 649.063 133.934C649.019 133.883 648.997 133.82 648.997 133.747V130.667C648.997 130.095 648.876 129.684 648.634 129.435C648.399 129.186 648.088 129.061 647.699 129.061C647.354 129.061 647.057 129.189 646.808 129.446C646.559 129.695 646.434 130.102 646.434 130.667V133.747C646.434 133.82 646.408 133.883 646.357 133.934C646.313 133.978 646.254 134 646.181 134H645.664C645.591 134 645.528 133.978 645.477 133.934C645.433 133.883 645.411 133.82 645.411 133.747V130.667C645.411 130.095 645.286 129.684 645.037 129.435C644.795 129.186 644.487 129.061 644.113 129.061C643.768 129.061 643.471 129.189 643.222 129.446C642.973 129.695 642.848 130.099 642.848 130.656V133.747C642.848 133.82 642.822 133.883 642.771 133.934C642.727 133.978 642.668 134 642.595 134H642.067ZM653.723 134.11C653.027 134.11 652.488 133.886 652.106 133.439C651.725 132.984 651.534 132.383 651.534 131.635V128.533C651.534 128.46 651.556 128.401 651.6 128.357C651.652 128.306 651.714 128.28 651.787 128.28H652.337C652.411 128.28 652.469 128.306 652.513 128.357C652.565 128.401 652.59 128.46 652.59 128.533V131.58C652.59 132.673 653.067 133.219 654.02 133.219C654.482 133.219 654.849 133.076 655.12 132.79C655.392 132.497 655.527 132.093 655.527 131.58V128.533C655.527 128.46 655.549 128.401 655.593 128.357C655.645 128.306 655.707 128.28 655.78 128.28H656.33C656.404 128.28 656.462 128.306 656.506 128.357C656.55 128.401 656.572 128.46 656.572 128.533V133.747C656.572 133.82 656.55 133.883 656.506 133.934C656.462 133.978 656.404 134 656.33 134H655.813C655.74 134 655.678 133.978 655.626 133.934C655.582 133.883 655.56 133.82 655.56 133.747V133.263C655.355 133.542 655.106 133.754 654.812 133.901C654.519 134.04 654.156 134.11 653.723 134.11ZM658.471 134C658.397 134 658.335 133.978 658.284 133.934C658.24 133.883 658.218 133.82 658.218 133.747V126.443C658.218 126.37 658.24 126.311 658.284 126.267C658.335 126.216 658.397 126.19 658.471 126.19H658.988C659.061 126.19 659.12 126.216 659.164 126.267C659.215 126.311 659.241 126.37 659.241 126.443V133.747C659.241 133.82 659.215 133.883 659.164 133.934C659.12 133.978 659.061 134 658.988 134H658.471ZM663.114 134C661.956 134 661.376 133.355 661.376 132.064V129.16H660.518C660.445 129.16 660.383 129.138 660.331 129.094C660.287 129.043 660.265 128.98 660.265 128.907V128.533C660.265 128.46 660.287 128.401 660.331 128.357C660.383 128.306 660.445 128.28 660.518 128.28H661.376V126.443C661.376 126.37 661.398 126.311 661.442 126.267C661.494 126.216 661.556 126.19 661.629 126.19H662.146C662.22 126.19 662.278 126.216 662.322 126.267C662.374 126.311 662.399 126.37 662.399 126.443V128.28H663.763C663.837 128.28 663.895 128.306 663.939 128.357C663.991 128.401 664.016 128.46 664.016 128.533V128.907C664.016 128.98 663.991 129.043 663.939 129.094C663.895 129.138 663.837 129.16 663.763 129.16H662.399V131.987C662.399 132.354 662.462 132.632 662.586 132.823C662.711 133.006 662.916 133.098 663.202 133.098H663.873C663.947 133.098 664.005 133.124 664.049 133.175C664.101 133.219 664.126 133.278 664.126 133.351V133.747C664.126 133.82 664.101 133.883 664.049 133.934C664.005 133.978 663.947 134 663.873 134H663.114ZM665.343 127.213C665.27 127.213 665.208 127.191 665.156 127.147C665.112 127.096 665.09 127.033 665.09 126.96V126.366C665.09 126.293 665.112 126.23 665.156 126.179C665.208 126.128 665.27 126.102 665.343 126.102H666.036C666.11 126.102 666.172 126.128 666.223 126.179C666.275 126.23 666.3 126.293 666.3 126.366V126.96C666.3 127.033 666.275 127.096 666.223 127.147C666.172 127.191 666.11 127.213 666.036 127.213H665.343ZM665.431 134C665.358 134 665.296 133.978 665.244 133.934C665.2 133.883 665.178 133.82 665.178 133.747V128.533C665.178 128.46 665.2 128.401 665.244 128.357C665.296 128.306 665.358 128.28 665.431 128.28H665.959C666.033 128.28 666.091 128.306 666.135 128.357C666.187 128.401 666.212 128.46 666.212 128.533V133.747C666.212 133.82 666.187 133.883 666.135 133.934C666.091 133.978 666.033 134 665.959 134H665.431ZM668.106 136.09C668.033 136.09 667.971 136.064 667.919 136.013C667.875 135.969 667.853 135.91 667.853 135.837V128.533C667.853 128.46 667.875 128.401 667.919 128.357C667.971 128.306 668.033 128.28 668.106 128.28H668.612C668.686 128.28 668.744 128.306 668.788 128.357C668.84 128.401 668.865 128.46 668.865 128.533V129.017C669.276 128.452 669.877 128.17 670.669 128.17C671.439 128.17 672.015 128.412 672.396 128.896C672.785 129.38 672.994 130.003 673.023 130.766C673.031 130.847 673.034 130.971 673.034 131.14C673.034 131.309 673.031 131.433 673.023 131.514C672.994 132.269 672.785 132.893 672.396 133.384C672.008 133.868 671.432 134.11 670.669 134.11C669.907 134.11 669.313 133.835 668.887 133.285V135.837C668.887 135.91 668.865 135.969 668.821 136.013C668.777 136.064 668.719 136.09 668.645 136.09H668.106ZM670.438 133.219C670.959 133.219 671.337 133.058 671.571 132.735C671.813 132.412 671.945 131.987 671.967 131.459C671.975 131.386 671.978 131.279 671.978 131.14C671.978 129.754 671.465 129.061 670.438 129.061C669.932 129.061 669.551 129.23 669.294 129.567C669.045 129.897 668.909 130.293 668.887 130.755L668.876 131.173L668.887 131.602C668.902 132.035 669.041 132.412 669.305 132.735C669.569 133.058 669.947 133.219 670.438 133.219ZM674.659 134C674.586 134 674.523 133.978 674.472 133.934C674.428 133.883 674.406 133.82 674.406 133.747V126.443C674.406 126.37 674.428 126.311 674.472 126.267C674.523 126.216 674.586 126.19 674.659 126.19H675.176C675.249 126.19 675.308 126.216 675.352 126.267C675.403 126.311 675.429 126.37 675.429 126.443V133.747C675.429 133.82 675.403 133.883 675.352 133.934C675.308 133.978 675.249 134 675.176 134H674.659ZM678.071 136.09C678.012 136.09 677.961 136.068 677.917 136.024C677.873 135.98 677.851 135.929 677.851 135.87C677.851 135.819 677.869 135.753 677.906 135.672L678.753 133.659L676.652 128.698C676.615 128.603 676.597 128.54 676.597 128.511C676.597 128.445 676.619 128.39 676.663 128.346C676.707 128.302 676.762 128.28 676.828 128.28H677.367C677.484 128.28 677.572 128.342 677.631 128.467L679.303 132.471L681.019 128.467C681.078 128.342 681.169 128.28 681.294 128.28H681.811C681.877 128.28 681.932 128.302 681.976 128.346C682.02 128.39 682.042 128.441 682.042 128.5C682.042 128.522 682.024 128.588 681.987 128.698L678.863 135.903C678.804 136.028 678.713 136.09 678.588 136.09H678.071ZM683.535 134C683.462 134 683.4 133.978 683.348 133.934C683.304 133.883 683.282 133.82 683.282 133.747V126.564C683.282 126.483 683.304 126.421 683.348 126.377C683.4 126.326 683.462 126.3 683.535 126.3H686.549C687.334 126.3 687.924 126.487 688.32 126.861C688.716 127.235 688.914 127.726 688.914 128.335C688.914 128.746 688.819 129.087 688.628 129.358C688.445 129.629 688.225 129.827 687.968 129.952C688.276 130.106 688.537 130.344 688.749 130.667C688.962 130.99 689.068 131.36 689.068 131.778C689.068 132.189 688.973 132.563 688.782 132.9C688.599 133.237 688.324 133.505 687.957 133.703C687.591 133.901 687.151 134 686.637 134H683.535ZM686.384 129.556C686.846 129.556 687.198 129.45 687.44 129.237C687.69 129.024 687.814 128.727 687.814 128.346C687.814 127.972 687.693 127.686 687.451 127.488C687.209 127.29 686.854 127.191 686.384 127.191H684.36V129.556H686.384ZM686.494 133.109C686.956 133.109 687.316 132.984 687.572 132.735C687.836 132.486 687.968 132.167 687.968 131.778C687.968 131.375 687.836 131.052 687.572 130.81C687.316 130.561 686.956 130.436 686.494 130.436H684.36V133.109H686.494ZM691.488 136.09C691.429 136.09 691.378 136.068 691.334 136.024C691.29 135.98 691.268 135.929 691.268 135.87C691.268 135.819 691.286 135.753 691.323 135.672L692.17 133.659L690.069 128.698C690.032 128.603 690.014 128.54 690.014 128.511C690.014 128.445 690.036 128.39 690.08 128.346C690.124 128.302 690.179 128.28 690.245 128.28H690.784C690.901 128.28 690.989 128.342 691.048 128.467L692.72 132.471L694.436 128.467C694.495 128.342 694.586 128.28 694.711 128.28H695.228C695.294 128.28 695.349 128.302 695.393 128.346C695.437 128.39 695.459 128.441 695.459 128.5C695.459 128.522 695.441 128.588 695.404 128.698L692.28 135.903C692.221 136.028 692.13 136.09 692.005 136.09H691.488ZM696.534 134C696.461 134 696.399 133.978 696.347 133.934C696.303 133.883 696.281 133.82 696.281 133.747V133.395C696.281 133.226 696.373 133.065 696.556 132.911L698.888 130.579C699.453 130.11 699.842 129.728 700.054 129.435C700.267 129.134 700.373 128.819 700.373 128.489C700.373 128.064 700.252 127.73 700.01 127.488C699.776 127.246 699.431 127.125 698.976 127.125C698.551 127.125 698.21 127.253 697.953 127.51C697.697 127.759 697.539 128.093 697.48 128.511C697.466 128.599 697.429 128.665 697.37 128.709C697.319 128.746 697.26 128.764 697.194 128.764H696.622C696.556 128.764 696.501 128.746 696.457 128.709C696.413 128.665 696.391 128.614 696.391 128.555C696.406 128.159 696.512 127.781 696.71 127.422C696.908 127.055 697.198 126.758 697.579 126.531C697.968 126.296 698.434 126.179 698.976 126.179C699.805 126.179 700.428 126.395 700.846 126.828C701.272 127.253 701.484 127.796 701.484 128.456C701.484 128.918 701.367 129.336 701.132 129.71C700.905 130.077 700.549 130.473 700.065 130.898L697.953 133.043H701.385C701.466 133.043 701.528 133.069 701.572 133.12C701.624 133.164 701.649 133.223 701.649 133.296V133.747C701.649 133.82 701.624 133.883 701.572 133.934C701.521 133.978 701.459 134 701.385 134H696.534ZM708.603 130.15C708.529 130.15 708.467 130.128 708.416 130.084C708.372 130.033 708.35 129.97 708.35 129.897V129.127C708.35 129.054 708.372 128.995 708.416 128.951C708.467 128.9 708.529 128.874 708.603 128.874H709.395C709.468 128.874 709.527 128.9 709.571 128.951C709.622 128.995 709.648 129.054 709.648 129.127V129.897C709.648 129.97 709.622 130.033 709.571 130.084C709.527 130.128 709.468 130.15 709.395 130.15H708.603ZM708.603 134C708.529 134 708.467 133.978 708.416 133.934C708.372 133.883 708.35 133.82 708.35 133.747V132.977C708.35 132.904 708.372 132.845 708.416 132.801C708.467 132.75 708.529 132.724 708.603 132.724H709.395C709.468 132.724 709.527 132.75 709.571 132.801C709.622 132.845 709.648 132.904 709.648 132.977V133.747C709.648 133.82 709.622 133.883 709.571 133.934C709.527 133.978 709.468 134 709.395 134H708.603Z" fill="black"/>
<path d="M643.067 177C642.994 177 642.931 176.978 642.88 176.934C642.836 176.883 642.814 176.82 642.814 176.747V171.544C642.814 171.471 642.836 171.408 642.88 171.357C642.931 171.306 642.994 171.28 643.067 171.28H643.573C643.646 171.28 643.709 171.306 643.76 171.357C643.811 171.408 643.837 171.471 643.837 171.544V172.028C644.138 171.529 644.651 171.28 645.377 171.28H645.806C645.879 171.28 645.938 171.306 645.982 171.357C646.033 171.401 646.059 171.46 646.059 171.533V171.984C646.059 172.057 646.033 172.116 645.982 172.16C645.938 172.204 645.879 172.226 645.806 172.226H645.146C644.75 172.226 644.438 172.343 644.211 172.578C643.984 172.805 643.87 173.117 643.87 173.513V176.747C643.87 176.82 643.844 176.883 643.793 176.934C643.742 176.978 643.679 177 643.606 177H643.067ZM649.173 177.11C648.418 177.11 647.813 176.879 647.358 176.417C646.911 175.948 646.665 175.31 646.621 174.503L646.61 174.129L646.621 173.766C646.673 172.974 646.922 172.343 647.369 171.874C647.824 171.405 648.422 171.17 649.162 171.17C649.976 171.17 650.607 171.43 651.054 171.951C651.502 172.464 651.725 173.161 651.725 174.041V174.228C651.725 174.301 651.7 174.364 651.648 174.415C651.604 174.459 651.546 174.481 651.472 174.481H647.666V174.58C647.688 175.057 647.831 175.464 648.095 175.801C648.367 176.131 648.722 176.296 649.162 176.296C649.5 176.296 649.775 176.23 649.987 176.098C650.207 175.959 650.369 175.816 650.471 175.669C650.537 175.581 650.585 175.53 650.614 175.515C650.651 175.493 650.713 175.482 650.801 175.482H651.34C651.406 175.482 651.461 175.5 651.505 175.537C651.549 175.574 651.571 175.625 651.571 175.691C651.571 175.852 651.469 176.047 651.263 176.274C651.065 176.501 650.783 176.699 650.416 176.868C650.057 177.029 649.643 177.11 649.173 177.11ZM650.68 173.722V173.689C650.68 173.183 650.541 172.772 650.262 172.457C649.991 172.134 649.624 171.973 649.162 171.973C648.7 171.973 648.334 172.134 648.062 172.457C647.798 172.772 647.666 173.183 647.666 173.689V173.722H650.68ZM655.021 177.11C654.507 177.11 654.075 177.029 653.723 176.868C653.378 176.699 653.118 176.509 652.942 176.296C652.773 176.083 652.689 175.907 652.689 175.768C652.689 175.695 652.714 175.64 652.766 175.603C652.824 175.559 652.883 175.537 652.942 175.537H653.437C653.51 175.537 653.576 175.574 653.635 175.647C653.811 175.852 654.001 176.014 654.207 176.131C654.412 176.248 654.687 176.307 655.032 176.307C655.413 176.307 655.721 176.234 655.956 176.087C656.198 175.933 656.319 175.724 656.319 175.46C656.319 175.284 656.267 175.141 656.165 175.031C656.069 174.914 655.901 174.815 655.659 174.734C655.424 174.646 655.072 174.551 654.603 174.448C653.965 174.309 653.51 174.107 653.239 173.843C652.975 173.579 652.843 173.238 652.843 172.82C652.843 172.541 652.923 172.277 653.085 172.028C653.253 171.771 653.495 171.566 653.811 171.412C654.133 171.251 654.518 171.17 654.966 171.17C655.435 171.17 655.835 171.247 656.165 171.401C656.495 171.555 656.74 171.738 656.902 171.951C657.07 172.156 657.155 172.329 657.155 172.468C657.155 172.534 657.129 172.589 657.078 172.633C657.034 172.677 656.979 172.699 656.913 172.699H656.451C656.363 172.699 656.289 172.662 656.231 172.589C656.113 172.45 656.011 172.343 655.923 172.27C655.842 172.189 655.721 172.12 655.56 172.061C655.406 172.002 655.208 171.973 654.966 171.973C654.614 171.973 654.342 172.05 654.152 172.204C653.961 172.351 653.866 172.545 653.866 172.787C653.866 172.941 653.906 173.073 653.987 173.183C654.067 173.286 654.221 173.381 654.449 173.469C654.683 173.557 655.021 173.649 655.461 173.744C656.157 173.891 656.649 174.103 656.935 174.382C657.228 174.653 657.375 175.002 657.375 175.427C657.375 175.742 657.283 176.028 657.1 176.285C656.916 176.542 656.645 176.743 656.286 176.89C655.934 177.037 655.512 177.11 655.021 177.11ZM660.782 177.11C660.085 177.11 659.546 176.886 659.165 176.439C658.784 175.984 658.593 175.383 658.593 174.635V171.533C658.593 171.46 658.615 171.401 658.659 171.357C658.71 171.306 658.773 171.28 658.846 171.28H659.396C659.469 171.28 659.528 171.306 659.572 171.357C659.623 171.401 659.649 171.46 659.649 171.533V174.58C659.649 175.673 660.126 176.219 661.079 176.219C661.541 176.219 661.908 176.076 662.179 175.79C662.45 175.497 662.586 175.093 662.586 174.58V171.533C662.586 171.46 662.608 171.401 662.652 171.357C662.703 171.306 662.766 171.28 662.839 171.28H663.389C663.462 171.28 663.521 171.306 663.565 171.357C663.609 171.401 663.631 171.46 663.631 171.533V176.747C663.631 176.82 663.609 176.883 663.565 176.934C663.521 176.978 663.462 177 663.389 177H662.872C662.799 177 662.736 176.978 662.685 176.934C662.641 176.883 662.619 176.82 662.619 176.747V176.263C662.414 176.542 662.164 176.754 661.871 176.901C661.578 177.04 661.215 177.11 660.782 177.11ZM665.529 177C665.456 177 665.394 176.978 665.342 176.934C665.298 176.883 665.276 176.82 665.276 176.747V169.443C665.276 169.37 665.298 169.311 665.342 169.267C665.394 169.216 665.456 169.19 665.529 169.19H666.046C666.12 169.19 666.178 169.216 666.222 169.267C666.274 169.311 666.299 169.37 666.299 169.443V176.747C666.299 176.82 666.274 176.883 666.222 176.934C666.178 176.978 666.12 177 666.046 177H665.529ZM670.173 177C669.014 177 668.435 176.355 668.435 175.064V172.16H667.577C667.504 172.16 667.441 172.138 667.39 172.094C667.346 172.043 667.324 171.98 667.324 171.907V171.533C667.324 171.46 667.346 171.401 667.39 171.357C667.441 171.306 667.504 171.28 667.577 171.28H668.435V169.443C668.435 169.37 668.457 169.311 668.501 169.267C668.552 169.216 668.615 169.19 668.688 169.19H669.205C669.278 169.19 669.337 169.216 669.381 169.267C669.432 169.311 669.458 169.37 669.458 169.443V171.28H670.822C670.895 171.28 670.954 171.306 670.998 171.357C671.049 171.401 671.075 171.46 671.075 171.533V171.907C671.075 171.98 671.049 172.043 670.998 172.094C670.954 172.138 670.895 172.16 670.822 172.16H669.458V174.987C669.458 175.354 669.52 175.632 669.645 175.823C669.77 176.006 669.975 176.098 670.261 176.098H670.932C671.005 176.098 671.064 176.124 671.108 176.175C671.159 176.219 671.185 176.278 671.185 176.351V176.747C671.185 176.82 671.159 176.883 671.108 176.934C671.064 176.978 671.005 177 670.932 177H670.173ZM677.827 173.15C677.754 173.15 677.692 173.128 677.64 173.084C677.596 173.033 677.574 172.97 677.574 172.897V172.127C677.574 172.054 677.596 171.995 677.64 171.951C677.692 171.9 677.754 171.874 677.827 171.874H678.619C678.693 171.874 678.751 171.9 678.795 171.951C678.847 171.995 678.872 172.054 678.872 172.127V172.897C678.872 172.97 678.847 173.033 678.795 173.084C678.751 173.128 678.693 173.15 678.619 173.15H677.827ZM677.827 177C677.754 177 677.692 176.978 677.64 176.934C677.596 176.883 677.574 176.82 677.574 176.747V175.977C677.574 175.904 677.596 175.845 677.64 175.801C677.692 175.75 677.754 175.724 677.827 175.724H678.619C678.693 175.724 678.751 175.75 678.795 175.801C678.847 175.845 678.872 175.904 678.872 175.977V176.747C678.872 176.82 678.847 176.883 678.795 176.934C678.751 176.978 678.693 177 678.619 177H677.827Z" fill="black"/>
<rect x="760.5" y="115.5" width="39" height="30" fill="#C4C4C4" stroke="black"/>
<line x1="743" y1="130.5" x2="760" y2="130.5" stroke="black"/>
<line x1="800" y1="130.5" x2="817" y2="130.5" stroke="black"/>
<path d="M783.792 123.264C783.792 123.76 783.648 124.008 783.36 124.008C783.28 124.008 783.2 123.944 783.12 123.816C782.976 123.56 782.736 123.432 782.4 123.432C781.664 123.432 780.976 123.96 780.336 125.016C780.208 125.224 779.808 125.976 779.136 127.272H779.424C781.168 127.272 782.328 127.248 782.904 127.2C782.968 127.216 783 127.248 783 127.296C783 127.424 782.432 127.6 781.296 127.824C780.224 128 779.344 128.152 778.656 128.28C778.16 129.304 777.56 130.52 776.856 131.928C775.416 134.616 774.464 136.288 774 136.944C772.608 138.928 771.248 139.92 769.92 139.92C769.456 139.92 769.056 139.72 768.72 139.32C768.368 138.936 768.184 138.504 768.168 138.024C768.216 137.832 768.288 137.736 768.384 137.736C768.432 137.736 768.464 137.792 768.48 137.904C768.576 138.32 768.736 138.64 768.96 138.864C769.184 139.088 769.416 139.2 769.656 139.2C771.016 139.2 772.256 138.36 773.376 136.68C774.016 135.72 774.888 133.992 775.992 131.496L777.288 128.376C775.688 128.36 774.888 128.168 774.888 127.8C774.888 127.64 774.96 127.504 775.104 127.392C775.264 127.28 775.4 127.224 775.512 127.224L777.768 127.272C779.336 123.784 780.776 122.04 782.088 122.04C782.584 122.04 783.088 122.28 783.6 122.76C783.728 122.888 783.792 123.056 783.792 123.264Z" fill="black"/>
<ellipse cx="710.5" cy="172.5" rx="12.5" ry="10.5" fill="#E60A0A"/>
<path d="M710.172 177.14C709.435 177.14 708.795 177.023 708.254 176.79C707.722 176.547 707.316 176.235 707.036 175.852C706.765 175.469 706.621 175.068 706.602 174.648C706.602 174.564 706.63 174.499 706.686 174.452C706.742 174.396 706.812 174.368 706.896 174.368H707.582C707.778 174.368 707.909 174.471 707.974 174.676C708.095 175.143 708.357 175.474 708.758 175.67C709.159 175.857 709.631 175.95 710.172 175.95C710.835 175.95 711.362 175.796 711.754 175.488C712.146 175.171 712.342 174.718 712.342 174.13C712.342 173.001 711.656 172.436 710.284 172.436H708.954C708.861 172.436 708.781 172.408 708.716 172.352C708.66 172.287 708.632 172.207 708.632 172.114V171.736C708.632 171.605 708.683 171.479 708.786 171.358L711.502 168.39H707.372C707.279 168.39 707.199 168.362 707.134 168.306C707.078 168.241 707.05 168.161 707.05 168.068V167.536C707.05 167.443 707.078 167.363 707.134 167.298C707.199 167.233 707.279 167.2 707.372 167.2H712.958C713.061 167.2 713.14 167.233 713.196 167.298C713.261 167.354 713.294 167.433 713.294 167.536V168.04C713.294 168.152 713.243 168.259 713.14 168.362L710.438 171.372L710.662 171.386C711.614 171.414 712.365 171.661 712.916 172.128C713.467 172.595 713.742 173.276 713.742 174.172C713.742 174.779 713.588 175.306 713.28 175.754C712.972 176.202 712.547 176.547 712.006 176.79C711.465 177.023 710.853 177.14 710.172 177.14Z" fill="black"/>
<ellipse cx="660.5" cy="18.5" rx="12.5" ry="10.5" fill="#E60A0A"/>
<path d="M657.008 23C656.915 23 656.835 22.972 656.77 22.916C656.714 22.8507 656.686 22.7713 656.686 22.678V22.23C656.686 22.0153 656.803 21.81 657.036 21.614L660.004 18.646C660.723 18.0487 661.217 17.5633 661.488 17.19C661.759 16.8073 661.894 16.406 661.894 15.986C661.894 15.4447 661.74 15.02 661.432 14.712C661.133 14.404 660.695 14.25 660.116 14.25C659.575 14.25 659.141 14.4133 658.814 14.74C658.487 15.0573 658.287 15.482 658.212 16.014C658.193 16.126 658.147 16.21 658.072 16.266C658.007 16.3127 657.932 16.336 657.848 16.336H657.12C657.036 16.336 656.966 16.3127 656.91 16.266C656.854 16.21 656.826 16.1447 656.826 16.07C656.845 15.566 656.98 15.0853 657.232 14.628C657.484 14.1613 657.853 13.7833 658.338 13.494C658.833 13.1953 659.425 13.046 660.116 13.046C661.171 13.046 661.964 13.3213 662.496 13.872C663.037 14.4133 663.308 15.104 663.308 15.944C663.308 16.532 663.159 17.064 662.86 17.54C662.571 18.0067 662.118 18.5107 661.502 19.052L658.814 21.782H663.182C663.285 21.782 663.364 21.8147 663.42 21.88C663.485 21.936 663.518 22.0107 663.518 22.104V22.678C663.518 22.7713 663.485 22.8507 663.42 22.916C663.355 22.972 663.275 23 663.182 23H657.008Z" fill="black"/>
<rect x="882.5" y="0.5" width="181" height="279" fill="#F9F3F3" stroke="black"/>
<path d="M925.102 20.18C923.494 20.18 922.27 19.748 921.43 18.884C920.602 18.02 920.158 16.826 920.098 15.302C920.086 14.978 920.08 14.45 920.08 13.718C920.08 12.974 920.086 12.434 920.098 12.098C920.158 10.586 920.608 9.398 921.448 8.534C922.288 7.658 923.506 7.22 925.102 7.22C926.17 7.22 927.076 7.412 927.82 7.796C928.564 8.168 929.128 8.66 929.512 9.272C929.896 9.884 930.106 10.538 930.142 11.234V11.27C930.142 11.366 930.1 11.45 930.016 11.522C929.944 11.582 929.86 11.612 929.764 11.612H928.774C928.534 11.612 928.384 11.474 928.324 11.198C928.12 10.298 927.754 9.668 927.226 9.308C926.698 8.936 925.99 8.75 925.102 8.75C923.038 8.75 921.97 9.896 921.898 12.188C921.886 12.512 921.88 13.01 921.88 13.682C921.88 14.354 921.886 14.864 921.898 15.212C921.97 17.504 923.038 18.65 925.102 18.65C925.99 18.65 926.698 18.47 927.226 18.11C927.766 17.738 928.132 17.102 928.324 16.202C928.36 16.046 928.414 15.938 928.486 15.878C928.558 15.818 928.654 15.788 928.774 15.788H929.764C929.872 15.788 929.962 15.824 930.034 15.896C930.118 15.956 930.154 16.04 930.142 16.148C930.106 16.856 929.896 17.516 929.512 18.128C929.128 18.74 928.564 19.238 927.82 19.622C927.076 19.994 926.17 20.18 925.102 20.18ZM934.93 20.18C934.342 20.18 933.796 20.06 933.292 19.82C932.788 19.58 932.386 19.256 932.086 18.848C931.798 18.428 931.654 17.966 931.654 17.462C931.654 16.67 931.978 16.022 932.626 15.518C933.286 15.002 934.174 14.666 935.29 14.51L937.972 14.132V13.61C937.972 12.386 937.27 11.774 935.866 11.774C935.338 11.774 934.906 11.888 934.57 12.116C934.234 12.332 933.982 12.59 933.814 12.89C933.778 12.998 933.73 13.076 933.67 13.124C933.622 13.172 933.55 13.196 933.454 13.196H932.68C932.572 13.196 932.476 13.16 932.392 13.088C932.32 13.004 932.284 12.908 932.284 12.8C932.296 12.512 932.428 12.188 932.68 11.828C932.944 11.456 933.346 11.138 933.886 10.874C934.426 10.598 935.092 10.46 935.884 10.46C937.228 10.46 938.194 10.778 938.782 11.414C939.37 12.038 939.664 12.818 939.664 13.754V19.586C939.664 19.706 939.622 19.808 939.538 19.892C939.466 19.964 939.37 20 939.25 20H938.422C938.302 20 938.2 19.964 938.116 19.892C938.044 19.808 938.008 19.706 938.008 19.586V18.812C937.744 19.196 937.36 19.52 936.856 19.784C936.352 20.048 935.71 20.18 934.93 20.18ZM935.308 18.83C936.088 18.83 936.724 18.578 937.216 18.074C937.72 17.558 937.972 16.82 937.972 15.86V15.356L935.884 15.662C935.032 15.782 934.39 15.986 933.958 16.274C933.526 16.55 933.31 16.904 933.31 17.336C933.31 17.816 933.508 18.188 933.904 18.452C934.3 18.704 934.768 18.83 935.308 18.83ZM942.684 20C942.564 20 942.462 19.964 942.378 19.892C942.306 19.808 942.27 19.706 942.27 19.586V7.634C942.27 7.514 942.306 7.418 942.378 7.346C942.462 7.262 942.564 7.22 942.684 7.22H943.53C943.65 7.22 943.746 7.262 943.818 7.346C943.902 7.418 943.944 7.514 943.944 7.634V19.586C943.944 19.706 943.902 19.808 943.818 19.892C943.746 19.964 943.65 20 943.53 20H942.684ZM947.061 20C946.941 20 946.839 19.964 946.755 19.892C946.683 19.808 946.647 19.706 946.647 19.586V7.634C946.647 7.514 946.683 7.418 946.755 7.346C946.839 7.262 946.941 7.22 947.061 7.22H947.907C948.027 7.22 948.123 7.262 948.195 7.346C948.279 7.418 948.321 7.514 948.321 7.634V19.586C948.321 19.706 948.279 19.808 948.195 19.892C948.123 19.964 948.027 20 947.907 20H947.061ZM959.702 20.18C958.706 20.18 957.842 20.024 957.11 19.712C956.39 19.4 955.838 18.992 955.454 18.488C955.07 17.972 954.866 17.42 954.842 16.832C954.842 16.736 954.878 16.652 954.95 16.58C955.034 16.496 955.13 16.454 955.238 16.454H956.156C956.384 16.454 956.54 16.574 956.624 16.814C956.732 17.318 957.038 17.75 957.542 18.11C958.058 18.47 958.778 18.65 959.702 18.65C960.698 18.65 961.448 18.476 961.952 18.128C962.456 17.768 962.708 17.27 962.708 16.634C962.708 16.226 962.582 15.896 962.33 15.644C962.09 15.392 961.73 15.17 961.25 14.978C960.77 14.786 960.05 14.546 959.09 14.258C958.154 13.994 957.41 13.712 956.858 13.412C956.306 13.112 955.892 12.74 955.616 12.296C955.34 11.852 955.202 11.294 955.202 10.622C955.202 9.974 955.376 9.392 955.724 8.876C956.084 8.36 956.594 7.958 957.254 7.67C957.914 7.37 958.7 7.22 959.612 7.22C960.548 7.22 961.352 7.388 962.024 7.724C962.696 8.048 963.206 8.462 963.554 8.966C963.902 9.47 964.088 9.974 964.112 10.478C964.112 10.574 964.076 10.658 964.004 10.73C963.944 10.802 963.854 10.838 963.734 10.838H962.78C962.528 10.838 962.372 10.724 962.312 10.496C962.24 9.992 961.958 9.578 961.466 9.254C960.974 8.918 960.356 8.75 959.612 8.75C958.796 8.75 958.154 8.906 957.686 9.218C957.218 9.53 956.984 9.992 956.984 10.604C956.984 11.012 957.092 11.348 957.308 11.612C957.536 11.876 957.878 12.11 958.334 12.314C958.79 12.506 959.456 12.728 960.332 12.98C961.352 13.256 962.156 13.544 962.744 13.844C963.332 14.132 963.77 14.498 964.058 14.942C964.346 15.374 964.49 15.926 964.49 16.598C964.49 17.714 964.058 18.59 963.194 19.226C962.33 19.862 961.166 20.18 959.702 20.18ZM970.269 20C968.373 20 967.425 18.944 967.425 16.832V12.08H966.021C965.901 12.08 965.799 12.044 965.715 11.972C965.643 11.888 965.607 11.786 965.607 11.666V11.054C965.607 10.934 965.643 10.838 965.715 10.766C965.799 10.682 965.901 10.64 966.021 10.64H967.425V7.634C967.425 7.514 967.461 7.418 967.533 7.346C967.617 7.262 967.719 7.22 967.839 7.22H968.685C968.805 7.22 968.901 7.262 968.973 7.346C969.057 7.418 969.099 7.514 969.099 7.634V10.64H971.331C971.451 10.64 971.547 10.682 971.619 10.766C971.703 10.838 971.745 10.934 971.745 11.054V11.666C971.745 11.786 971.703 11.888 971.619 11.972C971.547 12.044 971.451 12.08 971.331 12.08H969.099V16.706C969.099 17.306 969.201 17.762 969.405 18.074C969.609 18.374 969.945 18.524 970.413 18.524H971.511C971.631 18.524 971.727 18.566 971.799 18.65C971.883 18.722 971.925 18.818 971.925 18.938V19.586C971.925 19.706 971.883 19.808 971.799 19.892C971.727 19.964 971.631 20 971.511 20H970.269ZM976.256 20.18C975.668 20.18 975.122 20.06 974.618 19.82C974.114 19.58 973.712 19.256 973.412 18.848C973.124 18.428 972.98 17.966 972.98 17.462C972.98 16.67 973.304 16.022 973.952 15.518C974.612 15.002 975.5 14.666 976.616 14.51L979.298 14.132V13.61C979.298 12.386 978.596 11.774 977.192 11.774C976.664 11.774 976.232 11.888 975.896 12.116C975.56 12.332 975.308 12.59 975.14 12.89C975.104 12.998 975.056 13.076 974.996 13.124C974.948 13.172 974.876 13.196 974.78 13.196H974.006C973.898 13.196 973.802 13.16 973.718 13.088C973.646 13.004 973.61 12.908 973.61 12.8C973.622 12.512 973.754 12.188 974.006 11.828C974.27 11.456 974.672 11.138 975.212 10.874C975.752 10.598 976.418 10.46 977.21 10.46C978.554 10.46 979.52 10.778 980.108 11.414C980.696 12.038 980.99 12.818 980.99 13.754V19.586C980.99 19.706 980.948 19.808 980.864 19.892C980.792 19.964 980.696 20 980.576 20H979.748C979.628 20 979.526 19.964 979.442 19.892C979.37 19.808 979.334 19.706 979.334 19.586V18.812C979.07 19.196 978.686 19.52 978.182 19.784C977.678 20.048 977.036 20.18 976.256 20.18ZM976.634 18.83C977.414 18.83 978.05 18.578 978.542 18.074C979.046 17.558 979.298 16.82 979.298 15.86V15.356L977.21 15.662C976.358 15.782 975.716 15.986 975.284 16.274C974.852 16.55 974.636 16.904 974.636 17.336C974.636 17.816 974.834 18.188 975.23 18.452C975.626 18.704 976.094 18.83 976.634 18.83ZM987.358 20.18C986.074 20.18 985.066 19.82 984.334 19.1C983.614 18.368 983.23 17.348 983.182 16.04L983.164 15.32L983.182 14.6C983.23 13.292 983.614 12.278 984.334 11.558C985.066 10.826 986.074 10.46 987.358 10.46C988.222 10.46 988.954 10.616 989.554 10.928C990.154 11.24 990.598 11.624 990.886 12.08C991.186 12.536 991.348 12.992 991.372 13.448C991.384 13.568 991.348 13.664 991.264 13.736C991.18 13.808 991.078 13.844 990.958 13.844H990.094C989.974 13.844 989.884 13.82 989.824 13.772C989.764 13.724 989.704 13.628 989.644 13.484C989.44 12.908 989.152 12.5 988.78 12.26C988.408 12.008 987.94 11.882 987.376 11.882C986.632 11.882 986.038 12.116 985.594 12.584C985.162 13.04 984.928 13.742 984.892 14.69L984.874 15.338L984.892 15.95C984.928 16.91 985.162 17.618 985.594 18.074C986.026 18.53 986.62 18.758 987.376 18.758C987.94 18.758 988.408 18.638 988.78 18.398C989.152 18.146 989.44 17.732 989.644 17.156C989.704 17.012 989.764 16.916 989.824 16.868C989.884 16.808 989.974 16.778 990.094 16.778H990.958C991.078 16.778 991.18 16.82 991.264 16.904C991.348 16.976 991.384 17.072 991.372 17.192C991.348 17.636 991.186 18.092 990.886 18.56C990.598 19.016 990.154 19.4 989.554 19.712C988.966 20.024 988.234 20.18 987.358 20.18ZM993.942 20C993.822 20 993.72 19.964 993.636 19.892C993.564 19.808 993.528 19.706 993.528 19.586V7.634C993.528 7.514 993.564 7.418 993.636 7.346C993.72 7.262 993.822 7.22 993.942 7.22H994.788C994.908 7.22 995.004 7.262 995.076 7.346C995.16 7.418 995.202 7.514 995.202 7.634V13.898L998.748 10.946C998.784 10.922 998.844 10.874 998.928 10.802C999.012 10.742 999.09 10.7 999.162 10.676C999.246 10.652 999.348 10.64 999.468 10.64H1000.42C1000.53 10.64 1000.62 10.676 1000.69 10.748C1000.76 10.82 1000.8 10.91 1000.8 11.018C1000.8 11.15 1000.73 11.264 1000.58 11.36L996.426 14.816L1001.03 19.298C1001.18 19.418 1001.25 19.526 1001.25 19.622C1001.25 19.73 1001.21 19.82 1001.14 19.892C1001.07 19.964 1000.98 20 1000.87 20H999.936C999.756 20 999.624 19.982 999.54 19.946C999.468 19.91 999.36 19.826 999.216 19.694L995.202 15.86V19.586C995.202 19.706 995.16 19.808 995.076 19.892C995.004 19.964 994.908 20 994.788 20H993.942Z" fill="black"/>
<path d="M954.504 264.694C954.167 265.177 953.695 265.54 953.089 265.781C952.487 266.018 951.785 266.137 950.983 266.137C950.172 266.137 949.452 265.948 948.823 265.569C948.194 265.187 947.707 264.644 947.36 263.942C947.019 263.241 946.843 262.427 946.834 261.502V260.634C946.834 259.134 947.183 257.972 947.88 257.147C948.582 256.323 949.566 255.91 950.833 255.91C951.872 255.91 952.708 256.177 953.342 256.71C953.975 257.239 954.363 257.991 954.504 258.966H953.191C952.945 257.649 952.161 256.99 950.84 256.99C949.96 256.99 949.293 257.3 948.837 257.92C948.386 258.535 948.158 259.428 948.153 260.6V261.413C948.153 262.53 948.409 263.418 948.919 264.079C949.429 264.735 950.12 265.063 950.99 265.063C951.482 265.063 951.913 265.009 952.282 264.899C952.651 264.79 952.957 264.605 953.198 264.346V262.11H950.895V261.044H954.504V264.694ZM957.874 266H956.609V255.5H957.874V266ZM959.569 262.233C959.569 261.509 959.711 260.857 959.993 260.278C960.28 259.7 960.677 259.253 961.183 258.938C961.693 258.624 962.274 258.467 962.926 258.467C963.933 258.467 964.746 258.815 965.366 259.513C965.991 260.21 966.303 261.137 966.303 262.295V262.384C966.303 263.104 966.164 263.751 965.886 264.325C965.612 264.895 965.218 265.339 964.703 265.658C964.193 265.977 963.605 266.137 962.939 266.137C961.937 266.137 961.123 265.788 960.499 265.091C959.879 264.394 959.569 263.471 959.569 262.322V262.233ZM960.841 262.384C960.841 263.204 961.03 263.863 961.408 264.359C961.791 264.856 962.301 265.104 962.939 265.104C963.582 265.104 964.092 264.854 964.471 264.353C964.849 263.847 965.038 263.14 965.038 262.233C965.038 261.422 964.844 260.766 964.457 260.265C964.074 259.759 963.564 259.506 962.926 259.506C962.301 259.506 961.798 259.754 961.415 260.251C961.032 260.748 960.841 261.459 960.841 262.384ZM974.15 262.384C974.15 263.514 973.891 264.423 973.371 265.111C972.852 265.795 972.154 266.137 971.279 266.137C970.345 266.137 969.623 265.806 969.112 265.146L969.051 266H967.889V255.5H969.153V259.417C969.664 258.784 970.368 258.467 971.266 258.467C972.163 258.467 972.868 258.806 973.378 259.485C973.893 260.164 974.15 261.094 974.15 262.274V262.384ZM972.886 262.24C972.886 261.379 972.719 260.714 972.387 260.244C972.054 259.775 971.576 259.54 970.951 259.54C970.117 259.54 969.518 259.927 969.153 260.702V263.901C969.541 264.676 970.145 265.063 970.965 265.063C971.571 265.063 972.043 264.829 972.38 264.359C972.717 263.89 972.886 263.184 972.886 262.24ZM980.316 266C980.243 265.854 980.184 265.594 980.139 265.221C979.551 265.831 978.849 266.137 978.033 266.137C977.304 266.137 976.705 265.932 976.235 265.521C975.771 265.107 975.538 264.583 975.538 263.949C975.538 263.179 975.83 262.582 976.413 262.158C977.001 261.73 977.826 261.516 978.888 261.516H980.118V260.935C980.118 260.493 979.986 260.142 979.722 259.882C979.457 259.618 979.068 259.485 978.553 259.485C978.102 259.485 977.723 259.599 977.418 259.827C977.113 260.055 976.96 260.331 976.96 260.654H975.688C975.688 260.285 975.818 259.93 976.078 259.588C976.342 259.242 976.698 258.968 977.145 258.768C977.596 258.567 978.09 258.467 978.628 258.467C979.48 258.467 980.148 258.681 980.631 259.109C981.114 259.533 981.365 260.119 981.383 260.866V264.271C981.383 264.95 981.469 265.49 981.643 265.891V266H980.316ZM978.218 265.036C978.614 265.036 978.99 264.934 979.346 264.729C979.701 264.523 979.959 264.257 980.118 263.929V262.411H979.127C977.577 262.411 976.803 262.865 976.803 263.771C976.803 264.168 976.935 264.478 977.199 264.701C977.464 264.924 977.803 265.036 978.218 265.036ZM984.739 266H983.475V255.5H984.739V266ZM986.722 261.96C986.722 260.93 986.858 259.941 987.132 258.993C987.41 258.045 987.822 257.184 988.369 256.409C988.916 255.634 989.483 255.088 990.071 254.769L990.331 255.603C989.666 256.113 989.119 256.892 988.69 257.94C988.267 258.989 988.034 260.162 987.993 261.461L987.986 262.042C987.986 263.801 988.308 265.328 988.95 266.622C989.338 267.397 989.798 268.003 990.331 268.44L990.071 269.213C989.465 268.876 988.886 268.311 988.335 267.518C987.259 265.968 986.722 264.116 986.722 261.96ZM994.474 262.028C994.474 263.045 994.339 264.02 994.07 264.954C993.806 265.884 993.398 266.743 992.847 267.531C992.3 268.32 991.726 268.88 991.124 269.213L990.857 268.44C991.559 267.903 992.122 267.069 992.546 265.938C992.974 264.804 993.193 263.546 993.202 262.165V261.946C993.202 260.989 993.102 260.101 992.901 259.28C992.701 258.455 992.421 257.717 992.061 257.065C991.705 256.414 991.304 255.906 990.857 255.541L991.124 254.769C991.726 255.101 992.298 255.657 992.84 256.437C993.387 257.216 993.795 258.075 994.063 259.014C994.337 259.952 994.474 260.957 994.474 262.028Z" fill="black"/>
<ellipse cx="972.5" cy="202.5" rx="12.5" ry="10.5" fill="#E60A0A"/>
<path d="M972.864 207C972.771 207 972.691 206.972 972.626 206.916C972.57 206.851 972.542 206.771 972.542 206.678V198.838L970.218 200.63C970.153 200.686 970.083 200.714 970.008 200.714C969.924 200.714 969.845 200.667 969.77 200.574L969.406 200.112C969.359 200.047 969.336 199.981 969.336 199.916C969.336 199.804 969.383 199.715 969.476 199.65L972.528 197.298C972.631 197.233 972.752 197.2 972.892 197.2H973.606C973.699 197.2 973.774 197.233 973.83 197.298C973.895 197.354 973.928 197.429 973.928 197.522V206.678C973.928 206.771 973.895 206.851 973.83 206.916C973.774 206.972 973.699 207 973.606 207H972.864Z" fill="black"/>
</svg>
