<svg width="1064" height="359" viewBox="0 0 1064 359" fill="none" xmlns="http://www.w3.org/2000/svg">
<rect x="0.5" y="0.5" width="876" height="358" fill="#F9F3F3" stroke="black"/>
<path d="M706.934 23.3213C706.5 23.9424 705.894 24.4082 705.114 24.7188C704.341 25.0234 703.438 25.1758 702.407 25.1758C701.364 25.1758 700.438 24.9326 699.63 24.4463C698.821 23.9541 698.194 23.2568 697.749 22.3545C697.31 21.4521 697.084 20.4062 697.072 19.2168V18.1006C697.072 16.1729 697.521 14.6787 698.417 13.6182C699.319 12.5576 700.585 12.0273 702.214 12.0273C703.55 12.0273 704.625 12.3701 705.439 13.0557C706.254 13.7354 706.752 14.7021 706.934 15.9561H705.246C704.93 14.2627 703.922 13.416 702.223 13.416C701.092 13.416 700.233 13.8145 699.647 14.6113C699.067 15.4023 698.774 16.5508 698.769 18.0566V19.1025C698.769 20.5381 699.097 21.6807 699.753 22.5303C700.409 23.374 701.297 23.7959 702.416 23.7959C703.049 23.7959 703.603 23.7256 704.077 23.585C704.552 23.4443 704.944 23.207 705.255 22.873V19.999H702.293V18.6279H706.934V23.3213ZM711.267 25H709.641V11.5H711.267V25ZM713.446 20.1572C713.446 19.2256 713.628 18.3877 713.991 17.6436C714.36 16.8994 714.87 16.3252 715.521 15.9209C716.177 15.5166 716.924 15.3145 717.762 15.3145C719.057 15.3145 720.103 15.7627 720.899 16.6592C721.702 17.5557 722.104 18.748 722.104 20.2363V20.3506C722.104 21.2764 721.925 22.1084 721.567 22.8467C721.216 23.5791 720.709 24.1504 720.047 24.5605C719.391 24.9707 718.635 25.1758 717.779 25.1758C716.49 25.1758 715.444 24.7275 714.642 23.8311C713.845 22.9346 713.446 21.748 713.446 20.2715V20.1572ZM715.081 20.3506C715.081 21.4053 715.324 22.252 715.811 22.8906C716.303 23.5293 716.959 23.8486 717.779 23.8486C718.605 23.8486 719.262 23.5264 719.748 22.8818C720.234 22.2314 720.478 21.3232 720.478 20.1572C720.478 19.1143 720.229 18.2705 719.73 17.626C719.238 16.9756 718.582 16.6504 717.762 16.6504C716.959 16.6504 716.312 16.9697 715.819 17.6084C715.327 18.2471 715.081 19.1611 715.081 20.3506ZM732.193 20.3506C732.193 21.8037 731.859 22.9727 731.191 23.8574C730.523 24.7363 729.627 25.1758 728.502 25.1758C727.301 25.1758 726.372 24.751 725.716 23.9014L725.637 25H724.143V11.5H725.769V16.5361C726.425 15.7217 727.33 15.3145 728.484 15.3145C729.639 15.3145 730.544 15.751 731.2 16.624C731.862 17.4971 732.193 18.6924 732.193 20.21V20.3506ZM730.567 20.166C730.567 19.0586 730.354 18.2031 729.926 17.5996C729.498 16.9961 728.883 16.6943 728.08 16.6943C727.008 16.6943 726.237 17.1924 725.769 18.1885V22.3018C726.267 23.2979 727.043 23.7959 728.098 23.7959C728.877 23.7959 729.483 23.4941 729.917 22.8906C730.351 22.2871 730.567 21.3789 730.567 20.166ZM740.121 25C740.027 24.8125 739.951 24.4785 739.893 23.998C739.137 24.7832 738.234 25.1758 737.186 25.1758C736.248 25.1758 735.478 24.9121 734.874 24.3848C734.276 23.8516 733.978 23.1777 733.978 22.3633C733.978 21.373 734.353 20.6055 735.103 20.0605C735.858 19.5098 736.919 19.2344 738.284 19.2344H739.866V18.4873C739.866 17.9189 739.696 17.4678 739.356 17.1338C739.017 16.7939 738.516 16.624 737.854 16.624C737.273 16.624 736.787 16.7705 736.395 17.0635C736.002 17.3564 735.806 17.7109 735.806 18.127H734.171C734.171 17.6523 734.338 17.1953 734.672 16.7559C735.012 16.3105 735.469 15.959 736.043 15.7012C736.623 15.4434 737.259 15.3145 737.95 15.3145C739.046 15.3145 739.904 15.5898 740.525 16.1406C741.146 16.6855 741.469 17.4385 741.492 18.3994V22.7764C741.492 23.6494 741.604 24.3438 741.826 24.8594V25H740.121ZM737.423 23.7607C737.933 23.7607 738.416 23.6289 738.873 23.3652C739.33 23.1016 739.661 22.7588 739.866 22.3369V20.3857H738.592C736.6 20.3857 735.604 20.9688 735.604 22.1348C735.604 22.6445 735.773 23.043 736.113 23.3301C736.453 23.6172 736.89 23.7607 737.423 23.7607ZM745.808 25H744.182V11.5H745.808V25ZM759.782 12.2031L763.966 22.6445L768.149 12.2031H770.338V25H768.65V20.0166L768.809 14.6377L764.607 25H763.315L759.123 14.6641L759.29 20.0166V25H757.603V12.2031H759.782ZM777.009 25.1758C775.72 25.1758 774.671 24.7539 773.862 23.9102C773.054 23.0605 772.649 21.9268 772.649 20.5088V20.21C772.649 19.2666 772.828 18.4258 773.186 17.6875C773.549 16.9434 774.053 16.3633 774.697 15.9473C775.348 15.5254 776.051 15.3145 776.807 15.3145C778.043 15.3145 779.004 15.7217 779.689 16.5361C780.375 17.3506 780.718 18.5166 780.718 20.0342V20.7109H774.275C774.299 21.6484 774.571 22.4072 775.093 22.9873C775.62 23.5615 776.288 23.8486 777.097 23.8486C777.671 23.8486 778.157 23.7314 778.556 23.4971C778.954 23.2627 779.303 22.9521 779.602 22.5654L780.595 23.3389C779.798 24.5635 778.603 25.1758 777.009 25.1758ZM776.807 16.6504C776.15 16.6504 775.6 16.8906 775.154 17.3711C774.709 17.8457 774.434 18.5137 774.328 19.375H779.092V19.252C779.045 18.4258 778.822 17.7871 778.424 17.3359C778.025 16.8789 777.486 16.6504 776.807 16.6504ZM784.137 15.4902L784.181 16.5449C784.878 15.7246 785.818 15.3145 787.002 15.3145C788.332 15.3145 789.237 15.8242 789.718 16.8438C790.034 16.3867 790.444 16.0176 790.948 15.7363C791.458 15.4551 792.059 15.3145 792.75 15.3145C794.836 15.3145 795.896 16.4189 795.932 18.6279V25H794.306V18.7246C794.306 18.0449 794.15 17.5381 793.84 17.2041C793.529 16.8643 793.008 16.6943 792.275 16.6943C791.672 16.6943 791.171 16.876 790.772 17.2393C790.374 17.5967 790.143 18.0801 790.078 18.6895V25H788.443V18.7686C788.443 17.3857 787.767 16.6943 786.413 16.6943C785.347 16.6943 784.617 17.1484 784.225 18.0566V25H782.599V15.4902H784.137ZM797.962 20.1572C797.962 19.2256 798.144 18.3877 798.507 17.6436C798.876 16.8994 799.386 16.3252 800.036 15.9209C800.692 15.5166 801.439 15.3145 802.277 15.3145C803.572 15.3145 804.618 15.7627 805.415 16.6592C806.218 17.5557 806.619 18.748 806.619 20.2363V20.3506C806.619 21.2764 806.44 22.1084 806.083 22.8467C805.731 23.5791 805.225 24.1504 804.562 24.5605C803.906 24.9707 803.15 25.1758 802.295 25.1758C801.006 25.1758 799.96 24.7275 799.157 23.8311C798.36 22.9346 797.962 21.748 797.962 20.2715V20.1572ZM799.597 20.3506C799.597 21.4053 799.84 22.252 800.326 22.8906C800.818 23.5293 801.475 23.8486 802.295 23.8486C803.121 23.8486 803.777 23.5264 804.264 22.8818C804.75 22.2314 804.993 21.3232 804.993 20.1572C804.993 19.1143 804.744 18.2705 804.246 17.626C803.754 16.9756 803.098 16.6504 802.277 16.6504C801.475 16.6504 800.827 16.9697 800.335 17.6084C799.843 18.2471 799.597 19.1611 799.597 20.3506ZM813.255 16.9492C813.009 16.9082 812.742 16.8877 812.455 16.8877C811.389 16.8877 810.665 17.3418 810.284 18.25V25H808.658V15.4902H810.24L810.267 16.5889C810.8 15.7393 811.556 15.3145 812.534 15.3145C812.851 15.3145 813.091 15.3555 813.255 15.4375V16.9492ZM818.027 22.6182L820.242 15.4902H821.982L818.159 26.4678C817.567 28.0498 816.627 28.8408 815.338 28.8408L815.03 28.8145L814.424 28.7002V27.3818L814.863 27.417C815.414 27.417 815.842 27.3057 816.146 27.083C816.457 26.8604 816.712 26.4531 816.911 25.8613L817.271 24.8945L813.879 15.4902H815.654L818.027 22.6182Z" fill="black"/>
<line x1="632.5" y1="0.997199" x2="634.5" y2="357.997" stroke="black"/>
<path d="M644.124 63.11C643.339 63.11 642.723 62.89 642.276 62.45C641.836 62.0027 641.601 61.3793 641.572 60.58L641.561 60.14L641.572 59.7C641.601 58.9007 641.836 58.281 642.276 57.841C642.723 57.3937 643.339 57.17 644.124 57.17C644.652 57.17 645.099 57.2653 645.466 57.456C645.833 57.6467 646.104 57.8813 646.28 58.16C646.463 58.4387 646.562 58.7173 646.577 58.996C646.584 59.0693 646.562 59.128 646.511 59.172C646.46 59.216 646.397 59.238 646.324 59.238H645.796C645.723 59.238 645.668 59.2233 645.631 59.194C645.594 59.1647 645.558 59.106 645.521 59.018C645.396 58.666 645.22 58.4167 644.993 58.27C644.766 58.116 644.48 58.039 644.135 58.039C643.68 58.039 643.317 58.182 643.046 58.468C642.782 58.7467 642.639 59.1757 642.617 59.755L642.606 60.151L642.617 60.525C642.639 61.1117 642.782 61.5443 643.046 61.823C643.31 62.1017 643.673 62.241 644.135 62.241C644.48 62.241 644.766 62.1677 644.993 62.021C645.22 61.867 645.396 61.614 645.521 61.262C645.558 61.174 645.594 61.1153 645.631 61.086C645.668 61.0493 645.723 61.031 645.796 61.031H646.324C646.397 61.031 646.46 61.0567 646.511 61.108C646.562 61.152 646.584 61.2107 646.577 61.284C646.562 61.5553 646.463 61.834 646.28 62.12C646.104 62.3987 645.833 62.6333 645.466 62.824C645.107 63.0147 644.659 63.11 644.124 63.11ZM650.226 63.11C649.42 63.11 648.793 62.8827 648.345 62.428C647.905 61.9733 647.671 61.3683 647.641 60.613L647.63 60.14L647.641 59.667C647.671 58.919 647.909 58.3177 648.356 57.863C648.804 57.401 649.427 57.17 650.226 57.17C651.026 57.17 651.649 57.401 652.096 57.863C652.544 58.3177 652.782 58.919 652.811 59.667C652.819 59.7477 652.822 59.9053 652.822 60.14C652.822 60.3747 652.819 60.5323 652.811 60.613C652.782 61.3683 652.544 61.9733 652.096 62.428C651.656 62.8827 651.033 63.11 650.226 63.11ZM650.226 62.263C650.688 62.263 651.051 62.1163 651.315 61.823C651.587 61.5297 651.733 61.108 651.755 60.558C651.763 60.4847 651.766 60.3453 651.766 60.14C651.766 59.9347 651.763 59.7953 651.755 59.722C651.733 59.172 651.587 58.7503 651.315 58.457C651.051 58.1637 650.688 58.017 650.226 58.017C649.764 58.017 649.398 58.1637 649.126 58.457C648.855 58.7503 648.712 59.172 648.697 59.722L648.686 60.14L648.697 60.558C648.712 61.108 648.855 61.5297 649.126 61.823C649.398 62.1163 649.764 62.263 650.226 62.263ZM654.464 65.09C654.39 65.09 654.328 65.0643 654.277 65.013C654.233 64.969 654.211 64.9103 654.211 64.837V57.533C654.211 57.4597 654.233 57.401 654.277 57.357C654.328 57.3057 654.39 57.28 654.464 57.28H654.97C655.043 57.28 655.102 57.3057 655.146 57.357C655.197 57.401 655.223 57.4597 655.223 57.533V58.017C655.633 57.4523 656.235 57.17 657.027 57.17C657.797 57.17 658.372 57.412 658.754 57.896C659.142 58.38 659.351 59.0033 659.381 59.766C659.388 59.8467 659.392 59.9713 659.392 60.14C659.392 60.3087 659.388 60.4333 659.381 60.514C659.351 61.2693 659.142 61.8927 658.754 62.384C658.365 62.868 657.789 63.11 657.027 63.11C656.264 63.11 655.67 62.835 655.245 62.285V64.837C655.245 64.9103 655.223 64.969 655.179 65.013C655.135 65.0643 655.076 65.09 655.003 65.09H654.464ZM656.796 62.219C657.316 62.219 657.694 62.0577 657.929 61.735C658.171 61.4123 658.303 60.987 658.325 60.459C658.332 60.3857 658.336 60.2793 658.336 60.14C658.336 58.754 657.822 58.061 656.796 58.061C656.29 58.061 655.908 58.2297 655.652 58.567C655.402 58.897 655.267 59.293 655.245 59.755L655.234 60.173L655.245 60.602C655.259 61.0347 655.399 61.4123 655.663 61.735C655.927 62.0577 656.304 62.219 656.796 62.219ZM661.539 65.09C661.48 65.09 661.429 65.068 661.385 65.024C661.341 64.98 661.319 64.9287 661.319 64.87C661.319 64.8187 661.337 64.7527 661.374 64.672L662.221 62.659L660.12 57.698C660.083 57.6027 660.065 57.5403 660.065 57.511C660.065 57.445 660.087 57.39 660.131 57.346C660.175 57.302 660.23 57.28 660.296 57.28H660.835C660.952 57.28 661.04 57.3423 661.099 57.467L662.771 61.471L664.487 57.467C664.545 57.3423 664.637 57.28 664.762 57.28H665.279C665.345 57.28 665.4 57.302 665.444 57.346C665.488 57.39 665.51 57.4413 665.51 57.5C665.51 57.522 665.491 57.588 665.455 57.698L662.331 64.903C662.272 65.0277 662.18 65.09 662.056 65.09H661.539ZM665.857 63C665.798 63 665.747 62.978 665.703 62.934C665.659 62.89 665.637 62.8387 665.637 62.78C665.637 62.7213 665.641 62.681 665.648 62.659L668.376 55.542C668.435 55.3807 668.552 55.3 668.728 55.3H669.476C669.652 55.3 669.769 55.3807 669.828 55.542L672.545 62.659L672.567 62.78C672.567 62.8387 672.545 62.89 672.501 62.934C672.457 62.978 672.406 63 672.347 63H671.786C671.705 63 671.643 62.9817 671.599 62.945C671.555 62.901 671.526 62.857 671.511 62.813L670.906 61.251H667.298L666.693 62.813C666.678 62.857 666.645 62.901 666.594 62.945C666.55 62.9817 666.491 63 666.418 63H665.857ZM670.587 60.305L669.102 56.4L667.617 60.305H670.587ZM673.853 63C673.78 63 673.717 62.978 673.666 62.934C673.622 62.8827 673.6 62.8203 673.6 62.747V57.544C673.6 57.4707 673.622 57.4083 673.666 57.357C673.717 57.3057 673.78 57.28 673.853 57.28H674.359C674.432 57.28 674.495 57.3057 674.546 57.357C674.597 57.4083 674.623 57.4707 674.623 57.544V58.028C674.924 57.5293 675.437 57.28 676.163 57.28H676.592C676.665 57.28 676.724 57.3057 676.768 57.357C676.819 57.401 676.845 57.4597 676.845 57.533V57.984C676.845 58.0573 676.819 58.116 676.768 58.16C676.724 58.204 676.665 58.226 676.592 58.226H675.932C675.536 58.226 675.224 58.3433 674.997 58.578C674.77 58.8053 674.656 59.117 674.656 59.513V62.747C674.656 62.8203 674.63 62.8827 674.579 62.934C674.528 62.978 674.465 63 674.392 63H673.853ZM678.032 63C677.959 63 677.896 62.978 677.845 62.934C677.801 62.8827 677.779 62.8203 677.779 62.747V57.544C677.779 57.4707 677.801 57.4083 677.845 57.357C677.896 57.3057 677.959 57.28 678.032 57.28H678.538C678.611 57.28 678.674 57.3057 678.725 57.357C678.776 57.4083 678.802 57.4707 678.802 57.544V58.028C679.103 57.5293 679.616 57.28 680.342 57.28H680.771C680.844 57.28 680.903 57.3057 680.947 57.357C680.998 57.401 681.024 57.4597 681.024 57.533V57.984C681.024 58.0573 680.998 58.116 680.947 58.16C680.903 58.204 680.844 58.226 680.771 58.226H680.111C679.715 58.226 679.403 58.3433 679.176 58.578C678.949 58.8053 678.835 59.117 678.835 59.513V62.747C678.835 62.8203 678.809 62.8827 678.758 62.934C678.707 62.978 678.644 63 678.571 63H678.032ZM683.467 63.11C683.107 63.11 682.774 63.0367 682.466 62.89C682.158 62.7433 681.912 62.5453 681.729 62.296C681.553 62.0393 681.465 61.757 681.465 61.449C681.465 60.965 681.663 60.569 682.059 60.261C682.462 59.9457 683.005 59.7403 683.687 59.645L685.326 59.414V59.095C685.326 58.347 684.897 57.973 684.039 57.973C683.716 57.973 683.452 58.0427 683.247 58.182C683.041 58.314 682.887 58.4717 682.785 58.655C682.763 58.721 682.733 58.7687 682.697 58.798C682.667 58.8273 682.623 58.842 682.565 58.842H682.092C682.026 58.842 681.967 58.82 681.916 58.776C681.872 58.7247 681.85 58.666 681.85 58.6C681.857 58.424 681.938 58.226 682.092 58.006C682.253 57.7787 682.499 57.5843 682.829 57.423C683.159 57.2543 683.566 57.17 684.05 57.17C684.871 57.17 685.461 57.3643 685.821 57.753C686.18 58.1343 686.36 58.611 686.36 59.183V62.747C686.36 62.8203 686.334 62.8827 686.283 62.934C686.239 62.978 686.18 63 686.107 63H685.601C685.527 63 685.465 62.978 685.414 62.934C685.37 62.8827 685.348 62.8203 685.348 62.747V62.274C685.186 62.5087 684.952 62.7067 684.644 62.868C684.336 63.0293 683.943 63.11 683.467 63.11ZM683.698 62.285C684.174 62.285 684.563 62.131 684.864 61.823C685.172 61.5077 685.326 61.0567 685.326 60.47V60.162L684.05 60.349C683.529 60.4223 683.137 60.547 682.873 60.723C682.609 60.8917 682.477 61.108 682.477 61.372C682.477 61.6653 682.598 61.8927 682.84 62.054C683.082 62.208 683.368 62.285 683.698 62.285ZM688.824 65.09C688.765 65.09 688.714 65.068 688.67 65.024C688.626 64.98 688.604 64.9287 688.604 64.87C688.604 64.8187 688.622 64.7527 688.659 64.672L689.506 62.659L687.405 57.698C687.368 57.6027 687.35 57.5403 687.35 57.511C687.35 57.445 687.372 57.39 687.416 57.346C687.46 57.302 687.515 57.28 687.581 57.28H688.12C688.237 57.28 688.325 57.3423 688.384 57.467L690.056 61.471L691.772 57.467C691.83 57.3423 691.922 57.28 692.047 57.28H692.564C692.63 57.28 692.685 57.302 692.729 57.346C692.773 57.39 692.795 57.4413 692.795 57.5C692.795 57.522 692.776 57.588 692.74 57.698L689.616 64.903C689.557 65.0277 689.465 65.09 689.341 65.09H688.824ZM693.142 63C693.083 63 693.032 62.978 692.988 62.934C692.944 62.89 692.922 62.8387 692.922 62.78C692.922 62.7213 692.926 62.681 692.933 62.659L695.661 55.542C695.72 55.3807 695.837 55.3 696.013 55.3H696.761C696.937 55.3 697.054 55.3807 697.113 55.542L699.83 62.659L699.852 62.78C699.852 62.8387 699.83 62.89 699.786 62.934C699.742 62.978 699.691 63 699.632 63H699.071C698.99 63 698.928 62.9817 698.884 62.945C698.84 62.901 698.811 62.857 698.796 62.813L698.191 61.251H694.583L693.978 62.813C693.963 62.857 693.93 62.901 693.879 62.945C693.835 62.9817 693.776 63 693.703 63H693.142ZM697.872 60.305L696.387 56.4L694.902 60.305H697.872ZM701.138 63C701.065 63 701.003 62.978 700.951 62.934C700.907 62.8827 700.885 62.8203 700.885 62.747V57.533C700.885 57.4597 700.907 57.401 700.951 57.357C701.003 57.3057 701.065 57.28 701.138 57.28H701.655C701.729 57.28 701.787 57.3057 701.831 57.357C701.883 57.401 701.908 57.4597 701.908 57.533V58.017C702.121 57.7457 702.37 57.5367 702.656 57.39C702.95 57.2433 703.313 57.17 703.745 57.17C704.449 57.17 704.996 57.3973 705.384 57.852C705.78 58.2993 705.978 58.897 705.978 59.645V62.747C705.978 62.8203 705.953 62.8827 705.901 62.934C705.857 62.978 705.799 63 705.725 63H705.175C705.102 63 705.04 62.978 704.988 62.934C704.944 62.8827 704.922 62.8203 704.922 62.747V59.7C704.922 59.1793 704.794 58.776 704.537 58.49C704.288 58.204 703.925 58.061 703.448 58.061C702.986 58.061 702.62 58.2077 702.348 58.501C702.077 58.787 701.941 59.1867 701.941 59.7V62.747C701.941 62.8203 701.916 62.8827 701.864 62.934C701.82 62.978 701.762 63 701.688 63H701.138ZM709.646 63.11C708.884 63.11 708.308 62.8607 707.919 62.362C707.531 61.8633 707.325 61.2327 707.303 60.47L707.292 60.14L707.303 59.81C707.325 59.0547 707.531 58.4277 707.919 57.929C708.308 57.423 708.884 57.17 709.646 57.17C710.402 57.17 710.996 57.4377 711.428 57.973V55.443C711.428 55.3697 711.45 55.311 711.494 55.267C711.546 55.2157 711.608 55.19 711.681 55.19H712.209C712.283 55.19 712.341 55.2157 712.385 55.267C712.437 55.311 712.462 55.3697 712.462 55.443V62.747C712.462 62.8203 712.437 62.8827 712.385 62.934C712.341 62.978 712.283 63 712.209 63H711.714C711.641 63 711.579 62.978 711.527 62.934C711.483 62.8827 711.461 62.8203 711.461 62.747V62.285C711.036 62.835 710.431 63.11 709.646 63.11ZM709.877 62.219C710.383 62.219 710.761 62.054 711.01 61.724C711.267 61.3867 711.406 60.987 711.428 60.525C711.436 60.4443 711.439 60.305 711.439 60.107C711.439 59.9017 711.436 59.7587 711.428 59.678C711.414 59.2453 711.274 58.8677 711.01 58.545C710.746 58.2223 710.369 58.061 709.877 58.061C709.357 58.061 708.975 58.2223 708.733 58.545C708.499 58.8677 708.37 59.293 708.348 59.821L708.337 60.14C708.337 61.526 708.851 62.219 709.877 62.219ZM714.494 63C714.421 63 714.359 62.978 714.307 62.934C714.263 62.8827 714.241 62.8203 714.241 62.747V55.564C714.241 55.4833 714.263 55.421 714.307 55.377C714.359 55.3257 714.421 55.3 714.494 55.3H715.044C715.162 55.3 715.257 55.3587 715.33 55.476L717.651 59.92L719.994 55.476C720.009 55.432 720.038 55.3917 720.082 55.355C720.134 55.3183 720.196 55.3 720.269 55.3H720.808C720.889 55.3 720.951 55.3257 720.995 55.377C721.047 55.421 721.072 55.4833 721.072 55.564V62.747C721.072 62.8203 721.047 62.8827 720.995 62.934C720.944 62.978 720.882 63 720.808 63H720.269C720.196 63 720.134 62.978 720.082 62.934C720.038 62.8827 720.016 62.8203 720.016 62.747V57.335L718.179 60.921C718.106 61.075 717.989 61.152 717.827 61.152H717.486C717.325 61.152 717.208 61.075 717.134 60.921L715.286 57.335V62.747C715.286 62.8203 715.261 62.8827 715.209 62.934C715.165 62.978 715.107 63 715.033 63H714.494ZM724.427 63.11C724.067 63.11 723.734 63.0367 723.426 62.89C723.118 62.7433 722.872 62.5453 722.689 62.296C722.513 62.0393 722.425 61.757 722.425 61.449C722.425 60.965 722.623 60.569 723.019 60.261C723.422 59.9457 723.965 59.7403 724.647 59.645L726.286 59.414V59.095C726.286 58.347 725.857 57.973 724.999 57.973C724.676 57.973 724.412 58.0427 724.207 58.182C724.001 58.314 723.847 58.4717 723.745 58.655C723.723 58.721 723.693 58.7687 723.657 58.798C723.627 58.8273 723.583 58.842 723.525 58.842H723.052C722.986 58.842 722.927 58.82 722.876 58.776C722.832 58.7247 722.81 58.666 722.81 58.6C722.817 58.424 722.898 58.226 723.052 58.006C723.213 57.7787 723.459 57.5843 723.789 57.423C724.119 57.2543 724.526 57.17 725.01 57.17C725.831 57.17 726.421 57.3643 726.781 57.753C727.14 58.1343 727.32 58.611 727.32 59.183V62.747C727.32 62.8203 727.294 62.8827 727.243 62.934C727.199 62.978 727.14 63 727.067 63H726.561C726.487 63 726.425 62.978 726.374 62.934C726.33 62.8827 726.308 62.8203 726.308 62.747V62.274C726.146 62.5087 725.912 62.7067 725.604 62.868C725.296 63.0293 724.903 63.11 724.427 63.11ZM724.658 62.285C725.134 62.285 725.523 62.131 725.824 61.823C726.132 61.5077 726.286 61.0567 726.286 60.47V60.162L725.01 60.349C724.489 60.4223 724.097 60.547 723.833 60.723C723.569 60.8917 723.437 61.108 723.437 61.372C723.437 61.6653 723.558 61.8927 723.8 62.054C724.042 62.208 724.328 62.285 724.658 62.285ZM729.154 63C729.081 63 729.018 62.978 728.967 62.934C728.923 62.8827 728.901 62.8203 728.901 62.747V57.533C728.901 57.4597 728.923 57.401 728.967 57.357C729.018 57.3057 729.081 57.28 729.154 57.28H729.671C729.744 57.28 729.803 57.3057 729.847 57.357C729.898 57.401 729.924 57.4597 729.924 57.533V58.017C730.137 57.7457 730.386 57.5367 730.672 57.39C730.965 57.2433 731.328 57.17 731.761 57.17C732.465 57.17 733.011 57.3973 733.4 57.852C733.796 58.2993 733.994 58.897 733.994 59.645V62.747C733.994 62.8203 733.968 62.8827 733.917 62.934C733.873 62.978 733.814 63 733.741 63H733.191C733.118 63 733.055 62.978 733.004 62.934C732.96 62.8827 732.938 62.8203 732.938 62.747V59.7C732.938 59.1793 732.81 58.776 732.553 58.49C732.304 58.204 731.941 58.061 731.464 58.061C731.002 58.061 730.635 58.2077 730.364 58.501C730.093 58.787 729.957 59.1867 729.957 59.7V62.747C729.957 62.8203 729.931 62.8827 729.88 62.934C729.836 62.978 729.777 63 729.704 63H729.154ZM735.737 56.213C735.663 56.213 735.601 56.191 735.55 56.147C735.506 56.0957 735.484 56.0333 735.484 55.96V55.366C735.484 55.2927 735.506 55.2303 735.55 55.179C735.601 55.1277 735.663 55.102 735.737 55.102H736.43C736.503 55.102 736.565 55.1277 736.617 55.179C736.668 55.2303 736.694 55.2927 736.694 55.366V55.96C736.694 56.0333 736.668 56.0957 736.617 56.147C736.565 56.191 736.503 56.213 736.43 56.213H735.737ZM735.825 63C735.751 63 735.689 62.978 735.638 62.934C735.594 62.8827 735.572 62.8203 735.572 62.747V57.533C735.572 57.4597 735.594 57.401 735.638 57.357C735.689 57.3057 735.751 57.28 735.825 57.28H736.353C736.426 57.28 736.485 57.3057 736.529 57.357C736.58 57.401 736.606 57.4597 736.606 57.533V62.747C736.606 62.8203 736.58 62.8827 736.529 62.934C736.485 62.978 736.426 63 736.353 63H735.825ZM738.5 65.09C738.427 65.09 738.364 65.0643 738.313 65.013C738.269 64.969 738.247 64.9103 738.247 64.837V57.533C738.247 57.4597 738.269 57.401 738.313 57.357C738.364 57.3057 738.427 57.28 738.5 57.28H739.006C739.079 57.28 739.138 57.3057 739.182 57.357C739.233 57.401 739.259 57.4597 739.259 57.533V58.017C739.67 57.4523 740.271 57.17 741.063 57.17C741.833 57.17 742.409 57.412 742.79 57.896C743.179 58.38 743.388 59.0033 743.417 59.766C743.424 59.8467 743.428 59.9713 743.428 60.14C743.428 60.3087 743.424 60.4333 743.417 60.514C743.388 61.2693 743.179 61.8927 742.79 62.384C742.401 62.868 741.826 63.11 741.063 63.11C740.3 63.11 739.706 62.835 739.281 62.285V64.837C739.281 64.9103 739.259 64.969 739.215 65.013C739.171 65.0643 739.112 65.09 739.039 65.09H738.5ZM740.832 62.219C741.353 62.219 741.73 62.0577 741.965 61.735C742.207 61.4123 742.339 60.987 742.361 60.459C742.368 60.3857 742.372 60.2793 742.372 60.14C742.372 58.754 741.859 58.061 740.832 58.061C740.326 58.061 739.945 58.2297 739.688 58.567C739.439 58.897 739.303 59.293 739.281 59.755L739.27 60.173L739.281 60.602C739.296 61.0347 739.435 61.4123 739.699 61.735C739.963 62.0577 740.341 62.219 740.832 62.219ZM746.923 63.11C746.226 63.11 745.687 62.8863 745.306 62.439C744.924 61.9843 744.734 61.383 744.734 60.635V57.533C744.734 57.4597 744.756 57.401 744.8 57.357C744.851 57.3057 744.913 57.28 744.987 57.28H745.537C745.61 57.28 745.669 57.3057 745.713 57.357C745.764 57.401 745.79 57.4597 745.79 57.533V60.58C745.79 61.6727 746.266 62.219 747.22 62.219C747.682 62.219 748.048 62.076 748.32 61.79C748.591 61.4967 748.727 61.0933 748.727 60.58V57.533C748.727 57.4597 748.749 57.401 748.793 57.357C748.844 57.3057 748.906 57.28 748.98 57.28H749.53C749.603 57.28 749.662 57.3057 749.706 57.357C749.75 57.401 749.772 57.4597 749.772 57.533V62.747C749.772 62.8203 749.75 62.8827 749.706 62.934C749.662 62.978 749.603 63 749.53 63H749.013C748.939 63 748.877 62.978 748.826 62.934C748.782 62.8827 748.76 62.8203 748.76 62.747V62.263C748.554 62.5417 748.305 62.7543 748.012 62.901C747.718 63.0403 747.355 63.11 746.923 63.11ZM751.67 63C751.596 63 751.534 62.978 751.483 62.934C751.439 62.8827 751.417 62.8203 751.417 62.747V55.443C751.417 55.3697 751.439 55.311 751.483 55.267C751.534 55.2157 751.596 55.19 751.67 55.19H752.187C752.26 55.19 752.319 55.2157 752.363 55.267C752.414 55.311 752.44 55.3697 752.44 55.443V62.747C752.44 62.8203 752.414 62.8827 752.363 62.934C752.319 62.978 752.26 63 752.187 63H751.67ZM755.676 63.11C755.316 63.11 754.983 63.0367 754.675 62.89C754.367 62.7433 754.121 62.5453 753.938 62.296C753.762 62.0393 753.674 61.757 753.674 61.449C753.674 60.965 753.872 60.569 754.268 60.261C754.671 59.9457 755.214 59.7403 755.896 59.645L757.535 59.414V59.095C757.535 58.347 757.106 57.973 756.248 57.973C755.925 57.973 755.661 58.0427 755.456 58.182C755.25 58.314 755.096 58.4717 754.994 58.655C754.972 58.721 754.942 58.7687 754.906 58.798C754.876 58.8273 754.832 58.842 754.774 58.842H754.301C754.235 58.842 754.176 58.82 754.125 58.776C754.081 58.7247 754.059 58.666 754.059 58.6C754.066 58.424 754.147 58.226 754.301 58.006C754.462 57.7787 754.708 57.5843 755.038 57.423C755.368 57.2543 755.775 57.17 756.259 57.17C757.08 57.17 757.67 57.3643 758.03 57.753C758.389 58.1343 758.569 58.611 758.569 59.183V62.747C758.569 62.8203 758.543 62.8827 758.492 62.934C758.448 62.978 758.389 63 758.316 63H757.81C757.736 63 757.674 62.978 757.623 62.934C757.579 62.8827 757.557 62.8203 757.557 62.747V62.274C757.395 62.5087 757.161 62.7067 756.853 62.868C756.545 63.0293 756.152 63.11 755.676 63.11ZM755.907 62.285C756.383 62.285 756.772 62.131 757.073 61.823C757.381 61.5077 757.535 61.0567 757.535 60.47V60.162L756.259 60.349C755.738 60.4223 755.346 60.547 755.082 60.723C754.818 60.8917 754.686 61.108 754.686 61.372C754.686 61.6653 754.807 61.8927 755.049 62.054C755.291 62.208 755.577 62.285 755.907 62.285ZM762.329 63C761.171 63 760.591 62.3547 760.591 61.064V58.16H759.733C759.66 58.16 759.598 58.138 759.546 58.094C759.502 58.0427 759.48 57.9803 759.48 57.907V57.533C759.48 57.4597 759.502 57.401 759.546 57.357C759.598 57.3057 759.66 57.28 759.733 57.28H760.591V55.443C760.591 55.3697 760.613 55.311 760.657 55.267C760.709 55.2157 760.771 55.19 760.844 55.19H761.361C761.435 55.19 761.493 55.2157 761.537 55.267C761.589 55.311 761.614 55.3697 761.614 55.443V57.28H762.978C763.052 57.28 763.11 57.3057 763.154 57.357C763.206 57.401 763.231 57.4597 763.231 57.533V57.907C763.231 57.9803 763.206 58.0427 763.154 58.094C763.11 58.138 763.052 58.16 762.978 58.16H761.614V60.987C761.614 61.3537 761.677 61.6323 761.801 61.823C761.926 62.0063 762.131 62.098 762.417 62.098H763.088C763.162 62.098 763.22 62.1237 763.264 62.175C763.316 62.219 763.341 62.2777 763.341 62.351V62.747C763.341 62.8203 763.316 62.8827 763.264 62.934C763.22 62.978 763.162 63 763.088 63H762.329ZM766.681 63.11C765.926 63.11 765.321 62.879 764.866 62.417C764.419 61.9477 764.173 61.3097 764.129 60.503L764.118 60.129L764.129 59.766C764.18 58.974 764.43 58.3433 764.877 57.874C765.332 57.4047 765.929 57.17 766.67 57.17C767.484 57.17 768.115 57.4303 768.562 57.951C769.009 58.4643 769.233 59.161 769.233 60.041V60.228C769.233 60.3013 769.207 60.3637 769.156 60.415C769.112 60.459 769.053 60.481 768.98 60.481H765.174V60.58C765.196 61.0567 765.339 61.4637 765.603 61.801C765.874 62.131 766.23 62.296 766.67 62.296C767.007 62.296 767.282 62.23 767.495 62.098C767.715 61.9587 767.876 61.8157 767.979 61.669C768.045 61.581 768.093 61.5297 768.122 61.515C768.159 61.493 768.221 61.482 768.309 61.482H768.848C768.914 61.482 768.969 61.5003 769.013 61.537C769.057 61.5737 769.079 61.625 769.079 61.691C769.079 61.8523 768.976 62.0467 768.771 62.274C768.573 62.5013 768.291 62.6993 767.924 62.868C767.565 63.0293 767.15 63.11 766.681 63.11ZM768.188 59.722V59.689C768.188 59.183 768.049 58.7723 767.77 58.457C767.499 58.1343 767.132 57.973 766.67 57.973C766.208 57.973 765.841 58.1343 765.57 58.457C765.306 58.7723 765.174 59.183 765.174 59.689V59.722H768.188ZM772.935 64.749C772.305 64.749 771.799 64.5693 771.417 64.21C771.043 63.8507 770.772 63.297 770.603 62.549C770.442 61.801 770.361 60.8183 770.361 59.601C770.361 58.3837 770.442 57.401 770.603 56.653C770.772 55.905 771.043 55.355 771.417 55.003C771.799 54.6437 772.305 54.464 772.935 54.464C773.009 54.464 773.067 54.4897 773.111 54.541C773.163 54.585 773.188 54.6437 773.188 54.717V55.102C773.188 55.168 773.166 55.2267 773.122 55.278C773.078 55.3293 773.027 55.355 772.968 55.355C772.55 55.3623 772.224 55.5017 771.989 55.773C771.755 56.0443 771.586 56.4843 771.483 57.093C771.381 57.7017 771.329 58.5377 771.329 59.601C771.329 60.6643 771.381 61.5003 771.483 62.109C771.586 62.7177 771.755 63.1577 771.989 63.429C772.224 63.7077 772.55 63.8507 772.968 63.858C773.027 63.858 773.078 63.8837 773.122 63.935C773.166 63.9863 773.188 64.045 773.188 64.111V64.496C773.188 64.5693 773.163 64.628 773.111 64.672C773.067 64.7233 773.009 64.749 772.935 64.749ZM773.979 64.749C773.913 64.749 773.854 64.7233 773.803 64.672C773.752 64.628 773.726 64.5693 773.726 64.496V64.111C773.726 64.045 773.748 63.9863 773.792 63.935C773.843 63.8837 773.898 63.858 773.957 63.858C774.368 63.8507 774.69 63.7077 774.925 63.429C775.167 63.1577 775.339 62.7177 775.442 62.109C775.545 61.5003 775.596 60.6643 775.596 59.601C775.596 58.5377 775.545 57.7017 775.442 57.093C775.339 56.4843 775.167 56.0443 774.925 55.773C774.69 55.5017 774.368 55.3623 773.957 55.355C773.898 55.355 773.843 55.3293 773.792 55.278C773.748 55.2267 773.726 55.168 773.726 55.102V54.717C773.726 54.6437 773.752 54.585 773.803 54.541C773.854 54.4897 773.913 54.464 773.979 54.464C774.617 54.464 775.123 54.6437 775.497 55.003C775.871 55.355 776.139 55.905 776.3 56.653C776.469 57.3937 776.553 58.3763 776.553 59.601C776.553 60.8257 776.469 61.812 776.3 62.56C776.139 63.3007 775.871 63.8507 775.497 64.21C775.123 64.5693 774.617 64.749 773.979 64.749ZM783.594 59.15C783.521 59.15 783.458 59.128 783.407 59.084C783.363 59.0327 783.341 58.9703 783.341 58.897V58.127C783.341 58.0537 783.363 57.995 783.407 57.951C783.458 57.8997 783.521 57.874 783.594 57.874H784.386C784.459 57.874 784.518 57.8997 784.562 57.951C784.613 57.995 784.639 58.0537 784.639 58.127V58.897C784.639 58.9703 784.613 59.0327 784.562 59.084C784.518 59.128 784.459 59.15 784.386 59.15H783.594ZM783.594 63C783.521 63 783.458 62.978 783.407 62.934C783.363 62.8827 783.341 62.8203 783.341 62.747V61.977C783.341 61.9037 783.363 61.845 783.407 61.801C783.458 61.7497 783.521 61.724 783.594 61.724H784.386C784.459 61.724 784.518 61.7497 784.562 61.801C784.613 61.845 784.639 61.9037 784.639 61.977V62.747C784.639 62.8203 784.613 62.8827 784.562 62.934C784.518 62.978 784.459 63 784.386 63H783.594Z" fill="black"/>
<rect x="810.5" y="44.5" width="39" height="30" fill="#C4C4C4" stroke="black"/>
<line x1="793" y1="59.5" x2="810" y2="59.5" stroke="black"/>
<line x1="850" y1="59.5" x2="867" y2="59.5" stroke="black"/>
<path d="M833.792 52.264C833.792 52.76 833.648 53.008 833.36 53.008C833.28 53.008 833.2 52.944 833.12 52.816C832.976 52.56 832.736 52.432 832.4 52.432C831.664 52.432 830.976 52.96 830.336 54.016C830.208 54.224 829.808 54.976 829.136 56.272H829.424C831.168 56.272 832.328 56.248 832.904 56.2C832.968 56.216 833 56.248 833 56.296C833 56.424 832.432 56.6 831.296 56.824C830.224 57 829.344 57.152 828.656 57.28C828.16 58.304 827.56 59.52 826.856 60.928C825.416 63.616 824.464 65.288 824 65.944C822.608 67.928 821.248 68.92 819.92 68.92C819.456 68.92 819.056 68.72 818.72 68.32C818.368 67.936 818.184 67.504 818.168 67.024C818.216 66.832 818.288 66.736 818.384 66.736C818.432 66.736 818.464 66.792 818.48 66.904C818.576 67.32 818.736 67.64 818.96 67.864C819.184 68.088 819.416 68.2 819.656 68.2C821.016 68.2 822.256 67.36 823.376 65.68C824.016 64.72 824.888 62.992 825.992 60.496L827.288 57.376C825.688 57.36 824.888 57.168 824.888 56.8C824.888 56.64 824.96 56.504 825.104 56.392C825.264 56.28 825.4 56.224 825.512 56.224L827.768 56.272C829.336 52.784 830.776 51.04 832.088 51.04C832.584 51.04 833.088 51.28 833.6 51.76C833.728 51.888 833.792 52.056 833.792 52.264Z" fill="black"/>
<path d="M642.067 134C641.994 134 641.931 133.978 641.88 133.934C641.836 133.883 641.814 133.82 641.814 133.747V128.533C641.814 128.46 641.836 128.401 641.88 128.357C641.931 128.306 641.994 128.28 642.067 128.28H642.562C642.635 128.28 642.694 128.306 642.738 128.357C642.789 128.401 642.815 128.46 642.815 128.533V128.918C643.196 128.419 643.728 128.17 644.41 128.17C645.224 128.17 645.8 128.507 646.137 129.182C646.313 128.874 646.562 128.628 646.885 128.445C647.208 128.262 647.571 128.17 647.974 128.17C648.575 128.17 649.067 128.375 649.448 128.786C649.829 129.197 650.02 129.791 650.02 130.568V133.747C650.02 133.82 649.994 133.883 649.943 133.934C649.899 133.978 649.84 134 649.767 134H649.25C649.177 134 649.114 133.978 649.063 133.934C649.019 133.883 648.997 133.82 648.997 133.747V130.667C648.997 130.095 648.876 129.684 648.634 129.435C648.399 129.186 648.088 129.061 647.699 129.061C647.354 129.061 647.057 129.189 646.808 129.446C646.559 129.695 646.434 130.102 646.434 130.667V133.747C646.434 133.82 646.408 133.883 646.357 133.934C646.313 133.978 646.254 134 646.181 134H645.664C645.591 134 645.528 133.978 645.477 133.934C645.433 133.883 645.411 133.82 645.411 133.747V130.667C645.411 130.095 645.286 129.684 645.037 129.435C644.795 129.186 644.487 129.061 644.113 129.061C643.768 129.061 643.471 129.189 643.222 129.446C642.973 129.695 642.848 130.099 642.848 130.656V133.747C642.848 133.82 642.822 133.883 642.771 133.934C642.727 133.978 642.668 134 642.595 134H642.067ZM653.723 134.11C653.027 134.11 652.488 133.886 652.106 133.439C651.725 132.984 651.534 132.383 651.534 131.635V128.533C651.534 128.46 651.556 128.401 651.6 128.357C651.652 128.306 651.714 128.28 651.787 128.28H652.337C652.411 128.28 652.469 128.306 652.513 128.357C652.565 128.401 652.59 128.46 652.59 128.533V131.58C652.59 132.673 653.067 133.219 654.02 133.219C654.482 133.219 654.849 133.076 655.12 132.79C655.392 132.497 655.527 132.093 655.527 131.58V128.533C655.527 128.46 655.549 128.401 655.593 128.357C655.645 128.306 655.707 128.28 655.78 128.28H656.33C656.404 128.28 656.462 128.306 656.506 128.357C656.55 128.401 656.572 128.46 656.572 128.533V133.747C656.572 133.82 656.55 133.883 656.506 133.934C656.462 133.978 656.404 134 656.33 134H655.813C655.74 134 655.678 133.978 655.626 133.934C655.582 133.883 655.56 133.82 655.56 133.747V133.263C655.355 133.542 655.106 133.754 654.812 133.901C654.519 134.04 654.156 134.11 653.723 134.11ZM658.471 134C658.397 134 658.335 133.978 658.284 133.934C658.24 133.883 658.218 133.82 658.218 133.747V126.443C658.218 126.37 658.24 126.311 658.284 126.267C658.335 126.216 658.397 126.19 658.471 126.19H658.988C659.061 126.19 659.12 126.216 659.164 126.267C659.215 126.311 659.241 126.37 659.241 126.443V133.747C659.241 133.82 659.215 133.883 659.164 133.934C659.12 133.978 659.061 134 658.988 134H658.471ZM663.114 134C661.956 134 661.376 133.355 661.376 132.064V129.16H660.518C660.445 129.16 660.383 129.138 660.331 129.094C660.287 129.043 660.265 128.98 660.265 128.907V128.533C660.265 128.46 660.287 128.401 660.331 128.357C660.383 128.306 660.445 128.28 660.518 128.28H661.376V126.443C661.376 126.37 661.398 126.311 661.442 126.267C661.494 126.216 661.556 126.19 661.629 126.19H662.146C662.22 126.19 662.278 126.216 662.322 126.267C662.374 126.311 662.399 126.37 662.399 126.443V128.28H663.763C663.837 128.28 663.895 128.306 663.939 128.357C663.991 128.401 664.016 128.46 664.016 128.533V128.907C664.016 128.98 663.991 129.043 663.939 129.094C663.895 129.138 663.837 129.16 663.763 129.16H662.399V131.987C662.399 132.354 662.462 132.632 662.586 132.823C662.711 133.006 662.916 133.098 663.202 133.098H663.873C663.947 133.098 664.005 133.124 664.049 133.175C664.101 133.219 664.126 133.278 664.126 133.351V133.747C664.126 133.82 664.101 133.883 664.049 133.934C664.005 133.978 663.947 134 663.873 134H663.114ZM665.343 127.213C665.27 127.213 665.208 127.191 665.156 127.147C665.112 127.096 665.09 127.033 665.09 126.96V126.366C665.09 126.293 665.112 126.23 665.156 126.179C665.208 126.128 665.27 126.102 665.343 126.102H666.036C666.11 126.102 666.172 126.128 666.223 126.179C666.275 126.23 666.3 126.293 666.3 126.366V126.96C666.3 127.033 666.275 127.096 666.223 127.147C666.172 127.191 666.11 127.213 666.036 127.213H665.343ZM665.431 134C665.358 134 665.296 133.978 665.244 133.934C665.2 133.883 665.178 133.82 665.178 133.747V128.533C665.178 128.46 665.2 128.401 665.244 128.357C665.296 128.306 665.358 128.28 665.431 128.28H665.959C666.033 128.28 666.091 128.306 666.135 128.357C666.187 128.401 666.212 128.46 666.212 128.533V133.747C666.212 133.82 666.187 133.883 666.135 133.934C666.091 133.978 666.033 134 665.959 134H665.431ZM668.106 136.09C668.033 136.09 667.971 136.064 667.919 136.013C667.875 135.969 667.853 135.91 667.853 135.837V128.533C667.853 128.46 667.875 128.401 667.919 128.357C667.971 128.306 668.033 128.28 668.106 128.28H668.612C668.686 128.28 668.744 128.306 668.788 128.357C668.84 128.401 668.865 128.46 668.865 128.533V129.017C669.276 128.452 669.877 128.17 670.669 128.17C671.439 128.17 672.015 128.412 672.396 128.896C672.785 129.38 672.994 130.003 673.023 130.766C673.031 130.847 673.034 130.971 673.034 131.14C673.034 131.309 673.031 131.433 673.023 131.514C672.994 132.269 672.785 132.893 672.396 133.384C672.008 133.868 671.432 134.11 670.669 134.11C669.907 134.11 669.313 133.835 668.887 133.285V135.837C668.887 135.91 668.865 135.969 668.821 136.013C668.777 136.064 668.719 136.09 668.645 136.09H668.106ZM670.438 133.219C670.959 133.219 671.337 133.058 671.571 132.735C671.813 132.412 671.945 131.987 671.967 131.459C671.975 131.386 671.978 131.279 671.978 131.14C671.978 129.754 671.465 129.061 670.438 129.061C669.932 129.061 669.551 129.23 669.294 129.567C669.045 129.897 668.909 130.293 668.887 130.755L668.876 131.173L668.887 131.602C668.902 132.035 669.041 132.412 669.305 132.735C669.569 133.058 669.947 133.219 670.438 133.219ZM674.659 134C674.586 134 674.523 133.978 674.472 133.934C674.428 133.883 674.406 133.82 674.406 133.747V126.443C674.406 126.37 674.428 126.311 674.472 126.267C674.523 126.216 674.586 126.19 674.659 126.19H675.176C675.249 126.19 675.308 126.216 675.352 126.267C675.403 126.311 675.429 126.37 675.429 126.443V133.747C675.429 133.82 675.403 133.883 675.352 133.934C675.308 133.978 675.249 134 675.176 134H674.659ZM678.071 136.09C678.012 136.09 677.961 136.068 677.917 136.024C677.873 135.98 677.851 135.929 677.851 135.87C677.851 135.819 677.869 135.753 677.906 135.672L678.753 133.659L676.652 128.698C676.615 128.603 676.597 128.54 676.597 128.511C676.597 128.445 676.619 128.39 676.663 128.346C676.707 128.302 676.762 128.28 676.828 128.28H677.367C677.484 128.28 677.572 128.342 677.631 128.467L679.303 132.471L681.019 128.467C681.078 128.342 681.169 128.28 681.294 128.28H681.811C681.877 128.28 681.932 128.302 681.976 128.346C682.02 128.39 682.042 128.441 682.042 128.5C682.042 128.522 682.024 128.588 681.987 128.698L678.863 135.903C678.804 136.028 678.713 136.09 678.588 136.09H678.071ZM683.535 134C683.462 134 683.4 133.978 683.348 133.934C683.304 133.883 683.282 133.82 683.282 133.747V126.564C683.282 126.483 683.304 126.421 683.348 126.377C683.4 126.326 683.462 126.3 683.535 126.3H686.549C687.334 126.3 687.924 126.487 688.32 126.861C688.716 127.235 688.914 127.726 688.914 128.335C688.914 128.746 688.819 129.087 688.628 129.358C688.445 129.629 688.225 129.827 687.968 129.952C688.276 130.106 688.537 130.344 688.749 130.667C688.962 130.99 689.068 131.36 689.068 131.778C689.068 132.189 688.973 132.563 688.782 132.9C688.599 133.237 688.324 133.505 687.957 133.703C687.591 133.901 687.151 134 686.637 134H683.535ZM686.384 129.556C686.846 129.556 687.198 129.45 687.44 129.237C687.69 129.024 687.814 128.727 687.814 128.346C687.814 127.972 687.693 127.686 687.451 127.488C687.209 127.29 686.854 127.191 686.384 127.191H684.36V129.556H686.384ZM686.494 133.109C686.956 133.109 687.316 132.984 687.572 132.735C687.836 132.486 687.968 132.167 687.968 131.778C687.968 131.375 687.836 131.052 687.572 130.81C687.316 130.561 686.956 130.436 686.494 130.436H684.36V133.109H686.494ZM691.488 136.09C691.429 136.09 691.378 136.068 691.334 136.024C691.29 135.98 691.268 135.929 691.268 135.87C691.268 135.819 691.286 135.753 691.323 135.672L692.17 133.659L690.069 128.698C690.032 128.603 690.014 128.54 690.014 128.511C690.014 128.445 690.036 128.39 690.08 128.346C690.124 128.302 690.179 128.28 690.245 128.28H690.784C690.901 128.28 690.989 128.342 691.048 128.467L692.72 132.471L694.436 128.467C694.495 128.342 694.586 128.28 694.711 128.28H695.228C695.294 128.28 695.349 128.302 695.393 128.346C695.437 128.39 695.459 128.441 695.459 128.5C695.459 128.522 695.441 128.588 695.404 128.698L692.28 135.903C692.221 136.028 692.13 136.09 692.005 136.09H691.488ZM696.534 134C696.461 134 696.399 133.978 696.347 133.934C696.303 133.883 696.281 133.82 696.281 133.747V133.395C696.281 133.226 696.373 133.065 696.556 132.911L698.888 130.579C699.453 130.11 699.842 129.728 700.054 129.435C700.267 129.134 700.373 128.819 700.373 128.489C700.373 128.064 700.252 127.73 700.01 127.488C699.776 127.246 699.431 127.125 698.976 127.125C698.551 127.125 698.21 127.253 697.953 127.51C697.697 127.759 697.539 128.093 697.48 128.511C697.466 128.599 697.429 128.665 697.37 128.709C697.319 128.746 697.26 128.764 697.194 128.764H696.622C696.556 128.764 696.501 128.746 696.457 128.709C696.413 128.665 696.391 128.614 696.391 128.555C696.406 128.159 696.512 127.781 696.71 127.422C696.908 127.055 697.198 126.758 697.579 126.531C697.968 126.296 698.434 126.179 698.976 126.179C699.805 126.179 700.428 126.395 700.846 126.828C701.272 127.253 701.484 127.796 701.484 128.456C701.484 128.918 701.367 129.336 701.132 129.71C700.905 130.077 700.549 130.473 700.065 130.898L697.953 133.043H701.385C701.466 133.043 701.528 133.069 701.572 133.12C701.624 133.164 701.649 133.223 701.649 133.296V133.747C701.649 133.82 701.624 133.883 701.572 133.934C701.521 133.978 701.459 134 701.385 134H696.534ZM708.603 130.15C708.529 130.15 708.467 130.128 708.416 130.084C708.372 130.033 708.35 129.97 708.35 129.897V129.127C708.35 129.054 708.372 128.995 708.416 128.951C708.467 128.9 708.529 128.874 708.603 128.874H709.395C709.468 128.874 709.527 128.9 709.571 128.951C709.622 128.995 709.648 129.054 709.648 129.127V129.897C709.648 129.97 709.622 130.033 709.571 130.084C709.527 130.128 709.468 130.15 709.395 130.15H708.603ZM708.603 134C708.529 134 708.467 133.978 708.416 133.934C708.372 133.883 708.35 133.82 708.35 133.747V132.977C708.35 132.904 708.372 132.845 708.416 132.801C708.467 132.75 708.529 132.724 708.603 132.724H709.395C709.468 132.724 709.527 132.75 709.571 132.801C709.622 132.845 709.648 132.904 709.648 132.977V133.747C709.648 133.82 709.622 133.883 709.571 133.934C709.527 133.978 709.468 134 709.395 134H708.603Z" fill="black"/>
<path d="M643.261 179C643.174 179 643.101 178.974 643.04 178.922C642.988 178.861 642.962 178.788 642.962 178.701V172.552C642.962 172.465 642.988 172.392 643.04 172.331C643.101 172.27 643.174 172.24 643.261 172.24H643.859C643.946 172.24 644.019 172.27 644.08 172.331C644.141 172.392 644.171 172.465 644.171 172.552V173.124C644.526 172.535 645.133 172.24 645.991 172.24H646.498C646.585 172.24 646.654 172.27 646.706 172.331C646.767 172.383 646.797 172.452 646.797 172.539V173.072C646.797 173.159 646.767 173.228 646.706 173.28C646.654 173.332 646.585 173.358 646.498 173.358H645.718C645.25 173.358 644.882 173.497 644.613 173.774C644.344 174.043 644.21 174.411 644.21 174.879V178.701C644.21 178.788 644.18 178.861 644.119 178.922C644.058 178.974 643.985 179 643.898 179H643.261ZM650.478 179.13C649.585 179.13 648.87 178.857 648.333 178.311C647.804 177.756 647.514 177.002 647.462 176.049L647.449 175.607L647.462 175.178C647.522 174.242 647.817 173.497 648.346 172.942C648.883 172.387 649.589 172.11 650.465 172.11C651.427 172.11 652.172 172.418 652.701 173.033C653.229 173.64 653.494 174.463 653.494 175.503V175.724C653.494 175.811 653.463 175.884 653.403 175.945C653.351 175.997 653.281 176.023 653.195 176.023H648.697V176.14C648.723 176.703 648.892 177.184 649.204 177.583C649.524 177.973 649.945 178.168 650.465 178.168C650.863 178.168 651.188 178.09 651.44 177.934C651.7 177.769 651.89 177.6 652.012 177.427C652.09 177.323 652.146 177.262 652.181 177.245C652.224 177.219 652.298 177.206 652.402 177.206H653.039C653.117 177.206 653.182 177.228 653.234 177.271C653.286 177.314 653.312 177.375 653.312 177.453C653.312 177.644 653.19 177.873 652.948 178.142C652.714 178.411 652.38 178.645 651.947 178.844C651.522 179.035 651.032 179.13 650.478 179.13ZM652.259 175.126V175.087C652.259 174.489 652.094 174.004 651.765 173.631C651.444 173.25 651.011 173.059 650.465 173.059C649.919 173.059 649.485 173.25 649.165 173.631C648.853 174.004 648.697 174.489 648.697 175.087V175.126H652.259ZM657.388 179.13C656.781 179.13 656.27 179.035 655.854 178.844C655.447 178.645 655.139 178.419 654.931 178.168C654.732 177.917 654.632 177.709 654.632 177.544C654.632 177.457 654.662 177.392 654.723 177.349C654.792 177.297 654.862 177.271 654.931 177.271H655.516C655.603 177.271 655.681 177.314 655.75 177.401C655.958 177.644 656.183 177.834 656.426 177.973C656.669 178.112 656.994 178.181 657.401 178.181C657.852 178.181 658.216 178.094 658.493 177.921C658.779 177.739 658.922 177.492 658.922 177.18C658.922 176.972 658.861 176.803 658.74 176.673C658.627 176.534 658.428 176.417 658.142 176.322C657.865 176.218 657.449 176.105 656.894 175.984C656.14 175.819 655.603 175.581 655.282 175.269C654.97 174.957 654.814 174.554 654.814 174.06C654.814 173.731 654.909 173.419 655.1 173.124C655.299 172.821 655.585 172.578 655.958 172.396C656.339 172.205 656.794 172.11 657.323 172.11C657.878 172.11 658.35 172.201 658.74 172.383C659.13 172.565 659.42 172.782 659.611 173.033C659.81 173.276 659.91 173.479 659.91 173.644C659.91 173.722 659.88 173.787 659.819 173.839C659.767 173.891 659.702 173.917 659.624 173.917H659.078C658.974 173.917 658.887 173.874 658.818 173.787C658.679 173.622 658.558 173.497 658.454 173.41C658.359 173.315 658.216 173.232 658.025 173.163C657.843 173.094 657.609 173.059 657.323 173.059C656.907 173.059 656.586 173.15 656.361 173.332C656.136 173.505 656.023 173.735 656.023 174.021C656.023 174.203 656.071 174.359 656.166 174.489C656.261 174.61 656.443 174.723 656.712 174.827C656.989 174.931 657.388 175.039 657.908 175.152C658.731 175.325 659.312 175.577 659.65 175.906C659.997 176.227 660.17 176.638 660.17 177.141C660.17 177.514 660.062 177.852 659.845 178.155C659.628 178.458 659.308 178.697 658.883 178.87C658.467 179.043 657.969 179.13 657.388 179.13ZM664.197 179.13C663.374 179.13 662.737 178.866 662.286 178.337C661.835 177.8 661.61 177.089 661.61 176.205V172.539C661.61 172.452 661.636 172.383 661.688 172.331C661.749 172.27 661.822 172.24 661.909 172.24H662.559C662.646 172.24 662.715 172.27 662.767 172.331C662.828 172.383 662.858 172.452 662.858 172.539V176.14C662.858 177.431 663.421 178.077 664.548 178.077C665.094 178.077 665.527 177.908 665.848 177.57C666.169 177.223 666.329 176.747 666.329 176.14V172.539C666.329 172.452 666.355 172.383 666.407 172.331C666.468 172.27 666.541 172.24 666.628 172.24H667.278C667.365 172.24 667.434 172.27 667.486 172.331C667.538 172.383 667.564 172.452 667.564 172.539V178.701C667.564 178.788 667.538 178.861 667.486 178.922C667.434 178.974 667.365 179 667.278 179H666.667C666.58 179 666.507 178.974 666.446 178.922C666.394 178.861 666.368 178.788 666.368 178.701V178.129C666.125 178.458 665.831 178.71 665.484 178.883C665.137 179.048 664.708 179.13 664.197 179.13ZM669.807 179C669.721 179 669.647 178.974 669.586 178.922C669.534 178.861 669.508 178.788 669.508 178.701V170.069C669.508 169.982 669.534 169.913 669.586 169.861C669.647 169.8 669.721 169.77 669.807 169.77H670.418C670.505 169.77 670.574 169.8 670.626 169.861C670.687 169.913 670.717 169.982 670.717 170.069V178.701C670.717 178.788 670.687 178.861 670.626 178.922C670.574 178.974 670.505 179 670.418 179H669.807ZM675.295 179C673.926 179 673.241 178.237 673.241 176.712V173.28H672.227C672.141 173.28 672.067 173.254 672.006 173.202C671.954 173.141 671.928 173.068 671.928 172.981V172.539C671.928 172.452 671.954 172.383 672.006 172.331C672.067 172.27 672.141 172.24 672.227 172.24H673.241V170.069C673.241 169.982 673.267 169.913 673.319 169.861C673.38 169.8 673.454 169.77 673.54 169.77H674.151C674.238 169.77 674.307 169.8 674.359 169.861C674.42 169.913 674.45 169.982 674.45 170.069V172.24H676.062C676.149 172.24 676.218 172.27 676.27 172.331C676.331 172.383 676.361 172.452 676.361 172.539V172.981C676.361 173.068 676.331 173.141 676.27 173.202C676.218 173.254 676.149 173.28 676.062 173.28H674.45V176.621C674.45 177.054 674.524 177.384 674.671 177.609C674.819 177.826 675.061 177.934 675.399 177.934H676.192C676.279 177.934 676.348 177.964 676.4 178.025C676.461 178.077 676.491 178.146 676.491 178.233V178.701C676.491 178.788 676.461 178.861 676.4 178.922C676.348 178.974 676.279 179 676.192 179H675.295ZM684.342 174.45C684.255 174.45 684.181 174.424 684.121 174.372C684.069 174.311 684.043 174.238 684.043 174.151V173.241C684.043 173.154 684.069 173.085 684.121 173.033C684.181 172.972 684.255 172.942 684.342 172.942H685.278C685.364 172.942 685.434 172.972 685.486 173.033C685.546 173.085 685.577 173.154 685.577 173.241V174.151C685.577 174.238 685.546 174.311 685.486 174.372C685.434 174.424 685.364 174.45 685.278 174.45H684.342ZM684.342 179C684.255 179 684.181 178.974 684.121 178.922C684.069 178.861 684.043 178.788 684.043 178.701V177.791C684.043 177.704 684.069 177.635 684.121 177.583C684.181 177.522 684.255 177.492 684.342 177.492H685.278C685.364 177.492 685.434 177.522 685.486 177.583C685.546 177.635 685.577 177.704 685.577 177.791V178.701C685.577 178.788 685.546 178.861 685.486 178.922C685.434 178.974 685.364 179 685.278 179H684.342ZM694.093 181.067C694.006 181.067 693.932 181.037 693.872 180.976C693.82 180.924 693.794 180.855 693.794 180.768V169.211C693.794 169.124 693.82 169.055 693.872 169.003C693.932 168.942 694.006 168.912 694.093 168.912H696.42C696.506 168.912 696.576 168.942 696.628 169.003C696.688 169.055 696.719 169.124 696.719 169.211V169.666C696.719 169.753 696.693 169.826 696.641 169.887C696.589 169.939 696.515 169.965 696.42 169.965H694.951V179.962H696.42C696.506 179.962 696.576 179.988 696.628 180.04C696.688 180.101 696.719 180.174 696.719 180.261V180.768C696.719 180.855 696.688 180.924 696.628 180.976C696.576 181.037 696.506 181.067 696.42 181.067H694.093ZM701.207 179C701.121 179 701.047 178.974 700.986 178.922C700.934 178.861 700.908 178.788 700.908 178.701V178.285C700.908 178.086 701.017 177.895 701.233 177.713L703.989 174.957C704.657 174.402 705.116 173.952 705.367 173.605C705.619 173.25 705.744 172.877 705.744 172.487C705.744 171.984 705.601 171.59 705.315 171.304C705.038 171.018 704.631 170.875 704.093 170.875C703.591 170.875 703.188 171.027 702.884 171.33C702.581 171.625 702.395 172.019 702.325 172.513C702.308 172.617 702.265 172.695 702.195 172.747C702.135 172.79 702.065 172.812 701.987 172.812H701.311C701.233 172.812 701.168 172.79 701.116 172.747C701.064 172.695 701.038 172.634 701.038 172.565C701.056 172.097 701.181 171.651 701.415 171.226C701.649 170.793 701.992 170.442 702.442 170.173C702.902 169.896 703.452 169.757 704.093 169.757C705.073 169.757 705.809 170.013 706.303 170.524C706.806 171.027 707.057 171.668 707.057 172.448C707.057 172.994 706.919 173.488 706.641 173.93C706.373 174.363 705.952 174.831 705.38 175.334L702.884 177.869H706.94C707.036 177.869 707.109 177.899 707.161 177.96C707.222 178.012 707.252 178.081 707.252 178.168V178.701C707.252 178.788 707.222 178.861 707.161 178.922C707.101 178.974 707.027 179 706.94 179H701.207ZM708.772 179.975C708.703 179.975 708.647 179.949 708.603 179.897C708.569 179.845 708.556 179.78 708.564 179.702L708.863 177.843C708.898 177.592 709.019 177.466 709.227 177.466H710.098C710.159 177.466 710.207 177.488 710.241 177.531C710.285 177.574 710.306 177.626 710.306 177.687C710.306 177.73 710.293 177.8 710.267 177.895L709.578 179.676C709.535 179.78 709.487 179.854 709.435 179.897C709.383 179.949 709.305 179.975 709.201 179.975H708.772ZM719.538 179C719.452 179 719.378 178.974 719.317 178.922C719.265 178.861 719.239 178.788 719.239 178.701V176.829H715.027C714.941 176.829 714.867 176.803 714.806 176.751C714.754 176.69 714.728 176.617 714.728 176.53V176.01C714.728 175.88 714.776 175.75 714.871 175.62L718.771 170.121C718.815 170.052 718.88 170 718.966 169.965C719.053 169.922 719.148 169.9 719.252 169.9H720.188C720.275 169.9 720.344 169.93 720.396 169.991C720.457 170.043 720.487 170.112 720.487 170.199V175.698H721.657C721.744 175.698 721.818 175.728 721.878 175.789C721.939 175.841 721.969 175.91 721.969 175.997V176.53C721.969 176.617 721.939 176.69 721.878 176.751C721.826 176.803 721.757 176.829 721.67 176.829H720.487V178.701C720.487 178.788 720.457 178.861 720.396 178.922C720.344 178.974 720.275 179 720.188 179H719.538ZM719.252 175.724V171.265L716.119 175.724H719.252ZM723.08 179.975C723.011 179.975 722.954 179.949 722.911 179.897C722.876 179.845 722.863 179.78 722.872 179.702L723.171 177.843C723.206 177.592 723.327 177.466 723.535 177.466H724.406C724.467 177.466 724.514 177.488 724.549 177.531C724.592 177.574 724.614 177.626 724.614 177.687C724.614 177.73 724.601 177.8 724.575 177.895L723.886 179.676C723.843 179.78 723.795 179.854 723.743 179.897C723.691 179.949 723.613 179.975 723.509 179.975H723.08ZM732.637 179.13C731.943 179.13 731.341 178.991 730.83 178.714C730.318 178.428 729.928 178.047 729.66 177.57C729.391 177.093 729.257 176.573 729.257 176.01C729.257 175.551 729.348 175.117 729.53 174.71C729.72 174.294 729.933 173.926 730.167 173.605L732.637 170.16C732.645 170.151 732.671 170.121 732.715 170.069C732.749 170.017 732.797 169.978 732.858 169.952C732.918 169.917 732.988 169.9 733.066 169.9H733.755C733.833 169.9 733.893 169.93 733.937 169.991C733.989 170.043 734.015 170.108 734.015 170.186C734.015 170.247 733.997 170.303 733.963 170.355L732.065 173.007C732.255 172.946 732.502 172.916 732.806 172.916C733.43 172.925 733.98 173.068 734.457 173.345C734.942 173.622 735.315 173.995 735.575 174.463C735.843 174.931 735.978 175.442 735.978 175.997C735.978 176.552 735.843 177.072 735.575 177.557C735.315 178.034 734.929 178.415 734.418 178.701C733.915 178.987 733.321 179.13 732.637 179.13ZM732.624 178.025C732.996 178.025 733.339 177.947 733.651 177.791C733.971 177.635 734.223 177.405 734.405 177.102C734.595 176.79 734.691 176.422 734.691 175.997C734.691 175.581 734.595 175.221 734.405 174.918C734.223 174.615 733.971 174.385 733.651 174.229C733.339 174.073 732.996 173.995 732.624 173.995C732.26 173.995 731.917 174.073 731.597 174.229C731.285 174.385 731.033 174.615 730.843 174.918C730.652 175.221 730.557 175.581 730.557 175.997C730.557 176.422 730.652 176.79 730.843 177.102C731.033 177.405 731.285 177.635 731.597 177.791C731.909 177.947 732.251 178.025 732.624 178.025ZM740.302 181.067C740.216 181.067 740.142 181.037 740.081 180.976C740.029 180.924 740.003 180.855 740.003 180.768V180.261C740.003 180.174 740.029 180.101 740.081 180.04C740.142 179.988 740.216 179.962 740.302 179.962H741.784V169.965H740.302C740.216 169.965 740.142 169.939 740.081 169.887C740.029 169.826 740.003 169.753 740.003 169.666V169.211C740.003 169.124 740.029 169.055 740.081 169.003C740.142 168.942 740.216 168.912 740.302 168.912H742.642C742.729 168.912 742.798 168.942 742.85 169.003C742.911 169.055 742.941 169.124 742.941 169.211V180.768C742.941 180.855 742.911 180.924 742.85 180.976C742.798 181.037 742.729 181.067 742.642 181.067H740.302Z" fill="black"/>
<rect x="760.5" y="115.5" width="39" height="30" fill="#C4C4C4" stroke="black"/>
<line x1="743" y1="130.5" x2="760" y2="130.5" stroke="black"/>
<line x1="800" y1="130.5" x2="817" y2="130.5" stroke="black"/>
<path d="M783.792 123.264C783.792 123.76 783.648 124.008 783.36 124.008C783.28 124.008 783.2 123.944 783.12 123.816C782.976 123.56 782.736 123.432 782.4 123.432C781.664 123.432 780.976 123.96 780.336 125.016C780.208 125.224 779.808 125.976 779.136 127.272H779.424C781.168 127.272 782.328 127.248 782.904 127.2C782.968 127.216 783 127.248 783 127.296C783 127.424 782.432 127.6 781.296 127.824C780.224 128 779.344 128.152 778.656 128.28C778.16 129.304 777.56 130.52 776.856 131.928C775.416 134.616 774.464 136.288 774 136.944C772.608 138.928 771.248 139.92 769.92 139.92C769.456 139.92 769.056 139.72 768.72 139.32C768.368 138.936 768.184 138.504 768.168 138.024C768.216 137.832 768.288 137.736 768.384 137.736C768.432 137.736 768.464 137.792 768.48 137.904C768.576 138.32 768.736 138.64 768.96 138.864C769.184 139.088 769.416 139.2 769.656 139.2C771.016 139.2 772.256 138.36 773.376 136.68C774.016 135.72 774.888 133.992 775.992 131.496L777.288 128.376C775.688 128.36 774.888 128.168 774.888 127.8C774.888 127.64 774.96 127.504 775.104 127.392C775.264 127.28 775.4 127.224 775.512 127.224L777.768 127.272C779.336 123.784 780.776 122.04 782.088 122.04C782.584 122.04 783.088 122.28 783.6 122.76C783.728 122.888 783.792 123.056 783.792 123.264Z" fill="black"/>
<rect x="882.5" y="43.5" width="181" height="279" fill="#F9F3F3" stroke="black"/>
<path d="M925.102 63.18C923.494 63.18 922.27 62.748 921.43 61.884C920.602 61.02 920.158 59.826 920.098 58.302C920.086 57.978 920.08 57.45 920.08 56.718C920.08 55.974 920.086 55.434 920.098 55.098C920.158 53.586 920.608 52.398 921.448 51.534C922.288 50.658 923.506 50.22 925.102 50.22C926.17 50.22 927.076 50.412 927.82 50.796C928.564 51.168 929.128 51.66 929.512 52.272C929.896 52.884 930.106 53.538 930.142 54.234V54.27C930.142 54.366 930.1 54.45 930.016 54.522C929.944 54.582 929.86 54.612 929.764 54.612H928.774C928.534 54.612 928.384 54.474 928.324 54.198C928.12 53.298 927.754 52.668 927.226 52.308C926.698 51.936 925.99 51.75 925.102 51.75C923.038 51.75 921.97 52.896 921.898 55.188C921.886 55.512 921.88 56.01 921.88 56.682C921.88 57.354 921.886 57.864 921.898 58.212C921.97 60.504 923.038 61.65 925.102 61.65C925.99 61.65 926.698 61.47 927.226 61.11C927.766 60.738 928.132 60.102 928.324 59.202C928.36 59.046 928.414 58.938 928.486 58.878C928.558 58.818 928.654 58.788 928.774 58.788H929.764C929.872 58.788 929.962 58.824 930.034 58.896C930.118 58.956 930.154 59.04 930.142 59.148C930.106 59.856 929.896 60.516 929.512 61.128C929.128 61.74 928.564 62.238 927.82 62.622C927.076 62.994 926.17 63.18 925.102 63.18ZM934.93 63.18C934.342 63.18 933.796 63.06 933.292 62.82C932.788 62.58 932.386 62.256 932.086 61.848C931.798 61.428 931.654 60.966 931.654 60.462C931.654 59.67 931.978 59.022 932.626 58.518C933.286 58.002 934.174 57.666 935.29 57.51L937.972 57.132V56.61C937.972 55.386 937.27 54.774 935.866 54.774C935.338 54.774 934.906 54.888 934.57 55.116C934.234 55.332 933.982 55.59 933.814 55.89C933.778 55.998 933.73 56.076 933.67 56.124C933.622 56.172 933.55 56.196 933.454 56.196H932.68C932.572 56.196 932.476 56.16 932.392 56.088C932.32 56.004 932.284 55.908 932.284 55.8C932.296 55.512 932.428 55.188 932.68 54.828C932.944 54.456 933.346 54.138 933.886 53.874C934.426 53.598 935.092 53.46 935.884 53.46C937.228 53.46 938.194 53.778 938.782 54.414C939.37 55.038 939.664 55.818 939.664 56.754V62.586C939.664 62.706 939.622 62.808 939.538 62.892C939.466 62.964 939.37 63 939.25 63H938.422C938.302 63 938.2 62.964 938.116 62.892C938.044 62.808 938.008 62.706 938.008 62.586V61.812C937.744 62.196 937.36 62.52 936.856 62.784C936.352 63.048 935.71 63.18 934.93 63.18ZM935.308 61.83C936.088 61.83 936.724 61.578 937.216 61.074C937.72 60.558 937.972 59.82 937.972 58.86V58.356L935.884 58.662C935.032 58.782 934.39 58.986 933.958 59.274C933.526 59.55 933.31 59.904 933.31 60.336C933.31 60.816 933.508 61.188 933.904 61.452C934.3 61.704 934.768 61.83 935.308 61.83ZM942.684 63C942.564 63 942.462 62.964 942.378 62.892C942.306 62.808 942.27 62.706 942.27 62.586V50.634C942.27 50.514 942.306 50.418 942.378 50.346C942.462 50.262 942.564 50.22 942.684 50.22H943.53C943.65 50.22 943.746 50.262 943.818 50.346C943.902 50.418 943.944 50.514 943.944 50.634V62.586C943.944 62.706 943.902 62.808 943.818 62.892C943.746 62.964 943.65 63 943.53 63H942.684ZM947.061 63C946.941 63 946.839 62.964 946.755 62.892C946.683 62.808 946.647 62.706 946.647 62.586V50.634C946.647 50.514 946.683 50.418 946.755 50.346C946.839 50.262 946.941 50.22 947.061 50.22H947.907C948.027 50.22 948.123 50.262 948.195 50.346C948.279 50.418 948.321 50.514 948.321 50.634V62.586C948.321 62.706 948.279 62.808 948.195 62.892C948.123 62.964 948.027 63 947.907 63H947.061ZM959.702 63.18C958.706 63.18 957.842 63.024 957.11 62.712C956.39 62.4 955.838 61.992 955.454 61.488C955.07 60.972 954.866 60.42 954.842 59.832C954.842 59.736 954.878 59.652 954.95 59.58C955.034 59.496 955.13 59.454 955.238 59.454H956.156C956.384 59.454 956.54 59.574 956.624 59.814C956.732 60.318 957.038 60.75 957.542 61.11C958.058 61.47 958.778 61.65 959.702 61.65C960.698 61.65 961.448 61.476 961.952 61.128C962.456 60.768 962.708 60.27 962.708 59.634C962.708 59.226 962.582 58.896 962.33 58.644C962.09 58.392 961.73 58.17 961.25 57.978C960.77 57.786 960.05 57.546 959.09 57.258C958.154 56.994 957.41 56.712 956.858 56.412C956.306 56.112 955.892 55.74 955.616 55.296C955.34 54.852 955.202 54.294 955.202 53.622C955.202 52.974 955.376 52.392 955.724 51.876C956.084 51.36 956.594 50.958 957.254 50.67C957.914 50.37 958.7 50.22 959.612 50.22C960.548 50.22 961.352 50.388 962.024 50.724C962.696 51.048 963.206 51.462 963.554 51.966C963.902 52.47 964.088 52.974 964.112 53.478C964.112 53.574 964.076 53.658 964.004 53.73C963.944 53.802 963.854 53.838 963.734 53.838H962.78C962.528 53.838 962.372 53.724 962.312 53.496C962.24 52.992 961.958 52.578 961.466 52.254C960.974 51.918 960.356 51.75 959.612 51.75C958.796 51.75 958.154 51.906 957.686 52.218C957.218 52.53 956.984 52.992 956.984 53.604C956.984 54.012 957.092 54.348 957.308 54.612C957.536 54.876 957.878 55.11 958.334 55.314C958.79 55.506 959.456 55.728 960.332 55.98C961.352 56.256 962.156 56.544 962.744 56.844C963.332 57.132 963.77 57.498 964.058 57.942C964.346 58.374 964.49 58.926 964.49 59.598C964.49 60.714 964.058 61.59 963.194 62.226C962.33 62.862 961.166 63.18 959.702 63.18ZM970.269 63C968.373 63 967.425 61.944 967.425 59.832V55.08H966.021C965.901 55.08 965.799 55.044 965.715 54.972C965.643 54.888 965.607 54.786 965.607 54.666V54.054C965.607 53.934 965.643 53.838 965.715 53.766C965.799 53.682 965.901 53.64 966.021 53.64H967.425V50.634C967.425 50.514 967.461 50.418 967.533 50.346C967.617 50.262 967.719 50.22 967.839 50.22H968.685C968.805 50.22 968.901 50.262 968.973 50.346C969.057 50.418 969.099 50.514 969.099 50.634V53.64H971.331C971.451 53.64 971.547 53.682 971.619 53.766C971.703 53.838 971.745 53.934 971.745 54.054V54.666C971.745 54.786 971.703 54.888 971.619 54.972C971.547 55.044 971.451 55.08 971.331 55.08H969.099V59.706C969.099 60.306 969.201 60.762 969.405 61.074C969.609 61.374 969.945 61.524 970.413 61.524H971.511C971.631 61.524 971.727 61.566 971.799 61.65C971.883 61.722 971.925 61.818 971.925 61.938V62.586C971.925 62.706 971.883 62.808 971.799 62.892C971.727 62.964 971.631 63 971.511 63H970.269ZM976.256 63.18C975.668 63.18 975.122 63.06 974.618 62.82C974.114 62.58 973.712 62.256 973.412 61.848C973.124 61.428 972.98 60.966 972.98 60.462C972.98 59.67 973.304 59.022 973.952 58.518C974.612 58.002 975.5 57.666 976.616 57.51L979.298 57.132V56.61C979.298 55.386 978.596 54.774 977.192 54.774C976.664 54.774 976.232 54.888 975.896 55.116C975.56 55.332 975.308 55.59 975.14 55.89C975.104 55.998 975.056 56.076 974.996 56.124C974.948 56.172 974.876 56.196 974.78 56.196H974.006C973.898 56.196 973.802 56.16 973.718 56.088C973.646 56.004 973.61 55.908 973.61 55.8C973.622 55.512 973.754 55.188 974.006 54.828C974.27 54.456 974.672 54.138 975.212 53.874C975.752 53.598 976.418 53.46 977.21 53.46C978.554 53.46 979.52 53.778 980.108 54.414C980.696 55.038 980.99 55.818 980.99 56.754V62.586C980.99 62.706 980.948 62.808 980.864 62.892C980.792 62.964 980.696 63 980.576 63H979.748C979.628 63 979.526 62.964 979.442 62.892C979.37 62.808 979.334 62.706 979.334 62.586V61.812C979.07 62.196 978.686 62.52 978.182 62.784C977.678 63.048 977.036 63.18 976.256 63.18ZM976.634 61.83C977.414 61.83 978.05 61.578 978.542 61.074C979.046 60.558 979.298 59.82 979.298 58.86V58.356L977.21 58.662C976.358 58.782 975.716 58.986 975.284 59.274C974.852 59.55 974.636 59.904 974.636 60.336C974.636 60.816 974.834 61.188 975.23 61.452C975.626 61.704 976.094 61.83 976.634 61.83ZM987.358 63.18C986.074 63.18 985.066 62.82 984.334 62.1C983.614 61.368 983.23 60.348 983.182 59.04L983.164 58.32L983.182 57.6C983.23 56.292 983.614 55.278 984.334 54.558C985.066 53.826 986.074 53.46 987.358 53.46C988.222 53.46 988.954 53.616 989.554 53.928C990.154 54.24 990.598 54.624 990.886 55.08C991.186 55.536 991.348 55.992 991.372 56.448C991.384 56.568 991.348 56.664 991.264 56.736C991.18 56.808 991.078 56.844 990.958 56.844H990.094C989.974 56.844 989.884 56.82 989.824 56.772C989.764 56.724 989.704 56.628 989.644 56.484C989.44 55.908 989.152 55.5 988.78 55.26C988.408 55.008 987.94 54.882 987.376 54.882C986.632 54.882 986.038 55.116 985.594 55.584C985.162 56.04 984.928 56.742 984.892 57.69L984.874 58.338L984.892 58.95C984.928 59.91 985.162 60.618 985.594 61.074C986.026 61.53 986.62 61.758 987.376 61.758C987.94 61.758 988.408 61.638 988.78 61.398C989.152 61.146 989.44 60.732 989.644 60.156C989.704 60.012 989.764 59.916 989.824 59.868C989.884 59.808 989.974 59.778 990.094 59.778H990.958C991.078 59.778 991.18 59.82 991.264 59.904C991.348 59.976 991.384 60.072 991.372 60.192C991.348 60.636 991.186 61.092 990.886 61.56C990.598 62.016 990.154 62.4 989.554 62.712C988.966 63.024 988.234 63.18 987.358 63.18ZM993.942 63C993.822 63 993.72 62.964 993.636 62.892C993.564 62.808 993.528 62.706 993.528 62.586V50.634C993.528 50.514 993.564 50.418 993.636 50.346C993.72 50.262 993.822 50.22 993.942 50.22H994.788C994.908 50.22 995.004 50.262 995.076 50.346C995.16 50.418 995.202 50.514 995.202 50.634V56.898L998.748 53.946C998.784 53.922 998.844 53.874 998.928 53.802C999.012 53.742 999.09 53.7 999.162 53.676C999.246 53.652 999.348 53.64 999.468 53.64H1000.42C1000.53 53.64 1000.62 53.676 1000.69 53.748C1000.76 53.82 1000.8 53.91 1000.8 54.018C1000.8 54.15 1000.73 54.264 1000.58 54.36L996.426 57.816L1001.03 62.298C1001.18 62.418 1001.25 62.526 1001.25 62.622C1001.25 62.73 1001.21 62.82 1001.14 62.892C1001.07 62.964 1000.98 63 1000.87 63H999.936C999.756 63 999.624 62.982 999.54 62.946C999.468 62.91 999.36 62.826 999.216 62.694L995.202 58.86V62.586C995.202 62.706 995.16 62.808 995.076 62.892C995.004 62.964 994.908 63 994.788 63H993.942Z" fill="black"/>
<path d="M942.504 352.694C942.167 353.177 941.695 353.54 941.089 353.781C940.487 354.018 939.785 354.137 938.983 354.137C938.172 354.137 937.452 353.948 936.823 353.569C936.194 353.187 935.707 352.644 935.36 351.942C935.019 351.241 934.843 350.427 934.834 349.502V348.634C934.834 347.134 935.183 345.972 935.88 345.147C936.582 344.323 937.566 343.91 938.833 343.91C939.872 343.91 940.708 344.177 941.342 344.71C941.975 345.239 942.363 345.991 942.504 346.966H941.191C940.945 345.649 940.161 344.99 938.84 344.99C937.96 344.99 937.293 345.3 936.837 345.92C936.386 346.535 936.158 347.428 936.153 348.6V349.413C936.153 350.53 936.409 351.418 936.919 352.079C937.429 352.735 938.12 353.063 938.99 353.063C939.482 353.063 939.913 353.009 940.282 352.899C940.651 352.79 940.957 352.605 941.198 352.346V350.11H938.895V349.044H942.504V352.694ZM945.874 354H944.609V343.5H945.874V354ZM947.569 350.233C947.569 349.509 947.711 348.857 947.993 348.278C948.28 347.7 948.677 347.253 949.183 346.938C949.693 346.624 950.274 346.467 950.926 346.467C951.933 346.467 952.746 346.815 953.366 347.513C953.991 348.21 954.303 349.137 954.303 350.295V350.384C954.303 351.104 954.164 351.751 953.886 352.325C953.612 352.895 953.218 353.339 952.703 353.658C952.193 353.977 951.605 354.137 950.939 354.137C949.937 354.137 949.123 353.788 948.499 353.091C947.879 352.394 947.569 351.471 947.569 350.322V350.233ZM948.841 350.384C948.841 351.204 949.03 351.863 949.408 352.359C949.791 352.856 950.301 353.104 950.939 353.104C951.582 353.104 952.092 352.854 952.471 352.353C952.849 351.847 953.038 351.14 953.038 350.233C953.038 349.422 952.844 348.766 952.457 348.265C952.074 347.759 951.564 347.506 950.926 347.506C950.301 347.506 949.798 347.754 949.415 348.251C949.032 348.748 948.841 349.459 948.841 350.384ZM962.15 350.384C962.15 351.514 961.891 352.423 961.371 353.111C960.852 353.795 960.154 354.137 959.279 354.137C958.345 354.137 957.623 353.806 957.112 353.146L957.051 354H955.889V343.5H957.153V347.417C957.664 346.784 958.368 346.467 959.266 346.467C960.163 346.467 960.868 346.806 961.378 347.485C961.893 348.164 962.15 349.094 962.15 350.274V350.384ZM960.886 350.24C960.886 349.379 960.719 348.714 960.387 348.244C960.054 347.775 959.576 347.54 958.951 347.54C958.117 347.54 957.518 347.927 957.153 348.702V351.901C957.541 352.676 958.145 353.063 958.965 353.063C959.571 353.063 960.043 352.829 960.38 352.359C960.717 351.89 960.886 351.184 960.886 350.24ZM968.316 354C968.243 353.854 968.184 353.594 968.139 353.221C967.551 353.831 966.849 354.137 966.033 354.137C965.304 354.137 964.705 353.932 964.235 353.521C963.771 353.107 963.538 352.583 963.538 351.949C963.538 351.179 963.83 350.582 964.413 350.158C965.001 349.73 965.826 349.516 966.888 349.516H968.118V348.935C968.118 348.493 967.986 348.142 967.722 347.882C967.457 347.618 967.068 347.485 966.553 347.485C966.102 347.485 965.723 347.599 965.418 347.827C965.113 348.055 964.96 348.331 964.96 348.654H963.688C963.688 348.285 963.818 347.93 964.078 347.588C964.342 347.242 964.698 346.968 965.145 346.768C965.596 346.567 966.09 346.467 966.628 346.467C967.48 346.467 968.148 346.681 968.631 347.109C969.114 347.533 969.365 348.119 969.383 348.866V352.271C969.383 352.95 969.469 353.49 969.643 353.891V354H968.316ZM966.218 353.036C966.614 353.036 966.99 352.934 967.346 352.729C967.701 352.523 967.959 352.257 968.118 351.929V350.411H967.127C965.577 350.411 964.803 350.865 964.803 351.771C964.803 352.168 964.935 352.478 965.199 352.701C965.464 352.924 965.803 353.036 966.218 353.036ZM972.739 354H971.475V343.5H972.739V354ZM974.722 349.96C974.722 348.93 974.858 347.941 975.132 346.993C975.41 346.045 975.822 345.184 976.369 344.409C976.916 343.634 977.483 343.088 978.071 342.769L978.331 343.603C977.666 344.113 977.119 344.892 976.69 345.94C976.267 346.989 976.034 348.162 975.993 349.461L975.986 350.042C975.986 351.801 976.308 353.328 976.95 354.622C977.338 355.397 977.798 356.003 978.331 356.44L978.071 357.213C977.465 356.876 976.886 356.311 976.335 355.518C975.259 353.968 974.722 352.116 974.722 349.96ZM982.474 350.028C982.474 351.045 982.339 352.02 982.07 352.954C981.806 353.884 981.398 354.743 980.847 355.531C980.3 356.32 979.726 356.88 979.124 357.213L978.857 356.44C979.559 355.903 980.122 355.069 980.546 353.938C980.974 352.804 981.193 351.546 981.202 350.165V349.946C981.202 348.989 981.102 348.101 980.901 347.28C980.701 346.455 980.421 345.717 980.061 345.065C979.705 344.414 979.304 343.906 978.857 343.541L979.124 342.769C979.726 343.101 980.298 343.657 980.84 344.437C981.387 345.216 981.795 346.075 982.063 347.014C982.337 347.952 982.474 348.957 982.474 350.028Z" fill="black"/>
<ellipse cx="119.5" cy="114.5" rx="12.5" ry="10.5" fill="#E60A0A"/>
<path d="M119.864 119C119.771 119 119.691 118.972 119.626 118.916C119.57 118.851 119.542 118.771 119.542 118.678V110.838L117.218 112.63C117.153 112.686 117.083 112.714 117.008 112.714C116.924 112.714 116.845 112.667 116.77 112.574L116.406 112.112C116.359 112.047 116.336 111.981 116.336 111.916C116.336 111.804 116.383 111.715 116.476 111.65L119.528 109.298C119.631 109.233 119.752 109.2 119.892 109.2H120.606C120.699 109.2 120.774 109.233 120.83 109.298C120.895 109.354 120.928 109.429 120.928 109.522V118.678C120.928 118.771 120.895 118.851 120.83 118.916C120.774 118.972 120.699 119 120.606 119H119.864Z" fill="black"/>
<path d="M157.112 120.18C155.828 120.18 154.82 119.82 154.088 119.1C153.368 118.368 152.984 117.348 152.936 116.04L152.918 115.32L152.936 114.6C152.984 113.292 153.368 112.278 154.088 111.558C154.82 110.826 155.828 110.46 157.112 110.46C157.976 110.46 158.708 110.616 159.308 110.928C159.908 111.24 160.352 111.624 160.64 112.08C160.94 112.536 161.102 112.992 161.126 113.448C161.138 113.568 161.102 113.664 161.018 113.736C160.934 113.808 160.832 113.844 160.712 113.844H159.848C159.728 113.844 159.638 113.82 159.578 113.772C159.518 113.724 159.458 113.628 159.398 113.484C159.194 112.908 158.906 112.5 158.534 112.26C158.162 112.008 157.694 111.882 157.13 111.882C156.386 111.882 155.792 112.116 155.348 112.584C154.916 113.04 154.682 113.742 154.646 114.69L154.628 115.338L154.646 115.95C154.682 116.91 154.916 117.618 155.348 118.074C155.78 118.53 156.374 118.758 157.13 118.758C157.694 118.758 158.162 118.638 158.534 118.398C158.906 118.146 159.194 117.732 159.398 117.156C159.458 117.012 159.518 116.916 159.578 116.868C159.638 116.808 159.728 116.778 159.848 116.778H160.712C160.832 116.778 160.934 116.82 161.018 116.904C161.102 116.976 161.138 117.072 161.126 117.192C161.102 117.636 160.94 118.092 160.64 118.56C160.352 119.016 159.908 119.4 159.308 119.712C158.72 120.024 157.988 120.18 157.112 120.18ZM167.098 120.18C165.778 120.18 164.752 119.808 164.02 119.064C163.3 118.32 162.916 117.33 162.868 116.094L162.85 115.32L162.868 114.546C162.916 113.322 163.306 112.338 164.038 111.594C164.77 110.838 165.79 110.46 167.098 110.46C168.406 110.46 169.426 110.838 170.158 111.594C170.89 112.338 171.28 113.322 171.328 114.546C171.34 114.678 171.346 114.936 171.346 115.32C171.346 115.704 171.34 115.962 171.328 116.094C171.28 117.33 170.89 118.32 170.158 119.064C169.438 119.808 168.418 120.18 167.098 120.18ZM167.098 118.794C167.854 118.794 168.448 118.554 168.88 118.074C169.324 117.594 169.564 116.904 169.6 116.004C169.612 115.884 169.618 115.656 169.618 115.32C169.618 114.984 169.612 114.756 169.6 114.636C169.564 113.736 169.324 113.046 168.88 112.566C168.448 112.086 167.854 111.846 167.098 111.846C166.342 111.846 165.742 112.086 165.298 112.566C164.854 113.046 164.62 113.736 164.596 114.636L164.578 115.32L164.596 116.004C164.62 116.904 164.854 117.594 165.298 118.074C165.742 118.554 166.342 118.794 167.098 118.794ZM174.014 120C173.894 120 173.792 119.964 173.708 119.892C173.636 119.808 173.6 119.706 173.6 119.586V111.054C173.6 110.934 173.636 110.838 173.708 110.766C173.792 110.682 173.894 110.64 174.014 110.64H174.86C174.98 110.64 175.076 110.682 175.148 110.766C175.232 110.838 175.274 110.934 175.274 111.054V111.846C175.622 111.402 176.03 111.06 176.498 110.82C176.978 110.58 177.572 110.46 178.28 110.46C179.432 110.46 180.326 110.832 180.962 111.576C181.61 112.308 181.934 113.286 181.934 114.51V119.586C181.934 119.706 181.892 119.808 181.808 119.892C181.736 119.964 181.64 120 181.52 120H180.62C180.5 120 180.398 119.964 180.314 119.892C180.242 119.808 180.206 119.706 180.206 119.586V114.6C180.206 113.748 179.996 113.088 179.576 112.62C179.168 112.152 178.574 111.918 177.794 111.918C177.038 111.918 176.438 112.158 175.994 112.638C175.55 113.106 175.328 113.76 175.328 114.6V119.586C175.328 119.706 175.286 119.808 175.202 119.892C175.13 119.964 175.034 120 174.914 120H174.014ZM187.756 120.18C186.916 120.18 186.208 120.048 185.632 119.784C185.068 119.508 184.642 119.196 184.354 118.848C184.078 118.5 183.94 118.212 183.94 117.984C183.94 117.864 183.982 117.774 184.066 117.714C184.162 117.642 184.258 117.606 184.354 117.606H185.164C185.284 117.606 185.392 117.666 185.488 117.786C185.776 118.122 186.088 118.386 186.424 118.578C186.76 118.77 187.21 118.866 187.774 118.866C188.398 118.866 188.902 118.746 189.286 118.506C189.682 118.254 189.88 117.912 189.88 117.48C189.88 117.192 189.796 116.958 189.628 116.778C189.472 116.586 189.196 116.424 188.8 116.292C188.416 116.148 187.84 115.992 187.072 115.824C186.028 115.596 185.284 115.266 184.84 114.834C184.408 114.402 184.192 113.844 184.192 113.16C184.192 112.704 184.324 112.272 184.588 111.864C184.864 111.444 185.26 111.108 185.776 110.856C186.304 110.592 186.934 110.46 187.666 110.46C188.434 110.46 189.088 110.586 189.628 110.838C190.168 111.09 190.57 111.39 190.834 111.738C191.11 112.074 191.248 112.356 191.248 112.584C191.248 112.692 191.206 112.782 191.122 112.854C191.05 112.926 190.96 112.962 190.852 112.962H190.096C189.952 112.962 189.832 112.902 189.736 112.782C189.544 112.554 189.376 112.38 189.232 112.26C189.1 112.128 188.902 112.014 188.638 111.918C188.386 111.822 188.062 111.774 187.666 111.774C187.09 111.774 186.646 111.9 186.334 112.152C186.022 112.392 185.866 112.71 185.866 113.106C185.866 113.358 185.932 113.574 186.064 113.754C186.196 113.922 186.448 114.078 186.82 114.222C187.204 114.366 187.756 114.516 188.476 114.672C189.616 114.912 190.42 115.26 190.888 115.716C191.368 116.16 191.608 116.73 191.608 117.426C191.608 117.942 191.458 118.41 191.158 118.83C190.858 119.25 190.414 119.58 189.826 119.82C189.25 120.06 188.56 120.18 187.756 120.18ZM197.525 120.18C196.205 120.18 195.179 119.808 194.447 119.064C193.727 118.32 193.343 117.33 193.295 116.094L193.277 115.32L193.295 114.546C193.343 113.322 193.733 112.338 194.465 111.594C195.197 110.838 196.217 110.46 197.525 110.46C198.833 110.46 199.853 110.838 200.585 111.594C201.317 112.338 201.707 113.322 201.755 114.546C201.767 114.678 201.773 114.936 201.773 115.32C201.773 115.704 201.767 115.962 201.755 116.094C201.707 117.33 201.317 118.32 200.585 119.064C199.865 119.808 198.845 120.18 197.525 120.18ZM197.525 118.794C198.281 118.794 198.875 118.554 199.307 118.074C199.751 117.594 199.991 116.904 200.027 116.004C200.039 115.884 200.045 115.656 200.045 115.32C200.045 114.984 200.039 114.756 200.027 114.636C199.991 113.736 199.751 113.046 199.307 112.566C198.875 112.086 198.281 111.846 197.525 111.846C196.769 111.846 196.169 112.086 195.725 112.566C195.281 113.046 195.047 113.736 195.023 114.636L195.005 115.32L195.023 116.004C195.047 116.904 195.281 117.594 195.725 118.074C196.169 118.554 196.769 118.794 197.525 118.794ZM204.459 120C204.339 120 204.237 119.964 204.153 119.892C204.081 119.808 204.045 119.706 204.045 119.586V107.634C204.045 107.514 204.081 107.418 204.153 107.346C204.237 107.262 204.339 107.22 204.459 107.22H205.305C205.425 107.22 205.521 107.262 205.593 107.346C205.677 107.418 205.719 107.514 205.719 107.634V119.586C205.719 119.706 205.677 119.808 205.593 119.892C205.521 119.964 205.425 120 205.305 120H204.459ZM212.148 120.18C210.912 120.18 209.922 119.802 209.178 119.046C208.446 118.278 208.044 117.234 207.972 115.914L207.954 115.302L207.972 114.708C208.056 113.412 208.464 112.38 209.196 111.612C209.94 110.844 210.918 110.46 212.13 110.46C213.462 110.46 214.494 110.886 215.226 111.738C215.958 112.578 216.324 113.718 216.324 115.158V115.464C216.324 115.584 216.282 115.686 216.198 115.77C216.126 115.842 216.03 115.878 215.91 115.878H209.682V116.04C209.718 116.82 209.952 117.486 210.384 118.038C210.828 118.578 211.41 118.848 212.13 118.848C212.682 118.848 213.132 118.74 213.48 118.524C213.84 118.296 214.104 118.062 214.272 117.822C214.38 117.678 214.458 117.594 214.506 117.57C214.566 117.534 214.668 117.516 214.812 117.516H215.694C215.802 117.516 215.892 117.546 215.964 117.606C216.036 117.666 216.072 117.75 216.072 117.858C216.072 118.122 215.904 118.44 215.568 118.812C215.244 119.184 214.782 119.508 214.182 119.784C213.594 120.048 212.916 120.18 212.148 120.18ZM214.614 114.636V114.582C214.614 113.754 214.386 113.082 213.93 112.566C213.486 112.038 212.886 111.774 212.13 111.774C211.374 111.774 210.774 112.038 210.33 112.566C209.898 113.082 209.682 113.754 209.682 114.582V114.636H214.614ZM218.765 120C218.645 120 218.543 119.964 218.459 119.892C218.387 119.808 218.351 119.706 218.351 119.586V118.29C218.351 118.17 218.387 118.074 218.459 118.002C218.543 117.918 218.645 117.876 218.765 117.876H220.061C220.181 117.876 220.283 117.918 220.367 118.002C220.451 118.074 220.493 118.17 220.493 118.29V119.586C220.493 119.706 220.451 119.808 220.367 119.892C220.283 119.964 220.181 120 220.061 120H218.765ZM223.444 120C223.324 120 223.222 119.964 223.138 119.892C223.066 119.808 223.03 119.706 223.03 119.586V107.634C223.03 107.514 223.066 107.418 223.138 107.346C223.222 107.262 223.324 107.22 223.444 107.22H224.29C224.41 107.22 224.506 107.262 224.578 107.346C224.662 107.418 224.704 107.514 224.704 107.634V119.586C224.704 119.706 224.662 119.808 224.578 119.892C224.506 119.964 224.41 120 224.29 120H223.444ZM231.223 120.18C229.903 120.18 228.877 119.808 228.145 119.064C227.425 118.32 227.041 117.33 226.993 116.094L226.975 115.32L226.993 114.546C227.041 113.322 227.431 112.338 228.163 111.594C228.895 110.838 229.915 110.46 231.223 110.46C232.531 110.46 233.551 110.838 234.283 111.594C235.015 112.338 235.405 113.322 235.453 114.546C235.465 114.678 235.471 114.936 235.471 115.32C235.471 115.704 235.465 115.962 235.453 116.094C235.405 117.33 235.015 118.32 234.283 119.064C233.563 119.808 232.543 120.18 231.223 120.18ZM231.223 118.794C231.979 118.794 232.573 118.554 233.005 118.074C233.449 117.594 233.689 116.904 233.725 116.004C233.737 115.884 233.743 115.656 233.743 115.32C233.743 114.984 233.737 114.756 233.725 114.636C233.689 113.736 233.449 113.046 233.005 112.566C232.573 112.086 231.979 111.846 231.223 111.846C230.467 111.846 229.867 112.086 229.423 112.566C228.979 113.046 228.745 113.736 228.721 114.636L228.703 115.32L228.721 116.004C228.745 116.904 228.979 117.594 229.423 118.074C229.867 118.554 230.467 118.794 231.223 118.794ZM241.559 123.96C240.575 123.96 239.783 123.792 239.183 123.456C238.583 123.132 238.157 122.76 237.905 122.34C237.653 121.92 237.515 121.542 237.491 121.206C237.479 121.086 237.515 120.984 237.599 120.9C237.695 120.816 237.797 120.774 237.905 120.774H238.769C238.877 120.774 238.967 120.798 239.039 120.846C239.111 120.906 239.171 121.008 239.219 121.152C239.363 121.536 239.597 121.866 239.921 122.142C240.257 122.43 240.773 122.574 241.469 122.574C242.357 122.574 243.011 122.382 243.431 121.998C243.851 121.626 244.061 120.96 244.061 120V118.776C243.749 119.172 243.353 119.49 242.873 119.73C242.393 119.958 241.823 120.072 241.163 120.072C239.891 120.072 238.937 119.67 238.301 118.866C237.677 118.05 237.347 117.018 237.311 115.77L237.293 115.266L237.311 114.78C237.347 113.544 237.683 112.518 238.319 111.702C238.955 110.874 239.903 110.46 241.163 110.46C242.423 110.46 243.407 110.922 244.115 111.846V111.072C244.115 110.952 244.151 110.85 244.223 110.766C244.307 110.682 244.409 110.64 244.529 110.64H245.357C245.477 110.64 245.579 110.682 245.663 110.766C245.747 110.85 245.789 110.952 245.789 111.072V119.802C245.789 122.574 244.379 123.96 241.559 123.96ZM241.523 118.632C242.339 118.632 242.957 118.362 243.377 117.822C243.797 117.282 244.025 116.64 244.061 115.896C244.073 115.788 244.079 115.578 244.079 115.266C244.079 114.966 244.073 114.762 244.061 114.654C244.025 113.91 243.797 113.268 243.377 112.728C242.969 112.188 242.351 111.918 241.523 111.918C240.671 111.918 240.053 112.182 239.669 112.71C239.285 113.238 239.075 113.934 239.039 114.798L239.021 115.266L239.039 115.752C239.075 116.604 239.285 117.3 239.669 117.84C240.053 118.368 240.671 118.632 241.523 118.632ZM252.371 122.862C251.339 122.862 250.511 122.568 249.887 121.98C249.275 121.392 248.831 120.486 248.555 119.262C248.291 118.038 248.159 116.43 248.159 114.438C248.159 112.446 248.291 110.838 248.555 109.614C248.831 108.39 249.275 107.49 249.887 106.914C250.511 106.326 251.339 106.032 252.371 106.032C252.491 106.032 252.587 106.074 252.659 106.158C252.743 106.23 252.785 106.326 252.785 106.446V107.076C252.785 107.184 252.749 107.28 252.677 107.364C252.605 107.448 252.521 107.49 252.425 107.49C251.741 107.502 251.207 107.73 250.823 108.174C250.439 108.618 250.163 109.338 249.995 110.334C249.827 111.33 249.743 112.698 249.743 114.438C249.743 116.178 249.827 117.546 249.995 118.542C250.163 119.538 250.439 120.258 250.823 120.702C251.207 121.158 251.741 121.392 252.425 121.404C252.521 121.404 252.605 121.446 252.677 121.53C252.749 121.614 252.785 121.71 252.785 121.818V122.448C252.785 122.568 252.743 122.664 252.659 122.736C252.587 122.82 252.491 122.862 252.371 122.862ZM259.391 120C259.271 120 259.169 119.964 259.085 119.892C259.013 119.808 258.977 119.706 258.977 119.586V111.072C258.977 110.952 259.013 110.85 259.085 110.766C259.169 110.682 259.271 110.64 259.391 110.64H260.219C260.339 110.64 260.441 110.682 260.525 110.766C260.609 110.85 260.651 110.952 260.651 111.072V111.864C261.143 111.048 261.983 110.64 263.171 110.64H263.873C263.993 110.64 264.089 110.682 264.161 110.766C264.245 110.838 264.287 110.934 264.287 111.054V111.792C264.287 111.912 264.245 112.008 264.161 112.08C264.089 112.152 263.993 112.188 263.873 112.188H262.793C262.145 112.188 261.635 112.38 261.263 112.764C260.891 113.136 260.705 113.646 260.705 114.294V119.586C260.705 119.706 260.663 119.808 260.579 119.892C260.495 119.964 260.393 120 260.273 120H259.391ZM269.383 120.18C268.147 120.18 267.157 119.802 266.413 119.046C265.681 118.278 265.279 117.234 265.207 115.914L265.189 115.302L265.207 114.708C265.291 113.412 265.699 112.38 266.431 111.612C267.175 110.844 268.153 110.46 269.365 110.46C270.697 110.46 271.729 110.886 272.461 111.738C273.193 112.578 273.559 113.718 273.559 115.158V115.464C273.559 115.584 273.517 115.686 273.433 115.77C273.361 115.842 273.265 115.878 273.145 115.878H266.917V116.04C266.953 116.82 267.187 117.486 267.619 118.038C268.063 118.578 268.645 118.848 269.365 118.848C269.917 118.848 270.367 118.74 270.715 118.524C271.075 118.296 271.339 118.062 271.507 117.822C271.615 117.678 271.693 117.594 271.741 117.57C271.801 117.534 271.903 117.516 272.047 117.516H272.929C273.037 117.516 273.127 117.546 273.199 117.606C273.271 117.666 273.307 117.75 273.307 117.858C273.307 118.122 273.139 118.44 272.803 118.812C272.479 119.184 272.017 119.508 271.417 119.784C270.829 120.048 270.151 120.18 269.383 120.18ZM271.849 114.636V114.582C271.849 113.754 271.621 113.082 271.165 112.566C270.721 112.038 270.121 111.774 269.365 111.774C268.609 111.774 268.009 112.038 267.565 112.566C267.133 113.082 266.917 113.754 266.917 114.582V114.636H271.849ZM278.951 120.18C278.111 120.18 277.403 120.048 276.827 119.784C276.263 119.508 275.837 119.196 275.549 118.848C275.273 118.5 275.135 118.212 275.135 117.984C275.135 117.864 275.177 117.774 275.261 117.714C275.357 117.642 275.453 117.606 275.549 117.606H276.359C276.479 117.606 276.587 117.666 276.683 117.786C276.971 118.122 277.283 118.386 277.619 118.578C277.955 118.77 278.405 118.866 278.969 118.866C279.593 118.866 280.097 118.746 280.481 118.506C280.877 118.254 281.075 117.912 281.075 117.48C281.075 117.192 280.991 116.958 280.823 116.778C280.667 116.586 280.391 116.424 279.995 116.292C279.611 116.148 279.035 115.992 278.267 115.824C277.223 115.596 276.479 115.266 276.035 114.834C275.603 114.402 275.387 113.844 275.387 113.16C275.387 112.704 275.519 112.272 275.783 111.864C276.059 111.444 276.455 111.108 276.971 110.856C277.499 110.592 278.129 110.46 278.861 110.46C279.629 110.46 280.283 110.586 280.823 110.838C281.363 111.09 281.765 111.39 282.029 111.738C282.305 112.074 282.443 112.356 282.443 112.584C282.443 112.692 282.401 112.782 282.317 112.854C282.245 112.926 282.155 112.962 282.047 112.962H281.291C281.147 112.962 281.027 112.902 280.931 112.782C280.739 112.554 280.571 112.38 280.427 112.26C280.295 112.128 280.097 112.014 279.833 111.918C279.581 111.822 279.257 111.774 278.861 111.774C278.285 111.774 277.841 111.9 277.529 112.152C277.217 112.392 277.061 112.71 277.061 113.106C277.061 113.358 277.127 113.574 277.259 113.754C277.391 113.922 277.643 114.078 278.015 114.222C278.399 114.366 278.951 114.516 279.671 114.672C280.811 114.912 281.615 115.26 282.083 115.716C282.563 116.16 282.803 116.73 282.803 117.426C282.803 117.942 282.653 118.41 282.353 118.83C282.053 119.25 281.609 119.58 281.021 119.82C280.445 120.06 279.755 120.18 278.951 120.18ZM288.379 120.18C287.239 120.18 286.357 119.814 285.733 119.082C285.109 118.338 284.797 117.354 284.797 116.13V111.054C284.797 110.934 284.833 110.838 284.905 110.766C284.989 110.682 285.091 110.64 285.211 110.64H286.111C286.231 110.64 286.327 110.682 286.399 110.766C286.483 110.838 286.525 110.934 286.525 111.054V116.04C286.525 117.828 287.305 118.722 288.865 118.722C289.621 118.722 290.221 118.488 290.665 118.02C291.109 117.54 291.331 116.88 291.331 116.04V111.054C291.331 110.934 291.367 110.838 291.439 110.766C291.523 110.682 291.625 110.64 291.745 110.64H292.645C292.765 110.64 292.861 110.682 292.933 110.766C293.005 110.838 293.041 110.934 293.041 111.054V119.586C293.041 119.706 293.005 119.808 292.933 119.892C292.861 119.964 292.765 120 292.645 120H291.799C291.679 120 291.577 119.964 291.493 119.892C291.421 119.808 291.385 119.706 291.385 119.586V118.794C291.049 119.25 290.641 119.598 290.161 119.838C289.681 120.066 289.087 120.18 288.379 120.18ZM296.147 120C296.027 120 295.925 119.964 295.841 119.892C295.769 119.808 295.733 119.706 295.733 119.586V107.634C295.733 107.514 295.769 107.418 295.841 107.346C295.925 107.262 296.027 107.22 296.147 107.22H296.993C297.113 107.22 297.209 107.262 297.281 107.346C297.365 107.418 297.407 107.514 297.407 107.634V119.586C297.407 119.706 297.365 119.808 297.281 119.892C297.209 119.964 297.113 120 296.993 120H296.147ZM303.746 120C301.85 120 300.902 118.944 300.902 116.832V112.08H299.498C299.378 112.08 299.276 112.044 299.192 111.972C299.12 111.888 299.084 111.786 299.084 111.666V111.054C299.084 110.934 299.12 110.838 299.192 110.766C299.276 110.682 299.378 110.64 299.498 110.64H300.902V107.634C300.902 107.514 300.938 107.418 301.01 107.346C301.094 107.262 301.196 107.22 301.316 107.22H302.162C302.282 107.22 302.378 107.262 302.45 107.346C302.534 107.418 302.576 107.514 302.576 107.634V110.64H304.808C304.928 110.64 305.024 110.682 305.096 110.766C305.18 110.838 305.222 110.934 305.222 111.054V111.666C305.222 111.786 305.18 111.888 305.096 111.972C305.024 112.044 304.928 112.08 304.808 112.08H302.576V116.706C302.576 117.306 302.678 117.762 302.882 118.074C303.086 118.374 303.422 118.524 303.89 118.524H304.988C305.108 118.524 305.204 118.566 305.276 118.65C305.36 118.722 305.402 118.818 305.402 118.938V119.586C305.402 119.706 305.36 119.808 305.276 119.892C305.204 119.964 305.108 120 304.988 120H303.746ZM311.049 122.862C310.941 122.862 310.845 122.82 310.761 122.736C310.677 122.664 310.635 122.568 310.635 122.448V121.818C310.635 121.71 310.671 121.614 310.743 121.53C310.827 121.446 310.917 121.404 311.013 121.404C311.685 121.392 312.213 121.158 312.597 120.702C312.993 120.258 313.275 119.538 313.443 118.542C313.611 117.546 313.695 116.178 313.695 114.438C313.695 112.698 313.611 111.33 313.443 110.334C313.275 109.338 312.993 108.618 312.597 108.174C312.213 107.73 311.685 107.502 311.013 107.49C310.917 107.49 310.827 107.448 310.743 107.364C310.671 107.28 310.635 107.184 310.635 107.076V106.446C310.635 106.326 310.677 106.23 310.761 106.158C310.845 106.074 310.941 106.032 311.049 106.032C312.093 106.032 312.921 106.326 313.533 106.914C314.145 107.49 314.583 108.39 314.847 109.614C315.123 110.826 315.261 112.434 315.261 114.438C315.261 116.442 315.123 118.056 314.847 119.28C314.583 120.492 314.145 121.392 313.533 121.98C312.921 122.568 312.093 122.862 311.049 122.862Z" fill="black"/>
</svg>
