<svg width="1064" height="360" viewBox="0 0 1064 360" fill="none" xmlns="http://www.w3.org/2000/svg">
<rect x="0.5" y="0.5" width="876" height="358" fill="#F9F3F3" stroke="black"/>
<path d="M706.934 23.3213C706.5 23.9424 705.894 24.4082 705.114 24.7188C704.341 25.0234 703.438 25.1758 702.407 25.1758C701.364 25.1758 700.438 24.9326 699.63 24.4463C698.821 23.9541 698.194 23.2568 697.749 22.3545C697.31 21.4521 697.084 20.4062 697.072 19.2168V18.1006C697.072 16.1729 697.521 14.6787 698.417 13.6182C699.319 12.5576 700.585 12.0273 702.214 12.0273C703.55 12.0273 704.625 12.3701 705.439 13.0557C706.254 13.7354 706.752 14.7021 706.934 15.9561H705.246C704.93 14.2627 703.922 13.416 702.223 13.416C701.092 13.416 700.233 13.8145 699.647 14.6113C699.067 15.4023 698.774 16.5508 698.769 18.0566V19.1025C698.769 20.5381 699.097 21.6807 699.753 22.5303C700.409 23.374 701.297 23.7959 702.416 23.7959C703.049 23.7959 703.603 23.7256 704.077 23.585C704.552 23.4443 704.944 23.207 705.255 22.873V19.999H702.293V18.6279H706.934V23.3213ZM711.267 25H709.641V11.5H711.267V25ZM713.446 20.1572C713.446 19.2256 713.628 18.3877 713.991 17.6436C714.36 16.8994 714.87 16.3252 715.521 15.9209C716.177 15.5166 716.924 15.3145 717.762 15.3145C719.057 15.3145 720.103 15.7627 720.899 16.6592C721.702 17.5557 722.104 18.748 722.104 20.2363V20.3506C722.104 21.2764 721.925 22.1084 721.567 22.8467C721.216 23.5791 720.709 24.1504 720.047 24.5605C719.391 24.9707 718.635 25.1758 717.779 25.1758C716.49 25.1758 715.444 24.7275 714.642 23.8311C713.845 22.9346 713.446 21.748 713.446 20.2715V20.1572ZM715.081 20.3506C715.081 21.4053 715.324 22.252 715.811 22.8906C716.303 23.5293 716.959 23.8486 717.779 23.8486C718.605 23.8486 719.262 23.5264 719.748 22.8818C720.234 22.2314 720.478 21.3232 720.478 20.1572C720.478 19.1143 720.229 18.2705 719.73 17.626C719.238 16.9756 718.582 16.6504 717.762 16.6504C716.959 16.6504 716.312 16.9697 715.819 17.6084C715.327 18.2471 715.081 19.1611 715.081 20.3506ZM732.193 20.3506C732.193 21.8037 731.859 22.9727 731.191 23.8574C730.523 24.7363 729.627 25.1758 728.502 25.1758C727.301 25.1758 726.372 24.751 725.716 23.9014L725.637 25H724.143V11.5H725.769V16.5361C726.425 15.7217 727.33 15.3145 728.484 15.3145C729.639 15.3145 730.544 15.751 731.2 16.624C731.862 17.4971 732.193 18.6924 732.193 20.21V20.3506ZM730.567 20.166C730.567 19.0586 730.354 18.2031 729.926 17.5996C729.498 16.9961 728.883 16.6943 728.08 16.6943C727.008 16.6943 726.237 17.1924 725.769 18.1885V22.3018C726.267 23.2979 727.043 23.7959 728.098 23.7959C728.877 23.7959 729.483 23.4941 729.917 22.8906C730.351 22.2871 730.567 21.3789 730.567 20.166ZM740.121 25C740.027 24.8125 739.951 24.4785 739.893 23.998C739.137 24.7832 738.234 25.1758 737.186 25.1758C736.248 25.1758 735.478 24.9121 734.874 24.3848C734.276 23.8516 733.978 23.1777 733.978 22.3633C733.978 21.373 734.353 20.6055 735.103 20.0605C735.858 19.5098 736.919 19.2344 738.284 19.2344H739.866V18.4873C739.866 17.9189 739.696 17.4678 739.356 17.1338C739.017 16.7939 738.516 16.624 737.854 16.624C737.273 16.624 736.787 16.7705 736.395 17.0635C736.002 17.3564 735.806 17.7109 735.806 18.127H734.171C734.171 17.6523 734.338 17.1953 734.672 16.7559C735.012 16.3105 735.469 15.959 736.043 15.7012C736.623 15.4434 737.259 15.3145 737.95 15.3145C739.046 15.3145 739.904 15.5898 740.525 16.1406C741.146 16.6855 741.469 17.4385 741.492 18.3994V22.7764C741.492 23.6494 741.604 24.3438 741.826 24.8594V25H740.121ZM737.423 23.7607C737.933 23.7607 738.416 23.6289 738.873 23.3652C739.33 23.1016 739.661 22.7588 739.866 22.3369V20.3857H738.592C736.6 20.3857 735.604 20.9688 735.604 22.1348C735.604 22.6445 735.773 23.043 736.113 23.3301C736.453 23.6172 736.89 23.7607 737.423 23.7607ZM745.808 25H744.182V11.5H745.808V25ZM759.782 12.2031L763.966 22.6445L768.149 12.2031H770.338V25H768.65V20.0166L768.809 14.6377L764.607 25H763.315L759.123 14.6641L759.29 20.0166V25H757.603V12.2031H759.782ZM777.009 25.1758C775.72 25.1758 774.671 24.7539 773.862 23.9102C773.054 23.0605 772.649 21.9268 772.649 20.5088V20.21C772.649 19.2666 772.828 18.4258 773.186 17.6875C773.549 16.9434 774.053 16.3633 774.697 15.9473C775.348 15.5254 776.051 15.3145 776.807 15.3145C778.043 15.3145 779.004 15.7217 779.689 16.5361C780.375 17.3506 780.718 18.5166 780.718 20.0342V20.7109H774.275C774.299 21.6484 774.571 22.4072 775.093 22.9873C775.62 23.5615 776.288 23.8486 777.097 23.8486C777.671 23.8486 778.157 23.7314 778.556 23.4971C778.954 23.2627 779.303 22.9521 779.602 22.5654L780.595 23.3389C779.798 24.5635 778.603 25.1758 777.009 25.1758ZM776.807 16.6504C776.15 16.6504 775.6 16.8906 775.154 17.3711C774.709 17.8457 774.434 18.5137 774.328 19.375H779.092V19.252C779.045 18.4258 778.822 17.7871 778.424 17.3359C778.025 16.8789 777.486 16.6504 776.807 16.6504ZM784.137 15.4902L784.181 16.5449C784.878 15.7246 785.818 15.3145 787.002 15.3145C788.332 15.3145 789.237 15.8242 789.718 16.8438C790.034 16.3867 790.444 16.0176 790.948 15.7363C791.458 15.4551 792.059 15.3145 792.75 15.3145C794.836 15.3145 795.896 16.4189 795.932 18.6279V25H794.306V18.7246C794.306 18.0449 794.15 17.5381 793.84 17.2041C793.529 16.8643 793.008 16.6943 792.275 16.6943C791.672 16.6943 791.171 16.876 790.772 17.2393C790.374 17.5967 790.143 18.0801 790.078 18.6895V25H788.443V18.7686C788.443 17.3857 787.767 16.6943 786.413 16.6943C785.347 16.6943 784.617 17.1484 784.225 18.0566V25H782.599V15.4902H784.137ZM797.962 20.1572C797.962 19.2256 798.144 18.3877 798.507 17.6436C798.876 16.8994 799.386 16.3252 800.036 15.9209C800.692 15.5166 801.439 15.3145 802.277 15.3145C803.572 15.3145 804.618 15.7627 805.415 16.6592C806.218 17.5557 806.619 18.748 806.619 20.2363V20.3506C806.619 21.2764 806.44 22.1084 806.083 22.8467C805.731 23.5791 805.225 24.1504 804.562 24.5605C803.906 24.9707 803.15 25.1758 802.295 25.1758C801.006 25.1758 799.96 24.7275 799.157 23.8311C798.36 22.9346 797.962 21.748 797.962 20.2715V20.1572ZM799.597 20.3506C799.597 21.4053 799.84 22.252 800.326 22.8906C800.818 23.5293 801.475 23.8486 802.295 23.8486C803.121 23.8486 803.777 23.5264 804.264 22.8818C804.75 22.2314 804.993 21.3232 804.993 20.1572C804.993 19.1143 804.744 18.2705 804.246 17.626C803.754 16.9756 803.098 16.6504 802.277 16.6504C801.475 16.6504 800.827 16.9697 800.335 17.6084C799.843 18.2471 799.597 19.1611 799.597 20.3506ZM813.255 16.9492C813.009 16.9082 812.742 16.8877 812.455 16.8877C811.389 16.8877 810.665 17.3418 810.284 18.25V25H808.658V15.4902H810.24L810.267 16.5889C810.8 15.7393 811.556 15.3145 812.534 15.3145C812.851 15.3145 813.091 15.3555 813.255 15.4375V16.9492ZM818.027 22.6182L820.242 15.4902H821.982L818.159 26.4678C817.567 28.0498 816.627 28.8408 815.338 28.8408L815.03 28.8145L814.424 28.7002V27.3818L814.863 27.417C815.414 27.417 815.842 27.3057 816.146 27.083C816.457 26.8604 816.712 26.4531 816.911 25.8613L817.271 24.8945L813.879 15.4902H815.654L818.027 22.6182Z" fill="black"/>
<line x1="632.5" y1="0.997199" x2="634.5" y2="357.997" stroke="black"/>
<path d="M644.124 63.11C643.339 63.11 642.723 62.89 642.276 62.45C641.836 62.0027 641.601 61.3793 641.572 60.58L641.561 60.14L641.572 59.7C641.601 58.9007 641.836 58.281 642.276 57.841C642.723 57.3937 643.339 57.17 644.124 57.17C644.652 57.17 645.099 57.2653 645.466 57.456C645.833 57.6467 646.104 57.8813 646.28 58.16C646.463 58.4387 646.562 58.7173 646.577 58.996C646.584 59.0693 646.562 59.128 646.511 59.172C646.46 59.216 646.397 59.238 646.324 59.238H645.796C645.723 59.238 645.668 59.2233 645.631 59.194C645.594 59.1647 645.558 59.106 645.521 59.018C645.396 58.666 645.22 58.4167 644.993 58.27C644.766 58.116 644.48 58.039 644.135 58.039C643.68 58.039 643.317 58.182 643.046 58.468C642.782 58.7467 642.639 59.1757 642.617 59.755L642.606 60.151L642.617 60.525C642.639 61.1117 642.782 61.5443 643.046 61.823C643.31 62.1017 643.673 62.241 644.135 62.241C644.48 62.241 644.766 62.1677 644.993 62.021C645.22 61.867 645.396 61.614 645.521 61.262C645.558 61.174 645.594 61.1153 645.631 61.086C645.668 61.0493 645.723 61.031 645.796 61.031H646.324C646.397 61.031 646.46 61.0567 646.511 61.108C646.562 61.152 646.584 61.2107 646.577 61.284C646.562 61.5553 646.463 61.834 646.28 62.12C646.104 62.3987 645.833 62.6333 645.466 62.824C645.107 63.0147 644.659 63.11 644.124 63.11ZM650.226 63.11C649.42 63.11 648.793 62.8827 648.345 62.428C647.905 61.9733 647.671 61.3683 647.641 60.613L647.63 60.14L647.641 59.667C647.671 58.919 647.909 58.3177 648.356 57.863C648.804 57.401 649.427 57.17 650.226 57.17C651.026 57.17 651.649 57.401 652.096 57.863C652.544 58.3177 652.782 58.919 652.811 59.667C652.819 59.7477 652.822 59.9053 652.822 60.14C652.822 60.3747 652.819 60.5323 652.811 60.613C652.782 61.3683 652.544 61.9733 652.096 62.428C651.656 62.8827 651.033 63.11 650.226 63.11ZM650.226 62.263C650.688 62.263 651.051 62.1163 651.315 61.823C651.587 61.5297 651.733 61.108 651.755 60.558C651.763 60.4847 651.766 60.3453 651.766 60.14C651.766 59.9347 651.763 59.7953 651.755 59.722C651.733 59.172 651.587 58.7503 651.315 58.457C651.051 58.1637 650.688 58.017 650.226 58.017C649.764 58.017 649.398 58.1637 649.126 58.457C648.855 58.7503 648.712 59.172 648.697 59.722L648.686 60.14L648.697 60.558C648.712 61.108 648.855 61.5297 649.126 61.823C649.398 62.1163 649.764 62.263 650.226 62.263ZM654.464 65.09C654.39 65.09 654.328 65.0643 654.277 65.013C654.233 64.969 654.211 64.9103 654.211 64.837V57.533C654.211 57.4597 654.233 57.401 654.277 57.357C654.328 57.3057 654.39 57.28 654.464 57.28H654.97C655.043 57.28 655.102 57.3057 655.146 57.357C655.197 57.401 655.223 57.4597 655.223 57.533V58.017C655.633 57.4523 656.235 57.17 657.027 57.17C657.797 57.17 658.372 57.412 658.754 57.896C659.142 58.38 659.351 59.0033 659.381 59.766C659.388 59.8467 659.392 59.9713 659.392 60.14C659.392 60.3087 659.388 60.4333 659.381 60.514C659.351 61.2693 659.142 61.8927 658.754 62.384C658.365 62.868 657.789 63.11 657.027 63.11C656.264 63.11 655.67 62.835 655.245 62.285V64.837C655.245 64.9103 655.223 64.969 655.179 65.013C655.135 65.0643 655.076 65.09 655.003 65.09H654.464ZM656.796 62.219C657.316 62.219 657.694 62.0577 657.929 61.735C658.171 61.4123 658.303 60.987 658.325 60.459C658.332 60.3857 658.336 60.2793 658.336 60.14C658.336 58.754 657.822 58.061 656.796 58.061C656.29 58.061 655.908 58.2297 655.652 58.567C655.402 58.897 655.267 59.293 655.245 59.755L655.234 60.173L655.245 60.602C655.259 61.0347 655.399 61.4123 655.663 61.735C655.927 62.0577 656.304 62.219 656.796 62.219ZM661.539 65.09C661.48 65.09 661.429 65.068 661.385 65.024C661.341 64.98 661.319 64.9287 661.319 64.87C661.319 64.8187 661.337 64.7527 661.374 64.672L662.221 62.659L660.12 57.698C660.083 57.6027 660.065 57.5403 660.065 57.511C660.065 57.445 660.087 57.39 660.131 57.346C660.175 57.302 660.23 57.28 660.296 57.28H660.835C660.952 57.28 661.04 57.3423 661.099 57.467L662.771 61.471L664.487 57.467C664.545 57.3423 664.637 57.28 664.762 57.28H665.279C665.345 57.28 665.4 57.302 665.444 57.346C665.488 57.39 665.51 57.4413 665.51 57.5C665.51 57.522 665.491 57.588 665.455 57.698L662.331 64.903C662.272 65.0277 662.18 65.09 662.056 65.09H661.539ZM665.857 63C665.798 63 665.747 62.978 665.703 62.934C665.659 62.89 665.637 62.8387 665.637 62.78C665.637 62.7213 665.641 62.681 665.648 62.659L668.376 55.542C668.435 55.3807 668.552 55.3 668.728 55.3H669.476C669.652 55.3 669.769 55.3807 669.828 55.542L672.545 62.659L672.567 62.78C672.567 62.8387 672.545 62.89 672.501 62.934C672.457 62.978 672.406 63 672.347 63H671.786C671.705 63 671.643 62.9817 671.599 62.945C671.555 62.901 671.526 62.857 671.511 62.813L670.906 61.251H667.298L666.693 62.813C666.678 62.857 666.645 62.901 666.594 62.945C666.55 62.9817 666.491 63 666.418 63H665.857ZM670.587 60.305L669.102 56.4L667.617 60.305H670.587ZM673.853 63C673.78 63 673.717 62.978 673.666 62.934C673.622 62.8827 673.6 62.8203 673.6 62.747V57.544C673.6 57.4707 673.622 57.4083 673.666 57.357C673.717 57.3057 673.78 57.28 673.853 57.28H674.359C674.432 57.28 674.495 57.3057 674.546 57.357C674.597 57.4083 674.623 57.4707 674.623 57.544V58.028C674.924 57.5293 675.437 57.28 676.163 57.28H676.592C676.665 57.28 676.724 57.3057 676.768 57.357C676.819 57.401 676.845 57.4597 676.845 57.533V57.984C676.845 58.0573 676.819 58.116 676.768 58.16C676.724 58.204 676.665 58.226 676.592 58.226H675.932C675.536 58.226 675.224 58.3433 674.997 58.578C674.77 58.8053 674.656 59.117 674.656 59.513V62.747C674.656 62.8203 674.63 62.8827 674.579 62.934C674.528 62.978 674.465 63 674.392 63H673.853ZM678.032 63C677.959 63 677.896 62.978 677.845 62.934C677.801 62.8827 677.779 62.8203 677.779 62.747V57.544C677.779 57.4707 677.801 57.4083 677.845 57.357C677.896 57.3057 677.959 57.28 678.032 57.28H678.538C678.611 57.28 678.674 57.3057 678.725 57.357C678.776 57.4083 678.802 57.4707 678.802 57.544V58.028C679.103 57.5293 679.616 57.28 680.342 57.28H680.771C680.844 57.28 680.903 57.3057 680.947 57.357C680.998 57.401 681.024 57.4597 681.024 57.533V57.984C681.024 58.0573 680.998 58.116 680.947 58.16C680.903 58.204 680.844 58.226 680.771 58.226H680.111C679.715 58.226 679.403 58.3433 679.176 58.578C678.949 58.8053 678.835 59.117 678.835 59.513V62.747C678.835 62.8203 678.809 62.8827 678.758 62.934C678.707 62.978 678.644 63 678.571 63H678.032ZM683.467 63.11C683.107 63.11 682.774 63.0367 682.466 62.89C682.158 62.7433 681.912 62.5453 681.729 62.296C681.553 62.0393 681.465 61.757 681.465 61.449C681.465 60.965 681.663 60.569 682.059 60.261C682.462 59.9457 683.005 59.7403 683.687 59.645L685.326 59.414V59.095C685.326 58.347 684.897 57.973 684.039 57.973C683.716 57.973 683.452 58.0427 683.247 58.182C683.041 58.314 682.887 58.4717 682.785 58.655C682.763 58.721 682.733 58.7687 682.697 58.798C682.667 58.8273 682.623 58.842 682.565 58.842H682.092C682.026 58.842 681.967 58.82 681.916 58.776C681.872 58.7247 681.85 58.666 681.85 58.6C681.857 58.424 681.938 58.226 682.092 58.006C682.253 57.7787 682.499 57.5843 682.829 57.423C683.159 57.2543 683.566 57.17 684.05 57.17C684.871 57.17 685.461 57.3643 685.821 57.753C686.18 58.1343 686.36 58.611 686.36 59.183V62.747C686.36 62.8203 686.334 62.8827 686.283 62.934C686.239 62.978 686.18 63 686.107 63H685.601C685.527 63 685.465 62.978 685.414 62.934C685.37 62.8827 685.348 62.8203 685.348 62.747V62.274C685.186 62.5087 684.952 62.7067 684.644 62.868C684.336 63.0293 683.943 63.11 683.467 63.11ZM683.698 62.285C684.174 62.285 684.563 62.131 684.864 61.823C685.172 61.5077 685.326 61.0567 685.326 60.47V60.162L684.05 60.349C683.529 60.4223 683.137 60.547 682.873 60.723C682.609 60.8917 682.477 61.108 682.477 61.372C682.477 61.6653 682.598 61.8927 682.84 62.054C683.082 62.208 683.368 62.285 683.698 62.285ZM688.824 65.09C688.765 65.09 688.714 65.068 688.67 65.024C688.626 64.98 688.604 64.9287 688.604 64.87C688.604 64.8187 688.622 64.7527 688.659 64.672L689.506 62.659L687.405 57.698C687.368 57.6027 687.35 57.5403 687.35 57.511C687.35 57.445 687.372 57.39 687.416 57.346C687.46 57.302 687.515 57.28 687.581 57.28H688.12C688.237 57.28 688.325 57.3423 688.384 57.467L690.056 61.471L691.772 57.467C691.83 57.3423 691.922 57.28 692.047 57.28H692.564C692.63 57.28 692.685 57.302 692.729 57.346C692.773 57.39 692.795 57.4413 692.795 57.5C692.795 57.522 692.776 57.588 692.74 57.698L689.616 64.903C689.557 65.0277 689.465 65.09 689.341 65.09H688.824ZM693.142 63C693.083 63 693.032 62.978 692.988 62.934C692.944 62.89 692.922 62.8387 692.922 62.78C692.922 62.7213 692.926 62.681 692.933 62.659L695.661 55.542C695.72 55.3807 695.837 55.3 696.013 55.3H696.761C696.937 55.3 697.054 55.3807 697.113 55.542L699.83 62.659L699.852 62.78C699.852 62.8387 699.83 62.89 699.786 62.934C699.742 62.978 699.691 63 699.632 63H699.071C698.99 63 698.928 62.9817 698.884 62.945C698.84 62.901 698.811 62.857 698.796 62.813L698.191 61.251H694.583L693.978 62.813C693.963 62.857 693.93 62.901 693.879 62.945C693.835 62.9817 693.776 63 693.703 63H693.142ZM697.872 60.305L696.387 56.4L694.902 60.305H697.872ZM701.138 63C701.065 63 701.003 62.978 700.951 62.934C700.907 62.8827 700.885 62.8203 700.885 62.747V57.533C700.885 57.4597 700.907 57.401 700.951 57.357C701.003 57.3057 701.065 57.28 701.138 57.28H701.655C701.729 57.28 701.787 57.3057 701.831 57.357C701.883 57.401 701.908 57.4597 701.908 57.533V58.017C702.121 57.7457 702.37 57.5367 702.656 57.39C702.95 57.2433 703.313 57.17 703.745 57.17C704.449 57.17 704.996 57.3973 705.384 57.852C705.78 58.2993 705.978 58.897 705.978 59.645V62.747C705.978 62.8203 705.953 62.8827 705.901 62.934C705.857 62.978 705.799 63 705.725 63H705.175C705.102 63 705.04 62.978 704.988 62.934C704.944 62.8827 704.922 62.8203 704.922 62.747V59.7C704.922 59.1793 704.794 58.776 704.537 58.49C704.288 58.204 703.925 58.061 703.448 58.061C702.986 58.061 702.62 58.2077 702.348 58.501C702.077 58.787 701.941 59.1867 701.941 59.7V62.747C701.941 62.8203 701.916 62.8827 701.864 62.934C701.82 62.978 701.762 63 701.688 63H701.138ZM709.646 63.11C708.884 63.11 708.308 62.8607 707.919 62.362C707.531 61.8633 707.325 61.2327 707.303 60.47L707.292 60.14L707.303 59.81C707.325 59.0547 707.531 58.4277 707.919 57.929C708.308 57.423 708.884 57.17 709.646 57.17C710.402 57.17 710.996 57.4377 711.428 57.973V55.443C711.428 55.3697 711.45 55.311 711.494 55.267C711.546 55.2157 711.608 55.19 711.681 55.19H712.209C712.283 55.19 712.341 55.2157 712.385 55.267C712.437 55.311 712.462 55.3697 712.462 55.443V62.747C712.462 62.8203 712.437 62.8827 712.385 62.934C712.341 62.978 712.283 63 712.209 63H711.714C711.641 63 711.579 62.978 711.527 62.934C711.483 62.8827 711.461 62.8203 711.461 62.747V62.285C711.036 62.835 710.431 63.11 709.646 63.11ZM709.877 62.219C710.383 62.219 710.761 62.054 711.01 61.724C711.267 61.3867 711.406 60.987 711.428 60.525C711.436 60.4443 711.439 60.305 711.439 60.107C711.439 59.9017 711.436 59.7587 711.428 59.678C711.414 59.2453 711.274 58.8677 711.01 58.545C710.746 58.2223 710.369 58.061 709.877 58.061C709.357 58.061 708.975 58.2223 708.733 58.545C708.499 58.8677 708.37 59.293 708.348 59.821L708.337 60.14C708.337 61.526 708.851 62.219 709.877 62.219ZM714.494 63C714.421 63 714.359 62.978 714.307 62.934C714.263 62.8827 714.241 62.8203 714.241 62.747V55.564C714.241 55.4833 714.263 55.421 714.307 55.377C714.359 55.3257 714.421 55.3 714.494 55.3H715.044C715.162 55.3 715.257 55.3587 715.33 55.476L717.651 59.92L719.994 55.476C720.009 55.432 720.038 55.3917 720.082 55.355C720.134 55.3183 720.196 55.3 720.269 55.3H720.808C720.889 55.3 720.951 55.3257 720.995 55.377C721.047 55.421 721.072 55.4833 721.072 55.564V62.747C721.072 62.8203 721.047 62.8827 720.995 62.934C720.944 62.978 720.882 63 720.808 63H720.269C720.196 63 720.134 62.978 720.082 62.934C720.038 62.8827 720.016 62.8203 720.016 62.747V57.335L718.179 60.921C718.106 61.075 717.989 61.152 717.827 61.152H717.486C717.325 61.152 717.208 61.075 717.134 60.921L715.286 57.335V62.747C715.286 62.8203 715.261 62.8827 715.209 62.934C715.165 62.978 715.107 63 715.033 63H714.494ZM724.427 63.11C724.067 63.11 723.734 63.0367 723.426 62.89C723.118 62.7433 722.872 62.5453 722.689 62.296C722.513 62.0393 722.425 61.757 722.425 61.449C722.425 60.965 722.623 60.569 723.019 60.261C723.422 59.9457 723.965 59.7403 724.647 59.645L726.286 59.414V59.095C726.286 58.347 725.857 57.973 724.999 57.973C724.676 57.973 724.412 58.0427 724.207 58.182C724.001 58.314 723.847 58.4717 723.745 58.655C723.723 58.721 723.693 58.7687 723.657 58.798C723.627 58.8273 723.583 58.842 723.525 58.842H723.052C722.986 58.842 722.927 58.82 722.876 58.776C722.832 58.7247 722.81 58.666 722.81 58.6C722.817 58.424 722.898 58.226 723.052 58.006C723.213 57.7787 723.459 57.5843 723.789 57.423C724.119 57.2543 724.526 57.17 725.01 57.17C725.831 57.17 726.421 57.3643 726.781 57.753C727.14 58.1343 727.32 58.611 727.32 59.183V62.747C727.32 62.8203 727.294 62.8827 727.243 62.934C727.199 62.978 727.14 63 727.067 63H726.561C726.487 63 726.425 62.978 726.374 62.934C726.33 62.8827 726.308 62.8203 726.308 62.747V62.274C726.146 62.5087 725.912 62.7067 725.604 62.868C725.296 63.0293 724.903 63.11 724.427 63.11ZM724.658 62.285C725.134 62.285 725.523 62.131 725.824 61.823C726.132 61.5077 726.286 61.0567 726.286 60.47V60.162L725.01 60.349C724.489 60.4223 724.097 60.547 723.833 60.723C723.569 60.8917 723.437 61.108 723.437 61.372C723.437 61.6653 723.558 61.8927 723.8 62.054C724.042 62.208 724.328 62.285 724.658 62.285ZM729.154 63C729.081 63 729.018 62.978 728.967 62.934C728.923 62.8827 728.901 62.8203 728.901 62.747V57.533C728.901 57.4597 728.923 57.401 728.967 57.357C729.018 57.3057 729.081 57.28 729.154 57.28H729.671C729.744 57.28 729.803 57.3057 729.847 57.357C729.898 57.401 729.924 57.4597 729.924 57.533V58.017C730.137 57.7457 730.386 57.5367 730.672 57.39C730.965 57.2433 731.328 57.17 731.761 57.17C732.465 57.17 733.011 57.3973 733.4 57.852C733.796 58.2993 733.994 58.897 733.994 59.645V62.747C733.994 62.8203 733.968 62.8827 733.917 62.934C733.873 62.978 733.814 63 733.741 63H733.191C733.118 63 733.055 62.978 733.004 62.934C732.96 62.8827 732.938 62.8203 732.938 62.747V59.7C732.938 59.1793 732.81 58.776 732.553 58.49C732.304 58.204 731.941 58.061 731.464 58.061C731.002 58.061 730.635 58.2077 730.364 58.501C730.093 58.787 729.957 59.1867 729.957 59.7V62.747C729.957 62.8203 729.931 62.8827 729.88 62.934C729.836 62.978 729.777 63 729.704 63H729.154ZM735.737 56.213C735.663 56.213 735.601 56.191 735.55 56.147C735.506 56.0957 735.484 56.0333 735.484 55.96V55.366C735.484 55.2927 735.506 55.2303 735.55 55.179C735.601 55.1277 735.663 55.102 735.737 55.102H736.43C736.503 55.102 736.565 55.1277 736.617 55.179C736.668 55.2303 736.694 55.2927 736.694 55.366V55.96C736.694 56.0333 736.668 56.0957 736.617 56.147C736.565 56.191 736.503 56.213 736.43 56.213H735.737ZM735.825 63C735.751 63 735.689 62.978 735.638 62.934C735.594 62.8827 735.572 62.8203 735.572 62.747V57.533C735.572 57.4597 735.594 57.401 735.638 57.357C735.689 57.3057 735.751 57.28 735.825 57.28H736.353C736.426 57.28 736.485 57.3057 736.529 57.357C736.58 57.401 736.606 57.4597 736.606 57.533V62.747C736.606 62.8203 736.58 62.8827 736.529 62.934C736.485 62.978 736.426 63 736.353 63H735.825ZM738.5 65.09C738.427 65.09 738.364 65.0643 738.313 65.013C738.269 64.969 738.247 64.9103 738.247 64.837V57.533C738.247 57.4597 738.269 57.401 738.313 57.357C738.364 57.3057 738.427 57.28 738.5 57.28H739.006C739.079 57.28 739.138 57.3057 739.182 57.357C739.233 57.401 739.259 57.4597 739.259 57.533V58.017C739.67 57.4523 740.271 57.17 741.063 57.17C741.833 57.17 742.409 57.412 742.79 57.896C743.179 58.38 743.388 59.0033 743.417 59.766C743.424 59.8467 743.428 59.9713 743.428 60.14C743.428 60.3087 743.424 60.4333 743.417 60.514C743.388 61.2693 743.179 61.8927 742.79 62.384C742.401 62.868 741.826 63.11 741.063 63.11C740.3 63.11 739.706 62.835 739.281 62.285V64.837C739.281 64.9103 739.259 64.969 739.215 65.013C739.171 65.0643 739.112 65.09 739.039 65.09H738.5ZM740.832 62.219C741.353 62.219 741.73 62.0577 741.965 61.735C742.207 61.4123 742.339 60.987 742.361 60.459C742.368 60.3857 742.372 60.2793 742.372 60.14C742.372 58.754 741.859 58.061 740.832 58.061C740.326 58.061 739.945 58.2297 739.688 58.567C739.439 58.897 739.303 59.293 739.281 59.755L739.27 60.173L739.281 60.602C739.296 61.0347 739.435 61.4123 739.699 61.735C739.963 62.0577 740.341 62.219 740.832 62.219ZM746.923 63.11C746.226 63.11 745.687 62.8863 745.306 62.439C744.924 61.9843 744.734 61.383 744.734 60.635V57.533C744.734 57.4597 744.756 57.401 744.8 57.357C744.851 57.3057 744.913 57.28 744.987 57.28H745.537C745.61 57.28 745.669 57.3057 745.713 57.357C745.764 57.401 745.79 57.4597 745.79 57.533V60.58C745.79 61.6727 746.266 62.219 747.22 62.219C747.682 62.219 748.048 62.076 748.32 61.79C748.591 61.4967 748.727 61.0933 748.727 60.58V57.533C748.727 57.4597 748.749 57.401 748.793 57.357C748.844 57.3057 748.906 57.28 748.98 57.28H749.53C749.603 57.28 749.662 57.3057 749.706 57.357C749.75 57.401 749.772 57.4597 749.772 57.533V62.747C749.772 62.8203 749.75 62.8827 749.706 62.934C749.662 62.978 749.603 63 749.53 63H749.013C748.939 63 748.877 62.978 748.826 62.934C748.782 62.8827 748.76 62.8203 748.76 62.747V62.263C748.554 62.5417 748.305 62.7543 748.012 62.901C747.718 63.0403 747.355 63.11 746.923 63.11ZM751.67 63C751.596 63 751.534 62.978 751.483 62.934C751.439 62.8827 751.417 62.8203 751.417 62.747V55.443C751.417 55.3697 751.439 55.311 751.483 55.267C751.534 55.2157 751.596 55.19 751.67 55.19H752.187C752.26 55.19 752.319 55.2157 752.363 55.267C752.414 55.311 752.44 55.3697 752.44 55.443V62.747C752.44 62.8203 752.414 62.8827 752.363 62.934C752.319 62.978 752.26 63 752.187 63H751.67ZM755.676 63.11C755.316 63.11 754.983 63.0367 754.675 62.89C754.367 62.7433 754.121 62.5453 753.938 62.296C753.762 62.0393 753.674 61.757 753.674 61.449C753.674 60.965 753.872 60.569 754.268 60.261C754.671 59.9457 755.214 59.7403 755.896 59.645L757.535 59.414V59.095C757.535 58.347 757.106 57.973 756.248 57.973C755.925 57.973 755.661 58.0427 755.456 58.182C755.25 58.314 755.096 58.4717 754.994 58.655C754.972 58.721 754.942 58.7687 754.906 58.798C754.876 58.8273 754.832 58.842 754.774 58.842H754.301C754.235 58.842 754.176 58.82 754.125 58.776C754.081 58.7247 754.059 58.666 754.059 58.6C754.066 58.424 754.147 58.226 754.301 58.006C754.462 57.7787 754.708 57.5843 755.038 57.423C755.368 57.2543 755.775 57.17 756.259 57.17C757.08 57.17 757.67 57.3643 758.03 57.753C758.389 58.1343 758.569 58.611 758.569 59.183V62.747C758.569 62.8203 758.543 62.8827 758.492 62.934C758.448 62.978 758.389 63 758.316 63H757.81C757.736 63 757.674 62.978 757.623 62.934C757.579 62.8827 757.557 62.8203 757.557 62.747V62.274C757.395 62.5087 757.161 62.7067 756.853 62.868C756.545 63.0293 756.152 63.11 755.676 63.11ZM755.907 62.285C756.383 62.285 756.772 62.131 757.073 61.823C757.381 61.5077 757.535 61.0567 757.535 60.47V60.162L756.259 60.349C755.738 60.4223 755.346 60.547 755.082 60.723C754.818 60.8917 754.686 61.108 754.686 61.372C754.686 61.6653 754.807 61.8927 755.049 62.054C755.291 62.208 755.577 62.285 755.907 62.285ZM762.329 63C761.171 63 760.591 62.3547 760.591 61.064V58.16H759.733C759.66 58.16 759.598 58.138 759.546 58.094C759.502 58.0427 759.48 57.9803 759.48 57.907V57.533C759.48 57.4597 759.502 57.401 759.546 57.357C759.598 57.3057 759.66 57.28 759.733 57.28H760.591V55.443C760.591 55.3697 760.613 55.311 760.657 55.267C760.709 55.2157 760.771 55.19 760.844 55.19H761.361C761.435 55.19 761.493 55.2157 761.537 55.267C761.589 55.311 761.614 55.3697 761.614 55.443V57.28H762.978C763.052 57.28 763.11 57.3057 763.154 57.357C763.206 57.401 763.231 57.4597 763.231 57.533V57.907C763.231 57.9803 763.206 58.0427 763.154 58.094C763.11 58.138 763.052 58.16 762.978 58.16H761.614V60.987C761.614 61.3537 761.677 61.6323 761.801 61.823C761.926 62.0063 762.131 62.098 762.417 62.098H763.088C763.162 62.098 763.22 62.1237 763.264 62.175C763.316 62.219 763.341 62.2777 763.341 62.351V62.747C763.341 62.8203 763.316 62.8827 763.264 62.934C763.22 62.978 763.162 63 763.088 63H762.329ZM766.681 63.11C765.926 63.11 765.321 62.879 764.866 62.417C764.419 61.9477 764.173 61.3097 764.129 60.503L764.118 60.129L764.129 59.766C764.18 58.974 764.43 58.3433 764.877 57.874C765.332 57.4047 765.929 57.17 766.67 57.17C767.484 57.17 768.115 57.4303 768.562 57.951C769.009 58.4643 769.233 59.161 769.233 60.041V60.228C769.233 60.3013 769.207 60.3637 769.156 60.415C769.112 60.459 769.053 60.481 768.98 60.481H765.174V60.58C765.196 61.0567 765.339 61.4637 765.603 61.801C765.874 62.131 766.23 62.296 766.67 62.296C767.007 62.296 767.282 62.23 767.495 62.098C767.715 61.9587 767.876 61.8157 767.979 61.669C768.045 61.581 768.093 61.5297 768.122 61.515C768.159 61.493 768.221 61.482 768.309 61.482H768.848C768.914 61.482 768.969 61.5003 769.013 61.537C769.057 61.5737 769.079 61.625 769.079 61.691C769.079 61.8523 768.976 62.0467 768.771 62.274C768.573 62.5013 768.291 62.6993 767.924 62.868C767.565 63.0293 767.15 63.11 766.681 63.11ZM768.188 59.722V59.689C768.188 59.183 768.049 58.7723 767.77 58.457C767.499 58.1343 767.132 57.973 766.67 57.973C766.208 57.973 765.841 58.1343 765.57 58.457C765.306 58.7723 765.174 59.183 765.174 59.689V59.722H768.188ZM772.935 64.749C772.305 64.749 771.799 64.5693 771.417 64.21C771.043 63.8507 770.772 63.297 770.603 62.549C770.442 61.801 770.361 60.8183 770.361 59.601C770.361 58.3837 770.442 57.401 770.603 56.653C770.772 55.905 771.043 55.355 771.417 55.003C771.799 54.6437 772.305 54.464 772.935 54.464C773.009 54.464 773.067 54.4897 773.111 54.541C773.163 54.585 773.188 54.6437 773.188 54.717V55.102C773.188 55.168 773.166 55.2267 773.122 55.278C773.078 55.3293 773.027 55.355 772.968 55.355C772.55 55.3623 772.224 55.5017 771.989 55.773C771.755 56.0443 771.586 56.4843 771.483 57.093C771.381 57.7017 771.329 58.5377 771.329 59.601C771.329 60.6643 771.381 61.5003 771.483 62.109C771.586 62.7177 771.755 63.1577 771.989 63.429C772.224 63.7077 772.55 63.8507 772.968 63.858C773.027 63.858 773.078 63.8837 773.122 63.935C773.166 63.9863 773.188 64.045 773.188 64.111V64.496C773.188 64.5693 773.163 64.628 773.111 64.672C773.067 64.7233 773.009 64.749 772.935 64.749ZM773.979 64.749C773.913 64.749 773.854 64.7233 773.803 64.672C773.752 64.628 773.726 64.5693 773.726 64.496V64.111C773.726 64.045 773.748 63.9863 773.792 63.935C773.843 63.8837 773.898 63.858 773.957 63.858C774.368 63.8507 774.69 63.7077 774.925 63.429C775.167 63.1577 775.339 62.7177 775.442 62.109C775.545 61.5003 775.596 60.6643 775.596 59.601C775.596 58.5377 775.545 57.7017 775.442 57.093C775.339 56.4843 775.167 56.0443 774.925 55.773C774.69 55.5017 774.368 55.3623 773.957 55.355C773.898 55.355 773.843 55.3293 773.792 55.278C773.748 55.2267 773.726 55.168 773.726 55.102V54.717C773.726 54.6437 773.752 54.585 773.803 54.541C773.854 54.4897 773.913 54.464 773.979 54.464C774.617 54.464 775.123 54.6437 775.497 55.003C775.871 55.355 776.139 55.905 776.3 56.653C776.469 57.3937 776.553 58.3763 776.553 59.601C776.553 60.8257 776.469 61.812 776.3 62.56C776.139 63.3007 775.871 63.8507 775.497 64.21C775.123 64.5693 774.617 64.749 773.979 64.749ZM783.594 59.15C783.521 59.15 783.458 59.128 783.407 59.084C783.363 59.0327 783.341 58.9703 783.341 58.897V58.127C783.341 58.0537 783.363 57.995 783.407 57.951C783.458 57.8997 783.521 57.874 783.594 57.874H784.386C784.459 57.874 784.518 57.8997 784.562 57.951C784.613 57.995 784.639 58.0537 784.639 58.127V58.897C784.639 58.9703 784.613 59.0327 784.562 59.084C784.518 59.128 784.459 59.15 784.386 59.15H783.594ZM783.594 63C783.521 63 783.458 62.978 783.407 62.934C783.363 62.8827 783.341 62.8203 783.341 62.747V61.977C783.341 61.9037 783.363 61.845 783.407 61.801C783.458 61.7497 783.521 61.724 783.594 61.724H784.386C784.459 61.724 784.518 61.7497 784.562 61.801C784.613 61.845 784.639 61.9037 784.639 61.977V62.747C784.639 62.8203 784.613 62.8827 784.562 62.934C784.518 62.978 784.459 63 784.386 63H783.594Z" fill="black"/>
<rect x="810.5" y="44.5" width="39" height="30" fill="#C4C4C4" stroke="black"/>
<line x1="793" y1="59.5" x2="810" y2="59.5" stroke="black"/>
<line x1="850" y1="59.5" x2="867" y2="59.5" stroke="black"/>
<path d="M833.792 52.264C833.792 52.76 833.648 53.008 833.36 53.008C833.28 53.008 833.2 52.944 833.12 52.816C832.976 52.56 832.736 52.432 832.4 52.432C831.664 52.432 830.976 52.96 830.336 54.016C830.208 54.224 829.808 54.976 829.136 56.272H829.424C831.168 56.272 832.328 56.248 832.904 56.2C832.968 56.216 833 56.248 833 56.296C833 56.424 832.432 56.6 831.296 56.824C830.224 57 829.344 57.152 828.656 57.28C828.16 58.304 827.56 59.52 826.856 60.928C825.416 63.616 824.464 65.288 824 65.944C822.608 67.928 821.248 68.92 819.92 68.92C819.456 68.92 819.056 68.72 818.72 68.32C818.368 67.936 818.184 67.504 818.168 67.024C818.216 66.832 818.288 66.736 818.384 66.736C818.432 66.736 818.464 66.792 818.48 66.904C818.576 67.32 818.736 67.64 818.96 67.864C819.184 68.088 819.416 68.2 819.656 68.2C821.016 68.2 822.256 67.36 823.376 65.68C824.016 64.72 824.888 62.992 825.992 60.496L827.288 57.376C825.688 57.36 824.888 57.168 824.888 56.8C824.888 56.64 824.96 56.504 825.104 56.392C825.264 56.28 825.4 56.224 825.512 56.224L827.768 56.272C829.336 52.784 830.776 51.04 832.088 51.04C832.584 51.04 833.088 51.28 833.6 51.76C833.728 51.888 833.792 52.056 833.792 52.264Z" fill="black"/>
<path d="M642.067 134C641.994 134 641.931 133.978 641.88 133.934C641.836 133.883 641.814 133.82 641.814 133.747V128.533C641.814 128.46 641.836 128.401 641.88 128.357C641.931 128.306 641.994 128.28 642.067 128.28H642.562C642.635 128.28 642.694 128.306 642.738 128.357C642.789 128.401 642.815 128.46 642.815 128.533V128.918C643.196 128.419 643.728 128.17 644.41 128.17C645.224 128.17 645.8 128.507 646.137 129.182C646.313 128.874 646.562 128.628 646.885 128.445C647.208 128.262 647.571 128.17 647.974 128.17C648.575 128.17 649.067 128.375 649.448 128.786C649.829 129.197 650.02 129.791 650.02 130.568V133.747C650.02 133.82 649.994 133.883 649.943 133.934C649.899 133.978 649.84 134 649.767 134H649.25C649.177 134 649.114 133.978 649.063 133.934C649.019 133.883 648.997 133.82 648.997 133.747V130.667C648.997 130.095 648.876 129.684 648.634 129.435C648.399 129.186 648.088 129.061 647.699 129.061C647.354 129.061 647.057 129.189 646.808 129.446C646.559 129.695 646.434 130.102 646.434 130.667V133.747C646.434 133.82 646.408 133.883 646.357 133.934C646.313 133.978 646.254 134 646.181 134H645.664C645.591 134 645.528 133.978 645.477 133.934C645.433 133.883 645.411 133.82 645.411 133.747V130.667C645.411 130.095 645.286 129.684 645.037 129.435C644.795 129.186 644.487 129.061 644.113 129.061C643.768 129.061 643.471 129.189 643.222 129.446C642.973 129.695 642.848 130.099 642.848 130.656V133.747C642.848 133.82 642.822 133.883 642.771 133.934C642.727 133.978 642.668 134 642.595 134H642.067ZM653.723 134.11C653.027 134.11 652.488 133.886 652.106 133.439C651.725 132.984 651.534 132.383 651.534 131.635V128.533C651.534 128.46 651.556 128.401 651.6 128.357C651.652 128.306 651.714 128.28 651.787 128.28H652.337C652.411 128.28 652.469 128.306 652.513 128.357C652.565 128.401 652.59 128.46 652.59 128.533V131.58C652.59 132.673 653.067 133.219 654.02 133.219C654.482 133.219 654.849 133.076 655.12 132.79C655.392 132.497 655.527 132.093 655.527 131.58V128.533C655.527 128.46 655.549 128.401 655.593 128.357C655.645 128.306 655.707 128.28 655.78 128.28H656.33C656.404 128.28 656.462 128.306 656.506 128.357C656.55 128.401 656.572 128.46 656.572 128.533V133.747C656.572 133.82 656.55 133.883 656.506 133.934C656.462 133.978 656.404 134 656.33 134H655.813C655.74 134 655.678 133.978 655.626 133.934C655.582 133.883 655.56 133.82 655.56 133.747V133.263C655.355 133.542 655.106 133.754 654.812 133.901C654.519 134.04 654.156 134.11 653.723 134.11ZM658.471 134C658.397 134 658.335 133.978 658.284 133.934C658.24 133.883 658.218 133.82 658.218 133.747V126.443C658.218 126.37 658.24 126.311 658.284 126.267C658.335 126.216 658.397 126.19 658.471 126.19H658.988C659.061 126.19 659.12 126.216 659.164 126.267C659.215 126.311 659.241 126.37 659.241 126.443V133.747C659.241 133.82 659.215 133.883 659.164 133.934C659.12 133.978 659.061 134 658.988 134H658.471ZM663.114 134C661.956 134 661.376 133.355 661.376 132.064V129.16H660.518C660.445 129.16 660.383 129.138 660.331 129.094C660.287 129.043 660.265 128.98 660.265 128.907V128.533C660.265 128.46 660.287 128.401 660.331 128.357C660.383 128.306 660.445 128.28 660.518 128.28H661.376V126.443C661.376 126.37 661.398 126.311 661.442 126.267C661.494 126.216 661.556 126.19 661.629 126.19H662.146C662.22 126.19 662.278 126.216 662.322 126.267C662.374 126.311 662.399 126.37 662.399 126.443V128.28H663.763C663.837 128.28 663.895 128.306 663.939 128.357C663.991 128.401 664.016 128.46 664.016 128.533V128.907C664.016 128.98 663.991 129.043 663.939 129.094C663.895 129.138 663.837 129.16 663.763 129.16H662.399V131.987C662.399 132.354 662.462 132.632 662.586 132.823C662.711 133.006 662.916 133.098 663.202 133.098H663.873C663.947 133.098 664.005 133.124 664.049 133.175C664.101 133.219 664.126 133.278 664.126 133.351V133.747C664.126 133.82 664.101 133.883 664.049 133.934C664.005 133.978 663.947 134 663.873 134H663.114ZM665.343 127.213C665.27 127.213 665.208 127.191 665.156 127.147C665.112 127.096 665.09 127.033 665.09 126.96V126.366C665.09 126.293 665.112 126.23 665.156 126.179C665.208 126.128 665.27 126.102 665.343 126.102H666.036C666.11 126.102 666.172 126.128 666.223 126.179C666.275 126.23 666.3 126.293 666.3 126.366V126.96C666.3 127.033 666.275 127.096 666.223 127.147C666.172 127.191 666.11 127.213 666.036 127.213H665.343ZM665.431 134C665.358 134 665.296 133.978 665.244 133.934C665.2 133.883 665.178 133.82 665.178 133.747V128.533C665.178 128.46 665.2 128.401 665.244 128.357C665.296 128.306 665.358 128.28 665.431 128.28H665.959C666.033 128.28 666.091 128.306 666.135 128.357C666.187 128.401 666.212 128.46 666.212 128.533V133.747C666.212 133.82 666.187 133.883 666.135 133.934C666.091 133.978 666.033 134 665.959 134H665.431ZM668.106 136.09C668.033 136.09 667.971 136.064 667.919 136.013C667.875 135.969 667.853 135.91 667.853 135.837V128.533C667.853 128.46 667.875 128.401 667.919 128.357C667.971 128.306 668.033 128.28 668.106 128.28H668.612C668.686 128.28 668.744 128.306 668.788 128.357C668.84 128.401 668.865 128.46 668.865 128.533V129.017C669.276 128.452 669.877 128.17 670.669 128.17C671.439 128.17 672.015 128.412 672.396 128.896C672.785 129.38 672.994 130.003 673.023 130.766C673.031 130.847 673.034 130.971 673.034 131.14C673.034 131.309 673.031 131.433 673.023 131.514C672.994 132.269 672.785 132.893 672.396 133.384C672.008 133.868 671.432 134.11 670.669 134.11C669.907 134.11 669.313 133.835 668.887 133.285V135.837C668.887 135.91 668.865 135.969 668.821 136.013C668.777 136.064 668.719 136.09 668.645 136.09H668.106ZM670.438 133.219C670.959 133.219 671.337 133.058 671.571 132.735C671.813 132.412 671.945 131.987 671.967 131.459C671.975 131.386 671.978 131.279 671.978 131.14C671.978 129.754 671.465 129.061 670.438 129.061C669.932 129.061 669.551 129.23 669.294 129.567C669.045 129.897 668.909 130.293 668.887 130.755L668.876 131.173L668.887 131.602C668.902 132.035 669.041 132.412 669.305 132.735C669.569 133.058 669.947 133.219 670.438 133.219ZM674.659 134C674.586 134 674.523 133.978 674.472 133.934C674.428 133.883 674.406 133.82 674.406 133.747V126.443C674.406 126.37 674.428 126.311 674.472 126.267C674.523 126.216 674.586 126.19 674.659 126.19H675.176C675.249 126.19 675.308 126.216 675.352 126.267C675.403 126.311 675.429 126.37 675.429 126.443V133.747C675.429 133.82 675.403 133.883 675.352 133.934C675.308 133.978 675.249 134 675.176 134H674.659ZM678.071 136.09C678.012 136.09 677.961 136.068 677.917 136.024C677.873 135.98 677.851 135.929 677.851 135.87C677.851 135.819 677.869 135.753 677.906 135.672L678.753 133.659L676.652 128.698C676.615 128.603 676.597 128.54 676.597 128.511C676.597 128.445 676.619 128.39 676.663 128.346C676.707 128.302 676.762 128.28 676.828 128.28H677.367C677.484 128.28 677.572 128.342 677.631 128.467L679.303 132.471L681.019 128.467C681.078 128.342 681.169 128.28 681.294 128.28H681.811C681.877 128.28 681.932 128.302 681.976 128.346C682.02 128.39 682.042 128.441 682.042 128.5C682.042 128.522 682.024 128.588 681.987 128.698L678.863 135.903C678.804 136.028 678.713 136.09 678.588 136.09H678.071ZM683.535 134C683.462 134 683.4 133.978 683.348 133.934C683.304 133.883 683.282 133.82 683.282 133.747V126.564C683.282 126.483 683.304 126.421 683.348 126.377C683.4 126.326 683.462 126.3 683.535 126.3H686.549C687.334 126.3 687.924 126.487 688.32 126.861C688.716 127.235 688.914 127.726 688.914 128.335C688.914 128.746 688.819 129.087 688.628 129.358C688.445 129.629 688.225 129.827 687.968 129.952C688.276 130.106 688.537 130.344 688.749 130.667C688.962 130.99 689.068 131.36 689.068 131.778C689.068 132.189 688.973 132.563 688.782 132.9C688.599 133.237 688.324 133.505 687.957 133.703C687.591 133.901 687.151 134 686.637 134H683.535ZM686.384 129.556C686.846 129.556 687.198 129.45 687.44 129.237C687.69 129.024 687.814 128.727 687.814 128.346C687.814 127.972 687.693 127.686 687.451 127.488C687.209 127.29 686.854 127.191 686.384 127.191H684.36V129.556H686.384ZM686.494 133.109C686.956 133.109 687.316 132.984 687.572 132.735C687.836 132.486 687.968 132.167 687.968 131.778C687.968 131.375 687.836 131.052 687.572 130.81C687.316 130.561 686.956 130.436 686.494 130.436H684.36V133.109H686.494ZM691.488 136.09C691.429 136.09 691.378 136.068 691.334 136.024C691.29 135.98 691.268 135.929 691.268 135.87C691.268 135.819 691.286 135.753 691.323 135.672L692.17 133.659L690.069 128.698C690.032 128.603 690.014 128.54 690.014 128.511C690.014 128.445 690.036 128.39 690.08 128.346C690.124 128.302 690.179 128.28 690.245 128.28H690.784C690.901 128.28 690.989 128.342 691.048 128.467L692.72 132.471L694.436 128.467C694.495 128.342 694.586 128.28 694.711 128.28H695.228C695.294 128.28 695.349 128.302 695.393 128.346C695.437 128.39 695.459 128.441 695.459 128.5C695.459 128.522 695.441 128.588 695.404 128.698L692.28 135.903C692.221 136.028 692.13 136.09 692.005 136.09H691.488ZM696.534 134C696.461 134 696.399 133.978 696.347 133.934C696.303 133.883 696.281 133.82 696.281 133.747V133.395C696.281 133.226 696.373 133.065 696.556 132.911L698.888 130.579C699.453 130.11 699.842 129.728 700.054 129.435C700.267 129.134 700.373 128.819 700.373 128.489C700.373 128.064 700.252 127.73 700.01 127.488C699.776 127.246 699.431 127.125 698.976 127.125C698.551 127.125 698.21 127.253 697.953 127.51C697.697 127.759 697.539 128.093 697.48 128.511C697.466 128.599 697.429 128.665 697.37 128.709C697.319 128.746 697.26 128.764 697.194 128.764H696.622C696.556 128.764 696.501 128.746 696.457 128.709C696.413 128.665 696.391 128.614 696.391 128.555C696.406 128.159 696.512 127.781 696.71 127.422C696.908 127.055 697.198 126.758 697.579 126.531C697.968 126.296 698.434 126.179 698.976 126.179C699.805 126.179 700.428 126.395 700.846 126.828C701.272 127.253 701.484 127.796 701.484 128.456C701.484 128.918 701.367 129.336 701.132 129.71C700.905 130.077 700.549 130.473 700.065 130.898L697.953 133.043H701.385C701.466 133.043 701.528 133.069 701.572 133.12C701.624 133.164 701.649 133.223 701.649 133.296V133.747C701.649 133.82 701.624 133.883 701.572 133.934C701.521 133.978 701.459 134 701.385 134H696.534ZM708.603 130.15C708.529 130.15 708.467 130.128 708.416 130.084C708.372 130.033 708.35 129.97 708.35 129.897V129.127C708.35 129.054 708.372 128.995 708.416 128.951C708.467 128.9 708.529 128.874 708.603 128.874H709.395C709.468 128.874 709.527 128.9 709.571 128.951C709.622 128.995 709.648 129.054 709.648 129.127V129.897C709.648 129.97 709.622 130.033 709.571 130.084C709.527 130.128 709.468 130.15 709.395 130.15H708.603ZM708.603 134C708.529 134 708.467 133.978 708.416 133.934C708.372 133.883 708.35 133.82 708.35 133.747V132.977C708.35 132.904 708.372 132.845 708.416 132.801C708.467 132.75 708.529 132.724 708.603 132.724H709.395C709.468 132.724 709.527 132.75 709.571 132.801C709.622 132.845 709.648 132.904 709.648 132.977V133.747C709.648 133.82 709.622 133.883 709.571 133.934C709.527 133.978 709.468 134 709.395 134H708.603Z" fill="black"/>
<path d="M643.067 177C642.994 177 642.931 176.978 642.88 176.934C642.836 176.883 642.814 176.82 642.814 176.747V171.544C642.814 171.471 642.836 171.408 642.88 171.357C642.931 171.306 642.994 171.28 643.067 171.28H643.573C643.646 171.28 643.709 171.306 643.76 171.357C643.811 171.408 643.837 171.471 643.837 171.544V172.028C644.138 171.529 644.651 171.28 645.377 171.28H645.806C645.879 171.28 645.938 171.306 645.982 171.357C646.033 171.401 646.059 171.46 646.059 171.533V171.984C646.059 172.057 646.033 172.116 645.982 172.16C645.938 172.204 645.879 172.226 645.806 172.226H645.146C644.75 172.226 644.438 172.343 644.211 172.578C643.984 172.805 643.87 173.117 643.87 173.513V176.747C643.87 176.82 643.844 176.883 643.793 176.934C643.742 176.978 643.679 177 643.606 177H643.067ZM649.173 177.11C648.418 177.11 647.813 176.879 647.358 176.417C646.911 175.948 646.665 175.31 646.621 174.503L646.61 174.129L646.621 173.766C646.673 172.974 646.922 172.343 647.369 171.874C647.824 171.405 648.422 171.17 649.162 171.17C649.976 171.17 650.607 171.43 651.054 171.951C651.502 172.464 651.725 173.161 651.725 174.041V174.228C651.725 174.301 651.7 174.364 651.648 174.415C651.604 174.459 651.546 174.481 651.472 174.481H647.666V174.58C647.688 175.057 647.831 175.464 648.095 175.801C648.367 176.131 648.722 176.296 649.162 176.296C649.5 176.296 649.775 176.23 649.987 176.098C650.207 175.959 650.369 175.816 650.471 175.669C650.537 175.581 650.585 175.53 650.614 175.515C650.651 175.493 650.713 175.482 650.801 175.482H651.34C651.406 175.482 651.461 175.5 651.505 175.537C651.549 175.574 651.571 175.625 651.571 175.691C651.571 175.852 651.469 176.047 651.263 176.274C651.065 176.501 650.783 176.699 650.416 176.868C650.057 177.029 649.643 177.11 649.173 177.11ZM650.68 173.722V173.689C650.68 173.183 650.541 172.772 650.262 172.457C649.991 172.134 649.624 171.973 649.162 171.973C648.7 171.973 648.334 172.134 648.062 172.457C647.798 172.772 647.666 173.183 647.666 173.689V173.722H650.68ZM655.021 177.11C654.507 177.11 654.075 177.029 653.723 176.868C653.378 176.699 653.118 176.509 652.942 176.296C652.773 176.083 652.689 175.907 652.689 175.768C652.689 175.695 652.714 175.64 652.766 175.603C652.824 175.559 652.883 175.537 652.942 175.537H653.437C653.51 175.537 653.576 175.574 653.635 175.647C653.811 175.852 654.001 176.014 654.207 176.131C654.412 176.248 654.687 176.307 655.032 176.307C655.413 176.307 655.721 176.234 655.956 176.087C656.198 175.933 656.319 175.724 656.319 175.46C656.319 175.284 656.267 175.141 656.165 175.031C656.069 174.914 655.901 174.815 655.659 174.734C655.424 174.646 655.072 174.551 654.603 174.448C653.965 174.309 653.51 174.107 653.239 173.843C652.975 173.579 652.843 173.238 652.843 172.82C652.843 172.541 652.923 172.277 653.085 172.028C653.253 171.771 653.495 171.566 653.811 171.412C654.133 171.251 654.518 171.17 654.966 171.17C655.435 171.17 655.835 171.247 656.165 171.401C656.495 171.555 656.74 171.738 656.902 171.951C657.07 172.156 657.155 172.329 657.155 172.468C657.155 172.534 657.129 172.589 657.078 172.633C657.034 172.677 656.979 172.699 656.913 172.699H656.451C656.363 172.699 656.289 172.662 656.231 172.589C656.113 172.45 656.011 172.343 655.923 172.27C655.842 172.189 655.721 172.12 655.56 172.061C655.406 172.002 655.208 171.973 654.966 171.973C654.614 171.973 654.342 172.05 654.152 172.204C653.961 172.351 653.866 172.545 653.866 172.787C653.866 172.941 653.906 173.073 653.987 173.183C654.067 173.286 654.221 173.381 654.449 173.469C654.683 173.557 655.021 173.649 655.461 173.744C656.157 173.891 656.649 174.103 656.935 174.382C657.228 174.653 657.375 175.002 657.375 175.427C657.375 175.742 657.283 176.028 657.1 176.285C656.916 176.542 656.645 176.743 656.286 176.89C655.934 177.037 655.512 177.11 655.021 177.11ZM660.782 177.11C660.085 177.11 659.546 176.886 659.165 176.439C658.784 175.984 658.593 175.383 658.593 174.635V171.533C658.593 171.46 658.615 171.401 658.659 171.357C658.71 171.306 658.773 171.28 658.846 171.28H659.396C659.469 171.28 659.528 171.306 659.572 171.357C659.623 171.401 659.649 171.46 659.649 171.533V174.58C659.649 175.673 660.126 176.219 661.079 176.219C661.541 176.219 661.908 176.076 662.179 175.79C662.45 175.497 662.586 175.093 662.586 174.58V171.533C662.586 171.46 662.608 171.401 662.652 171.357C662.703 171.306 662.766 171.28 662.839 171.28H663.389C663.462 171.28 663.521 171.306 663.565 171.357C663.609 171.401 663.631 171.46 663.631 171.533V176.747C663.631 176.82 663.609 176.883 663.565 176.934C663.521 176.978 663.462 177 663.389 177H662.872C662.799 177 662.736 176.978 662.685 176.934C662.641 176.883 662.619 176.82 662.619 176.747V176.263C662.414 176.542 662.164 176.754 661.871 176.901C661.578 177.04 661.215 177.11 660.782 177.11ZM665.529 177C665.456 177 665.394 176.978 665.342 176.934C665.298 176.883 665.276 176.82 665.276 176.747V169.443C665.276 169.37 665.298 169.311 665.342 169.267C665.394 169.216 665.456 169.19 665.529 169.19H666.046C666.12 169.19 666.178 169.216 666.222 169.267C666.274 169.311 666.299 169.37 666.299 169.443V176.747C666.299 176.82 666.274 176.883 666.222 176.934C666.178 176.978 666.12 177 666.046 177H665.529ZM670.173 177C669.014 177 668.435 176.355 668.435 175.064V172.16H667.577C667.504 172.16 667.441 172.138 667.39 172.094C667.346 172.043 667.324 171.98 667.324 171.907V171.533C667.324 171.46 667.346 171.401 667.39 171.357C667.441 171.306 667.504 171.28 667.577 171.28H668.435V169.443C668.435 169.37 668.457 169.311 668.501 169.267C668.552 169.216 668.615 169.19 668.688 169.19H669.205C669.278 169.19 669.337 169.216 669.381 169.267C669.432 169.311 669.458 169.37 669.458 169.443V171.28H670.822C670.895 171.28 670.954 171.306 670.998 171.357C671.049 171.401 671.075 171.46 671.075 171.533V171.907C671.075 171.98 671.049 172.043 670.998 172.094C670.954 172.138 670.895 172.16 670.822 172.16H669.458V174.987C669.458 175.354 669.52 175.632 669.645 175.823C669.77 176.006 669.975 176.098 670.261 176.098H670.932C671.005 176.098 671.064 176.124 671.108 176.175C671.159 176.219 671.185 176.278 671.185 176.351V176.747C671.185 176.82 671.159 176.883 671.108 176.934C671.064 176.978 671.005 177 670.932 177H670.173ZM677.827 173.15C677.754 173.15 677.692 173.128 677.64 173.084C677.596 173.033 677.574 172.97 677.574 172.897V172.127C677.574 172.054 677.596 171.995 677.64 171.951C677.692 171.9 677.754 171.874 677.827 171.874H678.619C678.693 171.874 678.751 171.9 678.795 171.951C678.847 171.995 678.872 172.054 678.872 172.127V172.897C678.872 172.97 678.847 173.033 678.795 173.084C678.751 173.128 678.693 173.15 678.619 173.15H677.827ZM677.827 177C677.754 177 677.692 176.978 677.64 176.934C677.596 176.883 677.574 176.82 677.574 176.747V175.977C677.574 175.904 677.596 175.845 677.64 175.801C677.692 175.75 677.754 175.724 677.827 175.724H678.619C678.693 175.724 678.751 175.75 678.795 175.801C678.847 175.845 678.872 175.904 678.872 175.977V176.747C678.872 176.82 678.847 176.883 678.795 176.934C678.751 176.978 678.693 177 678.619 177H677.827Z" fill="black"/>
<rect x="760.5" y="115.5" width="39" height="30" fill="#C4C4C4" stroke="black"/>
<line x1="743" y1="130.5" x2="760" y2="130.5" stroke="black"/>
<line x1="800" y1="130.5" x2="817" y2="130.5" stroke="black"/>
<path d="M783.792 123.264C783.792 123.76 783.648 124.008 783.36 124.008C783.28 124.008 783.2 123.944 783.12 123.816C782.976 123.56 782.736 123.432 782.4 123.432C781.664 123.432 780.976 123.96 780.336 125.016C780.208 125.224 779.808 125.976 779.136 127.272H779.424C781.168 127.272 782.328 127.248 782.904 127.2C782.968 127.216 783 127.248 783 127.296C783 127.424 782.432 127.6 781.296 127.824C780.224 128 779.344 128.152 778.656 128.28C778.16 129.304 777.56 130.52 776.856 131.928C775.416 134.616 774.464 136.288 774 136.944C772.608 138.928 771.248 139.92 769.92 139.92C769.456 139.92 769.056 139.72 768.72 139.32C768.368 138.936 768.184 138.504 768.168 138.024C768.216 137.832 768.288 137.736 768.384 137.736C768.432 137.736 768.464 137.792 768.48 137.904C768.576 138.32 768.736 138.64 768.96 138.864C769.184 139.088 769.416 139.2 769.656 139.2C771.016 139.2 772.256 138.36 773.376 136.68C774.016 135.72 774.888 133.992 775.992 131.496L777.288 128.376C775.688 128.36 774.888 128.168 774.888 127.8C774.888 127.64 774.96 127.504 775.104 127.392C775.264 127.28 775.4 127.224 775.512 127.224L777.768 127.272C779.336 123.784 780.776 122.04 782.088 122.04C782.584 122.04 783.088 122.28 783.6 122.76C783.728 122.888 783.792 123.056 783.792 123.264Z" fill="black"/>
<ellipse cx="710.5" cy="172.5" rx="12.5" ry="10.5" fill="#E60A0A"/>
<path d="M710.172 177.14C709.435 177.14 708.795 177.023 708.254 176.79C707.722 176.547 707.316 176.235 707.036 175.852C706.765 175.469 706.621 175.068 706.602 174.648C706.602 174.564 706.63 174.499 706.686 174.452C706.742 174.396 706.812 174.368 706.896 174.368H707.582C707.778 174.368 707.909 174.471 707.974 174.676C708.095 175.143 708.357 175.474 708.758 175.67C709.159 175.857 709.631 175.95 710.172 175.95C710.835 175.95 711.362 175.796 711.754 175.488C712.146 175.171 712.342 174.718 712.342 174.13C712.342 173.001 711.656 172.436 710.284 172.436H708.954C708.861 172.436 708.781 172.408 708.716 172.352C708.66 172.287 708.632 172.207 708.632 172.114V171.736C708.632 171.605 708.683 171.479 708.786 171.358L711.502 168.39H707.372C707.279 168.39 707.199 168.362 707.134 168.306C707.078 168.241 707.05 168.161 707.05 168.068V167.536C707.05 167.443 707.078 167.363 707.134 167.298C707.199 167.233 707.279 167.2 707.372 167.2H712.958C713.061 167.2 713.14 167.233 713.196 167.298C713.261 167.354 713.294 167.433 713.294 167.536V168.04C713.294 168.152 713.243 168.259 713.14 168.362L710.438 171.372L710.662 171.386C711.614 171.414 712.365 171.661 712.916 172.128C713.467 172.595 713.742 173.276 713.742 174.172C713.742 174.779 713.588 175.306 713.28 175.754C712.972 176.202 712.547 176.547 712.006 176.79C711.465 177.023 710.853 177.14 710.172 177.14Z" fill="black"/>
<ellipse cx="660.5" cy="18.5" rx="12.5" ry="10.5" fill="#E60A0A"/>
<path d="M657.008 23C656.915 23 656.835 22.972 656.77 22.916C656.714 22.8507 656.686 22.7713 656.686 22.678V22.23C656.686 22.0153 656.803 21.81 657.036 21.614L660.004 18.646C660.723 18.0487 661.217 17.5633 661.488 17.19C661.759 16.8073 661.894 16.406 661.894 15.986C661.894 15.4447 661.74 15.02 661.432 14.712C661.133 14.404 660.695 14.25 660.116 14.25C659.575 14.25 659.141 14.4133 658.814 14.74C658.487 15.0573 658.287 15.482 658.212 16.014C658.193 16.126 658.147 16.21 658.072 16.266C658.007 16.3127 657.932 16.336 657.848 16.336H657.12C657.036 16.336 656.966 16.3127 656.91 16.266C656.854 16.21 656.826 16.1447 656.826 16.07C656.845 15.566 656.98 15.0853 657.232 14.628C657.484 14.1613 657.853 13.7833 658.338 13.494C658.833 13.1953 659.425 13.046 660.116 13.046C661.171 13.046 661.964 13.3213 662.496 13.872C663.037 14.4133 663.308 15.104 663.308 15.944C663.308 16.532 663.159 17.064 662.86 17.54C662.571 18.0067 662.118 18.5107 661.502 19.052L658.814 21.782H663.182C663.285 21.782 663.364 21.8147 663.42 21.88C663.485 21.936 663.518 22.0107 663.518 22.104V22.678C663.518 22.7713 663.485 22.8507 663.42 22.916C663.355 22.972 663.275 23 663.182 23H657.008Z" fill="black"/>
<rect x="882.5" y="43.5" width="181" height="279" fill="#F9F3F3" stroke="black"/>
<path d="M925.102 63.18C923.494 63.18 922.27 62.748 921.43 61.884C920.602 61.02 920.158 59.826 920.098 58.302C920.086 57.978 920.08 57.45 920.08 56.718C920.08 55.974 920.086 55.434 920.098 55.098C920.158 53.586 920.608 52.398 921.448 51.534C922.288 50.658 923.506 50.22 925.102 50.22C926.17 50.22 927.076 50.412 927.82 50.796C928.564 51.168 929.128 51.66 929.512 52.272C929.896 52.884 930.106 53.538 930.142 54.234V54.27C930.142 54.366 930.1 54.45 930.016 54.522C929.944 54.582 929.86 54.612 929.764 54.612H928.774C928.534 54.612 928.384 54.474 928.324 54.198C928.12 53.298 927.754 52.668 927.226 52.308C926.698 51.936 925.99 51.75 925.102 51.75C923.038 51.75 921.97 52.896 921.898 55.188C921.886 55.512 921.88 56.01 921.88 56.682C921.88 57.354 921.886 57.864 921.898 58.212C921.97 60.504 923.038 61.65 925.102 61.65C925.99 61.65 926.698 61.47 927.226 61.11C927.766 60.738 928.132 60.102 928.324 59.202C928.36 59.046 928.414 58.938 928.486 58.878C928.558 58.818 928.654 58.788 928.774 58.788H929.764C929.872 58.788 929.962 58.824 930.034 58.896C930.118 58.956 930.154 59.04 930.142 59.148C930.106 59.856 929.896 60.516 929.512 61.128C929.128 61.74 928.564 62.238 927.82 62.622C927.076 62.994 926.17 63.18 925.102 63.18ZM934.93 63.18C934.342 63.18 933.796 63.06 933.292 62.82C932.788 62.58 932.386 62.256 932.086 61.848C931.798 61.428 931.654 60.966 931.654 60.462C931.654 59.67 931.978 59.022 932.626 58.518C933.286 58.002 934.174 57.666 935.29 57.51L937.972 57.132V56.61C937.972 55.386 937.27 54.774 935.866 54.774C935.338 54.774 934.906 54.888 934.57 55.116C934.234 55.332 933.982 55.59 933.814 55.89C933.778 55.998 933.73 56.076 933.67 56.124C933.622 56.172 933.55 56.196 933.454 56.196H932.68C932.572 56.196 932.476 56.16 932.392 56.088C932.32 56.004 932.284 55.908 932.284 55.8C932.296 55.512 932.428 55.188 932.68 54.828C932.944 54.456 933.346 54.138 933.886 53.874C934.426 53.598 935.092 53.46 935.884 53.46C937.228 53.46 938.194 53.778 938.782 54.414C939.37 55.038 939.664 55.818 939.664 56.754V62.586C939.664 62.706 939.622 62.808 939.538 62.892C939.466 62.964 939.37 63 939.25 63H938.422C938.302 63 938.2 62.964 938.116 62.892C938.044 62.808 938.008 62.706 938.008 62.586V61.812C937.744 62.196 937.36 62.52 936.856 62.784C936.352 63.048 935.71 63.18 934.93 63.18ZM935.308 61.83C936.088 61.83 936.724 61.578 937.216 61.074C937.72 60.558 937.972 59.82 937.972 58.86V58.356L935.884 58.662C935.032 58.782 934.39 58.986 933.958 59.274C933.526 59.55 933.31 59.904 933.31 60.336C933.31 60.816 933.508 61.188 933.904 61.452C934.3 61.704 934.768 61.83 935.308 61.83ZM942.684 63C942.564 63 942.462 62.964 942.378 62.892C942.306 62.808 942.27 62.706 942.27 62.586V50.634C942.27 50.514 942.306 50.418 942.378 50.346C942.462 50.262 942.564 50.22 942.684 50.22H943.53C943.65 50.22 943.746 50.262 943.818 50.346C943.902 50.418 943.944 50.514 943.944 50.634V62.586C943.944 62.706 943.902 62.808 943.818 62.892C943.746 62.964 943.65 63 943.53 63H942.684ZM947.061 63C946.941 63 946.839 62.964 946.755 62.892C946.683 62.808 946.647 62.706 946.647 62.586V50.634C946.647 50.514 946.683 50.418 946.755 50.346C946.839 50.262 946.941 50.22 947.061 50.22H947.907C948.027 50.22 948.123 50.262 948.195 50.346C948.279 50.418 948.321 50.514 948.321 50.634V62.586C948.321 62.706 948.279 62.808 948.195 62.892C948.123 62.964 948.027 63 947.907 63H947.061ZM959.702 63.18C958.706 63.18 957.842 63.024 957.11 62.712C956.39 62.4 955.838 61.992 955.454 61.488C955.07 60.972 954.866 60.42 954.842 59.832C954.842 59.736 954.878 59.652 954.95 59.58C955.034 59.496 955.13 59.454 955.238 59.454H956.156C956.384 59.454 956.54 59.574 956.624 59.814C956.732 60.318 957.038 60.75 957.542 61.11C958.058 61.47 958.778 61.65 959.702 61.65C960.698 61.65 961.448 61.476 961.952 61.128C962.456 60.768 962.708 60.27 962.708 59.634C962.708 59.226 962.582 58.896 962.33 58.644C962.09 58.392 961.73 58.17 961.25 57.978C960.77 57.786 960.05 57.546 959.09 57.258C958.154 56.994 957.41 56.712 956.858 56.412C956.306 56.112 955.892 55.74 955.616 55.296C955.34 54.852 955.202 54.294 955.202 53.622C955.202 52.974 955.376 52.392 955.724 51.876C956.084 51.36 956.594 50.958 957.254 50.67C957.914 50.37 958.7 50.22 959.612 50.22C960.548 50.22 961.352 50.388 962.024 50.724C962.696 51.048 963.206 51.462 963.554 51.966C963.902 52.47 964.088 52.974 964.112 53.478C964.112 53.574 964.076 53.658 964.004 53.73C963.944 53.802 963.854 53.838 963.734 53.838H962.78C962.528 53.838 962.372 53.724 962.312 53.496C962.24 52.992 961.958 52.578 961.466 52.254C960.974 51.918 960.356 51.75 959.612 51.75C958.796 51.75 958.154 51.906 957.686 52.218C957.218 52.53 956.984 52.992 956.984 53.604C956.984 54.012 957.092 54.348 957.308 54.612C957.536 54.876 957.878 55.11 958.334 55.314C958.79 55.506 959.456 55.728 960.332 55.98C961.352 56.256 962.156 56.544 962.744 56.844C963.332 57.132 963.77 57.498 964.058 57.942C964.346 58.374 964.49 58.926 964.49 59.598C964.49 60.714 964.058 61.59 963.194 62.226C962.33 62.862 961.166 63.18 959.702 63.18ZM970.269 63C968.373 63 967.425 61.944 967.425 59.832V55.08H966.021C965.901 55.08 965.799 55.044 965.715 54.972C965.643 54.888 965.607 54.786 965.607 54.666V54.054C965.607 53.934 965.643 53.838 965.715 53.766C965.799 53.682 965.901 53.64 966.021 53.64H967.425V50.634C967.425 50.514 967.461 50.418 967.533 50.346C967.617 50.262 967.719 50.22 967.839 50.22H968.685C968.805 50.22 968.901 50.262 968.973 50.346C969.057 50.418 969.099 50.514 969.099 50.634V53.64H971.331C971.451 53.64 971.547 53.682 971.619 53.766C971.703 53.838 971.745 53.934 971.745 54.054V54.666C971.745 54.786 971.703 54.888 971.619 54.972C971.547 55.044 971.451 55.08 971.331 55.08H969.099V59.706C969.099 60.306 969.201 60.762 969.405 61.074C969.609 61.374 969.945 61.524 970.413 61.524H971.511C971.631 61.524 971.727 61.566 971.799 61.65C971.883 61.722 971.925 61.818 971.925 61.938V62.586C971.925 62.706 971.883 62.808 971.799 62.892C971.727 62.964 971.631 63 971.511 63H970.269ZM976.256 63.18C975.668 63.18 975.122 63.06 974.618 62.82C974.114 62.58 973.712 62.256 973.412 61.848C973.124 61.428 972.98 60.966 972.98 60.462C972.98 59.67 973.304 59.022 973.952 58.518C974.612 58.002 975.5 57.666 976.616 57.51L979.298 57.132V56.61C979.298 55.386 978.596 54.774 977.192 54.774C976.664 54.774 976.232 54.888 975.896 55.116C975.56 55.332 975.308 55.59 975.14 55.89C975.104 55.998 975.056 56.076 974.996 56.124C974.948 56.172 974.876 56.196 974.78 56.196H974.006C973.898 56.196 973.802 56.16 973.718 56.088C973.646 56.004 973.61 55.908 973.61 55.8C973.622 55.512 973.754 55.188 974.006 54.828C974.27 54.456 974.672 54.138 975.212 53.874C975.752 53.598 976.418 53.46 977.21 53.46C978.554 53.46 979.52 53.778 980.108 54.414C980.696 55.038 980.99 55.818 980.99 56.754V62.586C980.99 62.706 980.948 62.808 980.864 62.892C980.792 62.964 980.696 63 980.576 63H979.748C979.628 63 979.526 62.964 979.442 62.892C979.37 62.808 979.334 62.706 979.334 62.586V61.812C979.07 62.196 978.686 62.52 978.182 62.784C977.678 63.048 977.036 63.18 976.256 63.18ZM976.634 61.83C977.414 61.83 978.05 61.578 978.542 61.074C979.046 60.558 979.298 59.82 979.298 58.86V58.356L977.21 58.662C976.358 58.782 975.716 58.986 975.284 59.274C974.852 59.55 974.636 59.904 974.636 60.336C974.636 60.816 974.834 61.188 975.23 61.452C975.626 61.704 976.094 61.83 976.634 61.83ZM987.358 63.18C986.074 63.18 985.066 62.82 984.334 62.1C983.614 61.368 983.23 60.348 983.182 59.04L983.164 58.32L983.182 57.6C983.23 56.292 983.614 55.278 984.334 54.558C985.066 53.826 986.074 53.46 987.358 53.46C988.222 53.46 988.954 53.616 989.554 53.928C990.154 54.24 990.598 54.624 990.886 55.08C991.186 55.536 991.348 55.992 991.372 56.448C991.384 56.568 991.348 56.664 991.264 56.736C991.18 56.808 991.078 56.844 990.958 56.844H990.094C989.974 56.844 989.884 56.82 989.824 56.772C989.764 56.724 989.704 56.628 989.644 56.484C989.44 55.908 989.152 55.5 988.78 55.26C988.408 55.008 987.94 54.882 987.376 54.882C986.632 54.882 986.038 55.116 985.594 55.584C985.162 56.04 984.928 56.742 984.892 57.69L984.874 58.338L984.892 58.95C984.928 59.91 985.162 60.618 985.594 61.074C986.026 61.53 986.62 61.758 987.376 61.758C987.94 61.758 988.408 61.638 988.78 61.398C989.152 61.146 989.44 60.732 989.644 60.156C989.704 60.012 989.764 59.916 989.824 59.868C989.884 59.808 989.974 59.778 990.094 59.778H990.958C991.078 59.778 991.18 59.82 991.264 59.904C991.348 59.976 991.384 60.072 991.372 60.192C991.348 60.636 991.186 61.092 990.886 61.56C990.598 62.016 990.154 62.4 989.554 62.712C988.966 63.024 988.234 63.18 987.358 63.18ZM993.942 63C993.822 63 993.72 62.964 993.636 62.892C993.564 62.808 993.528 62.706 993.528 62.586V50.634C993.528 50.514 993.564 50.418 993.636 50.346C993.72 50.262 993.822 50.22 993.942 50.22H994.788C994.908 50.22 995.004 50.262 995.076 50.346C995.16 50.418 995.202 50.514 995.202 50.634V56.898L998.748 53.946C998.784 53.922 998.844 53.874 998.928 53.802C999.012 53.742 999.09 53.7 999.162 53.676C999.246 53.652 999.348 53.64 999.468 53.64H1000.42C1000.53 53.64 1000.62 53.676 1000.69 53.748C1000.76 53.82 1000.8 53.91 1000.8 54.018C1000.8 54.15 1000.73 54.264 1000.58 54.36L996.426 57.816L1001.03 62.298C1001.18 62.418 1001.25 62.526 1001.25 62.622C1001.25 62.73 1001.21 62.82 1001.14 62.892C1001.07 62.964 1000.98 63 1000.87 63H999.936C999.756 63 999.624 62.982 999.54 62.946C999.468 62.91 999.36 62.826 999.216 62.694L995.202 58.86V62.586C995.202 62.706 995.16 62.808 995.076 62.892C995.004 62.964 994.908 63 994.788 63H993.942Z" fill="black"/>
<path d="M942.504 352.694C942.167 353.177 941.695 353.54 941.089 353.781C940.487 354.018 939.785 354.137 938.983 354.137C938.172 354.137 937.452 353.948 936.823 353.569C936.194 353.187 935.707 352.644 935.36 351.942C935.019 351.241 934.843 350.427 934.834 349.502V348.634C934.834 347.134 935.183 345.972 935.88 345.147C936.582 344.323 937.566 343.91 938.833 343.91C939.872 343.91 940.708 344.177 941.342 344.71C941.975 345.239 942.363 345.991 942.504 346.966H941.191C940.945 345.649 940.161 344.99 938.84 344.99C937.96 344.99 937.293 345.3 936.837 345.92C936.386 346.535 936.158 347.428 936.153 348.6V349.413C936.153 350.53 936.409 351.418 936.919 352.079C937.429 352.735 938.12 353.063 938.99 353.063C939.482 353.063 939.913 353.009 940.282 352.899C940.651 352.79 940.957 352.605 941.198 352.346V350.11H938.895V349.044H942.504V352.694ZM945.874 354H944.609V343.5H945.874V354ZM947.569 350.233C947.569 349.509 947.711 348.857 947.993 348.278C948.28 347.7 948.677 347.253 949.183 346.938C949.693 346.624 950.274 346.467 950.926 346.467C951.933 346.467 952.746 346.815 953.366 347.513C953.991 348.21 954.303 349.137 954.303 350.295V350.384C954.303 351.104 954.164 351.751 953.886 352.325C953.612 352.895 953.218 353.339 952.703 353.658C952.193 353.977 951.605 354.137 950.939 354.137C949.937 354.137 949.123 353.788 948.499 353.091C947.879 352.394 947.569 351.471 947.569 350.322V350.233ZM948.841 350.384C948.841 351.204 949.03 351.863 949.408 352.359C949.791 352.856 950.301 353.104 950.939 353.104C951.582 353.104 952.092 352.854 952.471 352.353C952.849 351.847 953.038 351.14 953.038 350.233C953.038 349.422 952.844 348.766 952.457 348.265C952.074 347.759 951.564 347.506 950.926 347.506C950.301 347.506 949.798 347.754 949.415 348.251C949.032 348.748 948.841 349.459 948.841 350.384ZM962.15 350.384C962.15 351.514 961.891 352.423 961.371 353.111C960.852 353.795 960.154 354.137 959.279 354.137C958.345 354.137 957.623 353.806 957.112 353.146L957.051 354H955.889V343.5H957.153V347.417C957.664 346.784 958.368 346.467 959.266 346.467C960.163 346.467 960.868 346.806 961.378 347.485C961.893 348.164 962.15 349.094 962.15 350.274V350.384ZM960.886 350.24C960.886 349.379 960.719 348.714 960.387 348.244C960.054 347.775 959.576 347.54 958.951 347.54C958.117 347.54 957.518 347.927 957.153 348.702V351.901C957.541 352.676 958.145 353.063 958.965 353.063C959.571 353.063 960.043 352.829 960.38 352.359C960.717 351.89 960.886 351.184 960.886 350.24ZM968.316 354C968.243 353.854 968.184 353.594 968.139 353.221C967.551 353.831 966.849 354.137 966.033 354.137C965.304 354.137 964.705 353.932 964.235 353.521C963.771 353.107 963.538 352.583 963.538 351.949C963.538 351.179 963.83 350.582 964.413 350.158C965.001 349.73 965.826 349.516 966.888 349.516H968.118V348.935C968.118 348.493 967.986 348.142 967.722 347.882C967.457 347.618 967.068 347.485 966.553 347.485C966.102 347.485 965.723 347.599 965.418 347.827C965.113 348.055 964.96 348.331 964.96 348.654H963.688C963.688 348.285 963.818 347.93 964.078 347.588C964.342 347.242 964.698 346.968 965.145 346.768C965.596 346.567 966.09 346.467 966.628 346.467C967.48 346.467 968.148 346.681 968.631 347.109C969.114 347.533 969.365 348.119 969.383 348.866V352.271C969.383 352.95 969.469 353.49 969.643 353.891V354H968.316ZM966.218 353.036C966.614 353.036 966.99 352.934 967.346 352.729C967.701 352.523 967.959 352.257 968.118 351.929V350.411H967.127C965.577 350.411 964.803 350.865 964.803 351.771C964.803 352.168 964.935 352.478 965.199 352.701C965.464 352.924 965.803 353.036 966.218 353.036ZM972.739 354H971.475V343.5H972.739V354ZM974.722 349.96C974.722 348.93 974.858 347.941 975.132 346.993C975.41 346.045 975.822 345.184 976.369 344.409C976.916 343.634 977.483 343.088 978.071 342.769L978.331 343.603C977.666 344.113 977.119 344.892 976.69 345.94C976.267 346.989 976.034 348.162 975.993 349.461L975.986 350.042C975.986 351.801 976.308 353.328 976.95 354.622C977.338 355.397 977.798 356.003 978.331 356.44L978.071 357.213C977.465 356.876 976.886 356.311 976.335 355.518C975.259 353.968 974.722 352.116 974.722 349.96ZM982.474 350.028C982.474 351.045 982.339 352.02 982.07 352.954C981.806 353.884 981.398 354.743 980.847 355.531C980.3 356.32 979.726 356.88 979.124 357.213L978.857 356.44C979.559 355.903 980.122 355.069 980.546 353.938C980.974 352.804 981.193 351.546 981.202 350.165V349.946C981.202 348.989 981.102 348.101 980.901 347.28C980.701 346.455 980.421 345.717 980.061 345.065C979.705 344.414 979.304 343.906 978.857 343.541L979.124 342.769C979.726 343.101 980.298 343.657 980.84 344.437C981.387 345.216 981.795 346.075 982.063 347.014C982.337 347.952 982.474 348.957 982.474 350.028Z" fill="black"/>
<ellipse cx="895.5" cy="349.5" rx="12.5" ry="10.5" fill="#E60A0A"/>
<path d="M895.864 354C895.771 354 895.691 353.972 895.626 353.916C895.57 353.851 895.542 353.771 895.542 353.678V345.838L893.218 347.63C893.153 347.686 893.083 347.714 893.008 347.714C892.924 347.714 892.845 347.667 892.77 347.574L892.406 347.112C892.359 347.047 892.336 346.981 892.336 346.916C892.336 346.804 892.383 346.715 892.476 346.65L895.528 344.298C895.631 344.233 895.752 344.2 895.892 344.2H896.606C896.699 344.2 896.774 344.233 896.83 344.298C896.895 344.354 896.928 344.429 896.928 344.522V353.678C896.928 353.771 896.895 353.851 896.83 353.916C896.774 353.972 896.699 354 896.606 354H895.864Z" fill="black"/>
</svg>
