<svg width="262" height="330" viewBox="0 0 262 330" fill="none" xmlns="http://www.w3.org/2000/svg">
<rect x="0.5" y="25.5" width="261" height="279" fill="#F9F3F3" stroke="black"/>
<rect x="111.5" y="56.5" width="39" height="30" fill="#C4C4C4" stroke="black"/>
<line x1="94" y1="71.5" x2="111" y2="71.5" stroke="black"/>
<line x1="151" y1="71.5" x2="168" y2="71.5" stroke="black"/>
<path d="M134.792 64.264C134.792 64.76 134.648 65.008 134.36 65.008C134.28 65.008 134.2 64.944 134.12 64.816C133.976 64.56 133.736 64.432 133.4 64.432C132.664 64.432 131.976 64.96 131.336 66.016C131.208 66.224 130.808 66.976 130.136 68.272H130.424C132.168 68.272 133.328 68.248 133.904 68.2C133.968 68.216 134 68.248 134 68.296C134 68.424 133.432 68.6 132.296 68.824C131.224 69 130.344 69.152 129.656 69.28C129.16 70.304 128.56 71.52 127.856 72.928C126.416 75.616 125.464 77.288 125 77.944C123.608 79.928 122.248 80.92 120.92 80.92C120.456 80.92 120.056 80.72 119.72 80.32C119.368 79.936 119.184 79.504 119.168 79.024C119.216 78.832 119.288 78.736 119.384 78.736C119.432 78.736 119.464 78.792 119.48 78.904C119.576 79.32 119.736 79.64 119.96 79.864C120.184 80.088 120.416 80.2 120.656 80.2C122.016 80.2 123.256 79.36 124.376 77.68C125.016 76.72 125.888 74.992 126.992 72.496L128.288 69.376C126.688 69.36 125.888 69.168 125.888 68.8C125.888 68.64 125.96 68.504 126.104 68.392C126.264 68.28 126.4 68.224 126.512 68.224L128.768 68.272C130.336 64.784 131.776 63.04 133.088 63.04C133.584 63.04 134.088 63.28 134.6 63.76C134.728 63.888 134.792 64.056 134.792 64.264Z" fill="black"/>
<path d="M119.504 324.694C119.167 325.177 118.695 325.54 118.089 325.781C117.487 326.018 116.785 326.137 115.983 326.137C115.172 326.137 114.452 325.948 113.823 325.569C113.194 325.187 112.707 324.644 112.36 323.942C112.019 323.241 111.843 322.427 111.834 321.502V320.634C111.834 319.134 112.183 317.972 112.88 317.147C113.582 316.323 114.566 315.91 115.833 315.91C116.872 315.91 117.708 316.177 118.342 316.71C118.975 317.239 119.363 317.991 119.504 318.966H118.191C117.945 317.649 117.161 316.99 115.84 316.99C114.96 316.99 114.293 317.3 113.837 317.92C113.386 318.535 113.158 319.428 113.153 320.6V321.413C113.153 322.53 113.409 323.418 113.919 324.079C114.429 324.735 115.12 325.063 115.99 325.063C116.482 325.063 116.913 325.009 117.282 324.899C117.651 324.79 117.957 324.605 118.198 324.346V322.11H115.895V321.044H119.504V324.694ZM122.874 326H121.609V315.5H122.874V326ZM124.569 322.233C124.569 321.509 124.711 320.857 124.993 320.278C125.28 319.7 125.677 319.253 126.183 318.938C126.693 318.624 127.274 318.467 127.926 318.467C128.933 318.467 129.746 318.815 130.366 319.513C130.991 320.21 131.303 321.137 131.303 322.295V322.384C131.303 323.104 131.164 323.751 130.886 324.325C130.612 324.895 130.218 325.339 129.703 325.658C129.193 325.977 128.605 326.137 127.939 326.137C126.937 326.137 126.123 325.788 125.499 325.091C124.879 324.394 124.569 323.471 124.569 322.322V322.233ZM125.841 322.384C125.841 323.204 126.03 323.863 126.408 324.359C126.791 324.856 127.301 325.104 127.939 325.104C128.582 325.104 129.092 324.854 129.471 324.353C129.849 323.847 130.038 323.14 130.038 322.233C130.038 321.422 129.844 320.766 129.457 320.265C129.074 319.759 128.564 319.506 127.926 319.506C127.301 319.506 126.798 319.754 126.415 320.251C126.032 320.748 125.841 321.459 125.841 322.384ZM139.15 322.384C139.15 323.514 138.891 324.423 138.371 325.111C137.852 325.795 137.154 326.137 136.279 326.137C135.345 326.137 134.623 325.806 134.112 325.146L134.051 326H132.889V315.5H134.153V319.417C134.664 318.784 135.368 318.467 136.266 318.467C137.163 318.467 137.868 318.806 138.378 319.485C138.893 320.164 139.15 321.094 139.15 322.274V322.384ZM137.886 322.24C137.886 321.379 137.719 320.714 137.387 320.244C137.054 319.775 136.576 319.54 135.951 319.54C135.117 319.54 134.518 319.927 134.153 320.702V323.901C134.541 324.676 135.145 325.063 135.965 325.063C136.571 325.063 137.043 324.829 137.38 324.359C137.717 323.89 137.886 323.184 137.886 322.24ZM145.316 326C145.243 325.854 145.184 325.594 145.139 325.221C144.551 325.831 143.849 326.137 143.033 326.137C142.304 326.137 141.705 325.932 141.235 325.521C140.771 325.107 140.538 324.583 140.538 323.949C140.538 323.179 140.83 322.582 141.413 322.158C142.001 321.73 142.826 321.516 143.888 321.516H145.118V320.935C145.118 320.493 144.986 320.142 144.722 319.882C144.457 319.618 144.068 319.485 143.553 319.485C143.102 319.485 142.723 319.599 142.418 319.827C142.113 320.055 141.96 320.331 141.96 320.654H140.688C140.688 320.285 140.818 319.93 141.078 319.588C141.342 319.242 141.698 318.968 142.145 318.768C142.596 318.567 143.09 318.467 143.628 318.467C144.48 318.467 145.148 318.681 145.631 319.109C146.114 319.533 146.365 320.119 146.383 320.866V324.271C146.383 324.95 146.469 325.49 146.643 325.891V326H145.316ZM143.218 325.036C143.614 325.036 143.99 324.934 144.346 324.729C144.701 324.523 144.959 324.257 145.118 323.929V322.411H144.127C142.577 322.411 141.803 322.865 141.803 323.771C141.803 324.168 141.935 324.478 142.199 324.701C142.464 324.924 142.803 325.036 143.218 325.036ZM149.739 326H148.475V315.5H149.739V326ZM151.722 321.96C151.722 320.93 151.858 319.941 152.132 318.993C152.41 318.045 152.822 317.184 153.369 316.409C153.916 315.634 154.483 315.088 155.071 314.769L155.331 315.603C154.666 316.113 154.119 316.892 153.69 317.94C153.267 318.989 153.034 320.162 152.993 321.461L152.986 322.042C152.986 323.801 153.308 325.328 153.95 326.622C154.338 327.397 154.798 328.003 155.331 328.44L155.071 329.213C154.465 328.876 153.886 328.311 153.335 327.518C152.259 325.968 151.722 324.116 151.722 321.96ZM159.474 322.028C159.474 323.045 159.339 324.02 159.07 324.954C158.806 325.884 158.398 326.743 157.847 327.531C157.3 328.32 156.726 328.88 156.124 329.213L155.857 328.44C156.559 327.903 157.122 327.069 157.546 325.938C157.974 324.804 158.193 323.546 158.202 322.165V321.946C158.202 320.989 158.102 320.101 157.901 319.28C157.701 318.455 157.421 317.717 157.061 317.065C156.705 316.414 156.304 315.906 155.857 315.541L156.124 314.769C156.726 315.101 157.298 315.657 157.84 316.437C158.387 317.216 158.795 318.075 159.063 319.014C159.337 319.952 159.474 320.957 159.474 322.028Z" fill="black"/>
<path d="M108.477 9.8418C108.354 10.8945 107.964 11.708 107.308 12.2822C106.656 12.8519 105.788 13.1367 104.703 13.1367C103.527 13.1367 102.584 12.7152 101.873 11.8721C101.167 11.029 100.813 9.90104 100.813 8.48828V7.53125C100.813 6.60612 100.978 5.79264 101.306 5.09082C101.638 4.389 102.108 3.85124 102.714 3.47754C103.32 3.09928 104.022 2.91016 104.819 2.91016C105.877 2.91016 106.724 3.20638 107.362 3.79883C108 4.38672 108.372 5.20247 108.477 6.24609H107.157C107.043 5.45312 106.795 4.87891 106.412 4.52344C106.034 4.16797 105.503 3.99023 104.819 3.99023C103.981 3.99023 103.322 4.30013 102.844 4.91992C102.37 5.53971 102.133 6.42155 102.133 7.56543V8.5293C102.133 9.60938 102.358 10.4684 102.81 11.1064C103.261 11.7445 103.892 12.0635 104.703 12.0635C105.432 12.0635 105.991 11.8994 106.378 11.5713C106.77 11.2386 107.03 10.6621 107.157 9.8418H108.477ZM114.643 13C114.57 12.8542 114.51 12.5944 114.465 12.2207C113.877 12.8314 113.175 13.1367 112.359 13.1367C111.63 13.1367 111.031 12.9316 110.562 12.5215C110.097 12.1068 109.864 11.5827 109.864 10.9492C109.864 10.179 110.156 9.58203 110.739 9.1582C111.327 8.72982 112.152 8.51562 113.214 8.51562H114.444V7.93457C114.444 7.49251 114.312 7.1416 114.048 6.88184C113.784 6.61751 113.394 6.48535 112.879 6.48535C112.428 6.48535 112.049 6.59928 111.744 6.82715C111.439 7.05501 111.286 7.33073 111.286 7.6543H110.015C110.015 7.28516 110.145 6.92969 110.404 6.58789C110.669 6.24154 111.024 5.9681 111.471 5.76758C111.922 5.56706 112.416 5.4668 112.954 5.4668C113.806 5.4668 114.474 5.68099 114.957 6.10938C115.44 6.5332 115.691 7.11882 115.709 7.86621V11.2705C115.709 11.9495 115.796 12.4896 115.969 12.8906V13H114.643ZM112.544 12.0361C112.94 12.0361 113.316 11.9336 113.672 11.7285C114.027 11.5234 114.285 11.2568 114.444 10.9287V9.41113H113.453C111.904 9.41113 111.129 9.86458 111.129 10.7715C111.129 11.168 111.261 11.4779 111.525 11.7012C111.79 11.9245 112.129 12.0361 112.544 12.0361ZM119.065 13H117.801V2.5H119.065V13ZM122.47 13H121.205V2.5H122.47V13ZM131.104 8.56348C129.978 8.23991 129.158 7.84342 128.643 7.37402C128.132 6.90007 127.877 6.31673 127.877 5.62402C127.877 4.84017 128.189 4.19303 128.813 3.68262C129.442 3.16764 130.258 2.91016 131.261 2.91016C131.944 2.91016 132.553 3.04232 133.086 3.30664C133.624 3.57096 134.038 3.93555 134.33 4.40039C134.626 4.86523 134.774 5.37337 134.774 5.9248H133.455C133.455 5.32324 133.264 4.85156 132.881 4.50977C132.498 4.16341 131.958 3.99023 131.261 3.99023C130.614 3.99023 130.108 4.13379 129.743 4.4209C129.383 4.70345 129.203 5.09766 129.203 5.60352C129.203 6.00911 129.374 6.35319 129.716 6.63574C130.062 6.91374 130.648 7.16895 131.473 7.40137C132.302 7.63379 132.949 7.89128 133.414 8.17383C133.883 8.45182 134.23 8.77767 134.453 9.15137C134.681 9.52507 134.795 9.96484 134.795 10.4707C134.795 11.2773 134.48 11.9245 133.852 12.4121C133.223 12.8952 132.382 13.1367 131.329 13.1367C130.646 13.1367 130.007 13.0068 129.415 12.7471C128.823 12.4827 128.365 12.1227 128.041 11.667C127.722 11.2113 127.562 10.694 127.562 10.1152H128.882C128.882 10.7168 129.103 11.193 129.545 11.5439C129.992 11.8903 130.586 12.0635 131.329 12.0635C132.022 12.0635 132.553 11.9222 132.922 11.6396C133.291 11.3571 133.476 10.972 133.476 10.4844C133.476 9.99674 133.305 9.62077 132.963 9.35645C132.621 9.08757 132.001 8.82324 131.104 8.56348ZM138.001 3.8125V5.60352H139.382V6.58105H138.001V11.168C138.001 11.4642 138.062 11.6875 138.186 11.8379C138.309 11.9837 138.518 12.0566 138.814 12.0566C138.96 12.0566 139.161 12.0293 139.416 11.9746V13C139.083 13.0911 138.76 13.1367 138.445 13.1367C137.88 13.1367 137.454 12.9658 137.167 12.624C136.88 12.2822 136.736 11.7969 136.736 11.168V6.58105H135.39V5.60352H136.736V3.8125H138.001ZM145.432 13C145.359 12.8542 145.299 12.5944 145.254 12.2207C144.666 12.8314 143.964 13.1367 143.148 13.1367C142.419 13.1367 141.82 12.9316 141.351 12.5215C140.886 12.1068 140.653 11.5827 140.653 10.9492C140.653 10.179 140.945 9.58203 141.528 9.1582C142.116 8.72982 142.941 8.51562 144.003 8.51562H145.233V7.93457C145.233 7.49251 145.101 7.1416 144.837 6.88184C144.573 6.61751 144.183 6.48535 143.668 6.48535C143.217 6.48535 142.839 6.59928 142.533 6.82715C142.228 7.05501 142.075 7.33073 142.075 7.6543H140.804C140.804 7.28516 140.934 6.92969 141.193 6.58789C141.458 6.24154 141.813 5.9681 142.26 5.76758C142.711 5.56706 143.205 5.4668 143.743 5.4668C144.595 5.4668 145.263 5.68099 145.746 6.10938C146.229 6.5332 146.48 7.11882 146.498 7.86621V11.2705C146.498 11.9495 146.585 12.4896 146.758 12.8906V13H145.432ZM143.333 12.0361C143.729 12.0361 144.105 11.9336 144.461 11.7285C144.816 11.5234 145.074 11.2568 145.233 10.9287V9.41113H144.242C142.693 9.41113 141.918 9.86458 141.918 10.7715C141.918 11.168 142.05 11.4779 142.314 11.7012C142.579 11.9245 142.918 12.0361 143.333 12.0361ZM151.447 12.1045C151.898 12.1045 152.293 11.9678 152.63 11.6943C152.967 11.4209 153.154 11.0791 153.19 10.6689H154.387C154.364 11.0928 154.218 11.4961 153.949 11.8789C153.68 12.2617 153.32 12.5671 152.869 12.7949C152.423 13.0228 151.949 13.1367 151.447 13.1367C150.44 13.1367 149.638 12.8018 149.041 12.1318C148.449 11.4574 148.152 10.5368 148.152 9.37012V9.1582C148.152 8.43815 148.285 7.79785 148.549 7.2373C148.813 6.67676 149.191 6.24154 149.684 5.93164C150.18 5.62174 150.766 5.4668 151.44 5.4668C152.27 5.4668 152.958 5.71517 153.505 6.21191C154.056 6.70866 154.35 7.35352 154.387 8.14648H153.19C153.154 7.66797 152.972 7.27604 152.644 6.9707C152.32 6.66081 151.919 6.50586 151.44 6.50586C150.798 6.50586 150.299 6.73828 149.943 7.20312C149.592 7.66341 149.417 8.33105 149.417 9.20605V9.44531C149.417 10.2975 149.592 10.9538 149.943 11.4141C150.294 11.8743 150.796 12.1045 151.447 12.1045ZM157.873 9.5752L157.08 10.4023V13H155.815V2.5H157.08V8.85059L157.757 8.03711L160.061 5.60352H161.599L158.721 8.69336L161.934 13H160.45L157.873 9.5752Z" fill="black"/>
<path d="M66.648 223C64.12 223 62.856 221.592 62.856 218.776V212.44H60.984C60.824 212.44 60.688 212.392 60.576 212.296C60.48 212.184 60.432 212.048 60.432 211.888V211.072C60.432 210.912 60.48 210.784 60.576 210.688C60.688 210.576 60.824 210.52 60.984 210.52H62.856V206.512C62.856 206.352 62.904 206.224 63 206.128C63.112 206.016 63.248 205.96 63.408 205.96H64.536C64.696 205.96 64.824 206.016 64.92 206.128C65.032 206.224 65.088 206.352 65.088 206.512V210.52H68.064C68.224 210.52 68.352 210.576 68.448 210.688C68.56 210.784 68.616 210.912 68.616 211.072V211.888C68.616 212.048 68.56 212.184 68.448 212.296C68.352 212.392 68.224 212.44 68.064 212.44H65.088V218.608C65.088 219.408 65.224 220.016 65.496 220.432C65.768 220.832 66.216 221.032 66.84 221.032H68.304C68.464 221.032 68.592 221.088 68.688 221.2C68.8 221.296 68.856 221.424 68.856 221.584V222.448C68.856 222.608 68.8 222.744 68.688 222.856C68.592 222.952 68.464 223 68.304 223H66.648ZM71.727 223C71.567 223 71.431 222.952 71.319 222.856C71.223 222.744 71.175 222.608 71.175 222.448V206.512C71.175 206.352 71.223 206.224 71.319 206.128C71.431 206.016 71.567 205.96 71.727 205.96H72.927C73.087 205.96 73.215 206.016 73.311 206.128C73.423 206.224 73.479 206.352 73.479 206.512V212.104C73.943 211.512 74.487 211.064 75.111 210.76C75.735 210.44 76.511 210.28 77.439 210.28C78.975 210.28 80.167 210.776 81.015 211.768C81.879 212.744 82.311 214.048 82.311 215.68V222.448C82.311 222.608 82.255 222.744 82.143 222.856C82.047 222.952 81.919 223 81.759 223H80.559C80.399 223 80.263 222.952 80.151 222.856C80.055 222.744 80.007 222.608 80.007 222.448V215.8C80.007 214.664 79.727 213.784 79.167 213.16C78.623 212.536 77.831 212.224 76.791 212.224C75.783 212.224 74.975 212.544 74.367 213.184C73.775 213.808 73.479 214.68 73.479 215.8V222.448C73.479 222.608 73.423 222.744 73.311 222.856C73.215 222.952 73.087 223 72.927 223H71.727ZM86.136 208.192C85.976 208.192 85.84 208.144 85.728 208.048C85.632 207.936 85.584 207.8 85.584 207.64V206.344C85.584 206.184 85.632 206.048 85.728 205.936C85.84 205.824 85.976 205.768 86.136 205.768H87.648C87.808 205.768 87.944 205.824 88.056 205.936C88.168 206.048 88.224 206.184 88.224 206.344V207.64C88.224 207.8 88.168 207.936 88.056 208.048C87.944 208.144 87.808 208.192 87.648 208.192H86.136ZM86.328 223C86.168 223 86.032 222.952 85.92 222.856C85.824 222.744 85.776 222.608 85.776 222.448V211.072C85.776 210.912 85.824 210.784 85.92 210.688C86.032 210.576 86.168 210.52 86.328 210.52H87.48C87.64 210.52 87.768 210.576 87.864 210.688C87.976 210.784 88.032 210.912 88.032 211.072V222.448C88.032 222.608 87.976 222.744 87.864 222.856C87.768 222.952 87.64 223 87.48 223H86.328ZM95.9085 223.24C94.7885 223.24 93.8445 223.064 93.0765 222.712C92.3245 222.344 91.7565 221.928 91.3725 221.464C91.0045 221 90.8205 220.616 90.8205 220.312C90.8205 220.152 90.8765 220.032 90.9885 219.952C91.1165 219.856 91.2445 219.808 91.3725 219.808H92.4525C92.6125 219.808 92.7565 219.888 92.8845 220.048C93.2685 220.496 93.6845 220.848 94.1325 221.104C94.5805 221.36 95.1805 221.488 95.9325 221.488C96.7645 221.488 97.4365 221.328 97.9485 221.008C98.4765 220.672 98.7405 220.216 98.7405 219.64C98.7405 219.256 98.6285 218.944 98.4045 218.704C98.1965 218.448 97.8285 218.232 97.3005 218.056C96.7885 217.864 96.0205 217.656 94.9965 217.432C93.6045 217.128 92.6125 216.688 92.0205 216.112C91.4445 215.536 91.1565 214.792 91.1565 213.88C91.1565 213.272 91.3325 212.696 91.6845 212.152C92.0525 211.592 92.5805 211.144 93.2685 210.808C93.9725 210.456 94.8125 210.28 95.7885 210.28C96.8125 210.28 97.6845 210.448 98.4045 210.784C99.1245 211.12 99.6605 211.52 100.013 211.984C100.381 212.432 100.565 212.808 100.565 213.112C100.565 213.256 100.509 213.376 100.397 213.472C100.301 213.568 100.181 213.616 100.037 213.616H99.0285C98.8365 213.616 98.6765 213.536 98.5485 213.376C98.2925 213.072 98.0685 212.84 97.8765 212.68C97.7005 212.504 97.4365 212.352 97.0845 212.224C96.7485 212.096 96.3165 212.032 95.7885 212.032C95.0205 212.032 94.4285 212.2 94.0125 212.536C93.5965 212.856 93.3885 213.28 93.3885 213.808C93.3885 214.144 93.4765 214.432 93.6525 214.672C93.8285 214.896 94.1645 215.104 94.6605 215.296C95.1725 215.488 95.9085 215.688 96.8685 215.896C98.3885 216.216 99.4605 216.68 100.085 217.288C100.725 217.88 101.045 218.64 101.045 219.568C101.045 220.256 100.845 220.88 100.445 221.44C100.045 222 99.4525 222.44 98.6685 222.76C97.9005 223.08 96.9805 223.24 95.9085 223.24ZM110.066 208.192C109.906 208.192 109.77 208.144 109.658 208.048C109.562 207.936 109.514 207.8 109.514 207.64V206.344C109.514 206.184 109.562 206.048 109.658 205.936C109.77 205.824 109.906 205.768 110.066 205.768H111.578C111.738 205.768 111.874 205.824 111.986 205.936C112.098 206.048 112.154 206.184 112.154 206.344V207.64C112.154 207.8 112.098 207.936 111.986 208.048C111.874 208.144 111.738 208.192 111.578 208.192H110.066ZM110.258 223C110.098 223 109.962 222.952 109.85 222.856C109.754 222.744 109.706 222.608 109.706 222.448V211.072C109.706 210.912 109.754 210.784 109.85 210.688C109.962 210.576 110.098 210.52 110.258 210.52H111.41C111.57 210.52 111.698 210.576 111.794 210.688C111.906 210.784 111.962 210.912 111.962 211.072V222.448C111.962 222.608 111.906 222.744 111.794 222.856C111.698 222.952 111.57 223 111.41 223H110.258ZM119.838 223.24C118.718 223.24 117.774 223.064 117.006 222.712C116.254 222.344 115.686 221.928 115.302 221.464C114.934 221 114.75 220.616 114.75 220.312C114.75 220.152 114.806 220.032 114.918 219.952C115.046 219.856 115.174 219.808 115.302 219.808H116.382C116.542 219.808 116.686 219.888 116.814 220.048C117.198 220.496 117.614 220.848 118.062 221.104C118.51 221.36 119.11 221.488 119.862 221.488C120.694 221.488 121.366 221.328 121.878 221.008C122.406 220.672 122.67 220.216 122.67 219.64C122.67 219.256 122.558 218.944 122.334 218.704C122.126 218.448 121.758 218.232 121.23 218.056C120.718 217.864 119.95 217.656 118.926 217.432C117.534 217.128 116.542 216.688 115.95 216.112C115.374 215.536 115.086 214.792 115.086 213.88C115.086 213.272 115.262 212.696 115.614 212.152C115.982 211.592 116.51 211.144 117.198 210.808C117.902 210.456 118.742 210.28 119.718 210.28C120.742 210.28 121.614 210.448 122.334 210.784C123.054 211.12 123.59 211.52 123.942 211.984C124.31 212.432 124.494 212.808 124.494 213.112C124.494 213.256 124.438 213.376 124.326 213.472C124.23 213.568 124.11 213.616 123.966 213.616H122.958C122.766 213.616 122.606 213.536 122.478 213.376C122.222 213.072 121.998 212.84 121.806 212.68C121.63 212.504 121.366 212.352 121.014 212.224C120.678 212.096 120.246 212.032 119.718 212.032C118.95 212.032 118.358 212.2 117.942 212.536C117.526 212.856 117.318 213.28 117.318 213.808C117.318 214.144 117.406 214.432 117.582 214.672C117.758 214.896 118.094 215.104 118.59 215.296C119.102 215.488 119.838 215.688 120.798 215.896C122.318 216.216 123.39 216.68 124.014 217.288C124.654 217.88 124.974 218.64 124.974 219.568C124.974 220.256 124.774 220.88 124.374 221.44C123.974 222 123.382 222.44 122.598 222.76C121.83 223.08 120.91 223.24 119.838 223.24ZM137.115 223.24C136.331 223.24 135.603 223.08 134.931 222.76C134.259 222.44 133.723 222.008 133.323 221.464C132.939 220.904 132.747 220.288 132.747 219.616C132.747 218.56 133.179 217.696 134.043 217.024C134.923 216.336 136.107 215.888 137.595 215.68L141.171 215.176V214.48C141.171 212.848 140.235 212.032 138.363 212.032C137.659 212.032 137.083 212.184 136.635 212.488C136.187 212.776 135.851 213.12 135.627 213.52C135.579 213.664 135.515 213.768 135.435 213.832C135.371 213.896 135.275 213.928 135.147 213.928H134.115C133.971 213.928 133.843 213.88 133.731 213.784C133.635 213.672 133.587 213.544 133.587 213.4C133.603 213.016 133.779 212.584 134.115 212.104C134.467 211.608 135.003 211.184 135.723 210.832C136.443 210.464 137.331 210.28 138.387 210.28C140.179 210.28 141.467 210.704 142.251 211.552C143.035 212.384 143.427 213.424 143.427 214.672V222.448C143.427 222.608 143.371 222.744 143.259 222.856C143.163 222.952 143.035 223 142.875 223H141.771C141.611 223 141.475 222.952 141.363 222.856C141.267 222.744 141.219 222.608 141.219 222.448V221.416C140.867 221.928 140.355 222.36 139.683 222.712C139.011 223.064 138.155 223.24 137.115 223.24ZM137.619 221.44C138.659 221.44 139.507 221.104 140.163 220.432C140.835 219.744 141.171 218.76 141.171 217.48V216.808L138.387 217.216C137.251 217.376 136.395 217.648 135.819 218.032C135.243 218.4 134.955 218.872 134.955 219.448C134.955 220.088 135.219 220.584 135.747 220.936C136.275 221.272 136.899 221.44 137.619 221.44ZM157.117 223C154.589 223 153.325 221.592 153.325 218.776V212.44H151.453C151.293 212.44 151.157 212.392 151.045 212.296C150.949 212.184 150.901 212.048 150.901 211.888V211.072C150.901 210.912 150.949 210.784 151.045 210.688C151.157 210.576 151.293 210.52 151.453 210.52H153.325V206.512C153.325 206.352 153.373 206.224 153.469 206.128C153.581 206.016 153.717 205.96 153.877 205.96H155.005C155.165 205.96 155.293 206.016 155.389 206.128C155.501 206.224 155.557 206.352 155.557 206.512V210.52H158.533C158.693 210.52 158.821 210.576 158.917 210.688C159.029 210.784 159.085 210.912 159.085 211.072V211.888C159.085 212.048 159.029 212.184 158.917 212.296C158.821 212.392 158.693 212.44 158.533 212.44H155.557V218.608C155.557 219.408 155.693 220.016 155.965 220.432C156.237 220.832 156.685 221.032 157.309 221.032H158.773C158.933 221.032 159.061 221.088 159.157 221.2C159.269 221.296 159.325 221.424 159.325 221.584V222.448C159.325 222.608 159.269 222.744 159.157 222.856C159.061 222.952 158.933 223 158.773 223H157.117ZM166.612 223.24C164.964 223.24 163.644 222.736 162.652 221.728C161.676 220.704 161.14 219.312 161.044 217.552L161.02 216.736L161.044 215.944C161.156 214.216 161.7 212.84 162.676 211.816C163.668 210.792 164.972 210.28 166.588 210.28C168.364 210.28 169.74 210.848 170.716 211.984C171.692 213.104 172.18 214.624 172.18 216.544V216.952C172.18 217.112 172.124 217.248 172.012 217.36C171.916 217.456 171.788 217.504 171.628 217.504H163.324V217.72C163.372 218.76 163.684 219.648 164.26 220.384C164.852 221.104 165.628 221.464 166.588 221.464C167.324 221.464 167.924 221.32 168.388 221.032C168.868 220.728 169.22 220.416 169.444 220.096C169.588 219.904 169.692 219.792 169.756 219.76C169.836 219.712 169.972 219.688 170.164 219.688H171.34C171.484 219.688 171.604 219.728 171.7 219.808C171.796 219.888 171.844 220 171.844 220.144C171.844 220.496 171.62 220.92 171.172 221.416C170.74 221.912 170.124 222.344 169.324 222.712C168.54 223.064 167.636 223.24 166.612 223.24ZM169.9 215.848V215.776C169.9 214.672 169.596 213.776 168.988 213.088C168.396 212.384 167.596 212.032 166.588 212.032C165.58 212.032 164.78 212.384 164.188 213.088C163.612 213.776 163.324 214.672 163.324 215.776V215.848H169.9ZM179.369 223.24C178.249 223.24 177.305 223.064 176.537 222.712C175.785 222.344 175.217 221.928 174.833 221.464C174.465 221 174.281 220.616 174.281 220.312C174.281 220.152 174.337 220.032 174.449 219.952C174.577 219.856 174.705 219.808 174.833 219.808H175.913C176.073 219.808 176.217 219.888 176.345 220.048C176.729 220.496 177.145 220.848 177.593 221.104C178.041 221.36 178.641 221.488 179.393 221.488C180.225 221.488 180.897 221.328 181.409 221.008C181.937 220.672 182.201 220.216 182.201 219.64C182.201 219.256 182.089 218.944 181.865 218.704C181.657 218.448 181.289 218.232 180.761 218.056C180.249 217.864 179.481 217.656 178.457 217.432C177.065 217.128 176.073 216.688 175.481 216.112C174.905 215.536 174.617 214.792 174.617 213.88C174.617 213.272 174.793 212.696 175.145 212.152C175.513 211.592 176.041 211.144 176.729 210.808C177.433 210.456 178.273 210.28 179.249 210.28C180.273 210.28 181.145 210.448 181.865 210.784C182.585 211.12 183.121 211.52 183.473 211.984C183.841 212.432 184.025 212.808 184.025 213.112C184.025 213.256 183.969 213.376 183.857 213.472C183.761 213.568 183.641 213.616 183.497 213.616H182.489C182.297 213.616 182.137 213.536 182.009 213.376C181.753 213.072 181.529 212.84 181.337 212.68C181.161 212.504 180.897 212.352 180.545 212.224C180.209 212.096 179.777 212.032 179.249 212.032C178.481 212.032 177.889 212.2 177.473 212.536C177.057 212.856 176.849 213.28 176.849 213.808C176.849 214.144 176.937 214.432 177.113 214.672C177.289 214.896 177.625 215.104 178.121 215.296C178.633 215.488 179.369 215.688 180.329 215.896C181.849 216.216 182.921 216.68 183.545 217.288C184.185 217.88 184.505 218.64 184.505 219.568C184.505 220.256 184.305 220.88 183.905 221.44C183.505 222 182.913 222.44 182.129 222.76C181.361 223.08 180.441 223.24 179.369 223.24ZM192.132 223C189.604 223 188.34 221.592 188.34 218.776V212.44H186.468C186.308 212.44 186.172 212.392 186.06 212.296C185.964 212.184 185.916 212.048 185.916 211.888V211.072C185.916 210.912 185.964 210.784 186.06 210.688C186.172 210.576 186.308 210.52 186.468 210.52H188.34V206.512C188.34 206.352 188.388 206.224 188.484 206.128C188.596 206.016 188.732 205.96 188.892 205.96H190.02C190.18 205.96 190.308 206.016 190.404 206.128C190.516 206.224 190.572 206.352 190.572 206.512V210.52H193.548C193.708 210.52 193.836 210.576 193.932 210.688C194.044 210.784 194.1 210.912 194.1 211.072V211.888C194.1 212.048 194.044 212.184 193.932 212.296C193.836 212.392 193.708 212.44 193.548 212.44H190.572V218.608C190.572 219.408 190.708 220.016 190.98 220.432C191.252 220.832 191.7 221.032 192.324 221.032H193.788C193.948 221.032 194.076 221.088 194.172 221.2C194.284 221.296 194.34 221.424 194.34 221.584V222.448C194.34 222.608 194.284 222.744 194.172 222.856C194.076 222.952 193.948 223 193.788 223H192.132ZM197.067 214.6C196.907 214.6 196.771 214.552 196.659 214.456C196.563 214.344 196.515 214.208 196.515 214.048V212.368C196.515 212.208 196.563 212.08 196.659 211.984C196.771 211.872 196.907 211.816 197.067 211.816H198.795C198.955 211.816 199.083 211.872 199.179 211.984C199.291 212.08 199.347 212.208 199.347 212.368V214.048C199.347 214.208 199.291 214.344 199.179 214.456C199.083 214.552 198.955 214.6 198.795 214.6H197.067ZM197.067 223C196.907 223 196.771 222.952 196.659 222.856C196.563 222.744 196.515 222.608 196.515 222.448V220.768C196.515 220.608 196.563 220.48 196.659 220.384C196.771 220.272 196.907 220.216 197.067 220.216H198.795C198.955 220.216 199.083 220.272 199.179 220.384C199.291 220.48 199.347 220.608 199.347 220.768V222.448C199.347 222.608 199.291 222.744 199.179 222.856C199.083 222.952 198.955 223 198.795 223H197.067Z" fill="black"/>
</svg>
