<svg width="1065" height="359" viewBox="0 0 1065 359" fill="none" xmlns="http://www.w3.org/2000/svg">
<rect x="0.5" y="0.5" width="876" height="358" fill="#F9F3F3" stroke="black"/>
<path d="M704.504 19.6943C704.167 20.1774 703.695 20.5397 703.089 20.7812C702.487 21.0182 701.785 21.1367 700.983 21.1367C700.172 21.1367 699.452 20.9476 698.823 20.5693C698.194 20.1865 697.707 19.6442 697.36 18.9424C697.019 18.2406 696.843 17.4271 696.834 16.502V15.6338C696.834 14.1344 697.183 12.9723 697.88 12.1475C698.582 11.3226 699.566 10.9102 700.833 10.9102C701.872 10.9102 702.708 11.1768 703.342 11.71C703.975 12.2386 704.363 12.9906 704.504 13.9658H703.191C702.945 12.6488 702.161 11.9902 700.84 11.9902C699.96 11.9902 699.293 12.3001 698.837 12.9199C698.386 13.5352 698.158 14.4284 698.153 15.5996V16.4131C698.153 17.5296 698.409 18.4183 698.919 19.0791C699.429 19.7354 700.12 20.0635 700.99 20.0635C701.482 20.0635 701.913 20.0088 702.282 19.8994C702.651 19.79 702.957 19.6055 703.198 19.3457V17.1104H700.895V16.0439H704.504V19.6943ZM707.874 21H706.609V10.5H707.874V21ZM709.569 17.2334C709.569 16.5088 709.711 15.8571 709.993 15.2783C710.28 14.6995 710.677 14.2529 711.183 13.9385C711.693 13.624 712.274 13.4668 712.926 13.4668C713.933 13.4668 714.746 13.8154 715.366 14.5127C715.991 15.21 716.303 16.1374 716.303 17.2949V17.3838C716.303 18.1038 716.164 18.751 715.886 19.3252C715.612 19.8949 715.218 20.3392 714.703 20.6582C714.193 20.9772 713.605 21.1367 712.939 21.1367C711.937 21.1367 711.123 20.7881 710.499 20.0908C709.879 19.3936 709.569 18.4707 709.569 17.3223V17.2334ZM710.841 17.3838C710.841 18.2041 711.03 18.8626 711.408 19.3594C711.791 19.8561 712.301 20.1045 712.939 20.1045C713.582 20.1045 714.092 19.8538 714.471 19.3525C714.849 18.8467 715.038 18.1403 715.038 17.2334C715.038 16.4222 714.844 15.766 714.457 15.2646C714.074 14.7588 713.564 14.5059 712.926 14.5059C712.301 14.5059 711.798 14.7542 711.415 15.251C711.032 15.7477 710.841 16.4587 710.841 17.3838ZM724.15 17.3838C724.15 18.514 723.891 19.4232 723.371 20.1113C722.852 20.7949 722.154 21.1367 721.279 21.1367C720.345 21.1367 719.623 20.8063 719.112 20.1455L719.051 21H717.889V10.5H719.153V14.417C719.664 13.7835 720.368 13.4668 721.266 13.4668C722.163 13.4668 722.868 13.8063 723.378 14.4854C723.893 15.1644 724.15 16.0941 724.15 17.2744V17.3838ZM722.886 17.2402C722.886 16.3789 722.719 15.7135 722.387 15.2441C722.054 14.7747 721.576 14.54 720.951 14.54C720.117 14.54 719.518 14.9274 719.153 15.7021V18.9014C719.541 19.6761 720.145 20.0635 720.965 20.0635C721.571 20.0635 722.043 19.8288 722.38 19.3594C722.717 18.89 722.886 18.1836 722.886 17.2402ZM730.316 21C730.243 20.8542 730.184 20.5944 730.139 20.2207C729.551 20.8314 728.849 21.1367 728.033 21.1367C727.304 21.1367 726.705 20.9316 726.235 20.5215C725.771 20.1068 725.538 19.5827 725.538 18.9492C725.538 18.179 725.83 17.582 726.413 17.1582C727.001 16.7298 727.826 16.5156 728.888 16.5156H730.118V15.9346C730.118 15.4925 729.986 15.1416 729.722 14.8818C729.457 14.6175 729.068 14.4854 728.553 14.4854C728.102 14.4854 727.723 14.5993 727.418 14.8271C727.113 15.055 726.96 15.3307 726.96 15.6543H725.688C725.688 15.2852 725.818 14.9297 726.078 14.5879C726.342 14.2415 726.698 13.9681 727.145 13.7676C727.596 13.5671 728.09 13.4668 728.628 13.4668C729.48 13.4668 730.148 13.681 730.631 14.1094C731.114 14.5332 731.365 15.1188 731.383 15.8662V19.2705C731.383 19.9495 731.469 20.4896 731.643 20.8906V21H730.316ZM728.218 20.0361C728.614 20.0361 728.99 19.9336 729.346 19.7285C729.701 19.5234 729.959 19.2568 730.118 18.9287V17.4111H729.127C727.577 17.4111 726.803 17.8646 726.803 18.7715C726.803 19.168 726.935 19.4779 727.199 19.7012C727.464 19.9245 727.803 20.0361 728.218 20.0361ZM734.739 21H733.475V10.5H734.739V21ZM745.608 11.0469L748.862 19.168L752.116 11.0469H753.818V21H752.506V17.124L752.629 12.9404L749.361 21H748.356L745.096 12.9609L745.226 17.124V21H743.913V11.0469H745.608ZM759.007 21.1367C758.004 21.1367 757.188 20.8086 756.56 20.1523C755.931 19.4915 755.616 18.6097 755.616 17.5068V17.2744C755.616 16.5407 755.755 15.8867 756.033 15.3125C756.316 14.7337 756.708 14.2826 757.209 13.959C757.715 13.6309 758.262 13.4668 758.85 13.4668C759.811 13.4668 760.559 13.7835 761.092 14.417C761.625 15.0505 761.892 15.9574 761.892 17.1377V17.6641H756.881C756.899 18.3932 757.111 18.9834 757.517 19.4346C757.927 19.8812 758.446 20.1045 759.075 20.1045C759.522 20.1045 759.9 20.0133 760.21 19.8311C760.52 19.6488 760.791 19.4072 761.023 19.1064L761.796 19.708C761.176 20.6605 760.246 21.1367 759.007 21.1367ZM758.85 14.5059C758.339 14.5059 757.911 14.6927 757.564 15.0664C757.218 15.4355 757.004 15.9551 756.922 16.625H760.627V16.5293C760.59 15.8867 760.417 15.39 760.107 15.0391C759.798 14.6836 759.378 14.5059 758.85 14.5059ZM764.551 13.6035L764.585 14.4238C765.127 13.7858 765.859 13.4668 766.779 13.4668C767.814 13.4668 768.518 13.8633 768.892 14.6562C769.138 14.3008 769.457 14.0137 769.849 13.7949C770.245 13.5762 770.712 13.4668 771.25 13.4668C772.872 13.4668 773.697 14.3258 773.725 16.0439V21H772.46V16.1191C772.46 15.5905 772.339 15.1963 772.098 14.9365C771.856 14.6722 771.451 14.54 770.881 14.54C770.411 14.54 770.022 14.6813 769.712 14.9639C769.402 15.2419 769.222 15.6178 769.172 16.0918V21H767.9V16.1533C767.9 15.0778 767.374 14.54 766.321 14.54C765.492 14.54 764.924 14.8932 764.619 15.5996V21H763.354V13.6035H764.551ZM775.304 17.2334C775.304 16.5088 775.445 15.8571 775.728 15.2783C776.015 14.6995 776.411 14.2529 776.917 13.9385C777.427 13.624 778.008 13.4668 778.66 13.4668C779.667 13.4668 780.481 13.8154 781.101 14.5127C781.725 15.21 782.037 16.1374 782.037 17.2949V17.3838C782.037 18.1038 781.898 18.751 781.62 19.3252C781.347 19.8949 780.952 20.3392 780.438 20.6582C779.927 20.9772 779.339 21.1367 778.674 21.1367C777.671 21.1367 776.858 20.7881 776.233 20.0908C775.614 19.3936 775.304 18.4707 775.304 17.3223V17.2334ZM776.575 17.3838C776.575 18.2041 776.764 18.8626 777.143 19.3594C777.525 19.8561 778.036 20.1045 778.674 20.1045C779.316 20.1045 779.827 19.8538 780.205 19.3525C780.583 18.8467 780.772 18.1403 780.772 17.2334C780.772 16.4222 780.579 15.766 780.191 15.2646C779.809 14.7588 779.298 14.5059 778.66 14.5059C778.036 14.5059 777.532 14.7542 777.149 15.251C776.767 15.7477 776.575 16.4587 776.575 17.3838ZM787.198 14.7383C787.007 14.7064 786.799 14.6904 786.576 14.6904C785.747 14.6904 785.184 15.0436 784.888 15.75V21H783.623V13.6035H784.854L784.874 14.458C785.289 13.7972 785.877 13.4668 786.638 13.4668C786.884 13.4668 787.071 13.4987 787.198 13.5625V14.7383ZM790.91 19.1475L792.633 13.6035H793.986L791.013 22.1416C790.552 23.3721 789.821 23.9873 788.818 23.9873L788.579 23.9668L788.107 23.8779V22.8525L788.449 22.8799C788.878 22.8799 789.21 22.7933 789.447 22.6201C789.689 22.4469 789.887 22.1302 790.042 21.6699L790.322 20.918L787.684 13.6035H789.064L790.91 19.1475Z" fill="black"/>
<rect x="883.5" y="79.5" width="181" height="279" fill="#F9F3F3" stroke="black"/>
<line x1="632.5" y1="0.997199" x2="634.5" y2="357.997" stroke="black"/>
<path d="M925.102 63.18C923.494 63.18 922.27 62.748 921.43 61.884C920.602 61.02 920.158 59.826 920.098 58.302C920.086 57.978 920.08 57.45 920.08 56.718C920.08 55.974 920.086 55.434 920.098 55.098C920.158 53.586 920.608 52.398 921.448 51.534C922.288 50.658 923.506 50.22 925.102 50.22C926.17 50.22 927.076 50.412 927.82 50.796C928.564 51.168 929.128 51.66 929.512 52.272C929.896 52.884 930.106 53.538 930.142 54.234V54.27C930.142 54.366 930.1 54.45 930.016 54.522C929.944 54.582 929.86 54.612 929.764 54.612H928.774C928.534 54.612 928.384 54.474 928.324 54.198C928.12 53.298 927.754 52.668 927.226 52.308C926.698 51.936 925.99 51.75 925.102 51.75C923.038 51.75 921.97 52.896 921.898 55.188C921.886 55.512 921.88 56.01 921.88 56.682C921.88 57.354 921.886 57.864 921.898 58.212C921.97 60.504 923.038 61.65 925.102 61.65C925.99 61.65 926.698 61.47 927.226 61.11C927.766 60.738 928.132 60.102 928.324 59.202C928.36 59.046 928.414 58.938 928.486 58.878C928.558 58.818 928.654 58.788 928.774 58.788H929.764C929.872 58.788 929.962 58.824 930.034 58.896C930.118 58.956 930.154 59.04 930.142 59.148C930.106 59.856 929.896 60.516 929.512 61.128C929.128 61.74 928.564 62.238 927.82 62.622C927.076 62.994 926.17 63.18 925.102 63.18ZM934.93 63.18C934.342 63.18 933.796 63.06 933.292 62.82C932.788 62.58 932.386 62.256 932.086 61.848C931.798 61.428 931.654 60.966 931.654 60.462C931.654 59.67 931.978 59.022 932.626 58.518C933.286 58.002 934.174 57.666 935.29 57.51L937.972 57.132V56.61C937.972 55.386 937.27 54.774 935.866 54.774C935.338 54.774 934.906 54.888 934.57 55.116C934.234 55.332 933.982 55.59 933.814 55.89C933.778 55.998 933.73 56.076 933.67 56.124C933.622 56.172 933.55 56.196 933.454 56.196H932.68C932.572 56.196 932.476 56.16 932.392 56.088C932.32 56.004 932.284 55.908 932.284 55.8C932.296 55.512 932.428 55.188 932.68 54.828C932.944 54.456 933.346 54.138 933.886 53.874C934.426 53.598 935.092 53.46 935.884 53.46C937.228 53.46 938.194 53.778 938.782 54.414C939.37 55.038 939.664 55.818 939.664 56.754V62.586C939.664 62.706 939.622 62.808 939.538 62.892C939.466 62.964 939.37 63 939.25 63H938.422C938.302 63 938.2 62.964 938.116 62.892C938.044 62.808 938.008 62.706 938.008 62.586V61.812C937.744 62.196 937.36 62.52 936.856 62.784C936.352 63.048 935.71 63.18 934.93 63.18ZM935.308 61.83C936.088 61.83 936.724 61.578 937.216 61.074C937.72 60.558 937.972 59.82 937.972 58.86V58.356L935.884 58.662C935.032 58.782 934.39 58.986 933.958 59.274C933.526 59.55 933.31 59.904 933.31 60.336C933.31 60.816 933.508 61.188 933.904 61.452C934.3 61.704 934.768 61.83 935.308 61.83ZM942.684 63C942.564 63 942.462 62.964 942.378 62.892C942.306 62.808 942.27 62.706 942.27 62.586V50.634C942.27 50.514 942.306 50.418 942.378 50.346C942.462 50.262 942.564 50.22 942.684 50.22H943.53C943.65 50.22 943.746 50.262 943.818 50.346C943.902 50.418 943.944 50.514 943.944 50.634V62.586C943.944 62.706 943.902 62.808 943.818 62.892C943.746 62.964 943.65 63 943.53 63H942.684ZM947.061 63C946.941 63 946.839 62.964 946.755 62.892C946.683 62.808 946.647 62.706 946.647 62.586V50.634C946.647 50.514 946.683 50.418 946.755 50.346C946.839 50.262 946.941 50.22 947.061 50.22H947.907C948.027 50.22 948.123 50.262 948.195 50.346C948.279 50.418 948.321 50.514 948.321 50.634V62.586C948.321 62.706 948.279 62.808 948.195 62.892C948.123 62.964 948.027 63 947.907 63H947.061ZM959.702 63.18C958.706 63.18 957.842 63.024 957.11 62.712C956.39 62.4 955.838 61.992 955.454 61.488C955.07 60.972 954.866 60.42 954.842 59.832C954.842 59.736 954.878 59.652 954.95 59.58C955.034 59.496 955.13 59.454 955.238 59.454H956.156C956.384 59.454 956.54 59.574 956.624 59.814C956.732 60.318 957.038 60.75 957.542 61.11C958.058 61.47 958.778 61.65 959.702 61.65C960.698 61.65 961.448 61.476 961.952 61.128C962.456 60.768 962.708 60.27 962.708 59.634C962.708 59.226 962.582 58.896 962.33 58.644C962.09 58.392 961.73 58.17 961.25 57.978C960.77 57.786 960.05 57.546 959.09 57.258C958.154 56.994 957.41 56.712 956.858 56.412C956.306 56.112 955.892 55.74 955.616 55.296C955.34 54.852 955.202 54.294 955.202 53.622C955.202 52.974 955.376 52.392 955.724 51.876C956.084 51.36 956.594 50.958 957.254 50.67C957.914 50.37 958.7 50.22 959.612 50.22C960.548 50.22 961.352 50.388 962.024 50.724C962.696 51.048 963.206 51.462 963.554 51.966C963.902 52.47 964.088 52.974 964.112 53.478C964.112 53.574 964.076 53.658 964.004 53.73C963.944 53.802 963.854 53.838 963.734 53.838H962.78C962.528 53.838 962.372 53.724 962.312 53.496C962.24 52.992 961.958 52.578 961.466 52.254C960.974 51.918 960.356 51.75 959.612 51.75C958.796 51.75 958.154 51.906 957.686 52.218C957.218 52.53 956.984 52.992 956.984 53.604C956.984 54.012 957.092 54.348 957.308 54.612C957.536 54.876 957.878 55.11 958.334 55.314C958.79 55.506 959.456 55.728 960.332 55.98C961.352 56.256 962.156 56.544 962.744 56.844C963.332 57.132 963.77 57.498 964.058 57.942C964.346 58.374 964.49 58.926 964.49 59.598C964.49 60.714 964.058 61.59 963.194 62.226C962.33 62.862 961.166 63.18 959.702 63.18ZM970.269 63C968.373 63 967.425 61.944 967.425 59.832V55.08H966.021C965.901 55.08 965.799 55.044 965.715 54.972C965.643 54.888 965.607 54.786 965.607 54.666V54.054C965.607 53.934 965.643 53.838 965.715 53.766C965.799 53.682 965.901 53.64 966.021 53.64H967.425V50.634C967.425 50.514 967.461 50.418 967.533 50.346C967.617 50.262 967.719 50.22 967.839 50.22H968.685C968.805 50.22 968.901 50.262 968.973 50.346C969.057 50.418 969.099 50.514 969.099 50.634V53.64H971.331C971.451 53.64 971.547 53.682 971.619 53.766C971.703 53.838 971.745 53.934 971.745 54.054V54.666C971.745 54.786 971.703 54.888 971.619 54.972C971.547 55.044 971.451 55.08 971.331 55.08H969.099V59.706C969.099 60.306 969.201 60.762 969.405 61.074C969.609 61.374 969.945 61.524 970.413 61.524H971.511C971.631 61.524 971.727 61.566 971.799 61.65C971.883 61.722 971.925 61.818 971.925 61.938V62.586C971.925 62.706 971.883 62.808 971.799 62.892C971.727 62.964 971.631 63 971.511 63H970.269ZM976.256 63.18C975.668 63.18 975.122 63.06 974.618 62.82C974.114 62.58 973.712 62.256 973.412 61.848C973.124 61.428 972.98 60.966 972.98 60.462C972.98 59.67 973.304 59.022 973.952 58.518C974.612 58.002 975.5 57.666 976.616 57.51L979.298 57.132V56.61C979.298 55.386 978.596 54.774 977.192 54.774C976.664 54.774 976.232 54.888 975.896 55.116C975.56 55.332 975.308 55.59 975.14 55.89C975.104 55.998 975.056 56.076 974.996 56.124C974.948 56.172 974.876 56.196 974.78 56.196H974.006C973.898 56.196 973.802 56.16 973.718 56.088C973.646 56.004 973.61 55.908 973.61 55.8C973.622 55.512 973.754 55.188 974.006 54.828C974.27 54.456 974.672 54.138 975.212 53.874C975.752 53.598 976.418 53.46 977.21 53.46C978.554 53.46 979.52 53.778 980.108 54.414C980.696 55.038 980.99 55.818 980.99 56.754V62.586C980.99 62.706 980.948 62.808 980.864 62.892C980.792 62.964 980.696 63 980.576 63H979.748C979.628 63 979.526 62.964 979.442 62.892C979.37 62.808 979.334 62.706 979.334 62.586V61.812C979.07 62.196 978.686 62.52 978.182 62.784C977.678 63.048 977.036 63.18 976.256 63.18ZM976.634 61.83C977.414 61.83 978.05 61.578 978.542 61.074C979.046 60.558 979.298 59.82 979.298 58.86V58.356L977.21 58.662C976.358 58.782 975.716 58.986 975.284 59.274C974.852 59.55 974.636 59.904 974.636 60.336C974.636 60.816 974.834 61.188 975.23 61.452C975.626 61.704 976.094 61.83 976.634 61.83ZM987.358 63.18C986.074 63.18 985.066 62.82 984.334 62.1C983.614 61.368 983.23 60.348 983.182 59.04L983.164 58.32L983.182 57.6C983.23 56.292 983.614 55.278 984.334 54.558C985.066 53.826 986.074 53.46 987.358 53.46C988.222 53.46 988.954 53.616 989.554 53.928C990.154 54.24 990.598 54.624 990.886 55.08C991.186 55.536 991.348 55.992 991.372 56.448C991.384 56.568 991.348 56.664 991.264 56.736C991.18 56.808 991.078 56.844 990.958 56.844H990.094C989.974 56.844 989.884 56.82 989.824 56.772C989.764 56.724 989.704 56.628 989.644 56.484C989.44 55.908 989.152 55.5 988.78 55.26C988.408 55.008 987.94 54.882 987.376 54.882C986.632 54.882 986.038 55.116 985.594 55.584C985.162 56.04 984.928 56.742 984.892 57.69L984.874 58.338L984.892 58.95C984.928 59.91 985.162 60.618 985.594 61.074C986.026 61.53 986.62 61.758 987.376 61.758C987.94 61.758 988.408 61.638 988.78 61.398C989.152 61.146 989.44 60.732 989.644 60.156C989.704 60.012 989.764 59.916 989.824 59.868C989.884 59.808 989.974 59.778 990.094 59.778H990.958C991.078 59.778 991.18 59.82 991.264 59.904C991.348 59.976 991.384 60.072 991.372 60.192C991.348 60.636 991.186 61.092 990.886 61.56C990.598 62.016 990.154 62.4 989.554 62.712C988.966 63.024 988.234 63.18 987.358 63.18ZM993.942 63C993.822 63 993.72 62.964 993.636 62.892C993.564 62.808 993.528 62.706 993.528 62.586V50.634C993.528 50.514 993.564 50.418 993.636 50.346C993.72 50.262 993.822 50.22 993.942 50.22H994.788C994.908 50.22 995.004 50.262 995.076 50.346C995.16 50.418 995.202 50.514 995.202 50.634V56.898L998.748 53.946C998.784 53.922 998.844 53.874 998.928 53.802C999.012 53.742 999.09 53.7 999.162 53.676C999.246 53.652 999.348 53.64 999.468 53.64H1000.42C1000.53 53.64 1000.62 53.676 1000.69 53.748C1000.76 53.82 1000.8 53.91 1000.8 54.018C1000.8 54.15 1000.73 54.264 1000.58 54.36L996.426 57.816L1001.03 62.298C1001.18 62.418 1001.25 62.526 1001.25 62.622C1001.25 62.73 1001.21 62.82 1001.14 62.892C1001.07 62.964 1000.98 63 1000.87 63H999.936C999.756 63 999.624 62.982 999.54 62.946C999.468 62.91 999.36 62.826 999.216 62.694L995.202 58.86V62.586C995.202 62.706 995.16 62.808 995.076 62.892C995.004 62.964 994.908 63 994.788 63H993.942Z" fill="black"/>
<path d="M911.408 347.12C910.552 347.12 909.88 346.88 909.392 346.4C908.912 345.912 908.656 345.232 908.624 344.36L908.612 343.88L908.624 343.4C908.656 342.528 908.912 341.852 909.392 341.372C909.88 340.884 910.552 340.64 911.408 340.64C911.984 340.64 912.472 340.744 912.872 340.952C913.272 341.16 913.568 341.416 913.76 341.72C913.96 342.024 914.068 342.328 914.084 342.632C914.092 342.712 914.068 342.776 914.012 342.824C913.956 342.872 913.888 342.896 913.808 342.896H913.232C913.152 342.896 913.092 342.88 913.052 342.848C913.012 342.816 912.972 342.752 912.932 342.656C912.796 342.272 912.604 342 912.356 341.84C912.108 341.672 911.796 341.588 911.42 341.588C910.924 341.588 910.528 341.744 910.232 342.056C909.944 342.36 909.788 342.828 909.764 343.46L909.752 343.892L909.764 344.3C909.788 344.94 909.944 345.412 910.232 345.716C910.52 346.02 910.916 346.172 911.42 346.172C911.796 346.172 912.108 346.092 912.356 345.932C912.604 345.764 912.796 345.488 912.932 345.104C912.972 345.008 913.012 344.944 913.052 344.912C913.092 344.872 913.152 344.852 913.232 344.852H913.808C913.888 344.852 913.956 344.88 914.012 344.936C914.068 344.984 914.092 345.048 914.084 345.128C914.068 345.424 913.96 345.728 913.76 346.04C913.568 346.344 913.272 346.6 912.872 346.808C912.48 347.016 911.992 347.12 911.408 347.12ZM918.065 347.12C917.185 347.12 916.501 346.872 916.013 346.376C915.533 345.88 915.277 345.22 915.245 344.396L915.233 343.88L915.245 343.364C915.277 342.548 915.537 341.892 916.025 341.396C916.513 340.892 917.193 340.64 918.065 340.64C918.937 340.64 919.617 340.892 920.105 341.396C920.593 341.892 920.853 342.548 920.885 343.364C920.893 343.452 920.897 343.624 920.897 343.88C920.897 344.136 920.893 344.308 920.885 344.396C920.853 345.22 920.593 345.88 920.105 346.376C919.625 346.872 918.945 347.12 918.065 347.12ZM918.065 346.196C918.569 346.196 918.965 346.036 919.253 345.716C919.549 345.396 919.709 344.936 919.733 344.336C919.741 344.256 919.745 344.104 919.745 343.88C919.745 343.656 919.741 343.504 919.733 343.424C919.709 342.824 919.549 342.364 919.253 342.044C918.965 341.724 918.569 341.564 918.065 341.564C917.561 341.564 917.161 341.724 916.865 342.044C916.569 342.364 916.413 342.824 916.397 343.424L916.385 343.88L916.397 344.336C916.413 344.936 916.569 345.396 916.865 345.716C917.161 346.036 917.561 346.196 918.065 346.196ZM922.688 349.28C922.608 349.28 922.54 349.252 922.484 349.196C922.436 349.148 922.412 349.084 922.412 349.004V341.036C922.412 340.956 922.436 340.892 922.484 340.844C922.54 340.788 922.608 340.76 922.688 340.76H923.24C923.32 340.76 923.384 340.788 923.432 340.844C923.488 340.892 923.516 340.956 923.516 341.036V341.564C923.964 340.948 924.62 340.64 925.484 340.64C926.324 340.64 926.952 340.904 927.368 341.432C927.792 341.96 928.02 342.64 928.052 343.472C928.06 343.56 928.064 343.696 928.064 343.88C928.064 344.064 928.06 344.2 928.052 344.288C928.02 345.112 927.792 345.792 927.368 346.328C926.944 346.856 926.316 347.12 925.484 347.12C924.652 347.12 924.004 346.82 923.54 346.22V349.004C923.54 349.084 923.516 349.148 923.468 349.196C923.42 349.252 923.356 349.28 923.276 349.28H922.688ZM925.232 346.148C925.8 346.148 926.212 345.972 926.468 345.62C926.732 345.268 926.876 344.804 926.9 344.228C926.908 344.148 926.912 344.032 926.912 343.88C926.912 342.368 926.352 341.612 925.232 341.612C924.68 341.612 924.264 341.796 923.984 342.164C923.712 342.524 923.564 342.956 923.54 343.46L923.528 343.916L923.54 344.384C923.556 344.856 923.708 345.268 923.996 345.62C924.284 345.972 924.696 346.148 925.232 346.148ZM930.406 349.28C930.342 349.28 930.286 349.256 930.238 349.208C930.19 349.16 930.166 349.104 930.166 349.04C930.166 348.984 930.186 348.912 930.226 348.824L931.15 346.628L928.858 341.216C928.818 341.112 928.798 341.044 928.798 341.012C928.798 340.94 928.822 340.88 928.87 340.832C928.918 340.784 928.978 340.76 929.05 340.76H929.638C929.766 340.76 929.862 340.828 929.926 340.964L931.75 345.332L933.622 340.964C933.686 340.828 933.786 340.76 933.922 340.76H934.486C934.558 340.76 934.618 340.784 934.666 340.832C934.714 340.88 934.738 340.936 934.738 341C934.738 341.024 934.718 341.096 934.678 341.216L931.27 349.076C931.206 349.212 931.106 349.28 930.97 349.28H930.406ZM935.117 347C935.053 347 934.997 346.976 934.949 346.928C934.901 346.88 934.877 346.824 934.877 346.76C934.877 346.696 934.881 346.652 934.889 346.628L937.865 338.864C937.929 338.688 938.057 338.6 938.249 338.6H939.065C939.257 338.6 939.385 338.688 939.449 338.864L942.413 346.628L942.437 346.76C942.437 346.824 942.413 346.88 942.365 346.928C942.317 346.976 942.261 347 942.197 347H941.585C941.497 347 941.429 346.98 941.381 346.94C941.333 346.892 941.301 346.844 941.285 346.796L940.625 345.092H936.689L936.029 346.796C936.013 346.844 935.977 346.892 935.921 346.94C935.873 346.98 935.809 347 935.729 347H935.117ZM940.277 344.06L938.657 339.8L937.037 344.06H940.277ZM943.84 347C943.76 347 943.692 346.976 943.636 346.928C943.588 346.872 943.564 346.804 943.564 346.724V341.048C943.564 340.968 943.588 340.9 943.636 340.844C943.692 340.788 943.76 340.76 943.84 340.76H944.392C944.472 340.76 944.54 340.788 944.596 340.844C944.652 340.9 944.68 340.968 944.68 341.048V341.576C945.008 341.032 945.568 340.76 946.36 340.76H946.828C946.908 340.76 946.972 340.788 947.02 340.844C947.076 340.892 947.104 340.956 947.104 341.036V341.528C947.104 341.608 947.076 341.672 947.02 341.72C946.972 341.768 946.908 341.792 946.828 341.792H946.108C945.676 341.792 945.336 341.92 945.088 342.176C944.84 342.424 944.716 342.764 944.716 343.196V346.724C944.716 346.804 944.688 346.872 944.632 346.928C944.576 346.976 944.508 347 944.428 347H943.84ZM948.398 347C948.318 347 948.25 346.976 948.194 346.928C948.146 346.872 948.122 346.804 948.122 346.724V341.048C948.122 340.968 948.146 340.9 948.194 340.844C948.25 340.788 948.318 340.76 948.398 340.76H948.95C949.03 340.76 949.098 340.788 949.154 340.844C949.21 340.9 949.238 340.968 949.238 341.048V341.576C949.566 341.032 950.126 340.76 950.918 340.76H951.386C951.466 340.76 951.53 340.788 951.578 340.844C951.634 340.892 951.662 340.956 951.662 341.036V341.528C951.662 341.608 951.634 341.672 951.578 341.72C951.53 341.768 951.466 341.792 951.386 341.792H950.666C950.234 341.792 949.894 341.92 949.646 342.176C949.398 342.424 949.274 342.764 949.274 343.196V346.724C949.274 346.804 949.246 346.872 949.19 346.928C949.134 346.976 949.066 347 948.986 347H948.398ZM954.327 347.12C953.935 347.12 953.571 347.04 953.235 346.88C952.899 346.72 952.631 346.504 952.431 346.232C952.239 345.952 952.143 345.644 952.143 345.308C952.143 344.78 952.359 344.348 952.791 344.012C953.231 343.668 953.823 343.444 954.567 343.34L956.355 343.088V342.74C956.355 341.924 955.887 341.516 954.951 341.516C954.599 341.516 954.311 341.592 954.087 341.744C953.863 341.888 953.695 342.06 953.583 342.26C953.559 342.332 953.527 342.384 953.487 342.416C953.455 342.448 953.407 342.464 953.343 342.464H952.827C952.755 342.464 952.691 342.44 952.635 342.392C952.587 342.336 952.563 342.272 952.563 342.2C952.571 342.008 952.659 341.792 952.827 341.552C953.003 341.304 953.271 341.092 953.631 340.916C953.991 340.732 954.435 340.64 954.963 340.64C955.859 340.64 956.503 340.852 956.895 341.276C957.287 341.692 957.483 342.212 957.483 342.836V346.724C957.483 346.804 957.455 346.872 957.399 346.928C957.351 346.976 957.287 347 957.207 347H956.655C956.575 347 956.507 346.976 956.451 346.928C956.403 346.872 956.379 346.804 956.379 346.724V346.208C956.203 346.464 955.947 346.68 955.611 346.856C955.275 347.032 954.847 347.12 954.327 347.12ZM954.579 346.22C955.099 346.22 955.523 346.052 955.851 345.716C956.187 345.372 956.355 344.88 956.355 344.24V343.904L954.963 344.108C954.395 344.188 953.967 344.324 953.679 344.516C953.391 344.7 953.247 344.936 953.247 345.224C953.247 345.544 953.379 345.792 953.643 345.968C953.907 346.136 954.219 346.22 954.579 346.22ZM960.171 349.28C960.107 349.28 960.051 349.256 960.003 349.208C959.955 349.16 959.931 349.104 959.931 349.04C959.931 348.984 959.951 348.912 959.991 348.824L960.915 346.628L958.623 341.216C958.583 341.112 958.563 341.044 958.563 341.012C958.563 340.94 958.587 340.88 958.635 340.832C958.683 340.784 958.743 340.76 958.815 340.76H959.403C959.531 340.76 959.627 340.828 959.691 340.964L961.515 345.332L963.387 340.964C963.451 340.828 963.551 340.76 963.687 340.76H964.251C964.323 340.76 964.383 340.784 964.431 340.832C964.479 340.88 964.503 340.936 964.503 341C964.503 341.024 964.483 341.096 964.443 341.216L961.035 349.076C960.971 349.212 960.871 349.28 960.735 349.28H960.171ZM966.133 347C966.053 347 965.985 346.976 965.929 346.928C965.881 346.872 965.857 346.804 965.857 346.724V338.888C965.857 338.8 965.881 338.732 965.929 338.684C965.985 338.628 966.053 338.6 966.133 338.6H966.733C966.861 338.6 966.965 338.664 967.045 338.792L969.577 343.64L972.133 338.792C972.149 338.744 972.181 338.7 972.229 338.66C972.285 338.62 972.353 338.6 972.433 338.6H973.021C973.109 338.6 973.177 338.628 973.225 338.684C973.281 338.732 973.309 338.8 973.309 338.888V346.724C973.309 346.804 973.281 346.872 973.225 346.928C973.169 346.976 973.101 347 973.021 347H972.433C972.353 347 972.285 346.976 972.229 346.928C972.181 346.872 972.157 346.804 972.157 346.724V340.82L970.153 344.732C970.073 344.9 969.945 344.984 969.769 344.984H969.397C969.221 344.984 969.093 344.9 969.013 344.732L966.997 340.82V346.724C966.997 346.804 966.969 346.872 966.913 346.928C966.865 346.976 966.801 347 966.721 347H966.133ZM977.556 347.12C976.796 347.12 976.208 346.876 975.792 346.388C975.376 345.892 975.168 345.236 975.168 344.42V341.036C975.168 340.956 975.192 340.892 975.24 340.844C975.296 340.788 975.364 340.76 975.444 340.76H976.044C976.124 340.76 976.188 340.788 976.236 340.844C976.292 340.892 976.32 340.956 976.32 341.036V344.36C976.32 345.552 976.84 346.148 977.88 346.148C978.384 346.148 978.784 345.992 979.08 345.68C979.376 345.36 979.524 344.92 979.524 344.36V341.036C979.524 340.956 979.548 340.892 979.596 340.844C979.652 340.788 979.72 340.76 979.8 340.76H980.4C980.48 340.76 980.544 340.788 980.592 340.844C980.64 340.892 980.664 340.956 980.664 341.036V346.724C980.664 346.804 980.64 346.872 980.592 346.928C980.544 346.976 980.48 347 980.4 347H979.836C979.756 347 979.688 346.976 979.632 346.928C979.584 346.872 979.56 346.804 979.56 346.724V346.196C979.336 346.5 979.064 346.732 978.744 346.892C978.424 347.044 978.028 347.12 977.556 347.12ZM982.735 347C982.655 347 982.587 346.976 982.531 346.928C982.483 346.872 982.459 346.804 982.459 346.724V338.756C982.459 338.676 982.483 338.612 982.531 338.564C982.587 338.508 982.655 338.48 982.735 338.48H983.299C983.379 338.48 983.443 338.508 983.491 338.564C983.547 338.612 983.575 338.676 983.575 338.756V346.724C983.575 346.804 983.547 346.872 983.491 346.928C983.443 346.976 983.379 347 983.299 347H982.735ZM987.801 347C986.537 347 985.905 346.296 985.905 344.888V341.72H984.969C984.889 341.72 984.821 341.696 984.765 341.648C984.717 341.592 984.693 341.524 984.693 341.444V341.036C984.693 340.956 984.717 340.892 984.765 340.844C984.821 340.788 984.889 340.76 984.969 340.76H985.905V338.756C985.905 338.676 985.929 338.612 985.977 338.564C986.033 338.508 986.101 338.48 986.181 338.48H986.745C986.825 338.48 986.889 338.508 986.937 338.564C986.993 338.612 987.021 338.676 987.021 338.756V340.76H988.509C988.589 340.76 988.653 340.788 988.701 340.844C988.757 340.892 988.785 340.956 988.785 341.036V341.444C988.785 341.524 988.757 341.592 988.701 341.648C988.653 341.696 988.589 341.72 988.509 341.72H987.021V344.804C987.021 345.204 987.089 345.508 987.225 345.716C987.361 345.916 987.585 346.016 987.897 346.016H988.629C988.709 346.016 988.773 346.044 988.821 346.1C988.877 346.148 988.905 346.212 988.905 346.292V346.724C988.905 346.804 988.877 346.872 988.821 346.928C988.773 346.976 988.709 347 988.629 347H987.801ZM990.232 339.596C990.152 339.596 990.084 339.572 990.028 339.524C989.98 339.468 989.956 339.4 989.956 339.32V338.672C989.956 338.592 989.98 338.524 990.028 338.468C990.084 338.412 990.152 338.384 990.232 338.384H990.988C991.068 338.384 991.136 338.412 991.192 338.468C991.248 338.524 991.276 338.592 991.276 338.672V339.32C991.276 339.4 991.248 339.468 991.192 339.524C991.136 339.572 991.068 339.596 990.988 339.596H990.232ZM990.328 347C990.248 347 990.18 346.976 990.124 346.928C990.076 346.872 990.052 346.804 990.052 346.724V341.036C990.052 340.956 990.076 340.892 990.124 340.844C990.18 340.788 990.248 340.76 990.328 340.76H990.904C990.984 340.76 991.048 340.788 991.096 340.844C991.152 340.892 991.18 340.956 991.18 341.036V346.724C991.18 346.804 991.152 346.872 991.096 346.928C991.048 346.976 990.984 347 990.904 347H990.328ZM993.246 349.28C993.166 349.28 993.098 349.252 993.042 349.196C992.994 349.148 992.97 349.084 992.97 349.004V341.036C992.97 340.956 992.994 340.892 993.042 340.844C993.098 340.788 993.166 340.76 993.246 340.76H993.798C993.878 340.76 993.942 340.788 993.99 340.844C994.046 340.892 994.074 340.956 994.074 341.036V341.564C994.522 340.948 995.178 340.64 996.042 340.64C996.882 340.64 997.51 340.904 997.926 341.432C998.35 341.96 998.578 342.64 998.61 343.472C998.618 343.56 998.622 343.696 998.622 343.88C998.622 344.064 998.618 344.2 998.61 344.288C998.578 345.112 998.35 345.792 997.926 346.328C997.502 346.856 996.874 347.12 996.042 347.12C995.21 347.12 994.562 346.82 994.098 346.22V349.004C994.098 349.084 994.074 349.148 994.026 349.196C993.978 349.252 993.914 349.28 993.834 349.28H993.246ZM995.79 346.148C996.358 346.148 996.77 345.972 997.026 345.62C997.29 345.268 997.434 344.804 997.458 344.228C997.466 344.148 997.47 344.032 997.47 343.88C997.47 342.368 996.91 341.612 995.79 341.612C995.238 341.612 994.822 341.796 994.542 342.164C994.27 342.524 994.122 342.956 994.098 343.46L994.086 343.916L994.098 344.384C994.114 344.856 994.266 345.268 994.554 345.62C994.842 345.972 995.254 346.148 995.79 346.148ZM1000.39 347C1000.31 347 1000.25 346.976 1000.19 346.928C1000.14 346.872 1000.12 346.804 1000.12 346.724V338.756C1000.12 338.676 1000.14 338.612 1000.19 338.564C1000.25 338.508 1000.31 338.48 1000.39 338.48H1000.96C1001.04 338.48 1001.1 338.508 1001.15 338.564C1001.21 338.612 1001.23 338.676 1001.23 338.756V346.724C1001.23 346.804 1001.21 346.872 1001.15 346.928C1001.1 346.976 1001.04 347 1000.96 347H1000.39ZM1004.12 349.28C1004.05 349.28 1004 349.256 1003.95 349.208C1003.9 349.16 1003.88 349.104 1003.88 349.04C1003.88 348.984 1003.9 348.912 1003.94 348.824L1004.86 346.628L1002.57 341.216C1002.53 341.112 1002.51 341.044 1002.51 341.012C1002.51 340.94 1002.53 340.88 1002.58 340.832C1002.63 340.784 1002.69 340.76 1002.76 340.76H1003.35C1003.48 340.76 1003.57 340.828 1003.64 340.964L1005.46 345.332L1007.33 340.964C1007.4 340.828 1007.5 340.76 1007.63 340.76H1008.2C1008.27 340.76 1008.33 340.784 1008.38 340.832C1008.42 340.88 1008.45 340.936 1008.45 341C1008.45 341.024 1008.43 341.096 1008.39 341.216L1004.98 349.076C1004.92 349.212 1004.82 349.28 1004.68 349.28H1004.12ZM1010.08 347C1010 347 1009.93 346.976 1009.87 346.928C1009.83 346.872 1009.8 346.804 1009.8 346.724V338.888C1009.8 338.8 1009.83 338.732 1009.87 338.684C1009.93 338.628 1010 338.6 1010.08 338.6H1013.37C1014.22 338.6 1014.87 338.804 1015.3 339.212C1015.73 339.62 1015.95 340.156 1015.95 340.82C1015.95 341.268 1015.84 341.64 1015.63 341.936C1015.43 342.232 1015.19 342.448 1014.91 342.584C1015.25 342.752 1015.53 343.012 1015.77 343.364C1016 343.716 1016.11 344.12 1016.11 344.576C1016.11 345.024 1016.01 345.432 1015.8 345.8C1015.6 346.168 1015.3 346.46 1014.9 346.676C1014.5 346.892 1014.02 347 1013.46 347H1010.08ZM1013.19 342.152C1013.69 342.152 1014.07 342.036 1014.34 341.804C1014.61 341.572 1014.75 341.248 1014.75 340.832C1014.75 340.424 1014.61 340.112 1014.35 339.896C1014.09 339.68 1013.7 339.572 1013.19 339.572H1010.98V342.152H1013.19ZM1013.31 346.028C1013.81 346.028 1014.2 345.892 1014.48 345.62C1014.77 345.348 1014.91 345 1014.91 344.576C1014.91 344.136 1014.77 343.784 1014.48 343.52C1014.2 343.248 1013.81 343.112 1013.31 343.112H1010.98V346.028H1013.31ZM1018.75 349.28C1018.69 349.28 1018.63 349.256 1018.59 349.208C1018.54 349.16 1018.51 349.104 1018.51 349.04C1018.51 348.984 1018.53 348.912 1018.57 348.824L1019.5 346.628L1017.21 341.216C1017.17 341.112 1017.15 341.044 1017.15 341.012C1017.15 340.94 1017.17 340.88 1017.22 340.832C1017.27 340.784 1017.33 340.76 1017.4 340.76H1017.99C1018.11 340.76 1018.21 340.828 1018.27 340.964L1020.1 345.332L1021.97 340.964C1022.03 340.828 1022.13 340.76 1022.27 340.76H1022.83C1022.91 340.76 1022.97 340.784 1023.01 340.832C1023.06 340.88 1023.09 340.936 1023.09 341C1023.09 341.024 1023.07 341.096 1023.03 341.216L1019.62 349.076C1019.55 349.212 1019.45 349.28 1019.32 349.28H1018.75ZM1024.26 347C1024.18 347 1024.11 346.976 1024.05 346.928C1024.01 346.872 1023.98 346.804 1023.98 346.724V346.34C1023.98 346.156 1024.08 345.98 1024.28 345.812L1026.83 343.268C1027.44 342.756 1027.87 342.34 1028.1 342.02C1028.33 341.692 1028.45 341.348 1028.45 340.988C1028.45 340.524 1028.31 340.16 1028.05 339.896C1027.79 339.632 1027.42 339.5 1026.92 339.5C1026.46 339.5 1026.09 339.64 1025.81 339.92C1025.53 340.192 1025.35 340.556 1025.29 341.012C1025.27 341.108 1025.23 341.18 1025.17 341.228C1025.11 341.268 1025.05 341.288 1024.98 341.288H1024.35C1024.28 341.288 1024.22 341.268 1024.17 341.228C1024.13 341.18 1024.1 341.124 1024.1 341.06C1024.12 340.628 1024.23 340.216 1024.45 339.824C1024.67 339.424 1024.98 339.1 1025.4 338.852C1025.82 338.596 1026.33 338.468 1026.92 338.468C1027.83 338.468 1028.51 338.704 1028.96 339.176C1029.43 339.64 1029.66 340.232 1029.66 340.952C1029.66 341.456 1029.53 341.912 1029.27 342.32C1029.03 342.72 1028.64 343.152 1028.11 343.616L1025.81 345.956H1029.55C1029.64 345.956 1029.71 345.984 1029.75 346.04C1029.81 346.088 1029.84 346.152 1029.84 346.232V346.724C1029.84 346.804 1029.81 346.872 1029.75 346.928C1029.7 346.976 1029.63 347 1029.55 347H1024.26ZM1033.93 348.908C1033.24 348.908 1032.69 348.712 1032.27 348.32C1031.87 347.928 1031.57 347.324 1031.39 346.508C1031.21 345.692 1031.12 344.62 1031.12 343.292C1031.12 341.964 1031.21 340.892 1031.39 340.076C1031.57 339.26 1031.87 338.66 1032.27 338.276C1032.69 337.884 1033.24 337.688 1033.93 337.688C1034.01 337.688 1034.07 337.716 1034.12 337.772C1034.18 337.82 1034.21 337.884 1034.21 337.964V338.384C1034.21 338.456 1034.18 338.52 1034.13 338.576C1034.09 338.632 1034.03 338.66 1033.97 338.66C1033.51 338.668 1033.15 338.82 1032.9 339.116C1032.64 339.412 1032.46 339.892 1032.35 340.556C1032.23 341.22 1032.18 342.132 1032.18 343.292C1032.18 344.452 1032.23 345.364 1032.35 346.028C1032.46 346.692 1032.64 347.172 1032.9 347.468C1033.15 347.772 1033.51 347.928 1033.97 347.936C1034.03 347.936 1034.09 347.964 1034.13 348.02C1034.18 348.076 1034.21 348.14 1034.21 348.212V348.632C1034.21 348.712 1034.18 348.776 1034.12 348.824C1034.07 348.88 1034.01 348.908 1033.93 348.908ZM1035.07 348.908C1035 348.908 1034.93 348.88 1034.88 348.824C1034.82 348.776 1034.79 348.712 1034.79 348.632V348.212C1034.79 348.14 1034.82 348.076 1034.86 348.02C1034.92 347.964 1034.98 347.936 1035.04 347.936C1035.49 347.928 1035.84 347.772 1036.1 347.468C1036.36 347.172 1036.55 346.692 1036.66 346.028C1036.78 345.364 1036.83 344.452 1036.83 343.292C1036.83 342.132 1036.78 341.22 1036.66 340.556C1036.55 339.892 1036.36 339.412 1036.1 339.116C1035.84 338.82 1035.49 338.668 1035.04 338.66C1034.98 338.66 1034.92 338.632 1034.86 338.576C1034.82 338.52 1034.79 338.456 1034.79 338.384V337.964C1034.79 337.884 1034.82 337.82 1034.88 337.772C1034.93 337.716 1035 337.688 1035.07 337.688C1035.76 337.688 1036.32 337.884 1036.72 338.276C1037.13 338.66 1037.42 339.26 1037.6 340.076C1037.78 340.884 1037.88 341.956 1037.88 343.292C1037.88 344.628 1037.78 345.704 1037.6 346.52C1037.42 347.328 1037.13 347.928 1036.72 348.32C1036.32 348.712 1035.76 348.908 1035.07 348.908Z" fill="black"/>
<path d="M644.124 63.11C643.339 63.11 642.723 62.89 642.276 62.45C641.836 62.0027 641.601 61.3793 641.572 60.58L641.561 60.14L641.572 59.7C641.601 58.9007 641.836 58.281 642.276 57.841C642.723 57.3937 643.339 57.17 644.124 57.17C644.652 57.17 645.099 57.2653 645.466 57.456C645.833 57.6467 646.104 57.8813 646.28 58.16C646.463 58.4387 646.562 58.7173 646.577 58.996C646.584 59.0693 646.562 59.128 646.511 59.172C646.46 59.216 646.397 59.238 646.324 59.238H645.796C645.723 59.238 645.668 59.2233 645.631 59.194C645.594 59.1647 645.558 59.106 645.521 59.018C645.396 58.666 645.22 58.4167 644.993 58.27C644.766 58.116 644.48 58.039 644.135 58.039C643.68 58.039 643.317 58.182 643.046 58.468C642.782 58.7467 642.639 59.1757 642.617 59.755L642.606 60.151L642.617 60.525C642.639 61.1117 642.782 61.5443 643.046 61.823C643.31 62.1017 643.673 62.241 644.135 62.241C644.48 62.241 644.766 62.1677 644.993 62.021C645.22 61.867 645.396 61.614 645.521 61.262C645.558 61.174 645.594 61.1153 645.631 61.086C645.668 61.0493 645.723 61.031 645.796 61.031H646.324C646.397 61.031 646.46 61.0567 646.511 61.108C646.562 61.152 646.584 61.2107 646.577 61.284C646.562 61.5553 646.463 61.834 646.28 62.12C646.104 62.3987 645.833 62.6333 645.466 62.824C645.107 63.0147 644.659 63.11 644.124 63.11ZM650.226 63.11C649.42 63.11 648.793 62.8827 648.345 62.428C647.905 61.9733 647.671 61.3683 647.641 60.613L647.63 60.14L647.641 59.667C647.671 58.919 647.909 58.3177 648.356 57.863C648.804 57.401 649.427 57.17 650.226 57.17C651.026 57.17 651.649 57.401 652.096 57.863C652.544 58.3177 652.782 58.919 652.811 59.667C652.819 59.7477 652.822 59.9053 652.822 60.14C652.822 60.3747 652.819 60.5323 652.811 60.613C652.782 61.3683 652.544 61.9733 652.096 62.428C651.656 62.8827 651.033 63.11 650.226 63.11ZM650.226 62.263C650.688 62.263 651.051 62.1163 651.315 61.823C651.587 61.5297 651.733 61.108 651.755 60.558C651.763 60.4847 651.766 60.3453 651.766 60.14C651.766 59.9347 651.763 59.7953 651.755 59.722C651.733 59.172 651.587 58.7503 651.315 58.457C651.051 58.1637 650.688 58.017 650.226 58.017C649.764 58.017 649.398 58.1637 649.126 58.457C648.855 58.7503 648.712 59.172 648.697 59.722L648.686 60.14L648.697 60.558C648.712 61.108 648.855 61.5297 649.126 61.823C649.398 62.1163 649.764 62.263 650.226 62.263ZM654.464 65.09C654.39 65.09 654.328 65.0643 654.277 65.013C654.233 64.969 654.211 64.9103 654.211 64.837V57.533C654.211 57.4597 654.233 57.401 654.277 57.357C654.328 57.3057 654.39 57.28 654.464 57.28H654.97C655.043 57.28 655.102 57.3057 655.146 57.357C655.197 57.401 655.223 57.4597 655.223 57.533V58.017C655.633 57.4523 656.235 57.17 657.027 57.17C657.797 57.17 658.372 57.412 658.754 57.896C659.142 58.38 659.351 59.0033 659.381 59.766C659.388 59.8467 659.392 59.9713 659.392 60.14C659.392 60.3087 659.388 60.4333 659.381 60.514C659.351 61.2693 659.142 61.8927 658.754 62.384C658.365 62.868 657.789 63.11 657.027 63.11C656.264 63.11 655.67 62.835 655.245 62.285V64.837C655.245 64.9103 655.223 64.969 655.179 65.013C655.135 65.0643 655.076 65.09 655.003 65.09H654.464ZM656.796 62.219C657.316 62.219 657.694 62.0577 657.929 61.735C658.171 61.4123 658.303 60.987 658.325 60.459C658.332 60.3857 658.336 60.2793 658.336 60.14C658.336 58.754 657.822 58.061 656.796 58.061C656.29 58.061 655.908 58.2297 655.652 58.567C655.402 58.897 655.267 59.293 655.245 59.755L655.234 60.173L655.245 60.602C655.259 61.0347 655.399 61.4123 655.663 61.735C655.927 62.0577 656.304 62.219 656.796 62.219ZM661.539 65.09C661.48 65.09 661.429 65.068 661.385 65.024C661.341 64.98 661.319 64.9287 661.319 64.87C661.319 64.8187 661.337 64.7527 661.374 64.672L662.221 62.659L660.12 57.698C660.083 57.6027 660.065 57.5403 660.065 57.511C660.065 57.445 660.087 57.39 660.131 57.346C660.175 57.302 660.23 57.28 660.296 57.28H660.835C660.952 57.28 661.04 57.3423 661.099 57.467L662.771 61.471L664.487 57.467C664.545 57.3423 664.637 57.28 664.762 57.28H665.279C665.345 57.28 665.4 57.302 665.444 57.346C665.488 57.39 665.51 57.4413 665.51 57.5C665.51 57.522 665.491 57.588 665.455 57.698L662.331 64.903C662.272 65.0277 662.18 65.09 662.056 65.09H661.539ZM665.857 63C665.798 63 665.747 62.978 665.703 62.934C665.659 62.89 665.637 62.8387 665.637 62.78C665.637 62.7213 665.641 62.681 665.648 62.659L668.376 55.542C668.435 55.3807 668.552 55.3 668.728 55.3H669.476C669.652 55.3 669.769 55.3807 669.828 55.542L672.545 62.659L672.567 62.78C672.567 62.8387 672.545 62.89 672.501 62.934C672.457 62.978 672.406 63 672.347 63H671.786C671.705 63 671.643 62.9817 671.599 62.945C671.555 62.901 671.526 62.857 671.511 62.813L670.906 61.251H667.298L666.693 62.813C666.678 62.857 666.645 62.901 666.594 62.945C666.55 62.9817 666.491 63 666.418 63H665.857ZM670.587 60.305L669.102 56.4L667.617 60.305H670.587ZM673.853 63C673.78 63 673.717 62.978 673.666 62.934C673.622 62.8827 673.6 62.8203 673.6 62.747V57.544C673.6 57.4707 673.622 57.4083 673.666 57.357C673.717 57.3057 673.78 57.28 673.853 57.28H674.359C674.432 57.28 674.495 57.3057 674.546 57.357C674.597 57.4083 674.623 57.4707 674.623 57.544V58.028C674.924 57.5293 675.437 57.28 676.163 57.28H676.592C676.665 57.28 676.724 57.3057 676.768 57.357C676.819 57.401 676.845 57.4597 676.845 57.533V57.984C676.845 58.0573 676.819 58.116 676.768 58.16C676.724 58.204 676.665 58.226 676.592 58.226H675.932C675.536 58.226 675.224 58.3433 674.997 58.578C674.77 58.8053 674.656 59.117 674.656 59.513V62.747C674.656 62.8203 674.63 62.8827 674.579 62.934C674.528 62.978 674.465 63 674.392 63H673.853ZM678.032 63C677.959 63 677.896 62.978 677.845 62.934C677.801 62.8827 677.779 62.8203 677.779 62.747V57.544C677.779 57.4707 677.801 57.4083 677.845 57.357C677.896 57.3057 677.959 57.28 678.032 57.28H678.538C678.611 57.28 678.674 57.3057 678.725 57.357C678.776 57.4083 678.802 57.4707 678.802 57.544V58.028C679.103 57.5293 679.616 57.28 680.342 57.28H680.771C680.844 57.28 680.903 57.3057 680.947 57.357C680.998 57.401 681.024 57.4597 681.024 57.533V57.984C681.024 58.0573 680.998 58.116 680.947 58.16C680.903 58.204 680.844 58.226 680.771 58.226H680.111C679.715 58.226 679.403 58.3433 679.176 58.578C678.949 58.8053 678.835 59.117 678.835 59.513V62.747C678.835 62.8203 678.809 62.8827 678.758 62.934C678.707 62.978 678.644 63 678.571 63H678.032ZM683.467 63.11C683.107 63.11 682.774 63.0367 682.466 62.89C682.158 62.7433 681.912 62.5453 681.729 62.296C681.553 62.0393 681.465 61.757 681.465 61.449C681.465 60.965 681.663 60.569 682.059 60.261C682.462 59.9457 683.005 59.7403 683.687 59.645L685.326 59.414V59.095C685.326 58.347 684.897 57.973 684.039 57.973C683.716 57.973 683.452 58.0427 683.247 58.182C683.041 58.314 682.887 58.4717 682.785 58.655C682.763 58.721 682.733 58.7687 682.697 58.798C682.667 58.8273 682.623 58.842 682.565 58.842H682.092C682.026 58.842 681.967 58.82 681.916 58.776C681.872 58.7247 681.85 58.666 681.85 58.6C681.857 58.424 681.938 58.226 682.092 58.006C682.253 57.7787 682.499 57.5843 682.829 57.423C683.159 57.2543 683.566 57.17 684.05 57.17C684.871 57.17 685.461 57.3643 685.821 57.753C686.18 58.1343 686.36 58.611 686.36 59.183V62.747C686.36 62.8203 686.334 62.8827 686.283 62.934C686.239 62.978 686.18 63 686.107 63H685.601C685.527 63 685.465 62.978 685.414 62.934C685.37 62.8827 685.348 62.8203 685.348 62.747V62.274C685.186 62.5087 684.952 62.7067 684.644 62.868C684.336 63.0293 683.943 63.11 683.467 63.11ZM683.698 62.285C684.174 62.285 684.563 62.131 684.864 61.823C685.172 61.5077 685.326 61.0567 685.326 60.47V60.162L684.05 60.349C683.529 60.4223 683.137 60.547 682.873 60.723C682.609 60.8917 682.477 61.108 682.477 61.372C682.477 61.6653 682.598 61.8927 682.84 62.054C683.082 62.208 683.368 62.285 683.698 62.285ZM688.824 65.09C688.765 65.09 688.714 65.068 688.67 65.024C688.626 64.98 688.604 64.9287 688.604 64.87C688.604 64.8187 688.622 64.7527 688.659 64.672L689.506 62.659L687.405 57.698C687.368 57.6027 687.35 57.5403 687.35 57.511C687.35 57.445 687.372 57.39 687.416 57.346C687.46 57.302 687.515 57.28 687.581 57.28H688.12C688.237 57.28 688.325 57.3423 688.384 57.467L690.056 61.471L691.772 57.467C691.83 57.3423 691.922 57.28 692.047 57.28H692.564C692.63 57.28 692.685 57.302 692.729 57.346C692.773 57.39 692.795 57.4413 692.795 57.5C692.795 57.522 692.776 57.588 692.74 57.698L689.616 64.903C689.557 65.0277 689.465 65.09 689.341 65.09H688.824ZM694.288 63C694.215 63 694.152 62.978 694.101 62.934C694.057 62.8827 694.035 62.8203 694.035 62.747V55.564C694.035 55.4833 694.057 55.421 694.101 55.377C694.152 55.3257 694.215 55.3 694.288 55.3H694.838C694.955 55.3 695.051 55.3587 695.124 55.476L697.445 59.92L699.788 55.476C699.803 55.432 699.832 55.3917 699.876 55.355C699.927 55.3183 699.99 55.3 700.063 55.3H700.602C700.683 55.3 700.745 55.3257 700.789 55.377C700.84 55.421 700.866 55.4833 700.866 55.564V62.747C700.866 62.8203 700.84 62.8827 700.789 62.934C700.738 62.978 700.675 63 700.602 63H700.063C699.99 63 699.927 62.978 699.876 62.934C699.832 62.8827 699.81 62.8203 699.81 62.747V57.335L697.973 60.921C697.9 61.075 697.782 61.152 697.621 61.152H697.28C697.119 61.152 697.001 61.075 696.928 60.921L695.08 57.335V62.747C695.08 62.8203 695.054 62.8827 695.003 62.934C694.959 62.978 694.9 63 694.827 63H694.288ZM704.76 63.11C704.063 63.11 703.524 62.8863 703.143 62.439C702.761 61.9843 702.571 61.383 702.571 60.635V57.533C702.571 57.4597 702.593 57.401 702.637 57.357C702.688 57.3057 702.75 57.28 702.824 57.28H703.374C703.447 57.28 703.506 57.3057 703.55 57.357C703.601 57.401 703.627 57.4597 703.627 57.533V60.58C703.627 61.6727 704.103 62.219 705.057 62.219C705.519 62.219 705.885 62.076 706.157 61.79C706.428 61.4967 706.564 61.0933 706.564 60.58V57.533C706.564 57.4597 706.586 57.401 706.63 57.357C706.681 57.3057 706.743 57.28 706.817 57.28H707.367C707.44 57.28 707.499 57.3057 707.543 57.357C707.587 57.401 707.609 57.4597 707.609 57.533V62.747C707.609 62.8203 707.587 62.8827 707.543 62.934C707.499 62.978 707.44 63 707.367 63H706.85C706.776 63 706.714 62.978 706.663 62.934C706.619 62.8827 706.597 62.8203 706.597 62.747V62.263C706.391 62.5417 706.142 62.7543 705.849 62.901C705.555 63.0403 705.192 63.11 704.76 63.11ZM709.507 63C709.433 63 709.371 62.978 709.32 62.934C709.276 62.8827 709.254 62.8203 709.254 62.747V55.443C709.254 55.3697 709.276 55.311 709.32 55.267C709.371 55.2157 709.433 55.19 709.507 55.19H710.024C710.097 55.19 710.156 55.2157 710.2 55.267C710.251 55.311 710.277 55.3697 710.277 55.443V62.747C710.277 62.8203 710.251 62.8827 710.2 62.934C710.156 62.978 710.097 63 710.024 63H709.507ZM714.151 63C712.992 63 712.413 62.3547 712.413 61.064V58.16H711.555C711.481 58.16 711.419 58.138 711.368 58.094C711.324 58.0427 711.302 57.9803 711.302 57.907V57.533C711.302 57.4597 711.324 57.401 711.368 57.357C711.419 57.3057 711.481 57.28 711.555 57.28H712.413V55.443C712.413 55.3697 712.435 55.311 712.479 55.267C712.53 55.2157 712.592 55.19 712.666 55.19H713.183C713.256 55.19 713.315 55.2157 713.359 55.267C713.41 55.311 713.436 55.3697 713.436 55.443V57.28H714.8C714.873 57.28 714.932 57.3057 714.976 57.357C715.027 57.401 715.053 57.4597 715.053 57.533V57.907C715.053 57.9803 715.027 58.0427 714.976 58.094C714.932 58.138 714.873 58.16 714.8 58.16H713.436V60.987C713.436 61.3537 713.498 61.6323 713.623 61.823C713.747 62.0063 713.953 62.098 714.239 62.098H714.91C714.983 62.098 715.042 62.1237 715.086 62.175C715.137 62.219 715.163 62.2777 715.163 62.351V62.747C715.163 62.8203 715.137 62.8827 715.086 62.934C715.042 62.978 714.983 63 714.91 63H714.151ZM716.379 56.213C716.306 56.213 716.244 56.191 716.192 56.147C716.148 56.0957 716.126 56.0333 716.126 55.96V55.366C716.126 55.2927 716.148 55.2303 716.192 55.179C716.244 55.1277 716.306 55.102 716.379 55.102H717.072C717.146 55.102 717.208 55.1277 717.259 55.179C717.311 55.2303 717.336 55.2927 717.336 55.366V55.96C717.336 56.0333 717.311 56.0957 717.259 56.147C717.208 56.191 717.146 56.213 717.072 56.213H716.379ZM716.467 63C716.394 63 716.332 62.978 716.28 62.934C716.236 62.8827 716.214 62.8203 716.214 62.747V57.533C716.214 57.4597 716.236 57.401 716.28 57.357C716.332 57.3057 716.394 57.28 716.467 57.28H716.995C717.069 57.28 717.127 57.3057 717.171 57.357C717.223 57.401 717.248 57.4597 717.248 57.533V62.747C717.248 62.8203 717.223 62.8827 717.171 62.934C717.127 62.978 717.069 63 716.995 63H716.467ZM719.142 65.09C719.069 65.09 719.007 65.0643 718.955 65.013C718.911 64.969 718.889 64.9103 718.889 64.837V57.533C718.889 57.4597 718.911 57.401 718.955 57.357C719.007 57.3057 719.069 57.28 719.142 57.28H719.648C719.722 57.28 719.78 57.3057 719.824 57.357C719.876 57.401 719.901 57.4597 719.901 57.533V58.017C720.312 57.4523 720.913 57.17 721.705 57.17C722.475 57.17 723.051 57.412 723.432 57.896C723.821 58.38 724.03 59.0033 724.059 59.766C724.067 59.8467 724.07 59.9713 724.07 60.14C724.07 60.3087 724.067 60.4333 724.059 60.514C724.03 61.2693 723.821 61.8927 723.432 62.384C723.044 62.868 722.468 63.11 721.705 63.11C720.943 63.11 720.349 62.835 719.923 62.285V64.837C719.923 64.9103 719.901 64.969 719.857 65.013C719.813 65.0643 719.755 65.09 719.681 65.09H719.142ZM721.474 62.219C721.995 62.219 722.373 62.0577 722.607 61.735C722.849 61.4123 722.981 60.987 723.003 60.459C723.011 60.3857 723.014 60.2793 723.014 60.14C723.014 58.754 722.501 58.061 721.474 58.061C720.968 58.061 720.587 58.2297 720.33 58.567C720.081 58.897 719.945 59.293 719.923 59.755L719.912 60.173L719.923 60.602C719.938 61.0347 720.077 61.4123 720.341 61.735C720.605 62.0577 720.983 62.219 721.474 62.219ZM725.695 63C725.622 63 725.56 62.978 725.508 62.934C725.464 62.8827 725.442 62.8203 725.442 62.747V55.443C725.442 55.3697 725.464 55.311 725.508 55.267C725.56 55.2157 725.622 55.19 725.695 55.19H726.212C726.286 55.19 726.344 55.2157 726.388 55.267C726.44 55.311 726.465 55.3697 726.465 55.443V62.747C726.465 62.8203 726.44 62.8827 726.388 62.934C726.344 62.978 726.286 63 726.212 63H725.695ZM729.107 65.09C729.048 65.09 728.997 65.068 728.953 65.024C728.909 64.98 728.887 64.9287 728.887 64.87C728.887 64.8187 728.905 64.7527 728.942 64.672L729.789 62.659L727.688 57.698C727.651 57.6027 727.633 57.5403 727.633 57.511C727.633 57.445 727.655 57.39 727.699 57.346C727.743 57.302 727.798 57.28 727.864 57.28H728.403C728.52 57.28 728.608 57.3423 728.667 57.467L730.339 61.471L732.055 57.467C732.114 57.3423 732.205 57.28 732.33 57.28H732.847C732.913 57.28 732.968 57.302 733.012 57.346C733.056 57.39 733.078 57.4413 733.078 57.5C733.078 57.522 733.06 57.588 733.023 57.698L729.899 64.903C729.84 65.0277 729.749 65.09 729.624 65.09H729.107ZM734.571 63C734.498 63 734.436 62.978 734.384 62.934C734.34 62.8827 734.318 62.8203 734.318 62.747V55.564C734.318 55.4833 734.34 55.421 734.384 55.377C734.436 55.3257 734.498 55.3 734.571 55.3H737.585C738.37 55.3 738.96 55.487 739.356 55.861C739.752 56.235 739.95 56.7263 739.95 57.335C739.95 57.7457 739.855 58.0867 739.664 58.358C739.481 58.6293 739.261 58.8273 739.004 58.952C739.312 59.106 739.573 59.3443 739.785 59.667C739.998 59.9897 740.104 60.36 740.104 60.778C740.104 61.1887 740.009 61.5627 739.818 61.9C739.635 62.2373 739.36 62.505 738.993 62.703C738.627 62.901 738.187 63 737.673 63H734.571ZM737.42 58.556C737.882 58.556 738.234 58.4497 738.476 58.237C738.726 58.0243 738.85 57.7273 738.85 57.346C738.85 56.972 738.729 56.686 738.487 56.488C738.245 56.29 737.89 56.191 737.42 56.191H735.396V58.556H737.42ZM737.53 62.109C737.992 62.109 738.352 61.9843 738.608 61.735C738.872 61.4857 739.004 61.1667 739.004 60.778C739.004 60.3747 738.872 60.052 738.608 59.81C738.352 59.5607 737.992 59.436 737.53 59.436H735.396V62.109H737.53ZM742.524 65.09C742.465 65.09 742.414 65.068 742.37 65.024C742.326 64.98 742.304 64.9287 742.304 64.87C742.304 64.8187 742.322 64.7527 742.359 64.672L743.206 62.659L741.105 57.698C741.068 57.6027 741.05 57.5403 741.05 57.511C741.05 57.445 741.072 57.39 741.116 57.346C741.16 57.302 741.215 57.28 741.281 57.28H741.82C741.937 57.28 742.025 57.3423 742.084 57.467L743.756 61.471L745.472 57.467C745.531 57.3423 745.622 57.28 745.747 57.28H746.264C746.33 57.28 746.385 57.302 746.429 57.346C746.473 57.39 746.495 57.4413 746.495 57.5C746.495 57.522 746.477 57.588 746.44 57.698L743.316 64.903C743.257 65.0277 743.166 65.09 743.041 65.09H742.524ZM747.57 63C747.497 63 747.435 62.978 747.383 62.934C747.339 62.8827 747.317 62.8203 747.317 62.747V62.395C747.317 62.2263 747.409 62.065 747.592 61.911L749.924 59.579C750.489 59.1097 750.878 58.7283 751.09 58.435C751.303 58.1343 751.409 57.819 751.409 57.489C751.409 57.0637 751.288 56.73 751.046 56.488C750.812 56.246 750.467 56.125 750.012 56.125C749.587 56.125 749.246 56.2533 748.989 56.51C748.733 56.7593 748.575 57.093 748.516 57.511C748.502 57.599 748.465 57.665 748.406 57.709C748.355 57.7457 748.296 57.764 748.23 57.764H747.658C747.592 57.764 747.537 57.7457 747.493 57.709C747.449 57.665 747.427 57.6137 747.427 57.555C747.442 57.159 747.548 56.7813 747.746 56.422C747.944 56.0553 748.234 55.7583 748.615 55.531C749.004 55.2963 749.47 55.179 750.012 55.179C750.841 55.179 751.464 55.3953 751.882 55.828C752.308 56.2533 752.52 56.796 752.52 57.456C752.52 57.918 752.403 58.336 752.168 58.71C751.941 59.0767 751.585 59.4727 751.101 59.898L748.989 62.043H752.421C752.502 62.043 752.564 62.0687 752.608 62.12C752.66 62.164 752.685 62.2227 752.685 62.296V62.747C752.685 62.8203 752.66 62.8827 752.608 62.934C752.557 62.978 752.495 63 752.421 63H747.57ZM756.435 64.749C755.805 64.749 755.299 64.5693 754.917 64.21C754.543 63.8507 754.272 63.297 754.103 62.549C753.942 61.801 753.861 60.8183 753.861 59.601C753.861 58.3837 753.942 57.401 754.103 56.653C754.272 55.905 754.543 55.355 754.917 55.003C755.299 54.6437 755.805 54.464 756.435 54.464C756.509 54.464 756.567 54.4897 756.611 54.541C756.663 54.585 756.688 54.6437 756.688 54.717V55.102C756.688 55.168 756.666 55.2267 756.622 55.278C756.578 55.3293 756.527 55.355 756.468 55.355C756.05 55.3623 755.724 55.5017 755.489 55.773C755.255 56.0443 755.086 56.4843 754.983 57.093C754.881 57.7017 754.829 58.5377 754.829 59.601C754.829 60.6643 754.881 61.5003 754.983 62.109C755.086 62.7177 755.255 63.1577 755.489 63.429C755.724 63.7077 756.05 63.8507 756.468 63.858C756.527 63.858 756.578 63.8837 756.622 63.935C756.666 63.9863 756.688 64.045 756.688 64.111V64.496C756.688 64.5693 756.663 64.628 756.611 64.672C756.567 64.7233 756.509 64.749 756.435 64.749ZM757.479 64.749C757.413 64.749 757.354 64.7233 757.303 64.672C757.252 64.628 757.226 64.5693 757.226 64.496V64.111C757.226 64.045 757.248 63.9863 757.292 63.935C757.343 63.8837 757.398 63.858 757.457 63.858C757.868 63.8507 758.19 63.7077 758.425 63.429C758.667 63.1577 758.839 62.7177 758.942 62.109C759.045 61.5003 759.096 60.6643 759.096 59.601C759.096 58.5377 759.045 57.7017 758.942 57.093C758.839 56.4843 758.667 56.0443 758.425 55.773C758.19 55.5017 757.868 55.3623 757.457 55.355C757.398 55.355 757.343 55.3293 757.292 55.278C757.248 55.2267 757.226 55.168 757.226 55.102V54.717C757.226 54.6437 757.252 54.585 757.303 54.541C757.354 54.4897 757.413 54.464 757.479 54.464C758.117 54.464 758.623 54.6437 758.997 55.003C759.371 55.355 759.639 55.905 759.8 56.653C759.969 57.3937 760.053 58.3763 760.053 59.601C760.053 60.8257 759.969 61.812 759.8 62.56C759.639 63.3007 759.371 63.8507 758.997 64.21C758.623 64.5693 758.117 64.749 757.479 64.749ZM764.398 59.15C764.324 59.15 764.262 59.128 764.211 59.084C764.167 59.0327 764.145 58.9703 764.145 58.897V58.127C764.145 58.0537 764.167 57.995 764.211 57.951C764.262 57.8997 764.324 57.874 764.398 57.874H765.19C765.263 57.874 765.322 57.8997 765.366 57.951C765.417 57.995 765.443 58.0537 765.443 58.127V58.897C765.443 58.9703 765.417 59.0327 765.366 59.084C765.322 59.128 765.263 59.15 765.19 59.15H764.398ZM764.398 63C764.324 63 764.262 62.978 764.211 62.934C764.167 62.8827 764.145 62.8203 764.145 62.747V61.977C764.145 61.9037 764.167 61.845 764.211 61.801C764.262 61.7497 764.324 61.724 764.398 61.724H765.19C765.263 61.724 765.322 61.7497 765.366 61.801C765.417 61.845 765.443 61.9037 765.443 61.977V62.747C765.443 62.8203 765.417 62.8827 765.366 62.934C765.322 62.978 765.263 63 765.19 63H764.398Z" fill="black"/>
<rect x="800.5" y="44.5" width="39" height="31" fill="#C4C4C4" stroke="black"/>
<line x1="790.277" y1="53.584" x2="799.277" y2="59.584" stroke="black"/>
<line x1="789.776" y1="64.5528" x2="799.776" y2="59.5528" stroke="black"/>
<line x1="783" y1="57.5" x2="796" y2="57.5" stroke="black"/>
<line x1="783" y1="61.5" x2="796" y2="61.5" stroke="black"/>
<line x1="847.277" y1="53.584" x2="856.277" y2="59.584" stroke="black"/>
<line x1="846.776" y1="64.5528" x2="856.776" y2="59.5528" stroke="black"/>
<line x1="840" y1="57.5" x2="853" y2="57.5" stroke="black"/>
<line x1="840" y1="61.5" x2="853" y2="61.5" stroke="black"/>
<path d="M826.792 51.264C826.792 51.76 826.648 52.008 826.36 52.008C826.28 52.008 826.2 51.944 826.12 51.816C825.976 51.56 825.736 51.432 825.4 51.432C824.664 51.432 823.976 51.96 823.336 53.016C823.208 53.224 822.808 53.976 822.136 55.272H822.424C824.168 55.272 825.328 55.248 825.904 55.2C825.968 55.216 826 55.248 826 55.296C826 55.424 825.432 55.6 824.296 55.824C823.224 56 822.344 56.152 821.656 56.28C821.16 57.304 820.56 58.52 819.856 59.928C818.416 62.616 817.464 64.288 817 64.944C815.608 66.928 814.248 67.92 812.92 67.92C812.456 67.92 812.056 67.72 811.72 67.32C811.368 66.936 811.184 66.504 811.168 66.024C811.216 65.832 811.288 65.736 811.384 65.736C811.432 65.736 811.464 65.792 811.48 65.904C811.576 66.32 811.736 66.64 811.96 66.864C812.184 67.088 812.416 67.2 812.656 67.2C814.016 67.2 815.256 66.36 816.376 64.68C817.016 63.72 817.888 61.992 818.992 59.496L820.288 56.376C818.688 56.36 817.888 56.168 817.888 55.8C817.888 55.64 817.96 55.504 818.104 55.392C818.264 55.28 818.4 55.224 818.512 55.224L820.768 55.272C822.336 51.784 823.776 50.04 825.088 50.04C825.584 50.04 826.088 50.28 826.6 50.76C826.728 50.888 826.792 51.056 826.792 51.264Z" fill="black"/>
<line x1="884.003" y1="321.5" x2="1064" y2="322.578" stroke="black"/>
<rect x="27.5" y="20.5" width="593" height="323" fill="#C4C4C4" stroke="black"/>
<line x1="438.5" y1="21" x2="438.5" y2="343" stroke="black"/>
<path d="M477.176 41C477.096 41 477.028 40.976 476.972 40.928C476.924 40.872 476.9 40.804 476.9 40.724V32.756C476.9 32.676 476.924 32.612 476.972 32.564C477.028 32.508 477.096 32.48 477.176 32.48H477.74C477.82 32.48 477.884 32.508 477.932 32.564C477.988 32.612 478.016 32.676 478.016 32.756V40.724C478.016 40.804 477.988 40.872 477.932 40.928C477.884 40.976 477.82 41 477.74 41H477.176ZM482.362 41.12C481.482 41.12 480.798 40.872 480.31 40.376C479.83 39.88 479.574 39.22 479.542 38.396L479.53 37.88L479.542 37.364C479.574 36.548 479.834 35.892 480.322 35.396C480.81 34.892 481.49 34.64 482.362 34.64C483.234 34.64 483.914 34.892 484.402 35.396C484.89 35.892 485.15 36.548 485.182 37.364C485.19 37.452 485.194 37.624 485.194 37.88C485.194 38.136 485.19 38.308 485.182 38.396C485.15 39.22 484.89 39.88 484.402 40.376C483.922 40.872 483.242 41.12 482.362 41.12ZM482.362 40.196C482.866 40.196 483.262 40.036 483.55 39.716C483.846 39.396 484.006 38.936 484.03 38.336C484.038 38.256 484.042 38.104 484.042 37.88C484.042 37.656 484.038 37.504 484.03 37.424C484.006 36.824 483.846 36.364 483.55 36.044C483.262 35.724 482.866 35.564 482.362 35.564C481.858 35.564 481.458 35.724 481.162 36.044C480.866 36.364 480.71 36.824 480.694 37.424L480.682 37.88L480.694 38.336C480.71 38.936 480.866 39.396 481.162 39.716C481.458 40.036 481.858 40.196 482.362 40.196ZM489.217 41.12C488.361 41.12 487.689 40.88 487.201 40.4C486.721 39.912 486.465 39.232 486.433 38.36L486.421 37.88L486.433 37.4C486.465 36.528 486.721 35.852 487.201 35.372C487.689 34.884 488.361 34.64 489.217 34.64C489.793 34.64 490.281 34.744 490.681 34.952C491.081 35.16 491.377 35.416 491.569 35.72C491.769 36.024 491.877 36.328 491.893 36.632C491.901 36.712 491.877 36.776 491.821 36.824C491.765 36.872 491.697 36.896 491.617 36.896H491.041C490.961 36.896 490.901 36.88 490.861 36.848C490.821 36.816 490.781 36.752 490.741 36.656C490.605 36.272 490.413 36 490.165 35.84C489.917 35.672 489.605 35.588 489.229 35.588C488.733 35.588 488.337 35.744 488.041 36.056C487.753 36.36 487.597 36.828 487.573 37.46L487.561 37.892L487.573 38.3C487.597 38.94 487.753 39.412 488.041 39.716C488.329 40.02 488.725 40.172 489.229 40.172C489.605 40.172 489.917 40.092 490.165 39.932C490.413 39.764 490.605 39.488 490.741 39.104C490.781 39.008 490.821 38.944 490.861 38.912C490.901 38.872 490.961 38.852 491.041 38.852H491.617C491.697 38.852 491.765 38.88 491.821 38.936C491.877 38.984 491.901 39.048 491.893 39.128C491.877 39.424 491.769 39.728 491.569 40.04C491.377 40.344 491.081 40.6 490.681 40.808C490.289 41.016 489.801 41.12 489.217 41.12ZM495.058 41.12C494.666 41.12 494.302 41.04 493.966 40.88C493.63 40.72 493.362 40.504 493.162 40.232C492.97 39.952 492.874 39.644 492.874 39.308C492.874 38.78 493.09 38.348 493.522 38.012C493.962 37.668 494.554 37.444 495.298 37.34L497.086 37.088V36.74C497.086 35.924 496.618 35.516 495.682 35.516C495.33 35.516 495.042 35.592 494.818 35.744C494.594 35.888 494.426 36.06 494.314 36.26C494.29 36.332 494.258 36.384 494.218 36.416C494.186 36.448 494.138 36.464 494.074 36.464H493.558C493.486 36.464 493.422 36.44 493.366 36.392C493.318 36.336 493.294 36.272 493.294 36.2C493.302 36.008 493.39 35.792 493.558 35.552C493.734 35.304 494.002 35.092 494.362 34.916C494.722 34.732 495.166 34.64 495.694 34.64C496.59 34.64 497.234 34.852 497.626 35.276C498.018 35.692 498.214 36.212 498.214 36.836V40.724C498.214 40.804 498.186 40.872 498.13 40.928C498.082 40.976 498.018 41 497.938 41H497.386C497.306 41 497.238 40.976 497.182 40.928C497.134 40.872 497.11 40.804 497.11 40.724V40.208C496.934 40.464 496.678 40.68 496.342 40.856C496.006 41.032 495.578 41.12 495.058 41.12ZM495.31 40.22C495.83 40.22 496.254 40.052 496.582 39.716C496.918 39.372 497.086 38.88 497.086 38.24V37.904L495.694 38.108C495.126 38.188 494.698 38.324 494.41 38.516C494.122 38.7 493.978 38.936 493.978 39.224C493.978 39.544 494.11 39.792 494.374 39.968C494.638 40.136 494.95 40.22 495.31 40.22ZM500.227 41C500.147 41 500.079 40.976 500.023 40.928C499.975 40.872 499.951 40.804 499.951 40.724V32.756C499.951 32.676 499.975 32.612 500.023 32.564C500.079 32.508 500.147 32.48 500.227 32.48H500.791C500.871 32.48 500.935 32.508 500.983 32.564C501.039 32.612 501.067 32.676 501.067 32.756V40.724C501.067 40.804 501.039 40.872 500.983 40.928C500.935 40.976 500.871 41 500.791 41H500.227ZM506.23 41C506.15 41 506.082 40.976 506.026 40.928C505.978 40.872 505.954 40.804 505.954 40.724V32.888C505.954 32.8 505.978 32.732 506.026 32.684C506.082 32.628 506.15 32.6 506.23 32.6H506.83C506.958 32.6 507.062 32.664 507.142 32.792L509.674 37.64L512.23 32.792C512.246 32.744 512.278 32.7 512.326 32.66C512.382 32.62 512.45 32.6 512.53 32.6H513.118C513.206 32.6 513.274 32.628 513.322 32.684C513.378 32.732 513.406 32.8 513.406 32.888V40.724C513.406 40.804 513.378 40.872 513.322 40.928C513.266 40.976 513.198 41 513.118 41H512.53C512.45 41 512.382 40.976 512.326 40.928C512.278 40.872 512.254 40.804 512.254 40.724V34.82L510.25 38.732C510.17 38.9 510.042 38.984 509.866 38.984H509.494C509.318 38.984 509.19 38.9 509.11 38.732L507.094 34.82V40.724C507.094 40.804 507.066 40.872 507.01 40.928C506.962 40.976 506.898 41 506.818 41H506.23ZM517.822 41.12C516.998 41.12 516.338 40.868 515.842 40.364C515.354 39.852 515.086 39.156 515.038 38.276L515.026 37.868L515.038 37.472C515.094 36.608 515.366 35.92 515.854 35.408C516.35 34.896 517.002 34.64 517.81 34.64C518.698 34.64 519.386 34.924 519.874 35.492C520.362 36.052 520.605 36.812 520.605 37.772V37.976C520.605 38.056 520.578 38.124 520.522 38.18C520.474 38.228 520.41 38.252 520.33 38.252H516.178V38.36C516.202 38.88 516.358 39.324 516.646 39.692C516.942 40.052 517.33 40.232 517.81 40.232C518.178 40.232 518.478 40.16 518.71 40.016C518.95 39.864 519.126 39.708 519.238 39.548C519.31 39.452 519.362 39.396 519.394 39.38C519.434 39.356 519.502 39.344 519.598 39.344H520.186C520.258 39.344 520.318 39.364 520.366 39.404C520.414 39.444 520.438 39.5 520.438 39.572C520.438 39.748 520.326 39.96 520.102 40.208C519.886 40.456 519.578 40.672 519.178 40.856C518.786 41.032 518.334 41.12 517.822 41.12ZM519.466 37.424V37.388C519.466 36.836 519.314 36.388 519.01 36.044C518.714 35.692 518.314 35.516 517.81 35.516C517.306 35.516 516.906 35.692 516.61 36.044C516.322 36.388 516.178 36.836 516.178 37.388V37.424H519.466ZM522.316 41C522.236 41 522.168 40.976 522.112 40.928C522.064 40.872 522.04 40.804 522.04 40.724V35.036C522.04 34.956 522.064 34.892 522.112 34.844C522.168 34.788 522.236 34.76 522.316 34.76H522.856C522.936 34.76 523 34.788 523.048 34.844C523.104 34.892 523.132 34.956 523.132 35.036V35.456C523.548 34.912 524.128 34.64 524.872 34.64C525.76 34.64 526.388 35.008 526.756 35.744C526.948 35.408 527.22 35.14 527.572 34.94C527.924 34.74 528.32 34.64 528.76 34.64C529.416 34.64 529.952 34.864 530.368 35.312C530.784 35.76 530.992 36.408 530.992 37.256V40.724C530.992 40.804 530.964 40.872 530.908 40.928C530.86 40.976 530.796 41 530.716 41H530.152C530.072 41 530.004 40.976 529.948 40.928C529.9 40.872 529.876 40.804 529.876 40.724V37.364C529.876 36.74 529.744 36.292 529.48 36.02C529.224 35.748 528.884 35.612 528.46 35.612C528.084 35.612 527.76 35.752 527.488 36.032C527.216 36.304 527.08 36.748 527.08 37.364V40.724C527.08 40.804 527.052 40.872 526.996 40.928C526.948 40.976 526.884 41 526.804 41H526.24C526.16 41 526.092 40.976 526.036 40.928C525.988 40.872 525.964 40.804 525.964 40.724V37.364C525.964 36.74 525.828 36.292 525.556 36.02C525.292 35.748 524.956 35.612 524.548 35.612C524.172 35.612 523.848 35.752 523.576 36.032C523.304 36.304 523.168 36.744 523.168 37.352V40.724C523.168 40.804 523.14 40.872 523.084 40.928C523.036 40.976 522.972 41 522.892 41H522.316ZM535.26 41.12C534.38 41.12 533.696 40.872 533.208 40.376C532.728 39.88 532.472 39.22 532.44 38.396L532.428 37.88L532.44 37.364C532.472 36.548 532.732 35.892 533.22 35.396C533.708 34.892 534.388 34.64 535.26 34.64C536.132 34.64 536.812 34.892 537.3 35.396C537.788 35.892 538.048 36.548 538.08 37.364C538.088 37.452 538.092 37.624 538.092 37.88C538.092 38.136 538.088 38.308 538.08 38.396C538.048 39.22 537.788 39.88 537.3 40.376C536.82 40.872 536.14 41.12 535.26 41.12ZM535.26 40.196C535.764 40.196 536.16 40.036 536.448 39.716C536.744 39.396 536.904 38.936 536.928 38.336C536.936 38.256 536.94 38.104 536.94 37.88C536.94 37.656 536.936 37.504 536.928 37.424C536.904 36.824 536.744 36.364 536.448 36.044C536.16 35.724 535.764 35.564 535.26 35.564C534.756 35.564 534.356 35.724 534.06 36.044C533.764 36.364 533.608 36.824 533.592 37.424L533.58 37.88L533.592 38.336C533.608 38.936 533.764 39.396 534.06 39.716C534.356 40.036 534.756 40.196 535.26 40.196ZM539.871 41C539.791 41 539.723 40.976 539.667 40.928C539.619 40.872 539.595 40.804 539.595 40.724V35.048C539.595 34.968 539.619 34.9 539.667 34.844C539.723 34.788 539.791 34.76 539.871 34.76H540.423C540.503 34.76 540.571 34.788 540.627 34.844C540.683 34.9 540.711 34.968 540.711 35.048V35.576C541.039 35.032 541.599 34.76 542.391 34.76H542.859C542.939 34.76 543.003 34.788 543.051 34.844C543.107 34.892 543.135 34.956 543.135 35.036V35.528C543.135 35.608 543.107 35.672 543.051 35.72C543.003 35.768 542.939 35.792 542.859 35.792H542.139C541.707 35.792 541.367 35.92 541.119 36.176C540.871 36.424 540.747 36.764 540.747 37.196V40.724C540.747 40.804 540.719 40.872 540.663 40.928C540.607 40.976 540.539 41 540.459 41H539.871ZM545.246 43.28C545.182 43.28 545.126 43.256 545.078 43.208C545.03 43.16 545.006 43.104 545.006 43.04C545.006 42.984 545.026 42.912 545.066 42.824L545.99 40.628L543.698 35.216C543.658 35.112 543.638 35.044 543.638 35.012C543.638 34.94 543.662 34.88 543.71 34.832C543.758 34.784 543.818 34.76 543.89 34.76H544.478C544.606 34.76 544.702 34.828 544.766 34.964L546.59 39.332L548.462 34.964C548.526 34.828 548.626 34.76 548.762 34.76H549.326C549.398 34.76 549.458 34.784 549.506 34.832C549.554 34.88 549.578 34.936 549.578 35C549.578 35.024 549.558 35.096 549.518 35.216L546.11 43.076C546.046 43.212 545.946 43.28 545.81 43.28H545.246Z" fill="black"/>
</svg>
